<?xml version="1.0" encoding="UTF-8" standalone="no"?>
<!DOCTYPE svg PUBLIC "-//W3C//DTD SVG 1.1//EN"
 "http://www.w3.org/Graphics/SVG/1.1/DTD/svg11.dtd">
<!-- Generated by graphviz version 2.26.3 (20100126.1600)
 -->
<!-- Title: G Pages: 1 -->
<svg width="286pt" height="76pt"
 viewBox="0.00 0.00 286.00 76.00" xmlns="http://www.w3.org/2000/svg" xmlns:xlink="http://www.w3.org/1999/xlink">
<g id="graph1" class="graph" transform="scale(1 1) rotate(0) translate(4 72)">
<title>G</title>
<polygon fill="white" stroke="white" points="-4,5 -4,-72 283,-72 283,5 -4,5"/>
<!-- step1_1 -->
<g id="node1" class="node"><title>step1_1</title>
<polygon fill="#fbb4ae" stroke="#808080" points="0,-1 0,-67 130,-67 130,-1 0,-1"/>
<text text-anchor="middle" x="65" y="-55.8" font-family="Arial" font-size="8.00">step1_1</text>
<polyline fill="none" stroke="#808080" points="0,-49 130,-49 "/>
<text text-anchor="middle" x="65" y="-37.8" font-family="Arial" font-size="8.00">sourceFile=testData/file1</text>
<text text-anchor="middle" x="65" y="-27.8" font-family="Arial" font-size="8.00">cores=4</text>
<text text-anchor="middle" x="65" y="-17.8" font-family="Arial" font-size="8.00">targetFile=CopyOftestData/file1</text>
<text text-anchor="middle" x="65" y="-7.8" font-family="Arial" font-size="8.00">taskId=step1_1</text>
</g>
<!-- step1_2 -->
<g id="node2" class="node"><title>step1_2</title>
<polygon fill="#b3cde3" stroke="#808080" points="148,-1 148,-67 278,-67 278,-1 148,-1"/>
<text text-anchor="middle" x="213" y="-55.8" font-family="Arial" font-size="8.00">step1_2</text>
<polyline fill="none" stroke="#808080" points="148,-49 278,-49 "/>
<text text-anchor="middle" x="213" y="-37.8" font-family="Arial" font-size="8.00">sourceFile=testData/file2</text>
<text text-anchor="middle" x="213" y="-27.8" font-family="Arial" font-size="8.00">cores=4</text>
<text text-anchor="middle" x="213" y="-17.8" font-family="Arial" font-size="8.00">targetFile=CopyOftestData/file2</text>
<text text-anchor="middle" x="213" y="-7.8" font-family="Arial" font-size="8.00">taskId=step1_2</text>
</g>
</g>
</svg>
