<?xml version="1.0" encoding="UTF-8" standalone="no"?>
<svg
   xmlns:dc="http://purl.org/dc/elements/1.1/"
   xmlns:cc="http://creativecommons.org/ns#"
   xmlns:rdf="http://www.w3.org/1999/02/22-rdf-syntax-ns#"
   xmlns:svg="http://www.w3.org/2000/svg"
   xmlns="http://www.w3.org/2000/svg"
   xmlns:sodipodi="http://sodipodi.sourceforge.net/DTD/sodipodi-0.dtd"
   xmlns:inkscape="http://www.inkscape.org/namespaces/inkscape"
   width="132px"
   height="43px"
   viewBox="0 0 132 43"
   version="1.1"
   id="svg1017"
   sodipodi:docname="Logo_Blue_Small.svg"
   inkscape:export-filename="/home/jeroen/code/molgenis/molgenis-core-ui/src/main/resources/img/Logo_Blue_Small.png"
   inkscape:export-xdpi="146.28572"
   inkscape:export-ydpi="146.28572"
   inkscape:version="1.0.2 (e86c870879, 2021-01-15)">
  <metadata
     id="metadata1021">
    <rdf:RDF>
      <cc:Work
         rdf:about="">
        <dc:format>image/svg+xml</dc:format>
        <dc:type
           rdf:resource="http://purl.org/dc/dcmitype/StillImage" />
        <dc:title>Assets/Logo_Blue_Small</dc:title>
      </cc:Work>
    </rdf:RDF>
  </metadata>
  <sodipodi:namedview
     pagecolor="#ffffff"
     bordercolor="#666666"
     borderopacity="1"
     objecttolerance="10"
     gridtolerance="10"
     guidetolerance="10"
     inkscape:pageopacity="0"
     inkscape:pageshadow="2"
     inkscape:window-width="1617"
     inkscape:window-height="930"
     id="namedview1019"
     showgrid="false"
     inkscape:pagecheckerboard="true"
     inkscape:zoom="6.0984848"
     inkscape:cx="66"
     inkscape:cy="15.596894"
     inkscape:window-x="2098"
     inkscape:window-y="67"
     inkscape:window-maximized="0"
     inkscape:current-layer="Symbols" />
  <!-- Generator: Sketch 50.2 (55047) - http://www.bohemiancoding.com/sketch -->
  <title
     id="title979">Assets/Logo_Blue_Small</title>
  <desc
     id="desc981">Created with Sketch.</desc>
  <defs
     id="defs983" />
  <g
     id="Symbols"
     stroke="none"
     stroke-width="1"
     fill="none"
     fill-rule="evenodd">
    <g
       id="Assets/LogoIcon_Blue"
       transform="translate(0.515625,0.771484)">
      <g
         transform="translate(0.246701,0.06643)"
         id="g989">
        <path
           d="m 41.599381,20.799703 c 0,11.487343 -9.312361,20.799703 -20.799703,20.799703 C 9.3123349,41.599406 -2.5135593e-5,32.287046 -2.5135593e-5,20.799703 -2.5135593e-5,9.31236 9.3123349,0 20.799678,0 32.28702,0 41.599381,9.31236 41.599381,20.799703"
           id="Fill-1"
           fill="#017ffd" />
        <path
           d="m 14.792183,25.43923 c 0,2.058731 -1.668878,3.727609 -3.727608,3.727609 -2.058731,0 -3.7276086,-1.668878 -3.7276086,-3.727609 0,-2.05873 1.6688776,-3.727608 3.7276086,-3.727608 2.05873,0 3.727608,1.668878 3.727608,3.727608"
           id="Fill-4"
           fill="#ffffff" />
        <path
           d="m 22.333414,22.076239 c -3.035877,-1.997149 -3.324182,-3.656726 -2.79181,-6.722388 l -0.0018,8.79e-4 c 0.03632,-0.208499 0.05618,-0.422529 0.05618,-0.641334 0,-2.058731 -1.669003,-3.727609 -3.727608,-3.727609 -2.058731,0 -3.727609,1.668878 -3.727609,3.727609 0,1.403948 0.776439,2.626041 1.922999,3.26172 v 1.25e-4 c 3.486558,2.210927 3.1931,4.545898 2.961601,7.005164 -0.0098,0.0793 -0.0176,0.159234 -0.02224,0.23992 -2.51e-4,0.0028 -5.03e-4,0.0055 -6.28e-4,0.0082 -0.0038,0.06975 -0.0062,0.140005 -0.0062,0.210762 0,2.05873 1.668878,3.727608 3.727609,3.727608 2.058605,0 3.727608,-1.668878 3.727608,-3.727608 0,-1.482246 -0.865293,-2.762276 -2.118176,-3.363017"
           id="Fill-6"
           fill="#ffffff" />
        <path
           d="m 32.173169,22.069553 c -3.035877,-1.997149 -3.324182,-3.656726 -2.79181,-6.722263 l -0.0018,7.54e-4 c 0.0362,-0.2085 0.05618,-0.422529 0.05618,-0.641209 0,-2.05873 -1.669003,-3.727734 -3.727608,-3.727734 -2.058731,0 -3.727734,1.669004 -3.727734,3.727734 0,1.403823 0.776564,2.625916 1.923124,3.26172 h -1.26e-4 c 3.486684,2.210927 3.193226,4.546024 2.961727,7.00529 -0.0098,0.07918 -0.0176,0.159108 -0.02224,0.239794 -2.51e-4,0.0028 -5.03e-4,0.0055 -6.28e-4,0.0082 -0.0039,0.06975 -0.0063,0.140005 -0.0063,0.210762 0,2.05873 1.669003,3.727608 3.727608,3.727608 2.058731,0 3.727734,-1.668878 3.727734,-3.727608 0,-1.482246 -0.865293,-2.762276 -2.118176,-3.363017"
           id="Fill-8"
           fill="#ffffff" />
      </g>
      <g
         id="Icon">
        <path
           d="M 21.106624,42 C 32.704637,42 42.106691,32.59808 42.106691,21.000067 42.106691,9.4020541 32.704637,0 21.106624,0 8.9417425,0 0.10669095,9.4020541 0.10669095,21.000067 0.10669095,32.59808 9.5086107,42 21.106624,42"
           id="path991"
           fill="#017ffd" />
        <g
           transform="translate(8.609758,11.079755)"
           id="g1000">
          <path
             d="m 12.514659,18.317345 c -0.295916,0 -0.596977,-0.05204 -0.890395,-0.162144 C 10.312413,17.66333 9.6478138,16.201095 10.139685,14.889096 L 15.031933,1.8433469 c 0.492164,-1.31155761 1.954841,-1.97689156 3.265957,-1.48457972 1.311999,0.49187084 1.976598,1.95410612 1.48458,3.26610462 L 14.890369,16.670621 c -0.381913,1.01814 -1.348749,1.646724 -2.37571,1.646724"
             id="path993"
             fill="#9cd0f9" />
          <path
             d="m 2.7303106,18.317345 c -0.2959163,0 -0.5969777,-0.05204 -0.890395,-0.162144 C 0.52806405,17.66333 -0.13653489,16.201095 0.35533594,14.889096 L 5.2475838,1.8433469 C 5.7394546,0.53178929 7.2016899,-0.13354466 8.5135415,0.35876718 9.82554,0.85063802 10.490139,2.3128733 9.9981211,3.6248718 L 5.1060203,16.670621 c -0.3819129,1.01814 -1.3487493,1.646724 -2.3757097,1.646724"
             id="path995"
             fill="#9cd0f9" />
          <path
             d="m 12.51538,18.317345 c -1.026961,0 -1.993503,-0.628143 -2.37571,-1.646724 L 5.2475691,3.6248718 C 4.7555513,2.3128733 5.4201502,0.85063802 6.7321488,0.35876718 8.0450294,-0.13163363 9.5062356,0.53149528 9.9981064,1.8433469 L 14.890354,14.889096 c 0.491871,1.311999 -0.172728,2.774234 -1.484579,3.266105 -0.293418,0.109811 -0.594479,0.162144 -0.890395,0.162144"
             id="path997"
             fill="#fafafa" />
          <path
             d="m 22.299743,18.317345 c -1.02696,0 -1.993503,-0.628143 -2.37571,-1.646724 l -4.8921,-13.0457492 c -0.492018,-1.3119985 0.172581,-2.77423378 1.484579,-3.26610462 1.312146,-0.49040081 2.773793,0.1727281 3.265958,1.48457972 l 4.892248,13.0457491 c 0.491871,1.311999 -0.172728,2.774234 -1.48458,3.266105 -0.293417,0.109811 -0.594479,0.162144 -0.890395,0.162144"
             id="Fill-10"
             fill="#fafafa" />
        </g>
      </g>
    </g>
    <g
       id="name"
       transform="translate(52.703527,12.076697)"
       fill="#017ffd"
       style="fill:#ffffff;fill-opacity:1"
       inkscape:export-xdpi="146"
       inkscape:export-ydpi="146">
      <polygon
         id="Fill-13"
         points="9.6736904,18.111555 9.6736904,3.7606533 6.8447529,18.08595 4.9325796,18.08595 1.9765297,3.8877657 1.9765297,18.111555 0.24313682,18.111555 0.24313682,0.2682621 3.0213207,0.2682621 5.9526797,14.5172 8.7816172,0.2682621 11.560258,0.2682621 11.560258,18.111555 "
         style="fill:#ffffff;fill-opacity:1" />
      <path
         d="m 16.082397,13.90514 c 0,1.631428 0.687688,2.574712 2.115645,2.574712 1.453105,0 2.115187,-0.943284 2.115187,-2.574712 V 4.4741289 c 0,-1.6058232 -0.662082,-2.5747125 -2.115187,-2.5747125 -1.427957,0 -2.115645,0.9688893 -2.115645,2.5747125 z M 14.119471,4.5765505 c 0,-2.7274304 1.350683,-4.48688594 4.078571,-4.48688594 2.752579,0 4.10372,1.75945554 4.10372,4.48688594 v 9.2270825 c 0,2.701825 -1.351141,4.485971 -4.10372,4.485971 -2.727888,0 -4.078571,-1.784146 -4.078571,-4.485971 z"
         id="Fill-15"
         style="fill:#ffffff;fill-opacity:1" />
      <polygon
         id="Fill-18"
         points="31.56588,18.111418 25.150818,18.111418 25.150818,0.26858216 27.13935,0.26858216 27.13935,16.301209 31.56588,16.301209 "
         style="fill:#ffffff;fill-opacity:1" />
      <path
         d="M 41.137218,4.5764133 V 6.1058776 H 39.251107 V 4.4739918 c 0,-1.605366 -0.637848,-2.5742554 -2.090039,-2.5742554 -1.4275,0 -2.090954,0.9688894 -2.090954,2.5742554 v 9.4310112 c 0,1.605823 0.663454,2.574712 2.090954,2.574712 1.452191,0 2.090039,-0.968889 2.090039,-2.574712 V 12.349476 H 37.41575 v -1.784147 h 3.721468 v 3.238624 c 0,2.701825 -1.274325,4.485514 -4.027361,4.485514 -2.726973,0 -4.001756,-1.783689 -4.001756,-4.485514 V 4.5764133 c 0,-2.7022823 1.274783,-4.48688591 4.001756,-4.48688591 2.753036,0 4.027361,1.78460361 4.027361,4.48688591"
         id="Fill-20"
         style="fill:#ffffff;fill-opacity:1" />
      <polygon
         id="Fill-22"
         points="45.684276,8.1700372 50.042678,8.1700372 50.042678,9.9546408 45.684276,9.9546408 45.684276,16.301118 51.036715,16.301118 51.036715,18.111327 43.695744,18.111327 43.695744,0.26849072 51.036715,0.26849072 51.036715,2.0786998 45.684276,2.0786998 "
         style="fill:#ffffff;fill-opacity:1" />
      <polygon
         id="Fill-24"
         points="53.518517,18.111418 53.518517,0.26858216 56.042019,0.26858216 60.171344,13.166379 60.171344,0.26858216 61.929885,0.26858216 61.929885,18.111418 59.865908,18.111418 55.303121,3.6841572 55.303121,18.111418 "
         style="fill:#ffffff;fill-opacity:1" />
      <polygon
         id="Fill-26"
         points="65.312127,0.26839927 65.312127,18.111235 67.30066,18.111235 67.30066,0.26839927 "
         style="fill:#ffffff;fill-opacity:1" />
      <path
         d="M 78.405302,4.5509451 V 5.0351612 H 76.519191 V 4.4485236 c 0,-1.605366 -0.612243,-2.5491072 -2.038828,-2.5491072 -1.427957,0 -2.039743,0.9437412 -2.039743,2.523959 0,4.0017554 5.990288,4.3844644 5.990288,9.4058626 0,2.701825 -1.299931,4.460366 -4.027361,4.460366 -2.727431,0 -4.001756,-1.758541 -4.001756,-4.460366 v -1.019643 h 1.860506 v 1.12115 c 0,1.605823 0.662539,2.549107 2.090039,2.549107 1.427957,0 2.090039,-0.943284 2.090039,-2.549107 0,-3.9761499 -5.964682,-4.3588589 -5.964682,-9.3797999 0,-2.7530358 1.274782,-4.46128054 3.951459,-4.46128054 2.701825,0 3.97615,1.75945554 3.97615,4.46128054"
         id="Fill-28"
         style="fill:#ffffff;fill-opacity:1" />
    </g>
  </g>
</svg>
