<?xml version="1.0" encoding="UTF-8"?>
<svg width="132px" height="43px" viewBox="0 0 132 43" version="1.1" xmlns="http://www.w3.org/2000/svg" xmlns:xlink="http://www.w3.org/1999/xlink">
    <!-- Generator: Sketch 50.2 (55047) - http://www.bohemiancoding.com/sketch -->
    <title>Assets/Logo_Black_Small</title>
    <desc>Created with Sketch.</desc>
    <defs></defs>
    <g id="Symbols" stroke="none" stroke-width="1" fill="none" fill-rule="evenodd">
        <g id="Assets/Logo_Black_Small" transform="translate(-1.000000, -1.000000)">
            <g transform="translate(0.414062, 0.548828)">
                <g id="name" transform="translate(53.500402, 12.511719)" fill="#231F20">
                    <polygon id="Fill-13" points="6.84475292 18.0859499 4.93257959 18.0859499 1.97652971 3.8877657 1.97652971 18.1115553 0.243136817 18.1115553 0.243136817 0.268262098 3.02132074 0.268262098 5.95267971 14.5171998 8.78161715 0.268262098 11.5602583 0.268262098 11.5602583 18.1115553 9.67369037 18.1115553 9.67369037 3.76065327"></polygon>
                    <path d="M16.0823974,13.9051397 C16.0823974,15.5365683 16.7700847,16.4798523 18.198042,16.4798523 C19.6511474,16.4798523 20.3132294,15.5365683 20.3132294,13.9051397 L20.3132294,4.47412895 C20.3132294,2.86830572 19.6511474,1.89941636 18.198042,1.89941636 C16.7700847,1.89941636 16.0823974,2.86830572 16.0823974,4.47412895 L16.0823974,13.9051397 Z M14.1194705,4.57655047 C14.1194705,1.84912008 15.4701544,0.08966456 18.198042,0.08966456 C20.9506206,0.08966456 22.3017617,1.84912008 22.3017617,4.57655047 L22.3017617,13.8036327 C22.3017617,16.5054577 20.9506206,18.2896041 18.198042,18.2896041 C15.4701544,18.2896041 14.1194705,16.5054577 14.1194705,13.8036327 L14.1194705,4.57655047 Z" id="Fill-15"></path>
                    <polygon id="Fill-18" points="25.1508176 18.1114181 25.1508176 0.268582165 27.1393499 0.268582165 27.1393499 16.3012091 31.5658803 16.3012091 31.5658803 18.1114181"></polygon>
                    <path d="M41.1372177,4.5764133 L41.1372177,6.10587762 L39.251107,6.10587762 L39.251107,4.47399177 C39.251107,2.86862579 38.6132586,1.89973643 37.1610677,1.89973643 C35.7335676,1.89973643 35.0701139,2.86862579 35.0701139,4.47399177 L35.0701139,13.9050026 C35.0701139,15.5108258 35.7335676,16.4797151 37.1610677,16.4797151 C38.6132586,16.4797151 39.251107,15.5108258 39.251107,13.9050026 L39.251107,12.3494756 L37.4157498,12.3494756 L37.4157498,10.5653292 L41.1372177,10.5653292 L41.1372177,13.8039528 C41.1372177,16.5057778 39.8628927,18.2894669 37.1098569,18.2894669 C34.3828838,18.2894669 33.1081015,16.5057778 33.1081015,13.8039528 L33.1081015,4.5764133 C33.1081015,1.87413105 34.3828838,0.0895273884 37.1098569,0.0895273884 C39.8628927,0.0895273884 41.1372177,1.87413105 41.1372177,4.5764133" id="Fill-20"></path>
                    <polygon id="Fill-22" points="50.042678 8.17003718 50.042678 9.95464084 45.6842762 9.95464084 45.6842762 16.3011176 51.0367155 16.3011176 51.0367155 18.1113266 43.695744 18.1113266 43.695744 0.268490717 51.0367155 0.268490717 51.0367155 2.07869976 45.6842762 2.07869976 45.6842762 8.17003718"></polygon>
                    <polygon id="Fill-24" points="55.3031208 18.1114181 53.5185171 18.1114181 53.5185171 0.268582165 56.0420189 0.268582165 60.171344 13.1663787 60.171344 0.268582165 61.929885 0.268582165 61.929885 18.1114181 59.8659084 18.1114181 55.3031208 3.6841572"></polygon>
                    <polygon id="Fill-26" points="65.3121273 18.1112352 67.3006596 18.1112352 67.3006596 0.268399269 65.3121273 0.268399269"></polygon>
                    <path d="M78.4053021,4.55094509 L78.4053021,5.03516115 L76.5191914,5.03516115 L76.5191914,4.44852356 C76.5191914,2.84315758 75.9069485,1.89941636 74.4803629,1.89941636 C73.0524056,1.89941636 72.4406199,2.84315758 72.4406199,4.42337542 C72.4406199,8.4251308 78.4309075,8.80783981 78.4309075,13.8292381 C78.4309075,16.5310631 77.1309772,18.2896041 74.4035468,18.2896041 C71.6761164,18.2896041 70.4017914,16.5310631 70.4017914,13.8292381 L70.4017914,12.8095952 L72.2622967,12.8095952 L72.2622967,13.9307451 C72.2622967,15.5365683 72.924836,16.4798523 74.352336,16.4798523 C75.7802933,16.4798523 76.4423753,15.5365683 76.4423753,13.9307451 C76.4423753,9.95459512 70.477693,9.57188611 70.477693,4.55094509 C70.477693,1.79790931 71.7524753,0.08966456 74.4291521,0.08966456 C77.1309772,0.08966456 78.4053021,1.84912008 78.4053021,4.55094509" id="Fill-28"></path>
                </g>
                <g id="Assets/LogoIcon_Black" transform="translate(0.641027, 0.666418)">
                    <g id="Icon" transform="translate(-0.106691, 0.000000)">
                        <path d="M21.1066237,42 C32.7046368,42 42.106691,32.5980803 42.106691,21.0000672 C42.106691,9.40205413 32.7046368,0 21.1066237,0 C8.94174246,0 0.106690951,9.40205413 0.106690951,21.0000672 C0.106690951,32.5980803 9.50861066,42 21.1066237,42" id="Fill-1" fill="#353535"></path>
                        <g transform="translate(8.609758, 11.079755)">
                            <path d="M12.5146593,18.3173447 C12.218743,18.3173447 11.9176816,18.2653058 11.6242643,18.1552008 C10.3124128,17.66333 9.64781384,16.2010947 10.1396847,14.8890962 L15.0319325,1.84334685 C15.5240974,0.53178929 16.9867737,-0.13354466 18.2978902,0.358767182 C19.6098888,0.850638017 20.2744877,2.31287328 19.7824699,3.62487184 L14.890369,16.6706212 C14.5084561,17.6887614 13.5416198,18.3173447 12.5146593,18.3173447" id="Fill-4" fill="#349D63"></path>
                            <path d="M2.7303106,18.3173447 C2.43439428,18.3173447 2.13333288,18.2653058 1.83991561,18.1552008 C0.528064045,17.66333 -0.136534891,16.2010947 0.355335943,14.8890962 L5.24758381,1.84334685 C5.73945465,0.53178929 7.20168991,-0.13354466 8.51354147,0.358767182 C9.82554003,0.850638017 10.490139,2.31287328 9.99812113,3.62487184 L5.10602027,16.6706212 C4.72410741,17.6887614 3.75727104,18.3173447 2.7303106,18.3173447" id="Fill-6" fill="#349D63"></path>
                            <path d="M12.5153796,18.3173447 C11.4884192,18.3173447 10.5218768,17.6892024 10.13967,16.6706212 L5.24756911,3.62487184 C4.75555127,2.31287328 5.42015021,0.850638017 6.73214877,0.358767182 C8.04502936,-0.131633626 9.5062356,0.531495285 9.99810643,1.84334685 L14.8903543,14.8890962 C15.3822251,16.2010947 14.7176262,17.66333 13.4057746,18.1552008 C13.1123574,18.2650118 12.811296,18.3173447 12.5153796,18.3173447" id="Fill-8" fill="#72F6B2"></path>
                            <path d="M22.2997431,18.3173447 C21.2727826,18.3173447 20.3062403,17.6892024 19.9240334,16.6706212 L15.0319325,3.62487184 C14.5399147,2.31287328 15.2045136,0.850638017 16.5165122,0.358767182 C17.8286578,-0.131633626 19.290305,0.531495285 19.7824699,1.84334685 L24.6747177,14.8890962 C25.1665886,16.2010947 24.5019896,17.66333 23.1901381,18.1552008 C22.8967208,18.2650118 22.5956594,18.3173447 22.2997431,18.3173447" id="Fill-10" fill="#72F6B2"></path>
                        </g>
                    </g>
                </g>
            </g>
        </g>
    </g>
</svg>