<?xml version="1.0" encoding="UTF-8"?>
<svg width="137px" height="49px" viewBox="0 0 137 49" version="1.1" xmlns="http://www.w3.org/2000/svg" xmlns:xlink="http://www.w3.org/1999/xlink">
    <!-- Generator: Sketch 50.2 (55047) - http://www.bohemiancoding.com/sketch -->
    <title>Assets/Logo_Green_Small</title>
    <desc>Created with Sketch.</desc>
    <defs></defs>
    <g id="Symbols" stroke="none" stroke-width="1" fill="none" fill-rule="evenodd">
        <g id="Assets/Logo_Green_Small" transform="translate(0.000000, -1.000000)">
            <g transform="translate(0.101562, 0.548828)">
                <g id="Assets/LogoIcon_Green" transform="translate(0.492188, 0.630859)">
                    <g transform="translate(0.017373, 0.075920)">
                        <path d="M47.5421492,23.771089 C47.5421492,36.8994808 36.899452,47.5421779 23.7710602,47.5421779 C10.6426684,47.5421779 -2.87263915e-05,36.8994808 -2.87263915e-05,23.771089 C-2.87263915e-05,10.6426972 10.6426684,0 23.7710602,0 C36.899452,0 47.5421492,10.6426972 47.5421492,23.771089" id="Fill-1" fill="#72F6B2"></path>
                        <path d="M16.9053521,29.0734063 C16.9053521,31.4262414 14.9980634,33.3335302 12.6452283,33.3335302 C10.2923932,33.3335302 8.38510441,31.4262414 8.38510441,29.0734063 C8.38510441,26.7205712 10.2923932,24.8132824 12.6452283,24.8132824 C14.9980634,24.8132824 16.9053521,26.7205712 16.9053521,29.0734063" id="Fill-4" fill="#353535"></path>
                        <path d="M25.5239015,25.2299875 C22.054328,22.947532 21.7248363,21.050872 22.3332612,17.5472577 L22.3312504,17.5482631 C22.37276,17.3099777 22.3954539,17.0653725 22.3954539,16.8153092 C22.3954539,14.4624742 20.4880215,12.5551854 18.13533,12.5551854 C15.7824949,12.5551854 13.8752062,14.4624742 13.8752062,16.8153092 C13.8752062,18.4198218 14.7625644,19.816499 16.0729187,20.5429894 L16.0729187,20.5431331 C20.0575565,23.0699065 19.7221759,25.7384446 19.4576058,28.5490347 C19.4464025,28.6396665 19.4374974,28.7310164 19.432183,28.8232282 C19.4318957,28.8263881 19.4316084,28.829548 19.4314648,28.8325642 C19.4271559,28.91228 19.4244268,28.9925702 19.4244268,29.073435 C19.4244268,31.4262701 21.3317156,33.3335589 23.6845507,33.3335589 C26.0372422,33.3335589 27.9446746,31.4262701 27.9446746,29.073435 C27.9446746,27.3794397 26.9557685,25.9165482 25.5239015,25.2299875" id="Fill-6" fill="#353535"></path>
                        <path d="M36.7693358,25.2223463 C33.2997623,22.9398908 32.9702706,21.0432308 33.5786955,17.5397601 L33.5766847,17.5406219 C33.6180507,17.3023365 33.6408882,17.0577313 33.6408882,16.8078117 C33.6408882,14.4549766 31.7334558,12.5475442 29.3807643,12.5475442 C27.0279292,12.5475442 25.1204968,14.4549766 25.1204968,16.8078117 C25.1204968,18.4121806 26.0079987,19.8088578 27.318353,20.5354919 L27.3182094,20.5354919 C31.3029908,23.0622652 30.9676102,25.730947 30.7030401,28.5415372 C30.6918368,28.6320253 30.6829317,28.7233752 30.6776173,28.8155869 C30.67733,28.8187468 30.6770427,28.8219067 30.6768991,28.824923 C30.6724465,28.9046387 30.6697175,28.984929 30.6697175,29.0657938 C30.6697175,31.4186289 32.5771499,33.3259177 34.9298414,33.3259177 C37.2826765,33.3259177 39.1901089,31.4186289 39.1901089,29.0657938 C39.1901089,27.3717985 38.2012028,25.908907 36.7693358,25.2223463" id="Fill-8" fill="#353535"></path>
                    </g>
                    <g id="Icon">
                        <path d="M24.1218557,48 C37.3767278,48 48.1219325,37.2549489 48.1219325,24.0000768 C48.1219325,10.7452047 37.3767278,0 24.1218557,0 C10.2191342,0 0.121932515,10.7452047 0.121932515,24.0000768 C0.121932515,37.2549489 10.8669836,48 24.1218557,48" id="Fill-1" fill="#72F6B2"></path>
                        <g transform="translate(9.839724, 12.662577)">
                            <path d="M14.3024678,20.9341083 C13.9642777,20.9341083 13.6202076,20.8746352 13.2848735,20.7488009 C11.7856146,20.1866628 11.026073,18.5155368 11.5882111,17.0161099 L17.1793515,2.10668211 C17.7418256,0.607759188 19.4134556,-0.152622468 20.9118745,0.410019637 C22.4113014,0.972157733 23.1708431,2.64328375 22.608537,4.14271068 L17.0175646,19.0521385 C16.5810927,20.2157274 15.4761369,20.9341083 14.3024678,20.9341083" id="Fill-4" fill="#353535"></path>
                            <path d="M3.12035497,20.9341083 C2.7821649,20.9341083 2.43809472,20.8746352 2.10276069,20.7488009 C0.603501766,20.1866628 -0.156039876,18.5155368 0.406098221,17.0161099 L5.99723864,2.10668211 C6.55937674,0.607759188 8.23050275,-0.152622468 9.72976168,0.410019637 C11.2291886,0.972157733 11.9887303,2.64328375 11.4264242,4.14271068 L5.83545174,19.0521385 C5.3989799,20.2157274 4.29402405,20.9341083 3.12035497,20.9341083" id="Fill-6" fill="#353535"></path>
                            <path d="M14.303291,20.9341083 C13.1296219,20.9341083 12.0250021,20.2162314 11.5881943,19.0521385 L5.99722184,4.14271068 C5.43491574,2.64328375 6.19445738,0.972157733 7.69388431,0.410019637 C9.19431926,-0.150438429 10.8642693,0.607423182 11.4264074,2.10668211 L17.0175478,17.0161099 C17.5796859,18.5155368 16.8201442,20.1866628 15.3208853,20.7488009 C14.9855513,20.8742992 14.6414811,20.9341083 14.303291,20.9341083" id="Fill-8" fill="#349D63"></path>
                            <path d="M25.4854207,20.9341083 C24.3117516,20.9341083 23.2071317,20.2162314 22.7703239,19.0521385 L17.1793515,4.14271068 C16.6170454,2.64328375 17.376587,0.972157733 18.876014,0.410019637 C20.3756089,-0.150438429 22.0460629,0.607423182 22.608537,2.10668211 L28.1996774,17.0161099 C28.7618155,18.5155368 28.0022739,20.1866628 26.5030149,20.7488009 C26.1676809,20.8742992 25.8236107,20.9341083 25.4854207,20.9341083" id="Fill-10" fill="#349D63"></path>
                        </g>
                    </g>
                </g>
                <g id="name" transform="translate(57.500402, 14.511719)" fill="#72F6B2">
                    <polygon id="Fill-13" points="6.84475292 18.0859499 4.93257959 18.0859499 1.97652971 3.8877657 1.97652971 18.1115553 0.243136817 18.1115553 0.243136817 0.268262098 3.02132074 0.268262098 5.95267971 14.5171998 8.78161715 0.268262098 11.5602583 0.268262098 11.5602583 18.1115553 9.67369037 18.1115553 9.67369037 3.76065327"></polygon>
                    <path d="M16.0823974,13.9051397 C16.0823974,15.5365683 16.7700847,16.4798523 18.198042,16.4798523 C19.6511474,16.4798523 20.3132294,15.5365683 20.3132294,13.9051397 L20.3132294,4.47412895 C20.3132294,2.86830572 19.6511474,1.89941636 18.198042,1.89941636 C16.7700847,1.89941636 16.0823974,2.86830572 16.0823974,4.47412895 L16.0823974,13.9051397 Z M14.1194705,4.57655047 C14.1194705,1.84912008 15.4701544,0.08966456 18.198042,0.08966456 C20.9506206,0.08966456 22.3017617,1.84912008 22.3017617,4.57655047 L22.3017617,13.8036327 C22.3017617,16.5054577 20.9506206,18.2896041 18.198042,18.2896041 C15.4701544,18.2896041 14.1194705,16.5054577 14.1194705,13.8036327 L14.1194705,4.57655047 Z" id="Fill-15"></path>
                    <polygon id="Fill-18" points="25.1508176 18.1114181 25.1508176 0.268582165 27.1393499 0.268582165 27.1393499 16.3012091 31.5658803 16.3012091 31.5658803 18.1114181"></polygon>
                    <path d="M41.1372177,4.5764133 L41.1372177,6.10587762 L39.251107,6.10587762 L39.251107,4.47399177 C39.251107,2.86862579 38.6132586,1.89973643 37.1610677,1.89973643 C35.7335676,1.89973643 35.0701139,2.86862579 35.0701139,4.47399177 L35.0701139,13.9050026 C35.0701139,15.5108258 35.7335676,16.4797151 37.1610677,16.4797151 C38.6132586,16.4797151 39.251107,15.5108258 39.251107,13.9050026 L39.251107,12.3494756 L37.4157498,12.3494756 L37.4157498,10.5653292 L41.1372177,10.5653292 L41.1372177,13.8039528 C41.1372177,16.5057778 39.8628927,18.2894669 37.1098569,18.2894669 C34.3828838,18.2894669 33.1081015,16.5057778 33.1081015,13.8039528 L33.1081015,4.5764133 C33.1081015,1.87413105 34.3828838,0.0895273884 37.1098569,0.0895273884 C39.8628927,0.0895273884 41.1372177,1.87413105 41.1372177,4.5764133" id="Fill-20"></path>
                    <polygon id="Fill-22" points="50.042678 8.17003718 50.042678 9.95464084 45.6842762 9.95464084 45.6842762 16.3011176 51.0367155 16.3011176 51.0367155 18.1113266 43.695744 18.1113266 43.695744 0.268490717 51.0367155 0.268490717 51.0367155 2.07869976 45.6842762 2.07869976 45.6842762 8.17003718"></polygon>
                    <polygon id="Fill-24" points="55.3031208 18.1114181 53.5185171 18.1114181 53.5185171 0.268582165 56.0420189 0.268582165 60.171344 13.1663787 60.171344 0.268582165 61.929885 0.268582165 61.929885 18.1114181 59.8659084 18.1114181 55.3031208 3.6841572"></polygon>
                    <polygon id="Fill-26" points="65.3121273 18.1112352 67.3006596 18.1112352 67.3006596 0.268399269 65.3121273 0.268399269"></polygon>
                    <path d="M78.4053021,4.55094509 L78.4053021,5.03516115 L76.5191914,5.03516115 L76.5191914,4.44852356 C76.5191914,2.84315758 75.9069485,1.89941636 74.4803629,1.89941636 C73.0524056,1.89941636 72.4406199,2.84315758 72.4406199,4.42337542 C72.4406199,8.4251308 78.4309075,8.80783981 78.4309075,13.8292381 C78.4309075,16.5310631 77.1309772,18.2896041 74.4035468,18.2896041 C71.6761164,18.2896041 70.4017914,16.5310631 70.4017914,13.8292381 L70.4017914,12.8095952 L72.2622967,12.8095952 L72.2622967,13.9307451 C72.2622967,15.5365683 72.924836,16.4798523 74.352336,16.4798523 C75.7802933,16.4798523 76.4423753,15.5365683 76.4423753,13.9307451 C76.4423753,9.95459512 70.477693,9.57188611 70.477693,4.55094509 C70.477693,1.79790931 71.7524753,0.08966456 74.4291521,0.08966456 C77.1309772,0.08966456 78.4053021,1.84912008 78.4053021,4.55094509" id="Fill-28"></path>
                </g>
            </g>
        </g>
    </g>
</svg>