<?xml version="1.0" encoding="UTF-8"?>
<svg width="136px" height="50px" viewBox="0 0 136 50" version="1.1" xmlns="http://www.w3.org/2000/svg" xmlns:xlink="http://www.w3.org/1999/xlink">
    <!-- Generator: Sketch 50.2 (55047) - http://www.bohemiancoding.com/sketch -->
    <title>Assets/Logo_White_Small</title>
    <desc>Created with Sketch.</desc>
    <defs></defs>
    <g id="Symbols" stroke="none" stroke-width="1" fill="none" fill-rule="evenodd">
        <g id="Assets/Logo_White_Small">
            <g transform="translate(0.000000, 0.548828)">
                <g id="Assets/LogoIcon_White" transform="translate(0.492188, 0.011719)">
                    <g transform="translate(0.048266, 0.077502)">
                        <path d="M48.5326106,24.26632 C48.5326106,37.6682199 37.6681906,48.53264 24.2662907,48.53264 C10.8643907,48.53264 -2.9324858e-05,37.6682199 -2.9324858e-05,24.26632 C-2.9324858e-05,10.86442 10.8643907,0 24.2662907,0 C37.6681906,0 48.5326106,10.86442 48.5326106,24.26632" id="Fill-1" fill="#FFFFFF"></path>
                        <path d="M17.257547,29.6791023 C17.257547,32.0809548 15.310523,34.0279787 12.9086705,34.0279787 C10.506818,34.0279787 8.55979408,32.0809548 8.55979408,29.6791023 C8.55979408,27.2772498 10.506818,25.3302258 12.9086705,25.3302258 C15.310523,25.3302258 17.257547,27.2772498 17.257547,29.6791023" id="Fill-4" fill="#017FFD"></path>
                        <path d="M26.0556495,25.7556122 C22.5137932,23.4256056 22.177437,21.4894319 22.7985375,17.9128256 L22.7964848,17.9138519 C22.8388592,17.6706022 22.8620258,17.4209011 22.8620258,17.1656282 C22.8620258,14.7637757 20.9148553,12.8167518 18.5131494,12.8167518 C16.1112969,12.8167518 14.164273,14.7637757 14.164273,17.1656282 C14.164273,18.8035681 15.0701178,20.2293427 16.4077712,20.9709684 L16.4077712,20.971115 C20.4754223,23.5505295 20.1330546,26.2746622 19.8629726,29.1438063 C19.8515359,29.2363262 19.8424452,29.3295793 19.8370201,29.4237121 C19.8367269,29.4269378 19.8364336,29.4301635 19.836287,29.4332427 C19.8318883,29.5146191 19.8291024,29.5965821 19.8291024,29.6791316 C19.8291024,32.0809841 21.7761263,34.028008 24.1779788,34.028008 C26.5796847,34.028008 28.5268553,32.0809841 28.5268553,29.6791316 C28.5268553,27.9498447 27.517347,26.4564763 26.0556495,25.7556122" id="Fill-6" fill="#017FFD"></path>
                        <path d="M37.5353637,25.7478118 C33.9935073,23.4178052 33.6571512,21.4816315 34.2782517,17.9051718 L34.276199,17.9060515 C34.3184268,17.6628018 34.34174,17.4131007 34.34174,17.1579744 C34.34174,14.7561219 32.3945694,12.8089513 29.9928636,12.8089513 C27.5910111,12.8089513 25.6438405,14.7561219 25.6438405,17.1579744 C25.6438405,18.7957677 26.549832,20.2215423 27.8874854,20.9633146 L27.8873388,20.9633146 C31.9551365,23.5427291 31.6127687,26.2670084 31.3426868,29.1361525 C31.3312501,29.2285258 31.3221594,29.3217789 31.3167343,29.4159117 C31.316441,29.4191374 31.3161478,29.4223631 31.3160012,29.4254422 C31.3114558,29.5068187 31.30867,29.5887817 31.30867,29.6713312 C31.30867,32.0731837 33.2558405,34.0202076 35.6575464,34.0202076 C38.0593989,34.0202076 40.0065695,32.0731837 40.0065695,29.6713312 C40.0065695,27.9420443 38.9970612,26.4486759 37.5353637,25.7478118" id="Fill-8" fill="#017FFD"></path>
                    </g>
                    <g id="Icon">
                        <path d="M24.6243944,49 C38.1554096,49 49.1244728,38.0310937 49.1244728,24.5000784 C49.1244728,10.9690632 38.1554096,0 24.6243944,0 C10.4320329,0 0.124472776,10.9690632 0.124472776,24.5000784 C0.124472776,38.0310937 11.0933791,49 24.6243944,49" id="Fill-1" fill="#FFFFFF"></path>
                        <g transform="translate(10.044718, 12.926380)">
                            <path d="M14.6004359,21.3702355 C14.2552002,21.3702355 13.9039619,21.3095234 13.5616417,21.1810676 C12.0311482,20.6072183 11.2557828,18.9012772 11.8296321,17.3706122 L17.5372546,2.15057132 C18.1114469,0.620420838 19.8179026,-0.155802103 21.3475386,0.418561713 C22.8782036,0.992411019 23.653569,2.69835216 23.0795482,4.22901715 L17.3720972,19.449058 C16.9265322,20.6368883 15.7985564,21.3702355 14.6004359,21.3702355" id="Fill-4" fill="#005EC4"></path>
                            <path d="M3.18536237,21.3702355 C2.84012667,21.3702355 2.48888836,21.3095234 2.14656821,21.1810676 C0.61607472,20.6072183 -0.159290706,18.9012772 0.4145586,17.3706122 L6.12218111,2.15057132 C6.69603042,0.620420838 8.40197156,-0.155802103 9.93246505,0.418561713 C11.46313,0.992411019 12.2384955,2.69835216 11.6644747,4.22901715 L5.95702365,19.449058 C5.51145864,20.6368883 4.38348288,21.3702355 3.18536237,21.3702355" id="Fill-6" fill="#005EC4"></path>
                            <path d="M14.6012763,21.3702355 C13.4031557,21.3702355 12.275523,20.6374029 11.829615,19.449058 L6.12216396,4.22901715 C5.54814315,2.69835216 6.32350858,0.992411019 7.85417357,0.418561713 C9.38586758,-0.153572563 11.0906082,0.620077832 11.6644575,2.15057132 L17.37208,17.3706122 C17.9459293,18.9012772 17.1705639,20.6072183 15.6400704,21.1810676 C15.2977503,21.3091804 14.946512,21.3702355 14.6012763,21.3702355" id="Fill-8" fill="#017FFD"></path>
                            <path d="M26.0163669,21.3702355 C24.8182464,21.3702355 23.6906137,20.6374029 23.2447056,19.449058 L17.5372546,4.22901715 C16.9632338,2.69835216 17.7385993,0.992411019 19.2692642,0.418561713 C20.8001007,-0.153572563 22.5053559,0.620077832 23.0795482,2.15057132 L28.7871707,17.3706122 C29.36102,18.9012772 28.5856546,20.6072183 27.0551611,21.1810676 C26.7128409,21.3091804 26.3616026,21.3702355 26.0163669,21.3702355" id="Fill-10" fill="#017FFD"></path>
                        </g>
                    </g>
                </g>
                <g id="name" transform="translate(57.500402, 14.511719)" fill="#FFFFFF">
                    <polygon id="Fill-13" points="6.84475292 18.0859499 4.93257959 18.0859499 1.97652971 3.8877657 1.97652971 18.1115553 0.243136817 18.1115553 0.243136817 0.268262098 3.02132074 0.268262098 5.95267971 14.5171998 8.78161715 0.268262098 11.5602583 0.268262098 11.5602583 18.1115553 9.67369037 18.1115553 9.67369037 3.76065327"></polygon>
                    <path d="M16.0823974,13.9051397 C16.0823974,15.5365683 16.7700847,16.4798523 18.198042,16.4798523 C19.6511474,16.4798523 20.3132294,15.5365683 20.3132294,13.9051397 L20.3132294,4.47412895 C20.3132294,2.86830572 19.6511474,1.89941636 18.198042,1.89941636 C16.7700847,1.89941636 16.0823974,2.86830572 16.0823974,4.47412895 L16.0823974,13.9051397 Z M14.1194705,4.57655047 C14.1194705,1.84912008 15.4701544,0.08966456 18.198042,0.08966456 C20.9506206,0.08966456 22.3017617,1.84912008 22.3017617,4.57655047 L22.3017617,13.8036327 C22.3017617,16.5054577 20.9506206,18.2896041 18.198042,18.2896041 C15.4701544,18.2896041 14.1194705,16.5054577 14.1194705,13.8036327 L14.1194705,4.57655047 Z" id="Fill-15"></path>
                    <polygon id="Fill-18" points="25.1508176 18.1114181 25.1508176 0.268582165 27.1393499 0.268582165 27.1393499 16.3012091 31.5658803 16.3012091 31.5658803 18.1114181"></polygon>
                    <path d="M41.1372177,4.5764133 L41.1372177,6.10587762 L39.251107,6.10587762 L39.251107,4.47399177 C39.251107,2.86862579 38.6132586,1.89973643 37.1610677,1.89973643 C35.7335676,1.89973643 35.0701139,2.86862579 35.0701139,4.47399177 L35.0701139,13.9050026 C35.0701139,15.5108258 35.7335676,16.4797151 37.1610677,16.4797151 C38.6132586,16.4797151 39.251107,15.5108258 39.251107,13.9050026 L39.251107,12.3494756 L37.4157498,12.3494756 L37.4157498,10.5653292 L41.1372177,10.5653292 L41.1372177,13.8039528 C41.1372177,16.5057778 39.8628927,18.2894669 37.1098569,18.2894669 C34.3828838,18.2894669 33.1081015,16.5057778 33.1081015,13.8039528 L33.1081015,4.5764133 C33.1081015,1.87413105 34.3828838,0.0895273884 37.1098569,0.0895273884 C39.8628927,0.0895273884 41.1372177,1.87413105 41.1372177,4.5764133" id="Fill-20"></path>
                    <polygon id="Fill-22" points="50.042678 8.17003718 50.042678 9.95464084 45.6842762 9.95464084 45.6842762 16.3011176 51.0367155 16.3011176 51.0367155 18.1113266 43.695744 18.1113266 43.695744 0.268490717 51.0367155 0.268490717 51.0367155 2.07869976 45.6842762 2.07869976 45.6842762 8.17003718"></polygon>
                    <polygon id="Fill-24" points="55.3031208 18.1114181 53.5185171 18.1114181 53.5185171 0.268582165 56.0420189 0.268582165 60.171344 13.1663787 60.171344 0.268582165 61.929885 0.268582165 61.929885 18.1114181 59.8659084 18.1114181 55.3031208 3.6841572"></polygon>
                    <polygon id="Fill-26" points="65.3121273 18.1112352 67.3006596 18.1112352 67.3006596 0.268399269 65.3121273 0.268399269"></polygon>
                    <path d="M78.4053021,4.55094509 L78.4053021,5.03516115 L76.5191914,5.03516115 L76.5191914,4.44852356 C76.5191914,2.84315758 75.9069485,1.89941636 74.4803629,1.89941636 C73.0524056,1.89941636 72.4406199,2.84315758 72.4406199,4.42337542 C72.4406199,8.4251308 78.4309075,8.80783981 78.4309075,13.8292381 C78.4309075,16.5310631 77.1309772,18.2896041 74.4035468,18.2896041 C71.6761164,18.2896041 70.4017914,16.5310631 70.4017914,13.8292381 L70.4017914,12.8095952 L72.2622967,12.8095952 L72.2622967,13.9307451 C72.2622967,15.5365683 72.924836,16.4798523 74.352336,16.4798523 C75.7802933,16.4798523 76.4423753,15.5365683 76.4423753,13.9307451 C76.4423753,9.95459512 70.477693,9.57188611 70.477693,4.55094509 C70.477693,1.79790931 71.7524753,0.08966456 74.4291521,0.08966456 C77.1309772,0.08966456 78.4053021,1.84912008 78.4053021,4.55094509" id="Fill-28"></path>
                </g>
            </g>
        </g>
    </g>
</svg>