<?xml version="1.0" encoding="utf-8"?>
<!-- Generator: Adobe Illustrator 17.1.0, SVG Export Plug-In . SVG Version: 6.00 Build 0)  -->
<!DOCTYPE svg PUBLIC "-//W3C//DTD SVG 1.1//EN" "http://www.w3.org/Graphics/SVG/1.1/DTD/svg11.dtd">
<svg version="1.1" id="Layer_1" xmlns="http://www.w3.org/2000/svg" xmlns:xlink="http://www.w3.org/1999/xlink" x="0px" y="0px"
	 viewBox="0 0 121.7 81.3" style="enable-background:new 0 0 121.7 81.3;" xml:space="preserve">
<g>
	<path d="M-219.9-36.1c0-1.4-0.9-2.9-3.5-3v-3.5c2.6-0.1,3.5-1.6,3.5-3c0-2.5-0.4-4.1-0.4-7c0-4.4,1.6-5.8,5.2-5.8h9.6v3.2h-7.8
		c-1.7,0-2.2,0.6-2.2,2.8c0,2.2,0.2,4.2,0.2,6.6c0,3.1-1,4.3-3,4.8v0.2c2,0.5,3,1.7,3,4.8c0,2.5-0.2,4.4-0.2,6.6
		c0,2.2,0.5,2.9,2.2,2.9h0.8v3.2h-2.6c-3.6,0-5.2-1.4-5.2-5.8C-220.3-32-219.9-33.5-219.9-36.1z"/>
	<path d="M-211.4-58.1h6v22.5c0,1.3,0.6,1.7,1.1,1.7c0.2,0,0.4,0,0.7-0.1l0.7,4.4c-0.7,0.3-1.7,0.5-3,0.5c-4.1,0-5.5-2.7-5.5-6.8
		V-58.1z"/>
	<path d="M-194.6-50.2c5.7,0,8.6,4.2,8.6,9.7c0,1.1-0.1,2-0.2,2.5h-12.1c0.5,3.1,2.6,4.4,5.3,4.4c1.5,0,2.9-0.4,4.4-1.3l2,3.6
		c-2.1,1.4-4.8,2.3-7.2,2.3c-5.8,0-10.2-3.9-10.2-10.6C-204.1-46.2-199.4-50.2-194.6-50.2z M-191.1-41.7c0-2.3-1-4-3.4-4
		c-1.9,0-3.5,1.3-3.9,4H-191.1z"/>
	<path d="M-182.5-35.6c1.8,1.4,3.5,2.1,5.2,2.1c1.8,0,2.6-0.7,2.6-1.7c0-1.3-2-2-4.1-2.8c-2.4-0.9-5.3-2.6-5.3-5.9
		c0-3.7,3.1-6.3,7.7-6.3c3.1,0,5.4,1.3,7.1,2.6l-2.7,3.6c-1.5-1.1-2.8-1.7-4.3-1.7c-1.5,0-2.3,0.6-2.3,1.6c0,1.3,1.9,1.8,4,2.6
		c2.6,0.9,5.5,2.4,5.5,6.1c0,3.7-2.9,6.5-8.3,6.5c-2.6,0-5.7-1.1-7.7-2.8L-182.5-35.6z"/>
	<path d="M-166.1-35.6c1.8,1.4,3.5,2.1,5.2,2.1c1.8,0,2.6-0.7,2.6-1.7c0-1.3-2-2-4.1-2.8c-2.4-0.9-5.3-2.6-5.3-5.9
		c0-3.7,3.1-6.3,7.7-6.3c3.1,0,5.4,1.3,7.1,2.6l-2.7,3.6c-1.5-1.1-2.8-1.7-4.3-1.7c-1.5,0-2.3,0.6-2.3,1.6c0,1.3,1.9,1.8,3.9,2.6
		c2.6,0.9,5.5,2.4,5.5,6.1c0,3.7-2.9,6.5-8.3,6.5c-2.6,0-5.7-1.1-7.7-2.8L-166.1-35.6z"/>
	<path d="M-151.4-26.5c1.7,0,2.2-0.6,2.2-2.9c0-2.2-0.2-4.2-0.2-6.6c0-3.1,1-4.3,3-4.8v-0.2c-2-0.5-3-1.7-3-4.8
		c0-2.4,0.2-4.5,0.2-6.6c0-2.2-0.4-2.8-2.2-2.8h-0.8v-3.2h2.6c3.6,0,5.2,1.4,5.2,5.8c0,2.8-0.4,4.4-0.4,7c0,1.4,0.9,2.9,3.5,3v3.5
		c-2.6,0.1-3.5,1.6-3.5,3c0,2.6,0.4,4.1,0.4,7c0,4.4-1.6,5.8-5.2,5.8h-2.6v-3.2H-151.4z"/>
</g>
<g>
	<g>
		<path d="M88.4-20.9H33c-2.6,0-4.7-2.1-4.7-4.7v-30.5c0-2.6,2.1-4.7,4.7-4.7h55.4c2.6,0,4.7,2.1,4.7,4.7v30.5
			C93-23,90.9-20.9,88.4-20.9z M33-57.6c-0.9,0-1.6,0.7-1.6,1.6v30.5c0,0.9,0.7,1.6,1.6,1.6h55.4c0.9,0,1.6-0.7,1.6-1.6v-30.5
			c0-0.9-0.7-1.6-1.6-1.6H33z"/>
	</g>
	<g>
		<path d="M37.6-30.3v-21.2h6.2l6.2,7.8l6.2-7.8h6.2v21.2h-6.2v-12.1l-6.2,7.8l-6.2-7.8v12.1H37.6z"/>
	</g>
	<g>
		<path d="M76.5-30.3l-9.3-10.3h6.2v-10.9h6.2v10.9h6.2L76.5-30.3z"/>
	</g>
</g>
<path d="M-150.1,44.7c-2.5,0-4.7,0.6-6.6,1.5c-0.7-1.3-1.4-2.5-1.5-3.4c-0.1-1-0.3-1.6-0.1-2.9c0.2-1.2,0.9-3,0.9-3.1
	c0-0.1-0.2-0.8-1.6-0.8c-1.5,0-2.7,0.3-2.9,0.7c-0.1,0.4-0.4,1.3-0.6,2.2c-0.3,1.3-2.9,6.1-4.4,8.6c-0.5-1-0.9-1.8-1-2.5
	c-0.1-1-0.3-1.6-0.1-2.9c0.2-1.2,0.9-3,0.9-3.1c0-0.1-0.2-0.8-1.6-0.8c-1.5,0-2.7,0.3-2.9,0.7c-0.1,0.4-0.3,1.3-0.6,2.2
	c-0.3,0.9-3.9,8.8-4.8,10.8c-0.5,1-0.9,1.9-1.2,2.5c0,0,0,0,0,0s0,0,0,0.1c-0.2,0.5-0.4,0.8-0.4,0.8s0,0,0,0
	c-0.2,0.4-0.4,0.7-0.5,0.7c-0.1,0-0.2-1,0-2.3c0.5-2.7,1.8-7,1.8-7.2c0-0.1,0.2-0.8-0.8-1.2c-1-0.4-1.4,0.3-1.5,0.3
	c-0.1,0-0.2,0.2-0.2,0.2s1.2-4.8-2.2-4.8c-2.1,0-5,2.3-6.4,4.4c-0.9,0.5-2.8,1.5-4.9,2.7c-0.8,0.4-1.6,0.9-2.4,1.3
	c-0.1-0.1-0.1-0.1-0.2-0.2c-4.1-4.3-11.6-7.4-11.3-13.2c0.1-2.1,0.9-7.7,14.4-14.5c11.1-5.5,20-4,21.6-0.6
	c2.2,4.8-4.8,13.8-16.3,15.1c-4.4,0.5-6.7-1.2-7.3-1.8c-0.6-0.7-0.7-0.7-0.9-0.6c-0.4,0.2-0.1,0.8,0,1.1c0.3,0.9,1.8,2.5,4.2,3.3
	c2.1,0.7,7.3,1.1,13.5-1.3c7-2.7,12.5-10.2,10.9-16.5c-1.6-6.4-12.3-8.5-22.3-4.9c-6,2.1-12.5,5.5-17.1,9.8
	c-5.5,5.2-6.4,9.7-6.1,11.6c1.3,6.7,10.5,11,14.2,14.3c-0.2,0.1-0.4,0.2-0.5,0.3c-1.9,0.9-8.9,4.6-10.6,8.5c-2,4.4,0.3,7.6,1.8,8
	c4.7,1.3,9.6-1.1,12.2-5c2.6-3.9,2.3-9,1.1-11.3c0,0,0-0.1,0-0.1c0.5-0.3,1-0.6,1.4-0.9c0.9-0.6,1.9-1.1,2.7-1.5
	c-0.4,1.2-0.8,2.7-0.9,4.8c-0.2,2.5,0.8,5.7,2.2,7c0.6,0.6,1.3,0.6,1.8,0.6c1.6,0,2.3-1.3,3.1-2.8c1-1.9,1.8-4.1,1.8-4.1
	s-1.1,5.9,1.8,5.9c1.1,0,2.1-1.4,2.6-2.1c0,0,0,0,0,0s0,0,0.1-0.1c0.1-0.2,0.2-0.3,0.2-0.3s0,0,0,0c0.4-0.7,1.4-2.4,2.8-5.2
	c1.8-3.6,3.6-8.1,3.6-8.1s0.2,1.1,0.7,2.9c0.3,1.1,1,2.3,1.5,3.4c-0.4,0.6-0.7,0.9-0.7,0.9s0,0,0,0c-0.3,0.5-0.7,0.9-1.1,1.4
	c-1.5,1.7-3.2,3.7-3.4,4.3c-0.3,0.7-0.2,1.2,0.3,1.6c0.4,0.3,1.1,0.3,1.8,0.3c1.3-0.1,2.2-0.4,2.7-0.6c0.7-0.2,1.5-0.6,2.3-1.2
	c1.4-1,2.3-2.5,2.2-4.5c0-1.1-0.4-2.2-0.8-3.2c0.1-0.2,0.3-0.4,0.4-0.6c2.2-3.3,4-6.9,4-6.9s0.2,1.1,0.7,2.9
	c0.3,0.9,0.8,1.9,1.3,2.9c-2.1,1.7-3.4,3.7-3.9,5c-0.8,2.4-0.2,3.5,1.1,3.8c0.6,0.1,1.3-0.1,1.9-0.4c0.7-0.2,1.6-0.7,2.5-1.3
	c1.4-1,2.8-2.5,2.7-4.5c0-0.9-0.3-1.8-0.6-2.7c1.8-0.7,4.1-1.2,7.1-0.8c6.3,0.7,7.6,4.7,7.3,6.3c-0.2,1.7-1.6,2.6-2,2.8
	c-0.4,0.3-0.6,0.4-0.5,0.6c0.1,0.3,0.3,0.3,0.6,0.2c0.5-0.1,3.3-1.3,3.4-4.4C-139.8,49-143.5,44.7-150.1,44.7z M-198.9,61.2
	c-2.1,2.3-5,3.1-6.3,2.4c-1.4-0.8-0.8-4.2,1.8-6.6c1.6-1.5,3.6-2.8,4.9-3.7c0.3-0.2,0.8-0.5,1.3-0.8c0.1-0.1,0.1-0.1,0.1-0.1l0,0
	c0.1-0.1,0.2-0.1,0.3-0.2C-195.8,55.7-196.7,58.8-198.9,61.2z M-183.6,50.8c-0.7,1.8-2.3,6.3-3.2,6.1c-0.8-0.2-1.3-3.7-0.2-7.1
	c0.6-1.7,1.8-3.8,2.5-4.6c1.1-1.3,2.4-1.7,2.7-1.2C-181.4,44.7-183.1,49.7-183.6,50.8z M-171,56.8c-0.3,0.2-0.6,0.3-0.7,0.2
	c-0.1-0.1,0.1-0.3,0.1-0.3s1.6-1.7,2.2-2.5c0.4-0.4,0.8-1,1.2-1.6c0,0.1,0,0.1,0,0.2C-168.1,54.9-170.1,56.3-171,56.8z M-161.3,54.6
	c-0.2-0.2-0.2-0.7,0.6-2.3c0.3-0.6,1-1.7,2.2-2.8c0.1,0.4,0.2,0.8,0.2,1.2C-158.3,53.3-160.2,54.2-161.3,54.6z"/>
<g>
	<path d="M-85,34.9c0.7,0,1.3,0.1,1.7,0.3c0.4,0.2,0.7,0.4,0.7,0.7c0,0.4-0.1,0.8-0.3,1.2c-0.2,0.5-0.4,0.8-0.5,1.1
		c-0.1,0.1-0.1,0.1-0.2,0c-0.1,0-0.1-0.1-0.1-0.3c0.1-0.2,0.1-0.6,0.1-1c0-0.5-0.1-0.8-0.4-1.1c-0.2-0.3-0.6-0.4-1-0.4
		c-0.6,0-1,0.2-1.3,0.5c-0.3,0.3-0.5,0.8-0.5,1.4c0,0.5,0.1,1,0.4,1.5c0.3,0.5,0.6,0.9,0.9,1.4c0.3,0.5,0.7,1,1,1.5
		c0.3,0.5,0.4,1.1,0.4,1.8c0,1.2-0.5,2.1-1.4,2.7c-0.9,0.7-2.2,1-3.7,1c-1.1,0-2-0.2-2.6-0.5c-0.6-0.4-1-0.7-1-1.2
		c0-0.1,0-0.3,0.1-0.5c0.1-0.2,0.2-0.5,0.4-0.7c0.2-0.3,0.3-0.5,0.5-0.8c0.2-0.3,0.4-0.5,0.6-0.6c0.1-0.1,0.2,0,0.3,0
		c0.1,0.1,0.1,0.2,0,0.3c-0.2,0.2-0.3,0.4-0.4,0.6c-0.1,0.2-0.1,0.5-0.1,0.9c0,0.6,0.2,1.1,0.6,1.4c0.4,0.4,0.9,0.6,1.5,0.6
		c0.8,0,1.5-0.2,2-0.7c0.5-0.5,0.7-1,0.7-1.7c0-0.6-0.1-1.2-0.4-1.7c-0.3-0.5-0.6-1.1-0.9-1.6c-0.3-0.5-0.6-1-0.9-1.5
		c-0.3-0.5-0.4-1.1-0.4-1.7c0-0.8,0.4-1.6,1.1-2.1C-87.5,35.1-86.4,34.9-85,34.9z"/>
	<path d="M-71.7,35.1c0.2,0.1,0.2,0.2,0.2,0.3c0,0.1-0.2,0.2-0.4,0.3c-0.5,0-1,0-1.7,0c-0.6,0-1.3,0.1-2,0.1
		c-0.7,1.6-1.2,3.1-1.6,4.7c-0.4,1.5-0.6,2.7-0.6,3.7c0,1.1,0.4,1.7,1.3,1.7c0.8,0,1.8-0.7,2.8-2.2c0.1-0.1,0.2-0.1,0.3,0
		c0.1,0.1,0.1,0.2,0.1,0.3c-0.6,0.9-1.3,1.7-2.1,2.4c-0.8,0.7-1.7,1-2.5,1c-0.8,0-1.5-0.2-1.9-0.6c-0.4-0.4-0.6-1-0.6-1.7
		c0-0.9,0.2-2.2,0.7-3.9c0.5-1.7,1-3.4,1.8-5.1c-0.8,0.1-1.6,0.2-2.3,0.4c-0.2,0-0.2-0.1-0.1-0.2c0.1-0.1,0.2-0.3,0.4-0.4
		c0.2-0.1,0.5-0.3,0.8-0.4c0.3-0.1,0.6-0.2,0.8-0.2c0.1,0,0.3,0,0.4,0c0.1,0,0.3,0,0.4,0c0.4-0.9,0.9-1.9,1.3-2.7
		c0.5-0.9,0.9-1.7,1.4-2.4c0.2-0.2,0.5-0.4,0.8-0.6c0.3-0.2,0.7-0.3,1-0.4c0.3-0.1,0.6-0.2,0.8-0.2c0.2,0,0.3,0,0.3,0.2
		c-0.6,0.8-1.1,1.8-1.6,2.8c-0.5,1-1,2.1-1.5,3.3c0.6,0,1.2,0,1.9,0C-72.8,35.1-72.2,35.1-71.7,35.1z"/>
	<g>
		<g>
			<path d="M-42,10.7c0.5,0,0.9,0.1,1.2,0.4c0.3,0.2,0.5,0.6,0.6,1c0.1,0.4,0.1,0.9,0,1.4c-0.1,0.5-0.3,1-0.6,1.6
				c-0.1,0.1-0.1,0.1-0.2,0c-0.1-0.1-0.2-0.1-0.2-0.2c0.1-0.4-0.1-0.7-0.4-1c-0.3-0.3-0.9-0.4-1.6-0.4c-1.3,0-2.7,0.5-4,1.5
				c-1.4,1-2.7,2.3-3.9,3.9c-1.3,1.6-2.5,3.5-3.6,5.6c-1.1,2.1-2.1,4.3-2.9,6.5c-0.8,2.2-1.5,4.5-1.9,6.7c-0.5,2.2-0.7,4.2-0.7,6.1
				c0,1,0.3,1.5,0.8,1.5c0.4,0,0.8-0.2,1.1-0.5c0.4-0.3,0.8-0.8,1.3-1.5c0.1-0.1,0.2-0.1,0.3,0c0.1,0.1,0.1,0.2,0.1,0.3
				c-0.7,1-1.4,1.8-2.3,2.4c-0.9,0.7-1.7,1-2.4,1c-0.6,0-1-0.2-1.3-0.5c-0.2-0.4-0.4-0.8-0.4-1.4c0-1.5,0.3-3.4,1-5.7
				c0.7-2.3,1.5-4.7,2.6-7.3c1.1-2.6,2.4-5.1,3.8-7.6c1.4-2.5,2.9-4.8,4.5-6.9c1.5-2,3.1-3.7,4.7-5C-44.9,11.3-43.4,10.7-42,10.7z"
				/>
		</g>
	</g>
	<g>
		<g>
			<path d="M-85.4,70.7c-0.5,0-0.9-0.1-1.2-0.4c-0.3-0.2-0.5-0.6-0.6-1c-0.1-0.4-0.1-0.9,0-1.4c0.1-0.5,0.3-1,0.6-1.6
				c0.1-0.1,0.1-0.1,0.2,0c0.1,0.1,0.2,0.1,0.2,0.2c-0.1,0.4,0.1,0.7,0.4,1c0.3,0.3,0.9,0.4,1.6,0.4c1.3,0,2.7-0.5,4-1.5
				c1.4-1,2.7-2.3,3.9-3.9c1.3-1.6,2.5-3.5,3.6-5.6c1.1-2.1,2.1-4.3,2.9-6.5c0.8-2.2,1.5-4.5,1.9-6.7c0.5-2.2,0.7-4.2,0.7-6.1
				c0-1-0.3-1.5-0.8-1.5c-0.4,0-0.8,0.2-1.1,0.5c-0.4,0.3-0.8,0.8-1.3,1.5c-0.1,0.1-0.2,0.1-0.3,0c-0.1-0.1-0.1-0.2-0.1-0.3
				c0.7-1,1.4-1.8,2.3-2.4c0.9-0.7,1.7-1,2.4-1c0.6,0,1,0.2,1.3,0.5s0.4,0.8,0.4,1.4c0,1.5-0.3,3.4-1,5.7c-0.7,2.3-1.5,4.7-2.6,7.3
				c-1.1,2.6-2.4,5.1-3.8,7.6c-1.4,2.5-2.9,4.8-4.5,6.9c-1.5,2-3.1,3.7-4.7,5C-82.6,70-84,70.7-85.4,70.7z"/>
		</g>
	</g>
	<path d="M-52.4,47.4c-1.4,0-2.1-0.7-2.1-2.2c0-0.5,0.1-1.1,0.2-1.8c0.1-0.7,0.3-1.4,0.5-2.1c0.2-0.7,0.5-1.5,0.9-2.2
		c0.3-0.7,0.7-1.5,1.2-2.1c-0.4,0.2-0.7,0.5-1,0.7c-0.3,0.2-0.6,0.5-0.9,0.8c-0.1,0.1-0.2,0-0.3-0.1c-0.1-0.1-0.1-0.2,0-0.3
		c0.6-0.6,1.3-1.2,2.4-1.8c1-0.6,2-1.1,3-1.5c0.2,0,0.3,0,0.4,0.1c0.1,0.1,0.1,0.2,0,0.3c-1,1.4-1.9,2.8-2.5,4.4
		c-0.6,1.6-1,3.1-1,4.6c0,0.9,0.3,1.4,0.9,1.4c0.4,0,0.9-0.3,1.6-0.9c0.6-0.6,1.3-1.3,2-2.2c0.7-0.9,1.4-2,2.1-3.1
		c0.7-1.2,1.3-2.4,1.9-3.6c0.1-0.2,0.4-0.4,0.9-0.6c0.5-0.2,1-0.3,1.4-0.3s0.6,0.1,0.4,0.4c-0.5,0.8-0.9,1.6-1.2,2.4
		c-0.3,0.7-0.6,1.5-0.9,2.2c-0.2,0.7-0.4,1.4-0.5,2.2c-0.1,0.7-0.2,1.5-0.2,2.4c0,1,0.3,1.6,0.8,1.6c0.6,0,1.2-0.5,1.9-1.5
		c0.1-0.1,0.2-0.1,0.3,0c0.1,0.1,0.1,0.2,0.1,0.3c-0.6,0.8-1.2,1.5-1.8,1.9c-0.7,0.4-1.3,0.7-1.8,0.7c-1.4,0-2.1-0.8-2.1-2.4
		c0-1.7,0.3-3.3,0.9-4.9c-1.2,2.2-2.5,4-3.9,5.3C-50.3,46.7-51.5,47.4-52.4,47.4z"/>
	<path d="M-32.2,34.9c0.7,0,1.3,0.1,1.7,0.3c0.4,0.2,0.7,0.4,0.7,0.7c0,0.4-0.1,0.8-0.3,1.2c-0.2,0.5-0.4,0.8-0.5,1.1
		c-0.1,0.1-0.1,0.1-0.2,0c-0.1,0-0.1-0.1-0.1-0.3c0.1-0.2,0.1-0.6,0.1-1c0-0.5-0.1-0.8-0.4-1.1c-0.2-0.3-0.6-0.4-1-0.4
		c-0.6,0-1,0.2-1.3,0.5c-0.3,0.3-0.5,0.8-0.5,1.4c0,0.5,0.1,1,0.4,1.5c0.3,0.5,0.6,0.9,0.9,1.4c0.3,0.5,0.7,1,1,1.5
		c0.3,0.5,0.4,1.1,0.4,1.8c0,1.2-0.5,2.1-1.4,2.7c-0.9,0.7-2.2,1-3.7,1c-1.1,0-2-0.2-2.6-0.5c-0.6-0.4-1-0.7-1-1.2
		c0-0.1,0-0.3,0.1-0.5c0.1-0.2,0.2-0.5,0.4-0.7c0.2-0.3,0.3-0.5,0.5-0.8c0.2-0.3,0.4-0.5,0.6-0.6c0.1-0.1,0.2,0,0.3,0
		c0.1,0.1,0.1,0.2,0,0.3c-0.2,0.2-0.3,0.4-0.4,0.6c-0.1,0.2-0.1,0.5-0.1,0.9c0,0.6,0.2,1.1,0.6,1.4c0.4,0.4,0.9,0.6,1.5,0.6
		c0.8,0,1.5-0.2,2-0.7c0.5-0.5,0.7-1,0.7-1.7c0-0.6-0.1-1.2-0.4-1.7c-0.3-0.5-0.6-1.1-0.9-1.6c-0.3-0.5-0.6-1-0.9-1.5
		c-0.3-0.5-0.4-1.1-0.4-1.7c0-0.8,0.4-1.6,1.1-2.1C-34.7,35.1-33.6,34.9-32.2,34.9z"/>
</g>
<g>
	<g>
		<path d="M29.2,46c0,1.1-0.4,1.7-1.3,1.7c-0.4,0-0.8-0.2-1-0.5c0.2-0.1,0.4-0.3,0.6-0.7c0.2-0.3,0.3-0.7,0.3-1
			c0-0.3-0.1-0.6-0.3-0.8c-0.2-0.2-0.4-0.3-0.8-0.3s-0.7,0.1-1,0.4c-0.3,0.3-0.6,0.6-0.9,1c-0.6,0.9-1,2-1.4,3.3
			c-0.4,1.3-0.5,2.6-0.5,3.6c0,1.1,0.2,1.9,0.5,2.4c0.3,0.5,0.9,0.7,1.6,0.7c1.5,0,2.8-0.6,3.7-1.8l0.4,0.2
			c-0.6,1.5-1.7,2.5-3.3,3.1c-0.6,0.2-1.3,0.3-1.9,0.3c0,0,0,0-0.1,0c-1.4,0-2.4-0.4-3-1.1c-0.6-0.7-1-1.8-1-3.3s0.3-3.1,0.8-4.6
			c0.6-1.8,1.5-3.2,2.6-4.1c0.9-0.7,1.9-1,3-1c1.4,0,2.4,0.4,2.8,1.3C29.1,45.2,29.2,45.6,29.2,46z"/>
		<path d="M38.8,50.3c-0.7,0.8-1.8,1.3-3.3,1.5c-0.1,1.7-0.6,3-1.4,4s-1.8,1.5-2.9,1.5c-1.4,0-2.3-0.5-2.7-1.6
			c-0.1-0.4-0.2-0.8-0.2-1.2c0-0.4,0-0.9,0.1-1.4c0.1-0.5,0.2-0.9,0.4-1.4c0.4-1.1,0.9-2,1.6-2.7c0.8-0.8,1.8-1.2,3-1.2
			c1.6,0,2.4,1,2.4,2.9v0c0.1,0,0.2,0,0.3,0c0.3,0,0.8-0.1,1.3-0.3c0.5-0.2,1-0.5,1.5-0.8L38.8,50.3z M34,51.9
			c-0.3-0.1-0.5-0.4-0.5-0.8c0-0.5,0.2-0.8,0.6-1c0-0.4-0.1-0.7-0.2-0.8s-0.3-0.2-0.6-0.2c-0.6,0-1.1,0.6-1.6,1.9
			c-0.5,1.2-0.8,2.3-0.8,3.3c0,0.6,0.1,1,0.2,1.1s0.2,0.3,0.3,0.3c0.1,0,0.3,0.1,0.5,0.1c0.4,0,0.8-0.4,1.2-1.1
			C33.6,53.9,33.9,53,34,51.9z"/>
		<path d="M47.1,46.3c0-0.2,0-0.4,0-0.5s-0.1-0.3-0.2-0.4c-0.1-0.1-0.3-0.2-0.4-0.2c-0.7,0-1.1,0.5-1.3,1.5l-0.3,1.5h1.8l-0.2,0.7
			h-1.8l-2.1,9.9c-0.2,1.2-0.7,2-1.4,2.5c-0.5,0.4-1.2,0.6-1.9,0.6c-1,0-1.7-0.4-2-1.2c-0.6,0.8-1.4,1.2-2.5,1.2
			c-0.6,0-1.1-0.2-1.5-0.6c-0.4-0.4-0.7-0.8-0.7-1.3c0-0.5,0.1-0.9,0.2-1.2c0.2-0.3,0.4-0.6,0.8-0.8c0.4-0.3,1.1-0.5,2.1-0.9
			l2.2-10.5c0.4-2.1,1.6-3.1,3.3-3.1c0.4,0,0.8,0.1,1.2,0.3c0.4,0.2,0.6,0.5,0.8,0.8c0.6-0.8,1.4-1.2,2.5-1.2c0.6,0,1.1,0.2,1.5,0.6
			c0.4,0.4,0.7,0.8,0.7,1.4c0,0.3,0,0.5-0.1,0.8H47.1z M35.8,57.8c-0.7,0.2-1.1,0.4-1.4,0.6c-0.5,0.4-0.7,0.8-0.7,1.2
			c0,0.2,0.1,0.4,0.4,0.6c0.1,0,0.2,0.1,0.4,0.1c0.2,0,0.3-0.1,0.5-0.3c0.2-0.2,0.4-0.6,0.5-1.1L35.8,57.8z M37.8,59.9
			c0.2,0.2,0.5,0.4,1.1,0.4c0.2,0,0.4-0.1,0.6-0.3c0.2-0.2,0.4-0.6,0.5-1.1l0.4-2.1l-1.9,0.3l-0.3,1.7C38.1,59.2,38,59.6,37.8,59.9z
			 M42.1,48.9h-1.8l-1.6,7.8l1.9-0.3L42.1,48.9z M42.2,48.1l0.4-1.9c0-0.1,0-0.3,0-0.5c0-0.2-0.1-0.3-0.2-0.4
			c-0.1-0.1-0.3-0.2-0.4-0.2c-0.7,0-1.1,0.5-1.3,1.5l-0.3,1.5H42.2z"/>
		<path d="M53.5,54c-1.4,2.3-3.1,3.4-5.1,3.4c-0.9,0-1.6-0.2-2.1-0.7c-0.5-0.5-0.8-1.2-0.8-2.2c0-1.4,0.4-2.8,1.1-4.1
			c0.5-1,1.3-1.7,2.2-2.1c0.5-0.2,1-0.3,1.5-0.3c0.8,0,1.4,0.2,1.7,0.5c0.3,0.3,0.5,0.7,0.5,1.3c0,1-0.4,1.9-1.3,2.7
			c-0.8,0.7-1.8,1.1-3,1.2c0,0.3,0,0.6,0,0.7c0,0.6,0.1,1,0.3,1.2c0.2,0.2,0.5,0.3,0.9,0.3c0.7,0,1.3-0.2,1.8-0.5
			c0.5-0.3,1-0.8,1.5-1.4H53.5z M51.2,49.6c0-0.4-0.2-0.7-0.5-0.7c-0.4,0-0.9,0.4-1.3,1.2c-0.4,0.8-0.7,1.6-0.9,2.6
			c0.7,0,1.3-0.4,1.9-1S51.2,50.4,51.2,49.6z"/>
		<path d="M55.4,54.2c0,1,0.4,1.5,1.2,1.5c0.3,0,0.7-0.1,1.1-0.3c0.4-0.2,0.7-0.4,1-0.7c-0.3,1.8-1.4,2.7-3.2,2.7
			c-0.9,0-1.6-0.2-2.1-0.7c-0.5-0.5-0.8-1.2-0.8-2.2c0-1.4,0.4-2.8,1.1-4.1c0.5-1,1.3-1.7,2.2-2.1c0.5-0.2,1-0.3,1.5-0.3
			c0.8,0,1.4,0.2,1.7,0.5c0.3,0.3,0.5,0.7,0.5,1.3c0,1.1-0.4,1.9-1.3,2.7c-0.8,0.7-1.8,1.1-3,1.2C55.4,53.8,55.4,54,55.4,54.2z
			 M58.2,49.6c0-0.4-0.2-0.7-0.5-0.7c-0.6,0-1.1,0.7-1.7,2c-0.2,0.6-0.4,1.2-0.5,1.8c0.7,0,1.3-0.3,1.9-1
			C57.9,51.2,58.2,50.4,58.2,49.6z"/>
		<path d="M66.3,47.2c0.6-0.3,0.8-0.9,0.8-1.7c0-0.2-0.1-0.5-0.3-0.7c-0.2-0.3-0.6-0.4-1.1-0.4s-0.9,0.1-1.2,0.4s-0.5,0.6-0.5,1.1
			s0.1,0.8,0.2,1.1c0.2,0.5,0.6,1,1.1,1.5l0.8,0.7c0.7,0.6,1.1,1.1,1.4,1.5c0.5,0.8,0.7,1.6,0.7,2.4c0,1.5-0.5,2.7-1.6,3.5
			c-1,0.8-2.1,1.1-3.6,1.1c-1.8,0-3-0.6-3.6-1.7c-0.2-0.4-0.3-0.9-0.3-1.4c0-1,0.3-1.7,0.8-2.3c0.6-0.5,1.2-0.8,1.8-0.8
			s1.2,0.2,1.5,0.6c0.1,0.2,0.2,0.4,0.2,0.6c-0.9,0-1.6,0.3-2,0.9c-0.1,0.2-0.2,0.5-0.2,0.7c0,0.5,0.2,1,0.5,1.3s0.8,0.5,1.4,0.5
			c0.6,0,1.1-0.2,1.5-0.6s0.6-1,0.6-1.6s-0.1-1.2-0.3-1.6s-0.4-0.8-0.7-1.2c-0.3-0.4-0.6-0.7-0.9-1c-0.3-0.3-0.6-0.7-0.9-1
			c-0.7-0.8-1-1.6-1-2.3c0-0.9,0.4-1.7,1.2-2.4c0.8-0.6,1.8-0.9,3-0.9c1.5,0,2.4,0.4,2.8,1.3c0.1,0.2,0.2,0.6,0.2,1
			s-0.1,0.8-0.4,1.2c-0.3,0.3-0.6,0.5-1,0.5C66.8,47.6,66.5,47.5,66.3,47.2z"/>
		<path d="M73.7,48c1.5,0,2.2,0.6,2.2,1.7c0,0.5-0.1,0.8-0.3,1S75.2,51,74.9,51s-0.5-0.1-0.7-0.2c0.1-0.4,0.2-0.8,0.2-1.1
			c0-0.5-0.2-0.8-0.5-0.8s-0.7,0.3-1.1,1c-0.6,0.9-0.9,2-1.1,3.3c-0.1,0.4-0.1,0.8-0.1,1.3c0,0.9,0.4,1.3,1.3,1.3
			c0.7,0,1.3-0.2,1.8-0.5s1-0.8,1.5-1.4h0.6c-1.4,2.3-3.1,3.4-5.1,3.4c-0.9,0-1.6-0.2-2.1-0.7c-0.5-0.5-0.8-1.2-0.8-2.2
			c0-1.4,0.4-2.8,1.1-4.1c0.5-1,1.3-1.7,2.2-2.1C72.7,48.1,73.2,48,73.7,48z"/>
		<path d="M75.5,57.3l1.9-9.2h2.6l-0.2,1.1c0.3-0.3,0.6-0.5,1-0.8s0.8-0.4,1.2-0.4s0.7,0.1,1,0.4c0.2,0.3,0.3,0.6,0.3,0.8
			c0,0.4-0.1,0.8-0.4,1.1s-0.5,0.4-0.9,0.4c-0.3,0-0.6-0.1-0.7-0.2c-0.1-0.2-0.2-0.3-0.2-0.5c0-0.2-0.1-0.3-0.1-0.4
			s-0.1-0.1-0.2-0.1c-0.3,0-0.5,0.1-0.7,0.2s-0.4,0.3-0.7,0.5l-1.5,7H75.5z"/>
		<path d="M88.8,54c-0.8,2.3-2.1,3.4-4,3.4c-0.5,0-0.9-0.2-1.3-0.5c-0.4-0.3-0.6-0.9-0.6-1.7c0-0.3,0-0.7,0.1-1.2l1.2-5.9H87
			l-1.3,6.2c0,0.2-0.1,0.4-0.1,0.7c0,0.4,0.2,0.6,0.7,0.6c0.4,0,0.7-0.2,1-0.5s0.5-0.7,0.7-1.2H88.8z M87.6,45.7
			c0,0.4-0.1,0.7-0.4,1c-0.3,0.3-0.6,0.4-1,0.4c-0.4,0-0.7-0.1-1-0.4c-0.3-0.3-0.4-0.6-0.4-1c0-0.4,0.1-0.7,0.4-1
			c0.3-0.3,0.6-0.4,1-0.4c0.4,0,0.8,0.1,1,0.4C87.5,44.9,87.6,45.3,87.6,45.7z"/>
		<path d="M90.1,56.8l-1,4.5l-2.8,0.7l3.1-14.5H92l-0.3,1.4c0.6-0.5,1.3-0.8,2.1-0.8c1.1,0,1.7,0.5,2.1,1.5c0.1,0.4,0.2,0.8,0.2,1.3
			c0,0.5,0,1-0.1,1.4c-0.1,0.5-0.2,1-0.3,1.4c-0.1,0.5-0.3,0.9-0.5,1.4c-0.2,0.4-0.5,0.8-0.8,1.2c-0.3,0.3-0.7,0.6-1.2,0.8
			c-0.5,0.2-1,0.3-1.7,0.3S90.3,57.2,90.1,56.8z M93.6,50.9c0-1-0.3-1.5-0.9-1.5c-0.2,0-0.4,0.1-0.7,0.2c-0.2,0.1-0.4,0.4-0.6,0.7
			l-1.1,5.1c0.1,0.3,0.4,0.4,0.8,0.4c0.4,0,0.8-0.2,1.1-0.5c0.6-0.7,1.1-1.7,1.2-2.9C93.6,51.8,93.6,51.3,93.6,50.9z"/>
		<path d="M97.8,48.9h-0.6l0.2-0.7h0.6l0.6-2.5l2.7-0.4l-0.6,2.9h1.1l-0.1,0.7h-1.1l-1.2,5.5c-0.1,0.2-0.1,0.4-0.1,0.6
			s0,0.4,0.1,0.5c0.1,0.1,0.2,0.2,0.5,0.2c0.2,0,0.4,0,0.5-0.1c-0.4,1-0.8,1.6-1.5,1.7c-0.2,0-0.3,0.1-0.5,0.1
			c-0.7,0-1.1-0.2-1.4-0.6c-0.3-0.4-0.4-0.8-0.4-1.3s0-0.8,0.1-1.2L97.8,48.9z"/>
	</g>
	<g>
		<g>
			<path d="M58,20.4c-0.3-0.2-0.8-0.3-1.5-0.3c-0.2,0-0.4,0-0.6,0.1c-0.2,0.1-0.3,0.2-0.3,0.4s0.1,0.3,0.4,0.4
				c0.2,0.1,0.6,0.2,1,0.2c0.4,0,0.7,0,0.9-0.1c0.4-0.1,0.9-0.2,1.3-0.4l0.6-0.3c0.5-0.2,1.2-0.7,1.6-0.8c0.7-0.2,1.4-0.3,2.1-0.3
				c1.3,0,2.4,0.2,3.1,0.6c0.7,0.3,0.8,1.1,0.8,1.6c0,0.6-0.5,1.1-1.5,1.3C65.4,22.9,65,23,64.5,23c-0.8,0-1.5-0.1-2-0.3
				c-0.5-0.2-0.7-0.4-0.7-0.7c0-0.2,0.2-0.4,0.5-0.5c0.1,0,0.3-0.1,0.5-0.1c0,0.3,0.3,0.6,0.8,0.7c0.2,0,0.4,0.1,0.7,0.1
				c0.5,0,0.8-0.1,1.1-0.2c0.3-0.1,0.5-0.3,0.5-0.5c0-0.2-0.2-0.4-0.6-0.5c-0.4-0.1-0.8-0.2-1.4-0.2c-0.6,0-1,0-1.4,0.1
				c-0.4,0.1-0.7,0.2-1,0.3s-0.6,0.2-0.9,0.3c-0.3,0.1-0.6,0.2-0.9,0.3c-0.7,0.2-1.4,0.4-2,0.4c-0.8,0-1.5-0.1-2.1-0.4
				s-0.8-0.7-0.8-1.1c0-0.5,0.4-0.9,1.2-1c0.2,0,0.5-0.1,0.9-0.1c0.4,0,0.7,0,1,0.1c0.3,0.1,0.5,0.2,0.5,0.4S58.3,20.3,58,20.4z"/>
		</g>
		<g>
			<path d="M61.4,26.6c-9.7,0-11-2.3-11-2.3c0,1.2,0.3,2.4,0.7,3.5c-0.6,0.5-2.2,2-2.2,4.2c0,2.8,3.3,4.5,5.5,3.1
				c0,0-3.7-0.5-3.7-3.8c0-1.2,0.4-2,1-2.5c0.9,2,2.2,3.5,2.6,4.1c0.8,1,1,0.7,1.5,2.6c0.4,1.6,4,2.5,6,2.5v0c0,0,0,0,0,0
				c0,0,0,0,0,0v0c2-0.1,5.3-0.9,5.7-2.5c0.5-2,0.5-1.6,1.3-2.6c0.8-1,3.8-4.7,3.8-8.7C72.4,24.3,71.2,26.6,61.4,26.6z"/>
			<path d="M61.7,25.2v1.5c0,0-0.4,0-0.4,0s0.4,0,0.4,0V25.2c11,0,11-3,11-3l-1.3-1.3c2.7,2.7-8.6,3-9.9,3c-1.3,0-12.7-0.3-9.9-3
				l-1,1.3C50.4,22.2,49.7,25.1,61.7,25.2z"/>
		</g>
	</g>
</g>
<g>
	<path d="M-100.5-57.3c0-0.8,0.3-1.5,0.9-2.1c0.6-0.6,1.3-0.9,2.1-0.9c0.8,0,1.6,0.3,2.1,0.9c0.6,0.6,0.9,1.3,0.9,2.1
		c0,0.8-0.3,1.6-0.9,2.1c-0.6,0.6-1.3,0.9-2.1,0.9s-1.6-0.3-2.1-0.9C-100.2-55.7-100.5-56.5-100.5-57.3z M-95.2-49v31h-4.6v-31
		H-95.2z"/>
	<path d="M-74.5-49h4.7v20.1h-4.7V-31c-1.9,1.8-4,2.7-6.2,2.7c-2.8,0-5.1-1-6.9-3c-1.8-2-2.7-4.6-2.7-7.7c0-3,0.9-5.5,2.7-7.5
		s4.1-3,6.8-3c2.3,0,4.4,1,6.3,2.9V-49z M-85.5-39c0,1.9,0.5,3.5,1.5,4.7c1.1,1.2,2.4,1.8,4,1.8c1.7,0,3.1-0.6,4.2-1.8
		c1.1-1.2,1.6-2.8,1.6-4.7c0-1.9-0.5-3.4-1.6-4.7c-1.1-1.2-2.4-1.8-4.1-1.8c-1.6,0-2.9,0.6-4,1.8C-85-42.3-85.5-40.8-85.5-39z"/>
	<path d="M-49.2-63.7h4.7v34.8h-4.7V-31c-1.8,1.8-3.9,2.7-6.2,2.7c-2.7,0-5-1-6.8-3c-1.8-2-2.7-4.6-2.7-7.7c0-3,0.9-5.5,2.7-7.5
		c1.8-2,4-3,6.7-3c2.4,0,4.5,1,6.3,2.9V-63.7z M-60.2-39c0,1.9,0.5,3.5,1.5,4.7c1.1,1.2,2.4,1.8,4,1.8c1.7,0,3.1-0.6,4.2-1.8
		c1.1-1.2,1.6-2.8,1.6-4.7c0-1.9-0.5-3.4-1.6-4.7c-1.1-1.2-2.4-1.8-4.1-1.8c-1.6,0-2.9,0.6-4,1.8C-59.6-42.3-60.2-40.8-60.2-39z"/>
	<path d="M-20.4-37.8h-14.4c0.1,1.6,0.7,3,1.6,3.9c0.9,1,2.2,1.4,3.6,1.4c1.2,0,2.1-0.3,2.9-0.8c0.7-0.5,1.6-1.6,2.5-3.1l3.9,2.2
		c-0.6,1-1.2,1.9-1.9,2.6c-0.7,0.7-1.4,1.3-2.2,1.8c-0.8,0.5-1.6,0.8-2.5,1c-0.9,0.2-1.9,0.3-2.9,0.3c-3,0-5.4-1-7.2-2.9
		c-1.8-1.9-2.7-4.5-2.7-7.7c0-3.2,0.9-5.7,2.6-7.7c1.8-1.9,4.1-2.9,7.1-2.9c3,0,5.3,0.9,7,2.8c1.7,1.9,2.6,4.5,2.6,7.8L-20.4-37.8z
		 M-25.1-41.6c-0.6-2.5-2.2-3.7-4.7-3.7c-0.6,0-1.1,0.1-1.6,0.3c-0.5,0.2-0.9,0.4-1.4,0.7c-0.4,0.3-0.8,0.7-1,1.2
		c-0.3,0.5-0.5,1-0.7,1.5H-25.1z"/>
</g>
<g>
</g>
<g>
</g>
<g>
</g>
<g>
</g>
<g>
</g>
<g>
</g>
<g>
</g>
<g>
</g>
<g>
</g>
<g>
</g>
<g>
</g>
<g>
</g>
<g>
</g>
<g>
</g>
<g>
</g>
</svg>
