<?xml version="1.0" encoding="utf-8"?>
<!-- Generator: Adobe Illustrator 17.1.0, SVG Export Plug-In . SVG Version: 6.00 Build 0)  -->
<!DOCTYPE svg PUBLIC "-//W3C//DTD SVG 1.1//EN" "http://www.w3.org/Graphics/SVG/1.1/DTD/svg11.dtd">
<svg version="1.1" id="Layer_1" xmlns="http://www.w3.org/2000/svg" xmlns:xlink="http://www.w3.org/1999/xlink" x="0px" y="0px"
	 viewBox="0 0 121.7 81.3" style="enable-background:new 0 0 121.7 81.3;" xml:space="preserve">
<style type="text/css">
	.st0{fill-rule:evenodd;clip-rule:evenodd;}
</style>
<g>
	<path d="M-597.9-35.4c0-1.4-0.9-2.9-3.5-3v-3.5c2.6-0.1,3.5-1.6,3.5-3c0-2.5-0.4-4.1-0.4-7c0-4.4,1.6-5.8,5.2-5.8h9.6v3.2h-7.8
		c-1.7,0-2.2,0.6-2.2,2.8c0,2.2,0.2,4.2,0.2,6.6c0,3.1-1,4.3-3,4.8v0.2c2,0.5,3,1.7,3,4.8c0,2.5-0.2,4.4-0.2,6.6
		c0,2.2,0.5,2.9,2.2,2.9h0.8v3.2h-2.6c-3.6,0-5.2-1.4-5.2-5.8C-598.3-31.3-597.9-32.8-597.9-35.4z"/>
	<path d="M-589.4-57.4h6v22.5c0,1.3,0.6,1.7,1.1,1.7c0.2,0,0.4,0,0.7-0.1l0.7,4.4c-0.7,0.3-1.7,0.5-3,0.5c-4.1,0-5.5-2.7-5.5-6.8
		V-57.4z"/>
	<path d="M-572.6-49.5c5.7,0,8.6,4.2,8.6,9.7c0,1.1-0.1,2-0.2,2.5h-12.1c0.5,3.1,2.6,4.4,5.3,4.4c1.5,0,2.9-0.4,4.4-1.3l2,3.6
		c-2.1,1.4-4.8,2.3-7.2,2.3c-5.8,0-10.2-3.9-10.2-10.6C-582.1-45.5-577.4-49.5-572.6-49.5z M-569.1-41c0-2.3-1-4-3.4-4
		c-1.9,0-3.5,1.3-3.9,4H-569.1z"/>
	<path d="M-560.5-34.9c1.8,1.4,3.5,2.1,5.2,2.1c1.8,0,2.6-0.7,2.6-1.7c0-1.3-2-2-4.1-2.8c-2.4-0.9-5.3-2.6-5.3-5.9
		c0-3.7,3.1-6.3,7.7-6.3c3.1,0,5.4,1.3,7.1,2.6l-2.7,3.6c-1.5-1.1-2.8-1.7-4.3-1.7c-1.5,0-2.3,0.6-2.3,1.6c0,1.3,1.9,1.8,4,2.6
		c2.6,0.9,5.5,2.4,5.5,6.1c0,3.7-2.9,6.5-8.3,6.5c-2.6,0-5.7-1.1-7.7-2.8L-560.5-34.9z"/>
	<path d="M-544.1-34.9c1.8,1.4,3.5,2.1,5.2,2.1c1.8,0,2.6-0.7,2.6-1.7c0-1.3-2-2-4.1-2.8c-2.4-0.9-5.3-2.6-5.3-5.9
		c0-3.7,3.1-6.3,7.7-6.3c3.1,0,5.4,1.3,7.1,2.6l-2.7,3.6c-1.5-1.1-2.8-1.7-4.3-1.7c-1.5,0-2.3,0.6-2.3,1.6c0,1.3,1.9,1.8,3.9,2.6
		c2.6,0.9,5.5,2.4,5.5,6.1c0,3.7-2.9,6.5-8.3,6.5c-2.6,0-5.7-1.1-7.7-2.8L-544.1-34.9z"/>
	<path d="M-529.4-25.8c1.7,0,2.2-0.6,2.2-2.9c0-2.2-0.2-4.2-0.2-6.6c0-3.1,1-4.3,3-4.8v-0.2c-2-0.5-3-1.7-3-4.8
		c0-2.4,0.2-4.5,0.2-6.6c0-2.2-0.4-2.8-2.2-2.8h-0.8v-3.2h2.6c3.6,0,5.2,1.4,5.2,5.8c0,2.8-0.4,4.4-0.4,7c0,1.4,0.9,2.9,3.5,3v3.5
		c-2.6,0.1-3.5,1.6-3.5,3c0,2.6,0.4,4.1,0.4,7c0,4.4-1.6,5.8-5.2,5.8h-2.6v-3.2H-529.4z"/>
</g>
<g>
	<g>
		<path d="M-289.6-20.3H-345c-2.6,0-4.7-2.1-4.7-4.7v-30.5c0-2.6,2.1-4.7,4.7-4.7h55.4c2.6,0,4.7,2.1,4.7,4.7v30.5
			C-285-22.3-287.1-20.3-289.6-20.3z M-345-57c-0.9,0-1.6,0.7-1.6,1.6v30.5c0,0.9,0.7,1.6,1.6,1.6h55.4c0.9,0,1.6-0.7,1.6-1.6v-30.5
			c0-0.9-0.7-1.6-1.6-1.6H-345z"/>
	</g>
	<g>
		<path d="M-340.4-29.6v-21.2h6.2l6.2,7.8l6.2-7.8h6.2v21.2h-6.2v-12.1l-6.2,7.8l-6.2-7.8v12.1H-340.4z"/>
	</g>
	<g>
		<path d="M-301.5-29.6l-9.3-10.3h6.2v-10.9h6.2v10.9h6.2L-301.5-29.6z"/>
	</g>
</g>
<path d="M-528.1,45.4c-2.5,0-4.7,0.6-6.6,1.5c-0.7-1.3-1.4-2.5-1.5-3.4c-0.1-1-0.3-1.6-0.1-2.9c0.2-1.2,0.9-3,0.9-3.1
	c0-0.1-0.2-0.8-1.6-0.8c-1.5,0-2.7,0.3-2.9,0.7c-0.1,0.4-0.4,1.3-0.6,2.2c-0.3,1.3-2.9,6.1-4.4,8.6c-0.5-1-0.9-1.8-1-2.5
	c-0.1-1-0.3-1.6-0.1-2.9c0.2-1.2,0.9-3,0.9-3.1c0-0.1-0.2-0.8-1.6-0.8c-1.5,0-2.7,0.3-2.9,0.7c-0.1,0.4-0.3,1.3-0.6,2.2
	c-0.3,0.9-3.9,8.8-4.8,10.8c-0.5,1-0.9,1.9-1.2,2.5c0,0,0,0,0,0s0,0,0,0.1c-0.2,0.5-0.4,0.8-0.4,0.8s0,0,0,0
	c-0.2,0.4-0.4,0.7-0.5,0.7c-0.1,0-0.2-1,0-2.3c0.5-2.7,1.8-7,1.8-7.2c0-0.1,0.2-0.8-0.8-1.2c-1-0.4-1.4,0.3-1.5,0.3
	c-0.1,0-0.2,0.2-0.2,0.2s1.2-4.8-2.2-4.8c-2.1,0-5,2.3-6.4,4.4c-0.9,0.5-2.8,1.5-4.9,2.7c-0.8,0.4-1.6,0.9-2.4,1.3
	c-0.1-0.1-0.1-0.1-0.2-0.2c-4.1-4.3-11.6-7.4-11.3-13.2c0.1-2.1,0.9-7.7,14.4-14.5c11.1-5.5,20-4,21.6-0.6
	c2.2,4.8-4.8,13.8-16.3,15.1c-4.4,0.5-6.7-1.2-7.3-1.8c-0.6-0.7-0.7-0.7-0.9-0.6c-0.4,0.2-0.1,0.8,0,1.1c0.3,0.9,1.8,2.5,4.2,3.3
	c2.1,0.7,7.3,1.1,13.5-1.3c7-2.7,12.5-10.2,10.9-16.5c-1.6-6.4-12.3-8.5-22.3-4.9c-6,2.1-12.5,5.5-17.1,9.8
	c-5.5,5.2-6.4,9.7-6.1,11.6c1.3,6.7,10.5,11,14.2,14.3c-0.2,0.1-0.4,0.2-0.5,0.3c-1.9,0.9-8.9,4.6-10.6,8.5c-2,4.4,0.3,7.6,1.8,8
	c4.7,1.3,9.6-1.1,12.2-5c2.6-3.9,2.3-9,1.1-11.3c0,0,0-0.1,0-0.1c0.5-0.3,1-0.6,1.4-0.9c0.9-0.6,1.9-1.1,2.7-1.5
	c-0.4,1.2-0.8,2.7-0.9,4.8c-0.2,2.5,0.8,5.7,2.2,7c0.6,0.6,1.3,0.6,1.8,0.6c1.6,0,2.3-1.3,3.1-2.8c1-1.9,1.8-4.1,1.8-4.1
	s-1.1,5.9,1.8,5.9c1.1,0,2.1-1.4,2.6-2.1c0,0,0,0,0,0s0,0,0.1-0.1c0.1-0.2,0.2-0.3,0.2-0.3s0,0,0,0c0.4-0.7,1.4-2.4,2.8-5.2
	c1.8-3.6,3.6-8.1,3.6-8.1s0.2,1.1,0.7,2.9c0.3,1.1,1,2.3,1.5,3.4c-0.4,0.6-0.7,0.9-0.7,0.9s0,0,0,0c-0.3,0.5-0.7,0.9-1.1,1.4
	c-1.5,1.7-3.2,3.7-3.4,4.3c-0.3,0.7-0.2,1.2,0.3,1.6c0.4,0.3,1.1,0.3,1.8,0.3c1.3-0.1,2.2-0.4,2.7-0.6c0.7-0.2,1.5-0.6,2.3-1.2
	c1.4-1,2.3-2.5,2.2-4.5c0-1.1-0.4-2.2-0.8-3.2c0.1-0.2,0.3-0.4,0.4-0.6c2.2-3.3,4-6.9,4-6.9s0.2,1.1,0.7,2.9
	c0.3,0.9,0.8,1.9,1.3,2.9c-2.1,1.7-3.4,3.7-3.9,5c-0.8,2.4-0.2,3.5,1.1,3.8c0.6,0.1,1.3-0.1,1.9-0.4c0.7-0.2,1.6-0.7,2.5-1.3
	c1.4-1,2.8-2.5,2.7-4.5c0-0.9-0.3-1.8-0.6-2.7c1.8-0.7,4.1-1.2,7.1-0.8c6.3,0.7,7.6,4.7,7.3,6.3c-0.2,1.7-1.6,2.6-2,2.8
	c-0.4,0.3-0.6,0.4-0.5,0.6c0.1,0.3,0.3,0.3,0.6,0.2c0.5-0.1,3.3-1.3,3.4-4.4C-517.8,49.6-521.5,45.4-528.1,45.4z M-576.9,61.8
	c-2.1,2.3-5,3.1-6.3,2.4c-1.4-0.8-0.8-4.2,1.8-6.6c1.6-1.5,3.6-2.8,4.9-3.7c0.3-0.2,0.8-0.5,1.3-0.8c0.1-0.1,0.1-0.1,0.1-0.1l0,0
	c0.1-0.1,0.2-0.1,0.3-0.2C-573.8,56.4-574.7,59.4-576.9,61.8z M-561.6,51.5c-0.7,1.8-2.3,6.3-3.2,6.1c-0.8-0.2-1.3-3.7-0.2-7.1
	c0.6-1.7,1.8-3.8,2.5-4.6c1.1-1.3,2.4-1.7,2.7-1.2C-559.4,45.4-561.1,50.4-561.6,51.5z M-549,57.5c-0.3,0.2-0.6,0.3-0.7,0.2
	c-0.1-0.1,0.1-0.3,0.1-0.3s1.6-1.7,2.2-2.5c0.4-0.4,0.8-1,1.2-1.6c0,0.1,0,0.1,0,0.2C-546.1,55.6-548.1,56.9-549,57.5z M-539.3,55.3
	c-0.2-0.2-0.2-0.7,0.6-2.3c0.3-0.6,1-1.7,2.2-2.8c0.1,0.4,0.2,0.8,0.2,1.2C-536.3,53.9-538.2,54.9-539.3,55.3z"/>
<g>
	<path d="M-463,35.5c0.7,0,1.3,0.1,1.7,0.3c0.4,0.2,0.7,0.4,0.7,0.7c0,0.4-0.1,0.8-0.3,1.2c-0.2,0.5-0.4,0.8-0.5,1.1
		c-0.1,0.1-0.1,0.1-0.2,0c-0.1,0-0.1-0.1-0.1-0.3c0.1-0.2,0.1-0.6,0.1-1c0-0.5-0.1-0.8-0.4-1.1c-0.2-0.3-0.6-0.4-1-0.4
		c-0.6,0-1,0.2-1.3,0.5c-0.3,0.3-0.5,0.8-0.5,1.4c0,0.5,0.1,1,0.4,1.5c0.3,0.5,0.6,0.9,0.9,1.4c0.3,0.5,0.7,1,1,1.5
		c0.3,0.5,0.4,1.1,0.4,1.8c0,1.2-0.5,2.1-1.4,2.7c-0.9,0.7-2.2,1-3.7,1c-1.1,0-2-0.2-2.6-0.5c-0.6-0.4-1-0.7-1-1.2
		c0-0.1,0-0.3,0.1-0.5c0.1-0.2,0.2-0.5,0.4-0.7c0.2-0.3,0.3-0.5,0.5-0.8c0.2-0.3,0.4-0.5,0.6-0.6c0.1-0.1,0.2,0,0.3,0
		c0.1,0.1,0.1,0.2,0,0.3c-0.2,0.2-0.3,0.4-0.4,0.6c-0.1,0.2-0.1,0.5-0.1,0.9c0,0.6,0.2,1.1,0.6,1.4c0.4,0.4,0.9,0.6,1.5,0.6
		c0.8,0,1.5-0.2,2-0.7c0.5-0.5,0.7-1,0.7-1.7c0-0.6-0.1-1.2-0.4-1.7c-0.3-0.5-0.6-1.1-0.9-1.6c-0.3-0.5-0.6-1-0.9-1.5
		c-0.3-0.5-0.4-1.1-0.4-1.7c0-0.8,0.4-1.6,1.1-2.1C-465.5,35.8-464.4,35.5-463,35.5z"/>
	<path d="M-449.7,35.8c0.2,0.1,0.2,0.2,0.2,0.3c0,0.1-0.2,0.2-0.4,0.3c-0.5,0-1,0-1.7,0c-0.6,0-1.3,0.1-2,0.1
		c-0.7,1.6-1.2,3.1-1.6,4.7c-0.4,1.5-0.6,2.7-0.6,3.7c0,1.1,0.4,1.7,1.3,1.7c0.8,0,1.8-0.7,2.8-2.2c0.1-0.1,0.2-0.1,0.3,0
		c0.1,0.1,0.1,0.2,0.1,0.3c-0.6,0.9-1.3,1.7-2.1,2.4c-0.8,0.7-1.7,1-2.5,1c-0.8,0-1.5-0.2-1.9-0.6c-0.4-0.4-0.6-1-0.6-1.7
		c0-0.9,0.2-2.2,0.7-3.9c0.5-1.7,1-3.4,1.8-5.1c-0.8,0.1-1.6,0.2-2.3,0.4c-0.2,0-0.2-0.1-0.1-0.2c0.1-0.1,0.2-0.3,0.4-0.4
		c0.2-0.1,0.5-0.3,0.8-0.4c0.3-0.1,0.6-0.2,0.8-0.2c0.1,0,0.3,0,0.4,0c0.1,0,0.3,0,0.4,0c0.4-0.9,0.9-1.9,1.3-2.7
		c0.5-0.9,0.9-1.7,1.4-2.4c0.2-0.2,0.5-0.4,0.8-0.6c0.3-0.2,0.7-0.3,1-0.4c0.3-0.1,0.6-0.2,0.8-0.2c0.2,0,0.3,0,0.3,0.2
		c-0.6,0.8-1.1,1.8-1.6,2.8c-0.5,1-1,2.1-1.5,3.3c0.6,0,1.2,0,1.9,0C-450.8,35.8-450.2,35.8-449.7,35.8z"/>
	<g>
		<g>
			<path d="M-420,11.3c0.5,0,0.9,0.1,1.2,0.4c0.3,0.2,0.5,0.6,0.6,1c0.1,0.4,0.1,0.9,0,1.4c-0.1,0.5-0.3,1-0.6,1.6
				c-0.1,0.1-0.1,0.1-0.2,0c-0.1-0.1-0.2-0.1-0.2-0.2c0.1-0.4-0.1-0.7-0.4-1c-0.3-0.3-0.9-0.4-1.6-0.4c-1.3,0-2.7,0.5-4,1.5
				c-1.4,1-2.7,2.3-3.9,3.9c-1.3,1.6-2.5,3.5-3.6,5.6c-1.1,2.1-2.1,4.3-2.9,6.5c-0.8,2.2-1.5,4.5-1.9,6.7c-0.5,2.2-0.7,4.2-0.7,6.1
				c0,1,0.3,1.5,0.8,1.5c0.4,0,0.8-0.2,1.1-0.5c0.4-0.3,0.8-0.8,1.3-1.5c0.1-0.1,0.2-0.1,0.3,0c0.1,0.1,0.1,0.2,0.1,0.3
				c-0.7,1-1.4,1.8-2.3,2.4c-0.9,0.7-1.7,1-2.4,1c-0.6,0-1-0.2-1.3-0.5c-0.2-0.4-0.4-0.8-0.4-1.4c0-1.5,0.3-3.4,1-5.7
				c0.7-2.3,1.5-4.7,2.6-7.3c1.1-2.6,2.4-5.1,3.8-7.6c1.4-2.5,2.9-4.8,4.5-6.9c1.5-2,3.1-3.7,4.7-5C-422.9,12-421.4,11.3-420,11.3z"
				/>
		</g>
	</g>
	<g>
		<g>
			<path d="M-463.4,71.3c-0.5,0-0.9-0.1-1.2-0.4c-0.3-0.2-0.5-0.6-0.6-1c-0.1-0.4-0.1-0.9,0-1.4c0.1-0.5,0.3-1,0.6-1.6
				c0.1-0.1,0.1-0.1,0.2,0c0.1,0.1,0.2,0.1,0.2,0.2c-0.1,0.4,0.1,0.7,0.4,1c0.3,0.3,0.9,0.4,1.6,0.4c1.3,0,2.7-0.5,4-1.5
				c1.4-1,2.7-2.3,3.9-3.9c1.3-1.6,2.5-3.5,3.6-5.6c1.1-2.1,2.1-4.3,2.9-6.5c0.8-2.2,1.5-4.5,1.9-6.7c0.5-2.2,0.7-4.2,0.7-6.1
				c0-1-0.3-1.5-0.8-1.5c-0.4,0-0.8,0.2-1.1,0.5c-0.4,0.3-0.8,0.8-1.3,1.5c-0.1,0.1-0.2,0.1-0.3,0c-0.1-0.1-0.1-0.2-0.1-0.3
				c0.7-1,1.4-1.8,2.3-2.4c0.9-0.7,1.7-1,2.4-1c0.6,0,1,0.2,1.3,0.5c0.2,0.4,0.4,0.8,0.4,1.4c0,1.5-0.3,3.4-1,5.7
				c-0.7,2.3-1.5,4.7-2.6,7.3c-1.1,2.6-2.4,5.1-3.8,7.6c-1.4,2.5-2.9,4.8-4.5,6.9c-1.5,2-3.1,3.7-4.7,5
				C-460.6,70.7-462,71.3-463.4,71.3z"/>
		</g>
	</g>
	<path d="M-430.4,48c-1.4,0-2.1-0.7-2.1-2.2c0-0.5,0.1-1.1,0.2-1.8c0.1-0.7,0.3-1.4,0.5-2.1c0.2-0.7,0.5-1.5,0.9-2.2
		c0.3-0.7,0.7-1.5,1.2-2.1c-0.4,0.2-0.7,0.5-1,0.7c-0.3,0.2-0.6,0.5-0.9,0.8c-0.1,0.1-0.2,0-0.3-0.1c-0.1-0.1-0.1-0.2,0-0.3
		c0.6-0.6,1.3-1.2,2.4-1.8c1-0.6,2-1.1,3-1.5c0.2,0,0.3,0,0.4,0.1c0.1,0.1,0.1,0.2,0,0.3c-1,1.4-1.9,2.8-2.5,4.4
		c-0.6,1.6-1,3.1-1,4.6c0,0.9,0.3,1.4,0.9,1.4c0.4,0,0.9-0.3,1.6-0.9c0.6-0.6,1.3-1.3,2-2.2c0.7-0.9,1.4-2,2.1-3.1
		c0.7-1.2,1.3-2.4,1.9-3.6c0.1-0.2,0.4-0.4,0.9-0.6c0.5-0.2,1-0.3,1.4-0.3c0.5,0,0.6,0.1,0.4,0.4c-0.5,0.8-0.9,1.6-1.2,2.4
		c-0.3,0.7-0.6,1.5-0.9,2.2c-0.2,0.7-0.4,1.4-0.5,2.2c-0.1,0.7-0.2,1.5-0.2,2.4c0,1,0.3,1.6,0.8,1.6c0.6,0,1.2-0.5,1.9-1.5
		c0.1-0.1,0.2-0.1,0.3,0c0.1,0.1,0.1,0.2,0.1,0.3c-0.6,0.8-1.2,1.5-1.8,1.9c-0.7,0.4-1.3,0.7-1.8,0.7c-1.4,0-2.1-0.8-2.1-2.4
		c0-1.7,0.3-3.3,0.9-4.9c-1.2,2.2-2.5,4-3.9,5.3C-428.3,47.4-429.5,48-430.4,48z"/>
	<path d="M-410.2,35.5c0.7,0,1.3,0.1,1.7,0.3c0.4,0.2,0.7,0.4,0.7,0.7c0,0.4-0.1,0.8-0.3,1.2c-0.2,0.5-0.4,0.8-0.5,1.1
		c-0.1,0.1-0.1,0.1-0.2,0c-0.1,0-0.1-0.1-0.1-0.3c0.1-0.2,0.1-0.6,0.1-1c0-0.5-0.1-0.8-0.4-1.1c-0.2-0.3-0.6-0.4-1-0.4
		c-0.6,0-1,0.2-1.3,0.5c-0.3,0.3-0.5,0.8-0.5,1.4c0,0.5,0.1,1,0.4,1.5c0.3,0.5,0.6,0.9,0.9,1.4c0.3,0.5,0.7,1,1,1.5
		c0.3,0.5,0.4,1.1,0.4,1.8c0,1.2-0.5,2.1-1.4,2.7c-0.9,0.7-2.2,1-3.7,1c-1.1,0-2-0.2-2.6-0.5c-0.6-0.4-1-0.7-1-1.2
		c0-0.1,0-0.3,0.1-0.5c0.1-0.2,0.2-0.5,0.4-0.7c0.2-0.3,0.3-0.5,0.5-0.8c0.2-0.3,0.4-0.5,0.6-0.6c0.1-0.1,0.2,0,0.3,0
		c0.1,0.1,0.1,0.2,0,0.3c-0.2,0.2-0.3,0.4-0.4,0.6c-0.1,0.2-0.1,0.5-0.1,0.9c0,0.6,0.2,1.1,0.6,1.4c0.4,0.4,0.9,0.6,1.5,0.6
		c0.8,0,1.5-0.2,2-0.7c0.5-0.5,0.7-1,0.7-1.7c0-0.6-0.1-1.2-0.4-1.7c-0.3-0.5-0.6-1.1-0.9-1.6c-0.3-0.5-0.6-1-0.9-1.5
		c-0.3-0.5-0.4-1.1-0.4-1.7c0-0.8,0.4-1.6,1.1-2.1C-412.7,35.8-411.6,35.5-410.2,35.5z"/>
</g>
<g>
	<g>
		<path d="M-348.8,46.7c0,1.1-0.4,1.7-1.3,1.7c-0.4,0-0.8-0.2-1-0.5c0.2-0.1,0.4-0.3,0.6-0.7s0.3-0.7,0.3-1c0-0.3-0.1-0.6-0.3-0.8
			c-0.2-0.2-0.4-0.3-0.8-0.3s-0.7,0.1-1,0.4c-0.3,0.3-0.6,0.6-0.9,1c-0.6,0.9-1,2-1.4,3.3c-0.4,1.3-0.5,2.6-0.5,3.6
			c0,1.1,0.2,1.9,0.5,2.4s0.9,0.7,1.6,0.7c1.5,0,2.8-0.6,3.7-1.8l0.4,0.2c-0.6,1.5-1.7,2.5-3.3,3.1c-0.6,0.2-1.3,0.3-1.9,0.3
			c0,0,0,0-0.1,0c-1.4,0-2.4-0.4-3-1.1s-1-1.8-1-3.3s0.3-3.1,0.8-4.6c0.6-1.8,1.5-3.2,2.6-4.1c0.9-0.7,1.9-1,3-1
			c1.4,0,2.4,0.4,2.8,1.3C-348.9,45.9-348.8,46.2-348.8,46.7z"/>
		<path d="M-339.2,51c-0.7,0.8-1.8,1.3-3.3,1.5c-0.1,1.7-0.6,3-1.4,4c-0.8,1-1.8,1.5-2.9,1.5c-1.4,0-2.3-0.5-2.7-1.6
			c-0.1-0.4-0.2-0.8-0.2-1.2c0-0.4,0-0.9,0.1-1.4c0.1-0.5,0.2-0.9,0.4-1.4c0.4-1.1,0.9-2,1.6-2.7c0.8-0.8,1.8-1.2,3-1.2
			c1.6,0,2.4,1,2.4,2.9v0c0.1,0,0.2,0,0.3,0c0.3,0,0.8-0.1,1.3-0.3s1-0.5,1.5-0.8L-339.2,51z M-344,52.6c-0.3-0.1-0.5-0.4-0.5-0.8
			s0.2-0.8,0.6-1c0-0.4-0.1-0.7-0.2-0.8c-0.1-0.2-0.3-0.2-0.6-0.2c-0.6,0-1.1,0.6-1.6,1.9c-0.5,1.2-0.8,2.3-0.8,3.3
			c0,0.6,0.1,1,0.2,1.1c0.1,0.2,0.2,0.3,0.3,0.3c0.1,0,0.3,0.1,0.5,0.1c0.4,0,0.8-0.4,1.2-1.1C-344.4,54.6-344.1,53.7-344,52.6z"/>
		<path d="M-330.9,47c0-0.2,0-0.4,0-0.5c0-0.2-0.1-0.3-0.2-0.4c-0.1-0.1-0.3-0.2-0.4-0.2c-0.7,0-1.1,0.5-1.3,1.5l-0.3,1.5h1.8
			l-0.2,0.7h-1.8l-2.1,9.9c-0.2,1.2-0.7,2-1.4,2.5c-0.5,0.4-1.2,0.6-1.9,0.6c-1,0-1.7-0.4-2-1.2c-0.6,0.8-1.4,1.2-2.5,1.2
			c-0.6,0-1.1-0.2-1.5-0.6s-0.7-0.8-0.7-1.3s0.1-0.9,0.2-1.2s0.4-0.6,0.8-0.8s1.1-0.5,2.1-0.9l2.2-10.5c0.4-2.1,1.6-3.1,3.3-3.1
			c0.4,0,0.8,0.1,1.2,0.3c0.4,0.2,0.6,0.5,0.8,0.8c0.6-0.8,1.4-1.2,2.5-1.2c0.6,0,1.1,0.2,1.5,0.6c0.4,0.4,0.7,0.8,0.7,1.4
			c0,0.3,0,0.5-0.1,0.8H-330.9z M-342.2,58.5c-0.7,0.2-1.1,0.4-1.4,0.6c-0.5,0.4-0.7,0.8-0.7,1.2c0,0.2,0.1,0.4,0.4,0.6
			c0.1,0,0.2,0.1,0.4,0.1s0.3-0.1,0.5-0.3c0.2-0.2,0.4-0.6,0.5-1.1L-342.2,58.5z M-340.2,60.6c0.2,0.2,0.5,0.4,1.1,0.4
			c0.2,0,0.4-0.1,0.6-0.3c0.2-0.2,0.4-0.6,0.5-1.1l0.4-2.1l-1.9,0.3l-0.3,1.7C-339.9,59.9-340,60.3-340.2,60.6z M-335.9,49.5h-1.8
			l-1.6,7.8l1.9-0.3L-335.9,49.5z M-335.8,48.8l0.4-1.9c0-0.1,0-0.3,0-0.5c0-0.2-0.1-0.3-0.2-0.4c-0.1-0.1-0.3-0.2-0.4-0.2
			c-0.7,0-1.1,0.5-1.3,1.5l-0.3,1.5H-335.8z"/>
		<path d="M-324.5,54.7c-1.4,2.3-3.1,3.4-5.1,3.4c-0.9,0-1.6-0.2-2.1-0.7c-0.5-0.5-0.8-1.2-0.8-2.2c0-1.4,0.4-2.8,1.1-4.1
			c0.5-1,1.3-1.7,2.2-2.1c0.5-0.2,1-0.3,1.5-0.3c0.8,0,1.4,0.2,1.7,0.5s0.5,0.7,0.5,1.3c0,1-0.4,1.9-1.3,2.7c-0.8,0.7-1.8,1.1-3,1.2
			c0,0.3,0,0.6,0,0.7c0,0.6,0.1,1,0.3,1.2c0.2,0.2,0.5,0.3,0.9,0.3c0.7,0,1.3-0.2,1.8-0.5c0.5-0.3,1-0.8,1.5-1.4H-324.5z
			 M-326.8,50.3c0-0.4-0.2-0.7-0.5-0.7c-0.4,0-0.9,0.4-1.3,1.2c-0.4,0.8-0.7,1.6-0.9,2.6c0.7,0,1.3-0.4,1.9-1
			C-327.1,51.8-326.8,51.1-326.8,50.3z"/>
		<path d="M-322.6,54.8c0,1,0.4,1.5,1.2,1.5c0.3,0,0.7-0.1,1.1-0.3c0.4-0.2,0.7-0.4,1-0.7c-0.3,1.8-1.4,2.7-3.2,2.7
			c-0.9,0-1.6-0.2-2.1-0.7c-0.5-0.5-0.8-1.2-0.8-2.2c0-1.4,0.4-2.8,1.1-4.1c0.5-1,1.3-1.7,2.2-2.1c0.5-0.2,1-0.3,1.5-0.3
			c0.8,0,1.4,0.2,1.7,0.5s0.5,0.7,0.5,1.3c0,1.1-0.4,1.9-1.3,2.7s-1.8,1.1-3,1.2C-322.6,54.4-322.6,54.6-322.6,54.8z M-319.8,50.3
			c0-0.4-0.2-0.7-0.5-0.7c-0.6,0-1.1,0.7-1.7,2c-0.2,0.6-0.4,1.2-0.5,1.8c0.7,0,1.3-0.3,1.9-1C-320.1,51.8-319.8,51.1-319.8,50.3z"
			/>
		<path d="M-311.7,47.9c0.6-0.3,0.8-0.9,0.8-1.7c0-0.2-0.1-0.5-0.3-0.7c-0.2-0.3-0.6-0.4-1.1-0.4c-0.5,0-0.9,0.1-1.2,0.4
			s-0.5,0.6-0.5,1.1s0.1,0.8,0.2,1.1c0.2,0.5,0.6,1,1.1,1.5l0.8,0.7c0.7,0.6,1.1,1.1,1.4,1.5c0.5,0.8,0.7,1.6,0.7,2.4
			c0,1.5-0.5,2.7-1.6,3.5c-1,0.8-2.1,1.1-3.6,1.1c-1.8,0-3-0.6-3.6-1.7c-0.2-0.4-0.3-0.9-0.3-1.4c0-1,0.3-1.7,0.8-2.3
			c0.6-0.5,1.2-0.8,1.8-0.8c0.7,0,1.2,0.2,1.5,0.6c0.1,0.2,0.2,0.4,0.2,0.6c-0.9,0-1.6,0.3-2,0.9c-0.1,0.2-0.2,0.5-0.2,0.7
			c0,0.5,0.2,1,0.5,1.3c0.3,0.3,0.8,0.5,1.4,0.5s1.1-0.2,1.5-0.6c0.4-0.4,0.6-1,0.6-1.6c0-0.7-0.1-1.2-0.3-1.6
			c-0.2-0.4-0.4-0.8-0.7-1.2c-0.3-0.4-0.6-0.7-0.9-1c-0.3-0.3-0.6-0.7-0.9-1c-0.7-0.8-1-1.6-1-2.3c0-0.9,0.4-1.7,1.2-2.4
			s1.8-0.9,3-0.9c1.5,0,2.4,0.4,2.8,1.3c0.1,0.2,0.2,0.6,0.2,1c0,0.4-0.1,0.8-0.4,1.2c-0.3,0.3-0.6,0.5-1,0.5
			C-311.2,48.3-311.5,48.1-311.7,47.9z"/>
		<path d="M-304.3,48.6c1.5,0,2.2,0.6,2.2,1.7c0,0.5-0.1,0.8-0.3,1s-0.4,0.3-0.6,0.3c-0.2,0-0.5-0.1-0.7-0.2
			c0.1-0.4,0.2-0.8,0.2-1.1c0-0.5-0.2-0.8-0.5-0.8c-0.4,0-0.7,0.3-1.1,1c-0.6,0.9-0.9,2-1.1,3.3c-0.1,0.4-0.1,0.8-0.1,1.3
			c0,0.9,0.4,1.3,1.3,1.3c0.7,0,1.3-0.2,1.8-0.5s1-0.8,1.5-1.4h0.6c-1.4,2.3-3.1,3.4-5.1,3.4c-0.9,0-1.6-0.2-2.1-0.7
			c-0.5-0.5-0.8-1.2-0.8-2.2c0-1.4,0.4-2.8,1.1-4.1c0.5-1,1.3-1.7,2.2-2.1C-305.3,48.8-304.8,48.6-304.3,48.6z"/>
		<path d="M-302.5,58l1.9-9.2h2.6l-0.2,1.1c0.3-0.3,0.6-0.5,1-0.8c0.4-0.2,0.8-0.4,1.2-0.4s0.7,0.1,1,0.4c0.2,0.3,0.3,0.6,0.3,0.8
			c0,0.4-0.1,0.8-0.4,1.1c-0.2,0.3-0.5,0.4-0.9,0.4c-0.3,0-0.6-0.1-0.7-0.2c-0.1-0.2-0.2-0.3-0.2-0.5s-0.1-0.3-0.1-0.4
			c0-0.1-0.1-0.1-0.2-0.1c-0.3,0-0.5,0.1-0.7,0.2c-0.2,0.1-0.4,0.3-0.7,0.5l-1.5,7H-302.5z"/>
		<path d="M-289.2,54.7c-0.8,2.3-2.1,3.4-4,3.4c-0.5,0-0.9-0.2-1.3-0.5c-0.4-0.3-0.6-0.9-0.6-1.7c0-0.3,0-0.7,0.1-1.2l1.2-5.9h2.6
			l-1.3,6.2c0,0.2-0.1,0.4-0.1,0.7c0,0.4,0.2,0.6,0.7,0.6c0.4,0,0.7-0.2,1-0.5s0.5-0.7,0.7-1.2H-289.2z M-290.4,46.4
			c0,0.4-0.1,0.7-0.4,1s-0.6,0.4-1,0.4c-0.4,0-0.7-0.1-1-0.4c-0.3-0.3-0.4-0.6-0.4-1c0-0.4,0.1-0.7,0.4-1c0.3-0.3,0.6-0.4,1-0.4
			c0.4,0,0.8,0.1,1,0.4S-290.4,46-290.4,46.4z"/>
		<path d="M-287.9,57.4l-1,4.5l-2.8,0.7l3.1-14.5h2.6l-0.3,1.4c0.6-0.5,1.3-0.8,2.1-0.8c1.1,0,1.7,0.5,2.1,1.5
			c0.1,0.4,0.2,0.8,0.2,1.3c0,0.5,0,1-0.1,1.4c-0.1,0.5-0.2,1-0.3,1.4s-0.3,0.9-0.5,1.4c-0.2,0.4-0.5,0.8-0.8,1.2
			c-0.3,0.3-0.7,0.6-1.2,0.8c-0.5,0.2-1,0.3-1.7,0.3S-287.7,57.9-287.9,57.4z M-284.4,51.6c0-1-0.3-1.5-0.9-1.5
			c-0.2,0-0.4,0.1-0.7,0.2c-0.2,0.1-0.4,0.4-0.6,0.7l-1.1,5.1c0.1,0.3,0.4,0.4,0.8,0.4c0.4,0,0.8-0.2,1.1-0.5
			c0.6-0.7,1.1-1.7,1.2-2.9C-284.4,52.5-284.4,52-284.4,51.6z"/>
		<path d="M-280.2,49.5h-0.6l0.2-0.7h0.6l0.6-2.5l2.7-0.4l-0.6,2.9h1.1l-0.1,0.7h-1.1l-1.2,5.5c-0.1,0.2-0.1,0.4-0.1,0.6
			c0,0.2,0,0.4,0.1,0.5c0.1,0.1,0.2,0.2,0.5,0.2c0.2,0,0.4,0,0.5-0.1c-0.4,1-0.8,1.6-1.5,1.7c-0.2,0-0.3,0.1-0.5,0.1
			c-0.7,0-1.1-0.2-1.4-0.6c-0.3-0.4-0.4-0.8-0.4-1.3s0-0.8,0.1-1.2L-280.2,49.5z"/>
	</g>
	<g>
		<g>
			<path d="M-320,21.1c-0.3-0.2-0.8-0.3-1.5-0.3c-0.2,0-0.4,0-0.6,0.1c-0.2,0.1-0.3,0.2-0.3,0.4c0,0.2,0.1,0.3,0.4,0.4
				c0.2,0.1,0.6,0.2,1,0.2c0.4,0,0.7,0,0.9-0.1c0.4-0.1,0.9-0.2,1.3-0.4l0.6-0.3c0.5-0.2,1.2-0.7,1.6-0.8c0.7-0.2,1.4-0.3,2.1-0.3
				c1.3,0,2.4,0.2,3.1,0.6c0.7,0.3,0.8,1.1,0.8,1.6c0,0.6-0.5,1.1-1.5,1.3c-0.4,0.1-0.8,0.1-1.2,0.1c-0.8,0-1.5-0.1-2-0.3
				c-0.5-0.2-0.7-0.4-0.7-0.7c0-0.2,0.2-0.4,0.5-0.5c0.1,0,0.3-0.1,0.5-0.1c0,0.3,0.3,0.6,0.8,0.7c0.2,0,0.4,0.1,0.7,0.1
				c0.5,0,0.8-0.1,1.1-0.2c0.3-0.1,0.5-0.3,0.5-0.5c0-0.2-0.2-0.4-0.6-0.5s-0.8-0.2-1.4-0.2c-0.6,0-1,0-1.4,0.1
				c-0.4,0.1-0.7,0.2-1,0.3s-0.6,0.2-0.9,0.3c-0.3,0.1-0.6,0.2-0.9,0.3c-0.7,0.2-1.4,0.4-2,0.4c-0.8,0-1.5-0.1-2.1-0.4
				c-0.6-0.3-0.8-0.7-0.8-1.1c0-0.5,0.4-0.9,1.2-1c0.2,0,0.5-0.1,0.9-0.1s0.7,0,1,0.1c0.3,0.1,0.5,0.2,0.5,0.4
				C-319.6,20.9-319.7,21-320,21.1z"/>
		</g>
		<g>
			<path d="M-316.6,27.3c-9.7,0-11-2.3-11-2.3c0,1.2,0.3,2.4,0.7,3.5c-0.6,0.5-2.2,2-2.2,4.2c0,2.8,3.3,4.5,5.5,3.1
				c0,0-3.7-0.5-3.7-3.8c0-1.2,0.4-2,1-2.5c0.9,2,2.2,3.5,2.6,4.1c0.8,1,1,0.7,1.5,2.6c0.4,1.6,4,2.5,6,2.5v0c0,0,0,0,0,0
				c0,0,0,0,0,0v0c2-0.1,5.3-0.9,5.7-2.5c0.5-2,0.5-1.6,1.3-2.6c0.8-1,3.8-4.7,3.8-8.7C-305.6,24.9-306.8,27.3-316.6,27.3z"/>
			<path d="M-316.3,25.8v1.5c0,0-0.4,0-0.4,0s0.4,0,0.4,0V25.8c11,0,11-3,11-3l-1.3-1.3c2.7,2.7-8.6,3-9.9,3c-1.3,0-12.7-0.3-9.9-3
				l-1,1.3C-327.6,22.9-328.3,25.8-316.3,25.8z"/>
		</g>
	</g>
</g>
<g>
	<path d="M-478.5-56.6c0-0.8,0.3-1.5,0.9-2.1s1.3-0.9,2.1-0.9c0.8,0,1.6,0.3,2.1,0.9c0.6,0.6,0.9,1.3,0.9,2.1s-0.3,1.6-0.9,2.1
		c-0.6,0.6-1.3,0.9-2.1,0.9c-0.8,0-1.6-0.3-2.1-0.9S-478.5-55.8-478.5-56.6z M-473.2-48.3v31h-4.6v-31H-473.2z"/>
	<path d="M-452.5-48.3h4.7v20.1h-4.7v-2.1c-1.9,1.8-4,2.7-6.2,2.7c-2.8,0-5.1-1-6.9-3c-1.8-2-2.7-4.6-2.7-7.7c0-3,0.9-5.5,2.7-7.5
		c1.8-2,4.1-3,6.8-3c2.3,0,4.4,1,6.3,2.9V-48.3z M-463.5-38.3c0,1.9,0.5,3.5,1.5,4.7c1.1,1.2,2.4,1.8,4,1.8c1.7,0,3.1-0.6,4.2-1.8
		c1.1-1.2,1.6-2.8,1.6-4.7c0-1.9-0.5-3.4-1.6-4.7c-1.1-1.2-2.4-1.8-4.1-1.8c-1.6,0-2.9,0.6-4,1.8C-463-41.6-463.5-40.1-463.5-38.3z"
		/>
	<path d="M-427.2-63h4.7v34.8h-4.7v-2.1c-1.8,1.8-3.9,2.7-6.2,2.7c-2.7,0-5-1-6.8-3c-1.8-2-2.7-4.6-2.7-7.7c0-3,0.9-5.5,2.7-7.5
		c1.8-2,4-3,6.7-3c2.4,0,4.5,1,6.3,2.9V-63z M-438.2-38.3c0,1.9,0.5,3.5,1.5,4.7c1.1,1.2,2.4,1.8,4,1.8c1.7,0,3.1-0.6,4.2-1.8
		c1.1-1.2,1.6-2.8,1.6-4.7c0-1.9-0.5-3.4-1.6-4.7c-1.1-1.2-2.4-1.8-4.1-1.8c-1.6,0-2.9,0.6-4,1.8C-437.6-41.6-438.2-40.1-438.2-38.3
		z"/>
	<path d="M-398.4-37.2h-14.4c0.1,1.6,0.7,3,1.6,3.9c0.9,1,2.2,1.4,3.6,1.4c1.2,0,2.1-0.3,2.9-0.8c0.7-0.5,1.6-1.6,2.5-3.1l3.9,2.2
		c-0.6,1-1.2,1.9-1.9,2.6c-0.7,0.7-1.4,1.3-2.2,1.8s-1.6,0.8-2.5,1s-1.9,0.3-2.9,0.3c-3,0-5.4-1-7.2-2.9c-1.8-1.9-2.7-4.5-2.7-7.7
		c0-3.2,0.9-5.7,2.6-7.7c1.8-1.9,4.1-2.9,7.1-2.9c3,0,5.3,0.9,7,2.8c1.7,1.9,2.6,4.5,2.6,7.8L-398.4-37.2z M-403.1-41
		c-0.6-2.5-2.2-3.7-4.7-3.7c-0.6,0-1.1,0.1-1.6,0.3c-0.5,0.2-0.9,0.4-1.4,0.7c-0.4,0.3-0.8,0.7-1,1.2c-0.3,0.5-0.5,1-0.7,1.5H-403.1
		z"/>
</g>
<g>
	<g>
		<path d="M-214.9-46.8c1.8-2.9,4.2-4.4,7.2-4.4c2.6,0,4.7,1.4,4.7,4c0,2.5-2.9,9.4-2.9,10.8c0,0.8,0.4,1.1,1.1,1.1
			c0.5,0,0.8-0.1,1.4-0.3l-0.7,2.7c-1,0.3-2.1,0.5-3.2,0.5c-2.4,0-3.8-0.9-3.8-3.2c0-2.1,2.9-8.8,2.9-10.6c0-1.3-0.9-1.9-2-1.9
			c-3,0-5.6,4.3-8.4,15.2h-4.9l5.5-20.5c0.2-0.8,0.1-1.1-0.3-1.1h-1.9l0.8-2.8h3.2c1.8,0,3.5-0.2,4.4-0.4L-214.9-46.8z"/>
		<path d="M-201.2-39.1c0-6.2,4-12.1,9.9-12.1c2.8,0,4.7,1.5,5.3,3.9l1-3.4h1.8c1.3,0,2.3-0.1,3.1-0.4l-2.8,10.6c-0.5,1.8-1,3.3-1,4
			c0,0.8,0.4,1.2,1.1,1.2c0.5,0,0.8-0.1,1.4-0.3l-0.7,2.7c-1,0.3-1.9,0.5-3,0.5c-2.5,0-3.9-1.1-3.9-3.2c-1.5,1.9-3.5,3.2-5.9,3.2
			C-198.7-32.4-201.2-35.2-201.2-39.1z M-187.1-44.5c0-2.2-1.4-3.7-3.3-3.7c-3.3,0-5.9,4.4-5.9,9c0,2.4,1.4,3.8,3.4,3.8
			C-189.7-35.4-187.1-40.2-187.1-44.5z"/>
		<path d="M-170.5-47.8c1.3-2.2,3.1-3.6,5.3-3.6c2.3,0,3.7,1.4,3.8,3.5c0.1,2.5-1.5,4.7-3.6,4.7c-1.6,0-2.5-0.9-2.5-2.2
			c0-1.1,0.8-2.3,2.1-2.5c-0.2-0.3-0.8-0.6-1.3-0.6c-3,0-4.4,3.4-6.1,9.6l-1.6,5.9h-4.9l3.9-14c0.2-0.8,0.1-1.1-0.3-1.1h-2.2
			l0.7-2.8h3.4c1.8,0,3.5-0.2,4.4-0.4L-170.5-47.8z"/>
		<path d="M-164.9-29.3h1.6c0.4,0,0.7-0.1,0.9-1l4.6-16.6c0.2-0.8,0.1-1.1-0.3-1.1h-2.1l0.7-2.8h3.3c1.8,0,3.5-0.2,4.4-0.4l-0.7,2.7
			c1.4-1.6,3.3-2.8,5.5-2.8c4,0,6.4,2.9,6.4,6.9c0,6.2-3.7,11.9-9.6,11.9c-2.9,0-4.8-1.5-5.5-3.9l-1.6,6c-0.2,0.8,0,1,0.4,1h1.9
			l-0.7,2.8h-9.7L-164.9-29.3z M-145.7-44.4c0-2.4-1.4-3.8-3.4-3.8c-3.3,0-5.8,4.8-5.7,9.1c0,1.9,1.3,3.6,3.4,3.6
			C-148.3-35.4-145.7-39.8-145.7-44.4z"/>
	</g>
	<g>
		<path d="M-202.9-27.2c0,0.7-0.2,1.3-0.5,1.7c-0.4,0.4-0.9,0.6-1.6,0.6h-0.3v2.5h-1.3v-6.8h1.7C-203.6-29.3-202.9-28.6-202.9-27.2z
			 M-205.3-26.1h0.2c0.3,0,0.5-0.1,0.7-0.3c0.1-0.2,0.2-0.4,0.2-0.8c0-0.4-0.1-0.6-0.2-0.8s-0.4-0.3-0.6-0.3h-0.3
			C-205.3-28.2-205.3-26.1-205.3-26.1z"/>
		<path d="M-202.1-22.5v-6.8h1.3v5.7h1.7v1.1H-202.1z"/>
		<path d="M-194.7-22.5l-0.4-1.7h-1.8l-0.4,1.7h-1.3l1.7-6.8h1.7l1.7,6.8H-194.7z M-195.3-25.3l-0.4-1.6c0-0.1-0.1-0.3-0.1-0.7
			c-0.1-0.4-0.1-0.6-0.1-0.8c0,0.3-0.1,0.6-0.2,0.9c-0.1,0.3-0.2,1.1-0.5,2.2C-196.6-25.3-195.3-25.3-195.3-25.3z"/>
		<path d="M-191.1-22.5h-1.3v-5.7h-1.3v-1.1h3.9v1.1h-1.3C-191.1-28.2-191.1-22.5-191.1-22.5z"/>
		<path d="M-187.8-22.5h-1.3v-6.8h3v1.1h-1.8v1.9h1.7v1.1h-1.7C-187.8-25.2-187.8-22.5-187.8-22.5z"/>
		<path d="M-180.5-25.9c0,1.1-0.2,2-0.6,2.6c-0.4,0.6-1,0.9-1.8,0.9c-0.8,0-1.4-0.3-1.8-0.9c-0.4-0.6-0.6-1.5-0.6-2.6
			c0-1.1,0.2-2,0.6-2.6c0.4-0.6,1-0.9,1.8-0.9c0.8,0,1.4,0.3,1.8,0.9C-180.7-27.9-180.5-27-180.5-25.9z M-184.1-25.9
			c0,0.8,0.1,1.4,0.3,1.8s0.5,0.6,0.9,0.6c0.8,0,1.1-0.8,1.1-2.4s-0.4-2.4-1.1-2.4c-0.4,0-0.7,0.2-0.9,0.6
			C-184-27.3-184.1-26.7-184.1-25.9z"/>
		<path d="M-178.3-25.1v2.6h-1.3v-6.8h1.6c0.7,0,1.2,0.2,1.5,0.5c0.3,0.3,0.5,0.8,0.5,1.5c0,0.9-0.3,1.5-0.9,1.8l1.3,3h-1.4
			l-1.1-2.6H-178.3z M-178.3-26.2h0.3c0.3,0,0.5-0.1,0.6-0.3c0.1-0.2,0.2-0.4,0.2-0.8c0-0.3-0.1-0.6-0.2-0.7
			c-0.1-0.1-0.3-0.2-0.6-0.2h-0.3L-178.3-26.2L-178.3-26.2z"/>
		<path d="M-172-22.5l-1.3-5.8h0c0.1,0.4,0.1,0.9,0.1,1.2v4.6h-1.2v-6.8h1.9l1.2,5.3h0l1.2-5.3h2v6.8h-1.2v-4.6c0-0.4,0-0.8,0.1-1.2
			h0l-1.3,5.8H-172z"/>
	</g>
</g>
<g>
	<path d="M-192.2,48.1v-7.8c0-0.6-0.4-0.8-0.9-0.8c-1,0-2.1,0.2-3.2,0.7v7.9h-2.2V33.6h2.2v4.8c1-0.4,2.3-0.7,3.5-0.7
		c2,0,2.7,1.2,2.7,2.9v7.5H-192.2L-192.2,48.1z M-185.9,43.3c0.1,2.6,0.6,3.1,2.2,3.1c1.3,0,2.7-0.4,3.8-0.8l0.4,1.6
		c-1.2,0.5-2.6,1-4.3,1c-3.7,0-4.2-2-4.2-5.2c0-1.8,0.1-3.4,0.6-4.8c1.1-0.4,2.6-0.6,4.4-0.6c3,0,3.9,1.7,3.9,4.6v1.1H-185.9
		L-185.9,43.3z M-183.1,39.5c-0.7,0-1.7,0-2.6,0.2c-0.1,0.4-0.2,1-0.2,2.2h4.6C-181.3,40.3-181.6,39.5-183.1,39.5L-183.1,39.5z
		 M-175,40.2v7.9h-2.2v-8.9c1.9-1,3.8-1.3,5.1-1.4v1.8C-173,39.7-174.2,39.8-175,40.2L-175,40.2z M-166.3,48.3
		c-3.3,0-4.8-1.6-4.8-5.3c0-3.9,2-5.4,4.8-5.4c3.3,0,4.8,1.6,4.8,5.3C-161.6,46.8-163.5,48.3-166.3,48.3L-166.3,48.3z M-166.3,39.5
		c-1.7,0-2.6,1-2.6,3.6c0,2.8,0.8,3.4,2.6,3.4c1.7,0,2.6-1,2.6-3.5C-163.7,40.1-164.5,39.5-166.3,39.5L-166.3,39.5z M-151,48.1h-2.6
		c-0.6-1.6-1.4-3.3-2.7-4.7h-1.2v4.7h-2.2V33.6h2.2v8.3h1c1.1-1.2,2-2.6,2.6-4h2.5c-0.8,1.7-1.9,3.2-3.1,4.4
		C-153.1,44.2-151.9,46.1-151,48.1L-151,48.1z M-146.8,48.3c-2,0-2.7-1.2-2.7-2.9v-7.5h2.2v7.8c0,0.6,0.4,0.8,0.9,0.8
		c1,0,2.3-0.2,3.3-0.7v-7.9h2.2v8.8C-143.6,48.2-145.6,48.3-146.8,48.3L-146.8,48.3z"/>
	<path class="st0" d="M-205.7,53.4H-221c-1.3,0-2.4-1.1-2.4-2.4V30.9c0-1.3,1.1-2.4,2.4-2.4h15.3c1.3,0,2.4,1.1,2.4,2.4v20.1
		C-203.3,52.4-204.3,53.4-205.7,53.4L-205.7,53.4z M-204.1,31.1c0-0.9-0.8-1.7-1.7-1.7h-15c-0.9,0-1.7,0.8-1.7,1.7v19.9
		c0,0.9,0.8,1.7,1.7,1.7h15c0.9,0,1.7-0.8,1.7-1.7V31.1L-204.1,31.1z"/>
	<path d="M-210.8,50v-9.9c0,0,0.6-2.4-7.9,1c0,0,0-9.1,0-9.1l2.8,0v5.9c0,0,7.8-3.1,7.8,2.3c0,5.4,0,9.8,0,9.8H-210.8L-210.8,50z
		 M-209.2,35.5c0,0-2.9,0-3,0c1.1-1.3,2-3.5,2-3.5h3.1C-207,32-207.6,33.4-209.2,35.5L-209.2,35.5z M-218.6,50v-5.6l2.8,2.8
		L-218.6,50L-218.6,50z"/>
</g>
<g>
	<path d="M-86.6-40.9h-6.9c-0.2,0-0.3,0.1-0.3,0.3v3.4c0,0.2,0.1,0.3,0.3,0.3h2.7v4.2c0,0-0.6,0.2-2.3,0.2c-2,0-4.8-0.7-4.8-6.8
		c0-6.1,2.9-6.9,5.6-6.9c2.3,0,3.4,0.4,4,0.6c0.2,0.1,0.4-0.1,0.4-0.3l0.8-3.3c0-0.1,0-0.2-0.1-0.3c-0.3-0.2-1.9-1.1-5.9-1.1
		c-4.6,0-9.4,2-9.4,11.4c0,9.5,5.4,10.9,10,10.9c3.8,0,6.1-1.6,6.1-1.6c0.1-0.1,0.1-0.2,0.1-0.2v-10.6
		C-86.2-40.8-86.4-40.9-86.6-40.9z"/>
	<path d="M-50.8-49.4c0-0.2-0.1-0.3-0.3-0.3H-55c-0.2,0-0.3,0.1-0.3,0.3c0,0,0,7.6,0,7.6h-6.1v-7.6c0-0.2-0.1-0.3-0.3-0.3h-3.9
		c-0.2,0-0.3,0.1-0.3,0.3v20.4c0,0.2,0.1,0.3,0.3,0.3h3.9c0.2,0,0.3-0.1,0.3-0.3v-8.7h6.1c0,0,0,8.7,0,8.7c0,0.2,0.1,0.3,0.3,0.3
		h3.9c0.2,0,0.3-0.1,0.3-0.3V-49.4z"/>
	<g>
		<g>
			<ellipse cx="-81.7" cy="-46.7" rx="2.5" ry="2.5"/>
			<path d="M-79.5-33.2c0-0.5,0-9.4,0-9.4c0-0.2-0.1-0.3-0.3-0.3h-3.9c-0.2,0-0.3,0.2-0.3,0.4c0,0,0,11.4,0,13.5
				c0,0.4,0.2,0.5,0.6,0.5c0,0,1.7,0,3.5,0c0.4,0,0.5-0.2,0.5-0.5C-79.5-29.8-79.5-32.7-79.5-33.2z"/>
		</g>
	</g>
	<path d="M-35.9-43h-3.9c-0.2,0-0.3,0.1-0.3,0.3v10c0,0-1,0.7-2.4,0.7c-1.4,0-1.8-0.6-1.8-2c0-1.4,0-8.7,0-8.7
		c0-0.2-0.1-0.3-0.3-0.3h-3.9c-0.2,0-0.3,0.1-0.3,0.3c0,0,0,5.3,0,9.4c0,4.1,2.3,5.1,5.4,5.1c2.6,0,4.6-1.4,4.6-1.4s0.1,0.7,0.1,0.8
		c0,0.1,0.2,0.2,0.3,0.2l2.5,0c0.2,0,0.3-0.1,0.3-0.3l0-13.7C-35.6-42.8-35.8-43-35.9-43z"/>
	<path d="M-25.3-43.4c-2.2,0-3.7,1-3.7,1v-6.9c0-0.2-0.1-0.3-0.3-0.3h-3.9c-0.2,0-0.3,0.1-0.3,0.3v20.4c0,0.2,0.1,0.3,0.3,0.3
		c0,0,2.7,0,2.7,0c0.1,0,0.2-0.1,0.3-0.2c0.1-0.1,0.2-0.9,0.2-0.9s1.6,1.5,4.6,1.5c3.6,0,5.6-1.8,5.6-8.1
		C-19.9-42.6-23.1-43.4-25.3-43.4z M-26.9-31.9c-1.3,0-2.3-0.7-2.3-0.7V-39c0,0,0.9-0.6,2-0.7c1.4-0.1,2.7,0.3,2.7,3.6
		C-24.4-32.5-25-31.8-26.9-31.9z"/>
	<path d="M-68.2-43h-2.9c0,0,0-3.9,0-3.9c0-0.1-0.1-0.2-0.2-0.2h-4c-0.2,0-0.2,0.1-0.2,0.2v4c0,0-2,0.5-2.1,0.5
		c-0.1,0-0.2,0.2-0.2,0.3v2.5c0,0.2,0.1,0.3,0.3,0.3h2c0,0,0,2.6,0,6c0,4.5,3.2,4.9,5.3,4.9c1,0,2.1-0.3,2.3-0.4
		c0.1,0,0.2-0.2,0.2-0.3l0-2.8c0-0.2-0.2-0.3-0.3-0.3c-0.2,0-0.6,0.1-1.1,0.1c-1.4,0-1.9-0.7-1.9-1.5c0-0.9,0-5.7,0-5.7h2.9
		c0.2,0,0.3-0.1,0.3-0.3v-3.1C-67.9-42.9-68-43-68.2-43z"/>
</g>
<g id="Logotype">
	<path d="M-95.9,36.4c-1.5,0-2.7,0.4-3.5,1l0,0c-0.4-0.7-1.2-1.1-2.2-1.1c-1.6,0-2.3,0.4-2.3,1.2c0,0.5,0.1,0.7,0.2,1.1h1.2
		c0.5,0,0.8,0.2,0.8,0.9h0v8.7c0,0.2,0.2,0.4,0.4,0.4h1.6c0.2,0,0.4-0.2,0.4-0.4v-6.7c0-1.9,1-2.8,3-2.8c1.2,0,1.6,0.2,1.8,0.4
		c0.2,0.2,0.4,0.6,0.4,1.6v7.6c0,0.2,0.2,0.4,0.4,0.4h1.6c0.2,0,0.4-0.2,0.4-0.4v-7.3c0-1.7-0.3-2.9-1-3.5
		C-93,36.7-94.2,36.4-95.9,36.4z"/>
	<path d="M-84.4,36.4c-2.2,0-3.6,0.4-4.3,1.2c-0.7,0.8-1,2.4-1,5c0,2.5,0.3,4.2,1,5c0.7,0.8,2.1,1.2,4.3,1.2c2.2,0,3.7-0.4,4.4-1.2
		c0.7-0.8,1-2.4,1-5c0-2.5-0.3-4.2-1-5C-80.8,36.8-82.2,36.4-84.4,36.4z M-82.1,46c-0.1,0.2-0.6,0.5-2.4,0.5c-1.7,0-2.2-0.3-2.4-0.5
		c-0.2-0.2-0.4-1-0.4-3.4c0-2.5,0.3-3.2,0.4-3.4c0.1-0.2,0.6-0.5,2.4-0.5c1.7,0,2.2,0.3,2.4,0.5c0.2,0.2,0.4,1,0.4,3.4
		C-81.6,45-81.9,45.8-82.1,46z"/>
	<path d="M-54.7,44.3h-1.7c-0.2,0-0.4,0.2-0.4,0.4v0.4c0,0.4-0.1,0.9-0.4,1.1c-0.2,0.1-0.7,0.3-2.4,0.3c-1.6,0-2.2-0.4-2.3-0.6
		c-0.2-0.2-0.4-0.8-0.5-2.7h7.6c0.2,0,0.4-0.2,0.4-0.4V42c0-2.3-0.4-3.7-1.1-4.5c-0.7-0.8-2.2-1.1-4.4-1.1c-2,0-3.4,0.4-4.1,1.3
		c-0.7,0.9-1.1,2.4-1.1,4.8c0,2.5,0.4,4.2,1.1,5c0.7,0.9,2.2,1.3,4.4,1.3c1.9,0,3.2-0.3,4-0.8c0.8-0.5,1.3-1.5,1.3-2.8l0-0.4
		C-54.3,44.5-54.5,44.3-54.7,44.3z M-61.8,39.1c0.2-0.2,0.7-0.5,2.3-0.5c1.6,0,2.1,0.3,2.3,0.4c0.2,0.2,0.5,0.6,0.5,2.1l0,0.1h-5.5
		C-62.3,39.8-62,39.3-61.8,39.1z"/>
	<path d="M-50.6,36.5h-1.6c-0.2,0-0.4,0.2-0.4,0.4v12.2c0,0.9-0.1,1.3-0.2,1.4l-0.2,0.1h-1.3c-0.7,0.4-1.1,2.2,1.3,2.2l0,0
		c0.1,0,0.1,0,0.2,0c1.3,0,2.7-0.6,2.7-3.2V37C-50.2,36.7-50.4,36.5-50.6,36.5z"/>
	<path d="M-46.2,36.5h-1.6c-0.2,0-0.4,0.2-0.4,0.4v11.2c0,0.2,0.2,0.4,0.4,0.4h1.6c0.2,0,0.4-0.2,0.4-0.4V37
		C-45.7,36.7-45.9,36.5-46.2,36.5z"/>
	<path d="M-29.4,41.4l-3-0.2c-0.9,0-1.2-0.5-1.2-1.4c0-0.8,0.2-1,0.3-1.1c0.1-0.1,0.6-0.2,2.1-0.2c1.7,0,2.1,0.2,2.2,0.2
		c0.1,0.1,0.3,0.4,0.3,1.1c0,0.2,0.2,0.4,0.4,0.4h1.6c0.2,0,0.4-0.2,0.4-0.4v-0.4c0-2.1-1.6-3.1-4.9-3.1c-2,0-3.3,0.2-4,0.7
		c-0.7,0.5-1.1,1.5-1.1,2.9c0,1.5,0.5,2.5,1.4,3c0.9,0.5,2.5,0.7,5.1,0.7c0.6,0,1.2,0.2,1.2,1.3c0,0.7-0.1,1.1-0.4,1.2
		c-0.2,0.1-0.8,0.3-2.4,0.3c-1.3,0-1.8-0.2-2-0.3c-0.2-0.2-0.4-0.5-0.4-1.1l0-0.5c0-0.2-0.2-0.4-0.4-0.4h-1.7
		c-0.2,0-0.4,0.2-0.4,0.4l0,0.6c0,1.3,0.4,2.3,1.2,2.8c0.8,0.5,2.1,0.7,4,0.7c1.9,0,3.2-0.3,3.9-0.8c0.8-0.6,1.2-1.5,1.2-2.9
		C-25.9,42.8-27.1,41.5-29.4,41.4z"/>
	<path d="M-13.1,46.5h-0.7c-0.5,0-0.8-0.2-0.8-0.9V37c0-0.2-0.2-0.4-0.4-0.4h-1.6c-0.2,0-0.4,0.2-0.4,0.4v6.4c0,1.2-0.2,2.1-0.6,2.5
		c-0.4,0.4-1.2,0.6-2.3,0.6c-1.1,0-1.5-0.2-1.7-0.4c-0.1-0.1-0.4-0.6-0.4-1.7V37c0-0.2-0.2-0.4-0.4-0.4h-1.6c-0.2,0-0.4,0.2-0.4,0.4
		v7.5c0,2.8,1.5,4.3,4.4,4.3c1.4,0,2.4-0.3,3.2-0.9l0.1-0.2c0.3,0.7,0.8,1,1.7,1c1.6,0,2.3-0.4,2.3-1.2C-12.9,47-13,46.8-13.1,46.5z
		"/>
	<path d="M-66.4,46.5c-0.4,0-0.7-0.2-0.8-0.7V34.5c0-0.2-0.2-0.4-0.4-0.4h-1.6c-0.2,0-0.4,0.2-0.4,0.4v2.7c-0.7-0.5-1.8-0.8-3.3-0.8
		c-1.8,0-3,0.5-3.7,1.4c-0.7,0.9-1,2.4-1,4.6c0,2.4,0.3,4,1,4.9c0.7,0.9,2,1.4,3.9,1.4c1.4,0,2.4-0.3,3.1-0.8l0.2-0.1
		c0.3,0.6,0.8,1,1.7,1c1.6,0,2.3-0.4,2.3-1.2c0-0.5-0.1-0.7-0.2-1.1H-66.4z M-72.5,46.5c-1.1,0-1.8-0.2-2.1-0.7
		c-0.2-0.4-0.5-1.2-0.5-3.5c0-2,0.3-2.8,0.5-3.1c0.3-0.4,1-0.7,2.1-0.7c1.1,0,1.9,0.2,2.3,0.7c0.3,0.3,0.6,1.1,0.6,3
		c0,2.3-0.3,3.3-0.5,3.6C-70.5,46.3-71.3,46.5-72.5,46.5z"/>
	<path d="M-37.7,36.5h-1.2h-0.6h-0.7v-2.3c0-0.2-0.2-0.4-0.4-0.4h-1.6c-0.2,0-0.4,0.2-0.4,0.4v2.3h-1.1c-0.2,0-0.4,0.2-0.4,0.4v1.4
		c0,0.2,0.2,0.4,0.4,0.4h1.1v6.8c0,1.4,0.6,3.2,3.6,3.2l0,0c0,0,0,0,0,0c0,0,0,0,0,0c0,0,0,0,0,0c2.3-0.1,1.9-1.8,1.2-2.2h-1.5
		c-0.5-0.1-0.9-0.3-0.9-1.3v-6.4h1.1l0,0C-36.6,38.7-37,37-37.7,36.5z"/>
</g>
<image style="overflow:visible;" width="850" height="567" xlink:href="../../../../../../Dropbox/harp.io/apps/chloi.harp.io/public/images/open/cordova.png"  transform="matrix(0.1431 0 0 0.1431 -0.3333 -80.6667)">
</image>
<image style="overflow:visible;" width="850" height="567" xlink:href="../../../../../../Dropbox/harp.io/apps/chloi.harp.io/public/images/open/cordova.png"  transform="matrix(0.1431 0 0 0.1431 -0.3333 -80.6667)">
</image>
<g>
	<g>
		<path d="M85.3,33.2c2.6,0,4,1.4,4.7,2.4c0.9,1.4,1.4,3.1,1.4,5.6c0,2.9-0.7,4.7-2.2,6.1c-1.1,1-2.3,1.4-3.8,1.4
			c-1.8,0-3.3-0.7-4.3-1.9c-1.2-1.4-1.8-3.4-1.8-5.9C79.3,36.2,81.6,33.2,85.3,33.2z M85.3,34.7c-1.4,0-2.6,0.7-3.2,1.8
			c-0.5,1-0.8,2.3-0.8,4.1c0,2.3,0.4,4.2,1,5.2c0.6,1,2,1.6,3.2,1.6c1.2,0,2.1-0.4,2.8-1.3c0.7-0.9,1.1-2.1,1.1-4.6
			c0-2.2-0.2-3.7-0.7-4.8C88.1,35.6,87,34.7,85.3,34.7z"/>
		<path d="M102,34.6l-0.8,1.3c-1.4-0.9-2.4-1.3-3.7-1.3c-1.9,0-3,0.9-3,2.5c0,1.2,0.7,1.9,2.5,2.4l1.7,0.5c1.3,0.4,2,0.8,2.6,1.5
			c0.6,0.7,1,1.7,1,2.6c0,1.4-0.7,2.8-2.1,3.6c-1,0.6-2,0.9-3.4,0.9c-1.8,0-3.3-0.4-4.8-1.4l0.8-1.4c1.2,0.9,2.5,1.3,4,1.3
			c1.1,0,1.7-0.2,2.4-0.7c0.7-0.5,1.1-1.3,1.1-2.1c0-1.3-0.9-2.3-2.7-2.8l-1.5-0.5c-1.4-0.4-2.1-0.7-2.7-1.3
			c-0.6-0.7-0.9-1.5-0.9-2.4c0-2.6,1.9-4.3,4.9-4.3C99.1,33.2,100.6,33.7,102,34.6z"/>
		<path d="M26.5,35.3h-5.3v4.2h4.3v2.1h-4.3v7.1h-2.6V33.2h8.2L26.5,35.3z"/>
		<path d="M27.9,34.1c0-0.9,0.7-1.7,1.6-1.7c0.9,0,1.6,0.7,1.6,1.7c0,0.9-0.7,1.6-1.7,1.6C28.6,35.7,27.9,35,27.9,34.1z"/>
		<polygon points="28.2,48.8 28.2,37.6 30.7,37.1 30.7,48.8 		"/>
		<path d="M38.4,39.6c-0.2-0.1-0.4-0.2-0.7-0.2c-1,0-1.9,0.8-2.1,1.7v7.7h-2.5v-8c0-1.4-0.2-2.4-0.4-3.1l2.3-0.6
			c0.3,0.5,0.4,1.2,0.4,1.8c0.9-1.2,1.8-1.8,2.9-1.8c0.4,0,0.6,0,0.9,0.2L38.4,39.6z"/>
		<path d="M41.5,43.8v0.2c0,1.6,0.6,3.2,2.8,3.2c1.1,0,2-0.4,2.8-1.1l1,1.5c-1.2,1-2.6,1.5-4.1,1.5c-3.2,0-5.2-2.3-5.2-6
			c0-2,0.4-3.3,1.4-4.5c0.9-1.1,2-1.5,3.5-1.5c1.1,0,2.2,0.3,3.1,1.2c1,0.9,1.5,2.3,1.5,5v0.5H41.5z M43.7,39
			c-1.4,0-2.2,1.1-2.2,2.9h4.2C45.8,40.1,45,39,43.7,39z"/>
		<path d="M55.4,34.5c-0.6-0.3-0.9-0.4-1.4-0.4c-0.9,0-1.4,0.6-1.4,1.6v1.7h3l-0.6,1.7h-2.3v9.7h-2.5v-9.7h-1.1v-1.7h1.1
			c0,0-0.1-0.6-0.1-1.7c0-2.4,1.4-3.5,3.5-3.5c1,0,1.8,0.2,2.6,0.7L55.4,34.5z"/>
		<path d="M65.3,43.1c0,3.7-2,5.9-5,5.9c-3.1,0-5-2.3-5-6c0-3.6,2-6,5-6C63.4,37.1,65.3,39.5,65.3,43.1z M58,43
			c0,3.3,0.8,4.3,2.3,4.3c1.5,0,2.3-1.2,2.3-4c0-3.2-0.9-4.2-2.3-4.2C58.7,39,58,40.2,58,43z"/>
		<path d="M72.7,48.8c-0.4-0.7-2.3-3.8-2.5-4.3c-0.4,0.9-2.1,3.6-2.5,4.3h-3.1l4.2-6.2l-3.3-4.9l2.7-0.5c0.5,0.9,1.5,2.6,2.1,3.7
			c0.3-0.7,1.5-3,1.8-3.5H75l-3.4,5.2l4.2,6.2H72.7z"/>
	</g>
</g>
<g>
</g>
<g>
</g>
<g>
</g>
<g>
</g>
<g>
</g>
<g>
</g>
<g>
</g>
<g>
</g>
<g>
</g>
<g>
</g>
<g>
</g>
<g>
</g>
<g>
</g>
<g>
</g>
<g>
</g>
</svg>
