<svg xmlns="http://www.w3.org/2000/svg" xmlns:xlink="http://www.w3.org/1999/xlink" xmlns:sketch="http://www.bohemiancoding.com/sketch/ns" width="32" height="32" viewBox="0 0 32 32" version="1.1"><path d="M15 0C6.72 0 0 6.89 0 15.38 0 22.18 4.3 27.94 10.26 29.97 11.01 30.11 11.28 29.64 11.28 29.23 11.28 28.87 11.27 27.9 11.26 26.62 7.09 27.55 6.21 24.55 6.21 24.55 5.53 22.78 4.54 22.3 4.54 22.3 3.18 21.35 4.65 21.37 4.65 21.37 6.15 21.48 6.94 22.96 6.94 22.96 8.28 25.31 10.46 24.63 11.31 24.23 11.45 23.24 11.83 22.56 12.26 22.18 8.93 21.79 5.43 20.47 5.43 14.58 5.43 12.9 6.01 11.52 6.97 10.45 6.82 10.06 6.3 8.5 7.12 6.38 7.12 6.38 8.38 5.97 11.25 7.96 12.44 7.61 13.73 7.44 15 7.44 16.27 7.44 17.56 7.61 18.76 7.96 21.62 5.97 22.88 6.38 22.88 6.38 23.7 8.5 23.18 10.06 23.03 10.45 23.99 11.52 24.57 12.9 24.57 14.58 24.57 20.48 21.06 21.78 17.72 22.16 18.26 22.64 18.74 23.58 18.74 25.01 18.74 27.07 18.72 28.73 18.72 29.23 18.72 29.64 18.99 30.12 19.75 29.97 25.71 27.93 30 22.17 30 15.38 30 6.89 23.28 0 15 0"/></svg>