<?xml version="1.0" encoding="utf-8"?>
<!-- Generator: Adobe Illustrator 17.1.0, SVG Export Plug-In . SVG Version: 6.00 Build 0)  -->
<!DOCTYPE svg PUBLIC "-//W3C//DTD SVG 1.1//EN" "http://www.w3.org/Graphics/SVG/1.1/DTD/svg11.dtd">
<svg version="1.1" id="Layer_1" xmlns="http://www.w3.org/2000/svg" xmlns:xlink="http://www.w3.org/1999/xlink" x="0px" y="0px"
	 viewBox="0 0 121.7 81.3" style="enable-background:new 0 0 121.7 81.3;" xml:space="preserve">
<style type="text/css">
	.st0{fill-rule:evenodd;clip-rule:evenodd;}
</style>
<g>
	<path d="M-475.9,44.6c0-1.4-0.9-2.9-3.5-3v-3.5c2.6-0.1,3.5-1.6,3.5-3c0-2.5-0.4-4.1-0.4-7c0-4.4,1.6-5.8,5.2-5.8h9.6v3.2h-7.8
		c-1.7,0-2.2,0.6-2.2,2.8c0,2.2,0.2,4.2,0.2,6.6c0,3.1-1,4.3-3,4.8v0.2c2,0.5,3,1.7,3,4.8c0,2.5-0.2,4.4-0.2,6.6
		c0,2.2,0.5,2.9,2.2,2.9h0.8v3.2h-2.6c-3.6,0-5.2-1.4-5.2-5.8C-476.3,48.7-475.9,47.2-475.9,44.6z"/>
	<path d="M-467.4,22.6h6v22.5c0,1.3,0.6,1.7,1.1,1.7c0.2,0,0.4,0,0.7-0.1l0.7,4.4c-0.7,0.3-1.7,0.5-3,0.5c-4.1,0-5.5-2.7-5.5-6.8
		V22.6z"/>
	<path d="M-450.6,30.5c5.7,0,8.6,4.2,8.6,9.7c0,1.1-0.1,2-0.2,2.5h-12.1c0.5,3.1,2.6,4.4,5.3,4.4c1.5,0,2.9-0.4,4.4-1.3l2,3.6
		c-2.1,1.4-4.8,2.3-7.2,2.3c-5.8,0-10.2-3.9-10.2-10.6C-460.1,34.5-455.4,30.5-450.6,30.5z M-447.1,39c0-2.3-1-4-3.4-4
		c-1.9,0-3.5,1.3-3.9,4H-447.1z"/>
	<path d="M-438.5,45.1c1.8,1.4,3.5,2.1,5.2,2.1c1.8,0,2.6-0.7,2.6-1.7c0-1.3-2-2-4.1-2.8c-2.4-0.9-5.3-2.6-5.3-5.9
		c0-3.7,3.1-6.3,7.7-6.3c3.1,0,5.4,1.3,7.1,2.6l-2.7,3.6c-1.5-1.1-2.8-1.7-4.3-1.7c-1.5,0-2.3,0.6-2.3,1.6c0,1.3,1.9,1.8,4,2.6
		c2.6,0.9,5.5,2.4,5.5,6.1c0,3.7-2.9,6.5-8.3,6.5c-2.6,0-5.7-1.1-7.7-2.8L-438.5,45.1z"/>
	<path d="M-422.1,45.1c1.8,1.4,3.5,2.1,5.2,2.1c1.8,0,2.6-0.7,2.6-1.7c0-1.3-2-2-4.1-2.8c-2.4-0.9-5.3-2.6-5.3-5.9
		c0-3.7,3.1-6.3,7.7-6.3c3.1,0,5.4,1.3,7.1,2.6l-2.7,3.6c-1.5-1.1-2.8-1.7-4.3-1.7c-1.5,0-2.3,0.6-2.3,1.6c0,1.3,1.9,1.8,3.9,2.6
		c2.6,0.9,5.5,2.4,5.5,6.1c0,3.7-2.9,6.5-8.3,6.5c-2.6,0-5.7-1.1-7.7-2.8L-422.1,45.1z"/>
	<path d="M-407.4,54.2c1.7,0,2.2-0.6,2.2-2.9c0-2.2-0.2-4.2-0.2-6.6c0-3.1,1-4.3,3-4.8v-0.2c-2-0.5-3-1.7-3-4.8
		c0-2.4,0.2-4.5,0.2-6.6c0-2.2-0.4-2.8-2.2-2.8h-0.8v-3.2h2.6c3.6,0,5.2,1.4,5.2,5.8c0,2.8-0.4,4.4-0.4,7c0,1.4,0.9,2.9,3.5,3v3.5
		c-2.6,0.1-3.5,1.6-3.5,3c0,2.6,0.4,4.1,0.4,7c0,4.4-1.6,5.8-5.2,5.8h-2.6v-3.2H-407.4z"/>
</g>
<g>
	<g>
		<path d="M-167.6,59.7H-223c-2.6,0-4.7-2.1-4.7-4.7V24.6c0-2.6,2.1-4.7,4.7-4.7h55.4c2.6,0,4.7,2.1,4.7,4.7v30.5
			C-163,57.7-165.1,59.7-167.6,59.7z M-223,23c-0.9,0-1.6,0.7-1.6,1.6v30.5c0,0.9,0.7,1.6,1.6,1.6h55.4c0.9,0,1.6-0.7,1.6-1.6V24.6
			c0-0.9-0.7-1.6-1.6-1.6H-223z"/>
	</g>
	<g>
		<path d="M-218.4,50.4V29.3h6.2l6.2,7.8l6.2-7.8h6.2v21.2h-6.2V38.3l-6.2,7.8l-6.2-7.8v12.1H-218.4z"/>
	</g>
	<g>
		<path d="M-179.5,50.4l-9.3-10.3h6.2V29.3h6.2v10.9h6.2L-179.5,50.4z"/>
	</g>
</g>
<path d="M-406.1,125.4c-2.5,0-4.7,0.6-6.6,1.5c-0.7-1.3-1.4-2.5-1.5-3.4c-0.1-1-0.3-1.6-0.1-2.9c0.2-1.2,0.9-3,0.9-3.1
	c0-0.1-0.2-0.8-1.6-0.8c-1.5,0-2.7,0.3-2.9,0.7c-0.1,0.4-0.4,1.3-0.6,2.2c-0.3,1.3-2.9,6.1-4.4,8.6c-0.5-1-0.9-1.8-1-2.5
	c-0.1-1-0.3-1.6-0.1-2.9c0.2-1.2,0.9-3,0.9-3.1c0-0.1-0.2-0.8-1.6-0.8c-1.5,0-2.7,0.3-2.9,0.7c-0.1,0.4-0.3,1.3-0.6,2.2
	c-0.3,0.9-3.9,8.8-4.8,10.8c-0.5,1-0.9,1.9-1.2,2.5c0,0,0,0,0,0s0,0,0,0.1c-0.2,0.5-0.4,0.8-0.4,0.8s0,0,0,0
	c-0.2,0.4-0.4,0.7-0.5,0.7c-0.1,0-0.2-1,0-2.3c0.5-2.7,1.8-7,1.8-7.2c0-0.1,0.2-0.8-0.8-1.2c-1-0.4-1.4,0.3-1.5,0.3
	c-0.1,0-0.2,0.2-0.2,0.2s1.2-4.8-2.2-4.8c-2.1,0-5,2.3-6.4,4.4c-0.9,0.5-2.8,1.5-4.9,2.7c-0.8,0.4-1.6,0.9-2.4,1.3
	c-0.1-0.1-0.1-0.1-0.2-0.2c-4.1-4.3-11.6-7.4-11.3-13.2c0.1-2.1,0.9-7.7,14.4-14.5c11.1-5.5,20-4,21.6-0.6
	c2.2,4.8-4.8,13.8-16.3,15.1c-4.4,0.5-6.7-1.2-7.3-1.8c-0.6-0.7-0.7-0.7-0.9-0.6c-0.4,0.2-0.1,0.8,0,1.1c0.3,0.9,1.8,2.5,4.2,3.3
	c2.1,0.7,7.3,1.1,13.5-1.3c7-2.7,12.5-10.2,10.9-16.5c-1.6-6.4-12.3-8.5-22.3-4.9c-6,2.1-12.5,5.5-17.1,9.8
	c-5.5,5.2-6.4,9.7-6.1,11.6c1.3,6.7,10.5,11,14.2,14.3c-0.2,0.1-0.4,0.2-0.5,0.3c-1.9,0.9-8.9,4.6-10.6,8.5c-2,4.4,0.3,7.6,1.8,8
	c4.7,1.3,9.6-1.1,12.2-5c2.6-3.9,2.3-9,1.1-11.3c0,0,0-0.1,0-0.1c0.5-0.3,1-0.6,1.4-0.9c0.9-0.6,1.9-1.1,2.7-1.5
	c-0.4,1.2-0.8,2.7-0.9,4.8c-0.2,2.5,0.8,5.7,2.2,7c0.6,0.6,1.3,0.6,1.8,0.6c1.6,0,2.3-1.3,3.1-2.8c1-1.9,1.8-4.1,1.8-4.1
	s-1.1,5.9,1.8,5.9c1.1,0,2.1-1.4,2.6-2.1c0,0,0,0,0,0s0,0,0.1-0.1c0.1-0.2,0.2-0.3,0.2-0.3s0,0,0,0c0.4-0.7,1.4-2.4,2.8-5.2
	c1.8-3.6,3.6-8.1,3.6-8.1s0.2,1.1,0.7,2.9c0.3,1.1,1,2.3,1.5,3.4c-0.4,0.6-0.7,0.9-0.7,0.9s0,0,0,0c-0.3,0.5-0.7,0.9-1.1,1.4
	c-1.5,1.7-3.2,3.7-3.4,4.3c-0.3,0.7-0.2,1.2,0.3,1.6c0.4,0.3,1.1,0.3,1.8,0.3c1.3-0.1,2.2-0.4,2.7-0.6c0.7-0.2,1.5-0.6,2.3-1.2
	c1.4-1,2.3-2.5,2.2-4.5c0-1.1-0.4-2.2-0.8-3.2c0.1-0.2,0.3-0.4,0.4-0.6c2.2-3.3,4-6.9,4-6.9s0.2,1.1,0.7,2.9
	c0.3,0.9,0.8,1.9,1.3,2.9c-2.1,1.7-3.4,3.7-3.9,5c-0.8,2.4-0.2,3.5,1.1,3.8c0.6,0.1,1.3-0.1,1.9-0.4c0.7-0.2,1.6-0.7,2.5-1.3
	c1.4-1,2.8-2.5,2.7-4.5c0-0.9-0.3-1.8-0.6-2.7c1.8-0.7,4.1-1.2,7.1-0.8c6.3,0.7,7.6,4.7,7.3,6.3c-0.2,1.7-1.6,2.6-2,2.8
	c-0.4,0.3-0.6,0.4-0.5,0.6c0.1,0.3,0.3,0.3,0.6,0.2c0.5-0.1,3.3-1.3,3.4-4.4C-395.8,129.6-399.5,125.4-406.1,125.4z M-454.9,141.8
	c-2.1,2.3-5,3.1-6.3,2.4c-1.4-0.8-0.8-4.2,1.8-6.6c1.6-1.5,3.6-2.8,4.9-3.7c0.3-0.2,0.8-0.5,1.3-0.8c0.1-0.1,0.1-0.1,0.1-0.1l0,0
	c0.1-0.1,0.2-0.1,0.3-0.2C-451.8,136.4-452.7,139.4-454.9,141.8z M-439.6,131.5c-0.7,1.8-2.3,6.3-3.2,6.1c-0.8-0.2-1.3-3.7-0.2-7.1
	c0.6-1.7,1.8-3.8,2.5-4.6c1.1-1.3,2.4-1.7,2.7-1.2C-437.4,125.4-439.1,130.4-439.6,131.5z M-427,137.5c-0.3,0.2-0.6,0.3-0.7,0.2
	c-0.1-0.1,0.1-0.3,0.1-0.3s1.6-1.7,2.2-2.5c0.4-0.4,0.8-1,1.2-1.6c0,0.1,0,0.1,0,0.2C-424.1,135.6-426.1,136.9-427,137.5z
	 M-417.3,135.3c-0.2-0.2-0.2-0.7,0.6-2.3c0.3-0.6,1-1.7,2.2-2.8c0.1,0.4,0.2,0.8,0.2,1.2C-414.3,133.9-416.2,134.9-417.3,135.3z"/>
<g>
	<path d="M-341,115.5c0.7,0,1.3,0.1,1.7,0.3c0.4,0.2,0.7,0.4,0.7,0.7c0,0.4-0.1,0.8-0.3,1.2c-0.2,0.5-0.4,0.8-0.5,1.1
		c-0.1,0.1-0.1,0.1-0.2,0c-0.1,0-0.1-0.1-0.1-0.3c0.1-0.2,0.1-0.6,0.1-1c0-0.5-0.1-0.8-0.4-1.1c-0.2-0.3-0.6-0.4-1-0.4
		c-0.6,0-1,0.2-1.3,0.5c-0.3,0.3-0.5,0.8-0.5,1.4c0,0.5,0.1,1,0.4,1.5c0.3,0.5,0.6,0.9,0.9,1.4c0.3,0.5,0.7,1,1,1.5
		c0.3,0.5,0.4,1.1,0.4,1.8c0,1.2-0.5,2.1-1.4,2.7c-0.9,0.7-2.2,1-3.7,1c-1.1,0-2-0.2-2.6-0.5c-0.6-0.4-1-0.7-1-1.2
		c0-0.1,0-0.3,0.1-0.5c0.1-0.2,0.2-0.5,0.4-0.7c0.2-0.3,0.3-0.5,0.5-0.8c0.2-0.3,0.4-0.5,0.6-0.6c0.1-0.1,0.2,0,0.3,0
		c0.1,0.1,0.1,0.2,0,0.3c-0.2,0.2-0.3,0.4-0.4,0.6c-0.1,0.2-0.1,0.5-0.1,0.9c0,0.6,0.2,1.1,0.6,1.4c0.4,0.4,0.9,0.6,1.5,0.6
		c0.8,0,1.5-0.2,2-0.7c0.5-0.5,0.7-1,0.7-1.7c0-0.6-0.1-1.2-0.4-1.7c-0.3-0.5-0.6-1.1-0.9-1.6c-0.3-0.5-0.6-1-0.9-1.5
		c-0.3-0.5-0.4-1.1-0.4-1.7c0-0.8,0.4-1.6,1.1-2.1C-343.5,115.8-342.4,115.5-341,115.5z"/>
	<path d="M-327.7,115.8c0.2,0.1,0.2,0.2,0.2,0.3c0,0.1-0.2,0.2-0.4,0.3c-0.5,0-1,0-1.7,0c-0.6,0-1.3,0.1-2,0.1
		c-0.7,1.6-1.2,3.1-1.6,4.7c-0.4,1.5-0.6,2.7-0.6,3.7c0,1.1,0.4,1.7,1.3,1.7c0.8,0,1.8-0.7,2.8-2.2c0.1-0.1,0.2-0.1,0.3,0
		c0.1,0.1,0.1,0.2,0.1,0.3c-0.6,0.9-1.3,1.7-2.1,2.4c-0.8,0.7-1.7,1-2.5,1c-0.8,0-1.5-0.2-1.9-0.6c-0.4-0.4-0.6-1-0.6-1.7
		c0-0.9,0.2-2.2,0.7-3.9c0.5-1.7,1-3.4,1.8-5.1c-0.8,0.1-1.6,0.2-2.3,0.4c-0.2,0-0.2-0.1-0.1-0.2c0.1-0.1,0.2-0.3,0.4-0.4
		c0.2-0.1,0.5-0.3,0.8-0.4c0.3-0.1,0.6-0.2,0.8-0.2c0.1,0,0.3,0,0.4,0c0.1,0,0.3,0,0.4,0c0.4-0.9,0.9-1.9,1.3-2.7
		c0.5-0.9,0.9-1.7,1.4-2.4c0.2-0.2,0.5-0.4,0.8-0.6c0.3-0.2,0.7-0.3,1-0.4c0.3-0.1,0.6-0.2,0.8-0.2c0.2,0,0.3,0,0.3,0.2
		c-0.6,0.8-1.1,1.8-1.6,2.8c-0.5,1-1,2.1-1.5,3.3c0.6,0,1.2,0,1.9,0C-328.8,115.8-328.2,115.8-327.7,115.8z"/>
	<g>
		<g>
			<path d="M-298,91.3c0.5,0,0.9,0.1,1.2,0.4c0.3,0.2,0.5,0.6,0.6,1c0.1,0.4,0.1,0.9,0,1.4c-0.1,0.5-0.3,1-0.6,1.6
				c-0.1,0.1-0.1,0.1-0.2,0c-0.1-0.1-0.2-0.1-0.2-0.2c0.1-0.4-0.1-0.7-0.4-1c-0.3-0.3-0.9-0.4-1.6-0.4c-1.3,0-2.7,0.5-4,1.5
				c-1.4,1-2.7,2.3-3.9,3.9c-1.3,1.6-2.5,3.5-3.6,5.6c-1.1,2.1-2.1,4.3-2.9,6.5c-0.8,2.2-1.5,4.5-1.9,6.7c-0.5,2.2-0.7,4.2-0.7,6.1
				c0,1,0.3,1.5,0.8,1.5c0.4,0,0.8-0.2,1.1-0.5c0.4-0.3,0.8-0.8,1.3-1.5c0.1-0.1,0.2-0.1,0.3,0c0.1,0.1,0.1,0.2,0.1,0.3
				c-0.7,1-1.4,1.8-2.3,2.4c-0.9,0.7-1.7,1-2.4,1c-0.6,0-1-0.2-1.3-0.5c-0.2-0.4-0.4-0.8-0.4-1.4c0-1.5,0.3-3.4,1-5.7
				c0.7-2.3,1.5-4.7,2.6-7.3c1.1-2.6,2.4-5.1,3.8-7.6c1.4-2.5,2.9-4.8,4.5-6.9c1.5-2,3.1-3.7,4.7-5C-300.9,92-299.4,91.3-298,91.3z"
				/>
		</g>
	</g>
	<g>
		<g>
			<path d="M-341.4,151.3c-0.5,0-0.9-0.1-1.2-0.4c-0.3-0.2-0.5-0.6-0.6-1c-0.1-0.4-0.1-0.9,0-1.4c0.1-0.5,0.3-1,0.6-1.6
				c0.1-0.1,0.1-0.1,0.2,0c0.1,0.1,0.2,0.1,0.2,0.2c-0.1,0.4,0.1,0.7,0.4,1c0.3,0.3,0.9,0.4,1.6,0.4c1.3,0,2.7-0.5,4-1.5
				c1.4-1,2.7-2.3,3.9-3.9c1.3-1.6,2.5-3.5,3.6-5.6c1.1-2.1,2.1-4.3,2.9-6.5c0.8-2.2,1.5-4.5,1.9-6.7c0.5-2.2,0.7-4.2,0.7-6.1
				c0-1-0.3-1.5-0.8-1.5c-0.4,0-0.8,0.2-1.1,0.5c-0.4,0.3-0.8,0.8-1.3,1.5c-0.1,0.1-0.2,0.1-0.3,0c-0.1-0.1-0.1-0.2-0.1-0.3
				c0.7-1,1.4-1.8,2.3-2.4c0.9-0.7,1.7-1,2.4-1c0.6,0,1,0.2,1.3,0.5s0.4,0.8,0.4,1.4c0,1.5-0.3,3.4-1,5.7c-0.7,2.3-1.5,4.7-2.6,7.3
				c-1.1,2.6-2.4,5.1-3.8,7.6c-1.4,2.5-2.9,4.8-4.5,6.9c-1.5,2-3.1,3.7-4.7,5C-338.6,150.7-340,151.3-341.4,151.3z"/>
		</g>
	</g>
	<path d="M-308.4,128c-1.4,0-2.1-0.7-2.1-2.2c0-0.5,0.1-1.1,0.2-1.8c0.1-0.7,0.3-1.4,0.5-2.1s0.5-1.5,0.9-2.2
		c0.3-0.7,0.7-1.5,1.2-2.1c-0.4,0.2-0.7,0.5-1,0.7c-0.3,0.2-0.6,0.5-0.9,0.8c-0.1,0.1-0.2,0-0.3-0.1c-0.1-0.1-0.1-0.2,0-0.3
		c0.6-0.6,1.3-1.2,2.4-1.8c1-0.6,2-1.1,3-1.5c0.2,0,0.3,0,0.4,0.1c0.1,0.1,0.1,0.2,0,0.3c-1,1.4-1.9,2.8-2.5,4.4
		c-0.6,1.6-1,3.1-1,4.6c0,0.9,0.3,1.4,0.9,1.4c0.4,0,0.9-0.3,1.6-0.9c0.6-0.6,1.3-1.3,2-2.2c0.7-0.9,1.4-2,2.1-3.1
		c0.7-1.2,1.3-2.4,1.9-3.6c0.1-0.2,0.4-0.4,0.9-0.6c0.5-0.2,1-0.3,1.4-0.3c0.5,0,0.6,0.1,0.4,0.4c-0.5,0.8-0.9,1.6-1.2,2.4
		c-0.3,0.7-0.6,1.5-0.9,2.2c-0.2,0.7-0.4,1.4-0.5,2.2c-0.1,0.7-0.2,1.5-0.2,2.4c0,1,0.3,1.6,0.8,1.6c0.6,0,1.2-0.5,1.9-1.5
		c0.1-0.1,0.2-0.1,0.3,0c0.1,0.1,0.1,0.2,0.1,0.3c-0.6,0.8-1.2,1.5-1.8,1.9c-0.7,0.4-1.3,0.7-1.8,0.7c-1.4,0-2.1-0.8-2.1-2.4
		c0-1.7,0.3-3.3,0.9-4.9c-1.2,2.2-2.5,4-3.9,5.3C-306.3,127.4-307.5,128-308.4,128z"/>
	<path d="M-288.2,115.5c0.7,0,1.3,0.1,1.7,0.3c0.4,0.2,0.7,0.4,0.7,0.7c0,0.4-0.1,0.8-0.3,1.2c-0.2,0.5-0.4,0.8-0.5,1.1
		c-0.1,0.1-0.1,0.1-0.2,0c-0.1,0-0.1-0.1-0.1-0.3c0.1-0.2,0.1-0.6,0.1-1c0-0.5-0.1-0.8-0.4-1.1c-0.2-0.3-0.6-0.4-1-0.4
		c-0.6,0-1,0.2-1.3,0.5c-0.3,0.3-0.5,0.8-0.5,1.4c0,0.5,0.1,1,0.4,1.5c0.3,0.5,0.6,0.9,0.9,1.4c0.3,0.5,0.7,1,1,1.5
		c0.3,0.5,0.4,1.1,0.4,1.8c0,1.2-0.5,2.1-1.4,2.7c-0.9,0.7-2.2,1-3.7,1c-1.1,0-2-0.2-2.6-0.5c-0.6-0.4-1-0.7-1-1.2
		c0-0.1,0-0.3,0.1-0.5c0.1-0.2,0.2-0.5,0.4-0.7c0.2-0.3,0.3-0.5,0.5-0.8c0.2-0.3,0.4-0.5,0.6-0.6c0.1-0.1,0.2,0,0.3,0
		c0.1,0.1,0.1,0.2,0,0.3c-0.2,0.2-0.3,0.4-0.4,0.6c-0.1,0.2-0.1,0.5-0.1,0.9c0,0.6,0.2,1.1,0.6,1.4c0.4,0.4,0.9,0.6,1.5,0.6
		c0.8,0,1.5-0.2,2-0.7c0.5-0.5,0.7-1,0.7-1.7c0-0.6-0.1-1.2-0.4-1.7c-0.3-0.5-0.6-1.1-0.9-1.6c-0.3-0.5-0.6-1-0.9-1.5
		c-0.3-0.5-0.4-1.1-0.4-1.7c0-0.8,0.4-1.6,1.1-2.1C-290.7,115.8-289.6,115.5-288.2,115.5z"/>
</g>
<g>
	<g>
		<path d="M-226.8,126.7c0,1.1-0.4,1.7-1.3,1.7c-0.4,0-0.8-0.2-1-0.5c0.2-0.1,0.4-0.3,0.6-0.7c0.2-0.3,0.3-0.7,0.3-1
			c0-0.3-0.1-0.6-0.3-0.8c-0.2-0.2-0.4-0.3-0.8-0.3s-0.7,0.1-1,0.4c-0.3,0.3-0.6,0.6-0.9,1c-0.6,0.9-1,2-1.4,3.3
			c-0.4,1.3-0.5,2.6-0.5,3.6s0.2,1.9,0.5,2.4s0.9,0.7,1.6,0.7c1.5,0,2.8-0.6,3.7-1.8l0.4,0.2c-0.6,1.5-1.7,2.5-3.3,3.1
			c-0.6,0.2-1.3,0.3-1.9,0.3c0,0,0,0-0.1,0c-1.4,0-2.4-0.4-3-1.1s-1-1.8-1-3.3c0-1.5,0.3-3.1,0.8-4.6c0.6-1.8,1.5-3.2,2.6-4.1
			c0.9-0.7,1.9-1,3-1c1.4,0,2.4,0.4,2.8,1.3C-226.9,125.9-226.8,126.2-226.8,126.7z"/>
		<path d="M-217.2,131c-0.7,0.8-1.8,1.3-3.3,1.5c-0.1,1.7-0.6,3-1.4,4c-0.8,1-1.8,1.5-2.9,1.5c-1.4,0-2.3-0.5-2.7-1.6
			c-0.1-0.4-0.2-0.8-0.2-1.2c0-0.4,0-0.9,0.1-1.4s0.2-0.9,0.4-1.4c0.4-1.1,0.9-2,1.6-2.7c0.8-0.8,1.8-1.2,3-1.2c1.6,0,2.4,1,2.4,2.9
			v0c0.1,0,0.2,0,0.3,0c0.3,0,0.8-0.1,1.3-0.3c0.5-0.2,1-0.5,1.5-0.8L-217.2,131z M-222,132.6c-0.3-0.1-0.5-0.4-0.5-0.8
			s0.2-0.8,0.6-1c0-0.4-0.1-0.7-0.2-0.8c-0.1-0.2-0.3-0.2-0.6-0.2c-0.6,0-1.1,0.6-1.6,1.9c-0.5,1.2-0.8,2.3-0.8,3.3
			c0,0.6,0.1,1,0.2,1.1s0.2,0.3,0.3,0.3c0.1,0,0.3,0.1,0.5,0.1c0.4,0,0.8-0.4,1.2-1.1C-222.4,134.6-222.1,133.7-222,132.6z"/>
		<path d="M-208.9,127c0-0.2,0-0.4,0-0.5c0-0.2-0.1-0.3-0.2-0.4c-0.1-0.1-0.3-0.2-0.4-0.2c-0.7,0-1.1,0.5-1.3,1.5l-0.3,1.5h1.8
			l-0.2,0.7h-1.8l-2.1,9.9c-0.2,1.2-0.7,2-1.4,2.5c-0.5,0.4-1.2,0.6-1.9,0.6c-1,0-1.7-0.4-2-1.2c-0.6,0.8-1.4,1.2-2.5,1.2
			c-0.6,0-1.1-0.2-1.5-0.6c-0.4-0.4-0.7-0.8-0.7-1.3c0-0.5,0.1-0.9,0.2-1.2c0.2-0.3,0.4-0.6,0.8-0.8c0.4-0.3,1.1-0.5,2.1-0.9
			l2.2-10.5c0.4-2.1,1.6-3.1,3.3-3.1c0.4,0,0.8,0.1,1.2,0.3c0.4,0.2,0.6,0.5,0.8,0.8c0.6-0.8,1.4-1.2,2.5-1.2c0.6,0,1.1,0.2,1.5,0.6
			c0.4,0.4,0.7,0.8,0.7,1.4c0,0.3,0,0.5-0.1,0.8H-208.9z M-220.2,138.5c-0.7,0.2-1.1,0.4-1.4,0.6c-0.5,0.4-0.7,0.8-0.7,1.2
			c0,0.2,0.1,0.4,0.4,0.6c0.1,0,0.2,0.1,0.4,0.1s0.3-0.1,0.5-0.3c0.2-0.2,0.4-0.6,0.5-1.1L-220.2,138.5z M-218.2,140.6
			c0.2,0.2,0.5,0.4,1.1,0.4c0.2,0,0.4-0.1,0.6-0.3c0.2-0.2,0.4-0.6,0.5-1.1l0.4-2.1l-1.9,0.3l-0.3,1.7
			C-217.9,139.9-218,140.3-218.2,140.6z M-213.9,129.5h-1.8l-1.6,7.8l1.9-0.3L-213.9,129.5z M-213.8,128.8l0.4-1.9
			c0-0.1,0-0.3,0-0.5s-0.1-0.3-0.2-0.4c-0.1-0.1-0.3-0.2-0.4-0.2c-0.7,0-1.1,0.5-1.3,1.5l-0.3,1.5H-213.8z"/>
		<path d="M-202.5,134.7c-1.4,2.3-3.1,3.4-5.1,3.4c-0.9,0-1.6-0.2-2.1-0.7c-0.5-0.5-0.8-1.2-0.8-2.2c0-1.4,0.4-2.8,1.1-4.1
			c0.5-1,1.3-1.7,2.2-2.1c0.5-0.2,1-0.3,1.5-0.3c0.8,0,1.4,0.2,1.7,0.5s0.5,0.7,0.5,1.3c0,1-0.4,1.9-1.3,2.7c-0.8,0.7-1.8,1.1-3,1.2
			c0,0.3,0,0.6,0,0.7c0,0.6,0.1,1,0.3,1.2c0.2,0.2,0.5,0.3,0.9,0.3c0.7,0,1.3-0.2,1.8-0.5s1-0.8,1.5-1.4H-202.5z M-204.8,130.3
			c0-0.4-0.2-0.7-0.5-0.7c-0.4,0-0.9,0.4-1.3,1.2s-0.7,1.6-0.9,2.6c0.7,0,1.3-0.4,1.9-1S-204.8,131.1-204.8,130.3z"/>
		<path d="M-200.6,134.8c0,1,0.4,1.5,1.2,1.5c0.3,0,0.7-0.1,1.1-0.3c0.4-0.2,0.7-0.4,1-0.7c-0.3,1.8-1.4,2.7-3.2,2.7
			c-0.9,0-1.6-0.2-2.1-0.7c-0.5-0.5-0.8-1.2-0.8-2.2c0-1.4,0.4-2.8,1.1-4.1c0.5-1,1.3-1.7,2.2-2.1c0.5-0.2,1-0.3,1.5-0.3
			c0.8,0,1.4,0.2,1.7,0.5s0.5,0.7,0.5,1.3c0,1.1-0.4,1.9-1.3,2.7c-0.8,0.7-1.8,1.1-3,1.2C-200.6,134.4-200.6,134.6-200.6,134.8z
			 M-197.8,130.3c0-0.4-0.2-0.7-0.5-0.7c-0.6,0-1.1,0.7-1.7,2c-0.2,0.6-0.4,1.2-0.5,1.8c0.7,0,1.3-0.3,1.9-1
			C-198.1,131.8-197.8,131.1-197.8,130.3z"/>
		<path d="M-189.7,127.9c0.6-0.3,0.8-0.9,0.8-1.7c0-0.2-0.1-0.5-0.3-0.7c-0.2-0.3-0.6-0.4-1.1-0.4c-0.5,0-0.9,0.1-1.2,0.4
			c-0.3,0.3-0.5,0.6-0.5,1.1c0,0.4,0.1,0.8,0.2,1.1c0.2,0.5,0.6,1,1.1,1.5l0.8,0.7c0.7,0.6,1.1,1.1,1.4,1.5c0.5,0.8,0.7,1.6,0.7,2.4
			c0,1.5-0.5,2.7-1.6,3.5c-1,0.8-2.1,1.1-3.6,1.1c-1.8,0-3-0.6-3.6-1.7c-0.2-0.4-0.3-0.9-0.3-1.4c0-1,0.3-1.7,0.8-2.3
			c0.6-0.5,1.2-0.8,1.8-0.8s1.2,0.2,1.5,0.6c0.1,0.2,0.2,0.4,0.2,0.6c-0.9,0-1.6,0.3-2,0.9c-0.1,0.2-0.2,0.5-0.2,0.7
			c0,0.5,0.2,1,0.5,1.3c0.3,0.3,0.8,0.5,1.4,0.5c0.6,0,1.1-0.2,1.5-0.6c0.4-0.4,0.6-1,0.6-1.6c0-0.7-0.1-1.2-0.3-1.6
			c-0.2-0.4-0.4-0.8-0.7-1.2c-0.3-0.4-0.6-0.7-0.9-1c-0.3-0.3-0.6-0.7-0.9-1c-0.7-0.8-1-1.6-1-2.3c0-0.9,0.4-1.7,1.2-2.4
			c0.8-0.6,1.8-0.9,3-0.9c1.5,0,2.4,0.4,2.8,1.3c0.1,0.2,0.2,0.6,0.2,1s-0.1,0.8-0.4,1.2c-0.3,0.3-0.6,0.5-1,0.5
			S-189.5,128.1-189.7,127.9z"/>
		<path d="M-182.3,128.6c1.5,0,2.2,0.6,2.2,1.7c0,0.5-0.1,0.8-0.3,1s-0.4,0.3-0.6,0.3s-0.5-0.1-0.7-0.2c0.1-0.4,0.2-0.8,0.2-1.1
			c0-0.5-0.2-0.8-0.5-0.8c-0.3,0-0.7,0.3-1.1,1c-0.6,0.9-0.9,2-1.1,3.3c-0.1,0.4-0.1,0.8-0.1,1.3c0,0.9,0.4,1.3,1.3,1.3
			c0.7,0,1.3-0.2,1.8-0.5s1-0.8,1.5-1.4h0.6c-1.4,2.3-3.1,3.4-5.1,3.4c-0.9,0-1.6-0.2-2.1-0.7c-0.5-0.5-0.8-1.2-0.8-2.2
			c0-1.4,0.4-2.8,1.1-4.1c0.5-1,1.3-1.7,2.2-2.1C-183.3,128.8-182.8,128.6-182.3,128.6z"/>
		<path d="M-180.5,138l1.9-9.2h2.6l-0.2,1.1c0.3-0.3,0.6-0.5,1-0.8s0.8-0.4,1.2-0.4c0.4,0,0.7,0.1,1,0.4c0.2,0.3,0.3,0.6,0.3,0.8
			c0,0.4-0.1,0.8-0.4,1.1c-0.2,0.3-0.5,0.4-0.9,0.4s-0.6-0.1-0.7-0.2c-0.1-0.2-0.2-0.3-0.2-0.5s-0.1-0.3-0.1-0.4
			c0-0.1-0.1-0.1-0.2-0.1c-0.3,0-0.5,0.1-0.7,0.2c-0.2,0.1-0.4,0.3-0.7,0.5l-1.5,7H-180.5z"/>
		<path d="M-167.2,134.7c-0.8,2.3-2.1,3.4-4,3.4c-0.5,0-0.9-0.2-1.3-0.5c-0.4-0.3-0.6-0.9-0.6-1.7c0-0.3,0-0.7,0.1-1.2l1.2-5.9h2.6
			l-1.3,6.2c0,0.2-0.1,0.4-0.1,0.7c0,0.4,0.2,0.6,0.7,0.6c0.4,0,0.7-0.2,1-0.5c0.3-0.3,0.5-0.7,0.7-1.2H-167.2z M-168.4,126.4
			c0,0.4-0.1,0.7-0.4,1c-0.3,0.3-0.6,0.4-1,0.4c-0.4,0-0.7-0.1-1-0.4c-0.3-0.3-0.4-0.6-0.4-1s0.1-0.7,0.4-1c0.3-0.3,0.6-0.4,1-0.4
			c0.4,0,0.8,0.1,1,0.4C-168.5,125.6-168.4,126-168.4,126.4z"/>
		<path d="M-165.9,137.4l-1,4.5l-2.8,0.7l3.1-14.5h2.6l-0.3,1.4c0.6-0.5,1.3-0.8,2.1-0.8c1.1,0,1.7,0.5,2.1,1.5
			c0.1,0.4,0.2,0.8,0.2,1.3c0,0.5,0,1-0.1,1.4c-0.1,0.5-0.2,1-0.3,1.4c-0.1,0.5-0.3,0.9-0.5,1.4c-0.2,0.4-0.5,0.8-0.8,1.2
			s-0.7,0.6-1.2,0.8c-0.5,0.2-1,0.3-1.7,0.3S-165.7,137.9-165.9,137.4z M-162.4,131.6c0-1-0.3-1.5-0.9-1.5c-0.2,0-0.4,0.1-0.7,0.2
			c-0.2,0.1-0.4,0.4-0.6,0.7l-1.1,5.1c0.1,0.3,0.4,0.4,0.8,0.4c0.4,0,0.8-0.2,1.1-0.5c0.6-0.7,1.1-1.7,1.2-2.9
			C-162.4,132.5-162.4,132-162.4,131.6z"/>
		<path d="M-158.2,129.5h-0.6l0.2-0.7h0.6l0.6-2.5l2.7-0.4l-0.6,2.9h1.1l-0.1,0.7h-1.1l-1.2,5.5c-0.1,0.2-0.1,0.4-0.1,0.6
			c0,0.2,0,0.4,0.1,0.5c0.1,0.1,0.2,0.2,0.5,0.2s0.4,0,0.5-0.1c-0.4,1-0.8,1.6-1.5,1.7c-0.2,0-0.3,0.1-0.5,0.1
			c-0.7,0-1.1-0.2-1.4-0.6c-0.3-0.4-0.4-0.8-0.4-1.3c0-0.5,0-0.8,0.1-1.2L-158.2,129.5z"/>
	</g>
	<g>
		<g>
			<path d="M-198,101.1c-0.3-0.2-0.8-0.3-1.5-0.3c-0.2,0-0.4,0-0.6,0.1c-0.2,0.1-0.3,0.2-0.3,0.4s0.1,0.3,0.4,0.4
				c0.2,0.1,0.6,0.2,1,0.2c0.4,0,0.7,0,0.9-0.1c0.4-0.1,0.9-0.2,1.3-0.4l0.6-0.3c0.5-0.2,1.2-0.7,1.6-0.8c0.7-0.2,1.4-0.3,2.1-0.3
				c1.3,0,2.4,0.2,3.1,0.6c0.7,0.3,0.8,1.1,0.8,1.6c0,0.6-0.5,1.1-1.5,1.3c-0.4,0.1-0.8,0.1-1.2,0.1c-0.8,0-1.5-0.1-2-0.3
				c-0.5-0.2-0.7-0.4-0.7-0.7s0.2-0.4,0.5-0.5c0.1,0,0.3-0.1,0.5-0.1c0,0.3,0.3,0.6,0.8,0.7c0.2,0,0.4,0.1,0.7,0.1
				c0.5,0,0.8-0.1,1.1-0.2c0.3-0.1,0.5-0.3,0.5-0.5s-0.2-0.4-0.6-0.5c-0.4-0.1-0.8-0.2-1.4-0.2s-1,0-1.4,0.1c-0.4,0.1-0.7,0.2-1,0.3
				s-0.6,0.2-0.9,0.3c-0.3,0.1-0.6,0.2-0.9,0.3c-0.7,0.2-1.4,0.4-2,0.4c-0.8,0-1.5-0.1-2.1-0.4s-0.8-0.7-0.8-1.1
				c0-0.5,0.4-0.9,1.2-1c0.2,0,0.5-0.1,0.9-0.1s0.7,0,1,0.1c0.3,0.1,0.5,0.2,0.5,0.4C-197.6,100.9-197.7,101-198,101.1z"/>
		</g>
		<g>
			<path d="M-194.6,107.3c-9.7,0-11-2.3-11-2.3c0,1.2,0.3,2.4,0.7,3.5c-0.6,0.5-2.2,2-2.2,4.2c0,2.8,3.3,4.5,5.5,3.1
				c0,0-3.7-0.5-3.7-3.8c0-1.2,0.4-2,1-2.5c0.9,2,2.2,3.5,2.6,4.1c0.8,1,1,0.7,1.5,2.6c0.4,1.6,4,2.5,6,2.5v0c0,0,0,0,0,0
				c0,0,0,0,0,0v0c2-0.1,5.3-0.9,5.7-2.5c0.5-2,0.5-1.6,1.3-2.6c0.8-1,3.8-4.7,3.8-8.7C-183.6,104.9-184.8,107.3-194.6,107.3z"/>
			<path d="M-194.3,105.8v1.5c0,0-0.4,0-0.4,0c0,0,0.4,0,0.4,0V105.8c11,0,11-3,11-3l-1.3-1.3c2.7,2.7-8.6,3-9.9,3
				c-1.3,0-12.7-0.3-9.9-3l-1,1.3C-205.6,102.9-206.3,105.8-194.3,105.8z"/>
		</g>
	</g>
</g>
<g>
	<path d="M-356.5,23.4c0-0.8,0.3-1.5,0.9-2.1s1.3-0.9,2.1-0.9c0.8,0,1.6,0.3,2.1,0.9c0.6,0.6,0.9,1.3,0.9,2.1s-0.3,1.6-0.9,2.1
		c-0.6,0.6-1.3,0.9-2.1,0.9c-0.8,0-1.6-0.3-2.1-0.9S-356.5,24.2-356.5,23.4z M-351.2,31.7v31h-4.6v-31H-351.2z"/>
	<path d="M-330.5,31.7h4.7v20.1h-4.7v-2.1c-1.9,1.8-4,2.7-6.2,2.7c-2.8,0-5.1-1-6.9-3c-1.8-2-2.7-4.6-2.7-7.7c0-3,0.9-5.5,2.7-7.5
		c1.8-2,4.1-3,6.8-3c2.3,0,4.4,1,6.3,2.9V31.7z M-341.5,41.7c0,1.9,0.5,3.5,1.5,4.7c1.1,1.2,2.4,1.8,4,1.8c1.7,0,3.1-0.6,4.2-1.8
		c1.1-1.2,1.6-2.8,1.6-4.7c0-1.9-0.5-3.4-1.6-4.7c-1.1-1.2-2.4-1.8-4.1-1.8c-1.6,0-2.9,0.6-4,1.8C-341,38.4-341.5,39.9-341.5,41.7z"
		/>
	<path d="M-305.2,17h4.7v34.8h-4.7v-2.1c-1.8,1.8-3.9,2.7-6.2,2.7c-2.7,0-5-1-6.8-3c-1.8-2-2.7-4.6-2.7-7.7c0-3,0.9-5.5,2.7-7.5
		c1.8-2,4-3,6.7-3c2.4,0,4.5,1,6.3,2.9V17z M-316.2,41.7c0,1.9,0.5,3.5,1.5,4.7c1.1,1.2,2.4,1.8,4,1.8c1.7,0,3.1-0.6,4.2-1.8
		c1.1-1.2,1.6-2.8,1.6-4.7c0-1.9-0.5-3.4-1.6-4.7c-1.1-1.2-2.4-1.8-4.1-1.8c-1.6,0-2.9,0.6-4,1.8C-315.6,38.4-316.2,39.9-316.2,41.7
		z"/>
	<path d="M-276.4,42.8h-14.4c0.1,1.6,0.7,3,1.6,3.9c0.9,1,2.2,1.4,3.6,1.4c1.2,0,2.1-0.3,2.9-0.8c0.7-0.5,1.6-1.6,2.5-3.1l3.9,2.2
		c-0.6,1-1.2,1.9-1.9,2.6s-1.4,1.3-2.2,1.8s-1.6,0.8-2.5,1c-0.9,0.2-1.9,0.3-2.9,0.3c-3,0-5.4-1-7.2-2.9c-1.8-1.9-2.7-4.5-2.7-7.7
		c0-3.2,0.9-5.7,2.6-7.7c1.8-1.9,4.1-2.9,7.1-2.9c3,0,5.3,0.9,7,2.8c1.7,1.9,2.6,4.5,2.6,7.8L-276.4,42.8z M-281.1,39
		c-0.6-2.5-2.2-3.7-4.7-3.7c-0.6,0-1.1,0.1-1.6,0.3c-0.5,0.2-0.9,0.4-1.4,0.7c-0.4,0.3-0.8,0.7-1,1.2c-0.3,0.5-0.5,1-0.7,1.5H-281.1
		z"/>
</g>
<g>
	<g>
		<path d="M-92.9,33.2c1.8-2.9,4.2-4.4,7.2-4.4c2.6,0,4.7,1.4,4.7,4c0,2.5-2.9,9.4-2.9,10.8c0,0.8,0.4,1.1,1.1,1.1
			c0.5,0,0.8-0.1,1.4-0.3l-0.7,2.7c-1,0.3-2.1,0.5-3.2,0.5c-2.4,0-3.8-0.9-3.8-3.2c0-2.1,2.9-8.8,2.9-10.6c0-1.3-0.9-1.9-2-1.9
			c-3,0-5.6,4.3-8.4,15.2h-4.9l5.5-20.5c0.2-0.8,0.1-1.1-0.3-1.1h-1.9l0.8-2.8h3.2c1.8,0,3.5-0.2,4.4-0.4L-92.9,33.2z"/>
		<path d="M-79.2,40.9c0-6.2,4-12.1,9.9-12.1c2.8,0,4.7,1.5,5.3,3.9l1-3.4h1.8c1.3,0,2.3-0.1,3.1-0.4l-2.8,10.6c-0.5,1.8-1,3.3-1,4
			c0,0.8,0.4,1.2,1.1,1.2c0.5,0,0.8-0.1,1.4-0.3l-0.7,2.7c-1,0.3-1.9,0.5-3,0.5c-2.5,0-3.9-1.1-3.9-3.2c-1.5,1.9-3.5,3.2-5.9,3.2
			C-76.7,47.6-79.2,44.8-79.2,40.9z M-65.1,35.5c0-2.2-1.4-3.7-3.3-3.7c-3.3,0-5.9,4.4-5.9,9c0,2.4,1.4,3.8,3.4,3.8
			C-67.7,44.6-65.1,39.8-65.1,35.5z"/>
		<path d="M-48.5,32.2c1.3-2.2,3.1-3.6,5.3-3.6c2.3,0,3.7,1.4,3.8,3.5c0.1,2.5-1.5,4.7-3.6,4.7c-1.6,0-2.5-0.9-2.5-2.2
			c0-1.1,0.8-2.3,2.1-2.5c-0.2-0.3-0.8-0.6-1.3-0.6c-3,0-4.4,3.4-6.1,9.6l-1.6,5.9h-4.9l3.9-14c0.2-0.8,0.1-1.1-0.3-1.1h-2.2
			l0.7-2.8h3.4c1.8,0,3.5-0.2,4.4-0.4L-48.5,32.2z"/>
		<path d="M-42.9,50.7h1.6c0.4,0,0.7-0.1,0.9-1l4.6-16.6c0.2-0.8,0.1-1.1-0.3-1.1h-2.1l0.7-2.8h3.3c1.8,0,3.5-0.2,4.4-0.4l-0.7,2.7
			c1.4-1.6,3.3-2.8,5.5-2.8c4,0,6.4,2.9,6.4,6.9c0,6.2-3.7,11.9-9.6,11.9c-2.9,0-4.8-1.5-5.5-3.9l-1.6,6c-0.2,0.8,0,1,0.4,1h1.9
			l-0.7,2.8h-9.7L-42.9,50.7z M-23.7,35.6c0-2.4-1.4-3.8-3.4-3.8c-3.3,0-5.8,4.8-5.7,9.1c0,1.9,1.3,3.6,3.4,3.6
			C-26.3,44.6-23.7,40.2-23.7,35.6z"/>
	</g>
	<g>
		<path d="M-80.9,52.8c0,0.7-0.2,1.3-0.5,1.7S-82.3,55-83,55h-0.3v2.5h-1.3v-6.8h1.7C-81.6,50.7-80.9,51.4-80.9,52.8z M-83.3,53.9
			h0.2c0.3,0,0.5-0.1,0.7-0.3c0.1-0.2,0.2-0.4,0.2-0.8c0-0.4-0.1-0.6-0.2-0.8c-0.1-0.2-0.4-0.3-0.6-0.3h-0.3
			C-83.3,51.8-83.3,53.9-83.3,53.9z"/>
		<path d="M-80.1,57.5v-6.8h1.3v5.7h1.7v1.1H-80.1z"/>
		<path d="M-72.7,57.5l-0.4-1.7h-1.8l-0.4,1.7h-1.3l1.7-6.8h1.7l1.7,6.8H-72.7z M-73.3,54.7l-0.4-1.6c0-0.1-0.1-0.3-0.1-0.7
			c-0.1-0.4-0.1-0.6-0.1-0.8c0,0.3-0.1,0.6-0.2,0.9c-0.1,0.3-0.2,1.1-0.5,2.2C-74.6,54.7-73.3,54.7-73.3,54.7z"/>
		<path d="M-69.1,57.5h-1.3v-5.7h-1.3v-1.1h3.9v1.1h-1.3C-69.1,51.8-69.1,57.5-69.1,57.5z"/>
		<path d="M-65.8,57.5h-1.3v-6.8h3v1.1h-1.8v1.9h1.7v1.1h-1.7C-65.8,54.8-65.8,57.5-65.8,57.5z"/>
		<path d="M-58.5,54.1c0,1.1-0.2,2-0.6,2.6c-0.4,0.6-1,0.9-1.8,0.9c-0.8,0-1.4-0.3-1.8-0.9c-0.4-0.6-0.6-1.5-0.6-2.6
			c0-1.1,0.2-2,0.6-2.6c0.4-0.6,1-0.9,1.8-0.9c0.8,0,1.4,0.3,1.8,0.9C-58.7,52.1-58.5,53-58.5,54.1z M-62.1,54.1
			c0,0.8,0.1,1.4,0.3,1.8c0.2,0.4,0.5,0.6,0.9,0.6c0.8,0,1.1-0.8,1.1-2.4s-0.4-2.4-1.1-2.4c-0.4,0-0.7,0.2-0.9,0.6
			C-62,52.7-62.1,53.3-62.1,54.1z"/>
		<path d="M-56.3,54.9v2.6h-1.3v-6.8h1.6c0.7,0,1.2,0.2,1.5,0.5c0.3,0.3,0.5,0.8,0.5,1.5c0,0.9-0.3,1.5-0.9,1.8l1.3,3h-1.4l-1.1-2.6
			H-56.3z M-56.3,53.8h0.3c0.3,0,0.5-0.1,0.6-0.3c0.1-0.2,0.2-0.4,0.2-0.8c0-0.3-0.1-0.6-0.2-0.7c-0.1-0.1-0.3-0.2-0.6-0.2h-0.3
			L-56.3,53.8L-56.3,53.8z"/>
		<path d="M-50,57.5l-1.3-5.8h0c0.1,0.4,0.1,0.9,0.1,1.2v4.6h-1.2v-6.8h1.9l1.2,5.3h0l1.2-5.3h2v6.8h-1.2v-4.6c0-0.4,0-0.8,0.1-1.2
			h0l-1.3,5.8H-50z"/>
	</g>
</g>
<g>
	<path d="M-70.2,128.1v-7.8c0-0.6-0.4-0.8-0.9-0.8c-1,0-2.1,0.2-3.2,0.7v7.9h-2.2v-14.5h2.2v4.8c1-0.4,2.3-0.7,3.5-0.7
		c2,0,2.7,1.2,2.7,2.9v7.5H-70.2L-70.2,128.1z M-63.9,123.3c0.1,2.6,0.6,3.1,2.2,3.1c1.3,0,2.7-0.4,3.8-0.8l0.4,1.6
		c-1.2,0.5-2.6,1-4.3,1c-3.7,0-4.2-2-4.2-5.2c0-1.8,0.1-3.4,0.6-4.8c1.1-0.4,2.6-0.6,4.4-0.6c3,0,3.9,1.7,3.9,4.6v1.1H-63.9
		L-63.9,123.3z M-61.1,119.5c-0.7,0-1.7,0-2.6,0.2c-0.1,0.4-0.2,1-0.2,2.2h4.6C-59.3,120.3-59.6,119.5-61.1,119.5L-61.1,119.5z
		 M-53,120.2v7.9h-2.2v-8.9c1.9-1,3.8-1.3,5.1-1.4v1.8C-51,119.7-52.2,119.8-53,120.2L-53,120.2z M-44.3,128.3
		c-3.3,0-4.8-1.6-4.8-5.3c0-3.9,2-5.4,4.8-5.4c3.3,0,4.8,1.6,4.8,5.3C-39.6,126.8-41.5,128.3-44.3,128.3L-44.3,128.3z M-44.3,119.5
		c-1.7,0-2.6,1-2.6,3.6c0,2.8,0.8,3.4,2.6,3.4c1.7,0,2.6-1,2.6-3.5C-41.7,120.1-42.5,119.5-44.3,119.5L-44.3,119.5z M-29,128.1h-2.6
		c-0.6-1.6-1.4-3.3-2.7-4.7h-1.2v4.7h-2.2v-14.5h2.2v8.3h1c1.1-1.2,2-2.6,2.6-4h2.5c-0.8,1.7-1.9,3.2-3.1,4.4
		C-31.1,124.2-29.9,126.1-29,128.1L-29,128.1z M-24.8,128.3c-2,0-2.7-1.2-2.7-2.9v-7.5h2.2v7.8c0,0.6,0.4,0.8,0.9,0.8
		c1,0,2.3-0.2,3.3-0.7v-7.9h2.2v8.8C-21.6,128.2-23.6,128.3-24.8,128.3L-24.8,128.3z"/>
	<path class="st0" d="M-83.7,133.4H-99c-1.3,0-2.4-1.1-2.4-2.4v-20.1c0-1.3,1.1-2.4,2.4-2.4h15.3c1.3,0,2.4,1.1,2.4,2.4v20.1
		C-81.3,132.4-82.3,133.4-83.7,133.4L-83.7,133.4z M-82.1,111.1c0-0.9-0.8-1.7-1.7-1.7h-15c-0.9,0-1.7,0.8-1.7,1.7v19.9
		c0,0.9,0.8,1.7,1.7,1.7h15c0.9,0,1.7-0.8,1.7-1.7V111.1L-82.1,111.1z"/>
	<path d="M-88.8,130v-9.9c0,0,0.6-2.4-7.9,1c0,0,0-9.1,0-9.1l2.8,0v5.9c0,0,7.8-3.1,7.8,2.3c0,5.4,0,9.8,0,9.8H-88.8L-88.8,130z
		 M-87.2,115.5c0,0-2.9,0-3,0c1.1-1.3,2-3.5,2-3.5h3.1C-85,112-85.6,113.4-87.2,115.5L-87.2,115.5z M-96.6,130v-5.6l2.8,2.8
		L-96.6,130L-96.6,130z"/>
</g>
<g>
	<path d="M35.4,39.1h-6.9c-0.2,0-0.3,0.1-0.3,0.3v3.4c0,0.2,0.1,0.3,0.3,0.3h2.7v4.2c0,0-0.6,0.2-2.3,0.2c-2,0-4.8-0.7-4.8-6.8
		c0-6.1,2.9-6.9,5.6-6.9c2.3,0,3.4,0.4,4,0.6c0.2,0.1,0.4-0.1,0.4-0.3l0.8-3.3c0-0.1,0-0.2-0.1-0.3c-0.3-0.2-1.9-1.1-5.9-1.1
		c-4.6,0-9.4,2-9.4,11.4c0,9.5,5.4,10.9,10,10.9c3.8,0,6.1-1.6,6.1-1.6c0.1-0.1,0.1-0.2,0.1-0.2V39.4C35.8,39.2,35.6,39.1,35.4,39.1
		z"/>
	<path d="M71.2,30.6c0-0.2-0.1-0.3-0.3-0.3H67c-0.2,0-0.3,0.1-0.3,0.3c0,0,0,7.6,0,7.6h-6.1v-7.6c0-0.2-0.1-0.3-0.3-0.3h-3.9
		c-0.2,0-0.3,0.1-0.3,0.3v20.4c0,0.2,0.1,0.3,0.3,0.3h3.9c0.2,0,0.3-0.1,0.3-0.3v-8.7h6.1c0,0,0,8.7,0,8.7c0,0.2,0.1,0.3,0.3,0.3
		h3.9c0.2,0,0.3-0.1,0.3-0.3V30.6z"/>
	<g>
		<g>
			<ellipse cx="40.3" cy="33.3" rx="2.5" ry="2.5"/>
			<path d="M42.5,46.8c0-0.5,0-9.4,0-9.4c0-0.2-0.1-0.3-0.3-0.3h-3.9c-0.2,0-0.3,0.2-0.3,0.4c0,0,0,11.4,0,13.5
				c0,0.4,0.2,0.5,0.6,0.5c0,0,1.7,0,3.5,0c0.4,0,0.5-0.2,0.5-0.5C42.5,50.2,42.5,47.3,42.5,46.8z"/>
		</g>
	</g>
	<path d="M86.1,37h-3.9c-0.2,0-0.3,0.1-0.3,0.3v10c0,0-1,0.7-2.4,0.7c-1.4,0-1.8-0.6-1.8-2c0-1.4,0-8.7,0-8.7c0-0.2-0.1-0.3-0.3-0.3
		h-3.9c-0.2,0-0.3,0.1-0.3,0.3c0,0,0,5.3,0,9.4c0,4.1,2.3,5.1,5.4,5.1c2.6,0,4.6-1.4,4.6-1.4s0.1,0.7,0.1,0.8c0,0.1,0.2,0.2,0.3,0.2
		l2.5,0c0.2,0,0.3-0.1,0.3-0.3l0-13.7C86.4,37.2,86.2,37,86.1,37z"/>
	<path d="M96.7,36.6c-2.2,0-3.7,1-3.7,1v-6.9c0-0.2-0.1-0.3-0.3-0.3h-3.9c-0.2,0-0.3,0.1-0.3,0.3v20.4c0,0.2,0.1,0.3,0.3,0.3
		c0,0,2.7,0,2.7,0c0.1,0,0.2-0.1,0.3-0.2c0.1-0.1,0.2-0.9,0.2-0.9s1.6,1.5,4.6,1.5c3.6,0,5.6-1.8,5.6-8.1
		C102.1,37.4,98.9,36.6,96.7,36.6z M95.1,48.1c-1.3,0-2.3-0.7-2.3-0.7V41c0,0,0.9-0.6,2-0.7c1.4-0.1,2.7,0.3,2.7,3.6
		C97.6,47.5,97,48.2,95.1,48.1z"/>
	<path d="M53.8,37h-2.9c0,0,0-3.9,0-3.9c0-0.1-0.1-0.2-0.2-0.2h-4c-0.2,0-0.2,0.1-0.2,0.2v4c0,0-2,0.5-2.1,0.5
		c-0.1,0-0.2,0.2-0.2,0.3v2.5c0,0.2,0.1,0.3,0.3,0.3h2c0,0,0,2.6,0,6c0,4.5,3.2,4.9,5.3,4.9c1,0,2.1-0.3,2.3-0.4
		c0.1,0,0.2-0.2,0.2-0.3l0-2.8c0-0.2-0.2-0.3-0.3-0.3c-0.2,0-0.6,0.1-1.1,0.1c-1.4,0-1.9-0.7-1.9-1.5c0-0.9,0-5.7,0-5.7h2.9
		c0.2,0,0.3-0.1,0.3-0.3v-3.1C54.1,37.1,54,37,53.8,37z"/>
</g>
<g id="Logotype">
	<path d="M26.1,116.4c-1.5,0-2.7,0.4-3.5,1l0,0c-0.4-0.7-1.2-1.1-2.2-1.1c-1.6,0-2.3,0.4-2.3,1.2c0,0.5,0.1,0.7,0.2,1.1h1.2
		c0.5,0,0.8,0.2,0.8,0.9h0v8.7c0,0.2,0.2,0.4,0.4,0.4h1.6c0.2,0,0.4-0.2,0.4-0.4v-6.7c0-1.9,1-2.8,3-2.8c1.2,0,1.6,0.2,1.8,0.4
		c0.2,0.2,0.4,0.6,0.4,1.6v7.6c0,0.2,0.2,0.4,0.4,0.4h1.6c0.2,0,0.4-0.2,0.4-0.4v-7.3c0-1.7-0.3-2.9-1-3.5
		C29,116.7,27.8,116.4,26.1,116.4z"/>
	<path d="M37.6,116.4c-2.2,0-3.6,0.4-4.3,1.2c-0.7,0.8-1,2.4-1,5c0,2.5,0.3,4.2,1,5c0.7,0.8,2.1,1.2,4.3,1.2c2.2,0,3.7-0.4,4.4-1.2
		c0.7-0.8,1-2.4,1-5c0-2.5-0.3-4.2-1-5C41.2,116.8,39.8,116.4,37.6,116.4z M39.9,126c-0.1,0.2-0.6,0.5-2.4,0.5
		c-1.7,0-2.2-0.3-2.4-0.5c-0.2-0.2-0.4-1-0.4-3.4c0-2.5,0.3-3.2,0.4-3.4c0.1-0.2,0.6-0.5,2.4-0.5c1.7,0,2.2,0.3,2.4,0.5
		c0.2,0.2,0.4,1,0.4,3.4C40.4,125,40.1,125.8,39.9,126z"/>
	<path d="M67.3,124.3h-1.7c-0.2,0-0.4,0.2-0.4,0.4v0.4c0,0.4-0.1,0.9-0.4,1.1c-0.2,0.1-0.7,0.3-2.4,0.3c-1.6,0-2.2-0.4-2.3-0.6
		c-0.2-0.2-0.4-0.8-0.5-2.7h7.6c0.2,0,0.4-0.2,0.4-0.4V122c0-2.3-0.4-3.7-1.1-4.5c-0.7-0.8-2.2-1.1-4.4-1.1c-2,0-3.4,0.4-4.1,1.3
		c-0.7,0.9-1.1,2.4-1.1,4.8c0,2.5,0.4,4.2,1.1,5c0.7,0.9,2.2,1.3,4.4,1.3c1.9,0,3.2-0.3,4-0.8c0.8-0.5,1.3-1.5,1.3-2.8l0-0.4
		C67.7,124.5,67.5,124.3,67.3,124.3z M60.2,119.1c0.2-0.2,0.7-0.5,2.3-0.5c1.6,0,2.1,0.3,2.3,0.4c0.2,0.2,0.5,0.6,0.5,2.1l0,0.1
		h-5.5C59.7,119.8,60,119.3,60.2,119.1z"/>
	<path d="M71.4,116.5h-1.6c-0.2,0-0.4,0.2-0.4,0.4v12.2c0,0.9-0.1,1.3-0.2,1.4l-0.2,0.1h-1.3c-0.7,0.4-1.1,2.2,1.3,2.2l0,0
		c0.1,0,0.1,0,0.2,0c1.3,0,2.7-0.6,2.7-3.2V117C71.8,116.7,71.6,116.5,71.4,116.5z"/>
	<path d="M75.8,116.5h-1.6c-0.2,0-0.4,0.2-0.4,0.4v11.2c0,0.2,0.2,0.4,0.4,0.4h1.6c0.2,0,0.4-0.2,0.4-0.4V117
		C76.3,116.7,76.1,116.5,75.8,116.5z"/>
	<path d="M92.6,121.4l-3-0.2c-0.9,0-1.2-0.5-1.2-1.4c0-0.8,0.2-1,0.3-1.1c0.1-0.1,0.6-0.2,2.1-0.2c1.7,0,2.1,0.2,2.2,0.2
		c0.1,0.1,0.3,0.4,0.3,1.1c0,0.2,0.2,0.4,0.4,0.4h1.6c0.2,0,0.4-0.2,0.4-0.4v-0.4c0-2.1-1.6-3.1-4.9-3.1c-2,0-3.3,0.2-4,0.7
		c-0.7,0.5-1.1,1.5-1.1,2.9c0,1.5,0.5,2.5,1.4,3c0.9,0.5,2.5,0.7,5.1,0.7c0.6,0,1.2,0.2,1.2,1.3c0,0.7-0.1,1.1-0.4,1.2
		c-0.2,0.1-0.8,0.3-2.4,0.3c-1.3,0-1.8-0.2-2-0.3c-0.2-0.2-0.4-0.5-0.4-1.1l0-0.5c0-0.2-0.2-0.4-0.4-0.4h-1.7
		c-0.2,0-0.4,0.2-0.4,0.4l0,0.6c0,1.3,0.4,2.3,1.2,2.8c0.8,0.5,2.1,0.7,4,0.7c1.9,0,3.2-0.3,3.9-0.8c0.8-0.6,1.2-1.5,1.2-2.9
		C96.1,122.8,94.9,121.5,92.6,121.4z"/>
	<path d="M108.9,126.5h-0.7c-0.5,0-0.8-0.2-0.8-0.9V117c0-0.2-0.2-0.4-0.4-0.4h-1.6c-0.2,0-0.4,0.2-0.4,0.4v6.4
		c0,1.2-0.2,2.1-0.6,2.5c-0.4,0.4-1.2,0.6-2.3,0.6c-1.1,0-1.5-0.2-1.7-0.4c-0.1-0.1-0.4-0.6-0.4-1.7V117c0-0.2-0.2-0.4-0.4-0.4h-1.6
		c-0.2,0-0.4,0.2-0.4,0.4v7.5c0,2.8,1.5,4.3,4.4,4.3c1.4,0,2.4-0.3,3.2-0.9l0.1-0.2c0.3,0.7,0.8,1,1.7,1c1.6,0,2.3-0.4,2.3-1.2
		C109.1,127,109,126.8,108.9,126.5z"/>
	<path d="M55.6,126.5c-0.4,0-0.7-0.2-0.8-0.7v-11.3c0-0.2-0.2-0.4-0.4-0.4h-1.6c-0.2,0-0.4,0.2-0.4,0.4v2.7
		c-0.7-0.5-1.8-0.8-3.3-0.8c-1.8,0-3,0.5-3.7,1.4c-0.7,0.9-1,2.4-1,4.6c0,2.4,0.3,4,1,4.9c0.7,0.9,2,1.4,3.9,1.4
		c1.4,0,2.4-0.3,3.1-0.8l0.2-0.1c0.3,0.6,0.8,1,1.7,1c1.6,0,2.3-0.4,2.3-1.2c0-0.5-0.1-0.7-0.2-1.1H55.6z M49.5,126.5
		c-1.1,0-1.8-0.2-2.1-0.7c-0.2-0.4-0.5-1.2-0.5-3.5c0-2,0.3-2.8,0.5-3.1c0.3-0.4,1-0.7,2.1-0.7c1.1,0,1.9,0.2,2.3,0.7
		c0.3,0.3,0.6,1.1,0.6,3c0,2.3-0.3,3.3-0.5,3.6C51.5,126.3,50.7,126.5,49.5,126.5z"/>
	<path d="M84.3,116.5h-1.2h-0.6h-0.7v-2.3c0-0.2-0.2-0.4-0.4-0.4h-1.6c-0.2,0-0.4,0.2-0.4,0.4v2.3h-1.1c-0.2,0-0.4,0.2-0.4,0.4v1.4
		c0,0.2,0.2,0.4,0.4,0.4h1.1v6.8c0,1.4,0.6,3.2,3.6,3.2l0,0c0,0,0,0,0,0c0,0,0,0,0,0c0,0,0,0,0,0c2.3-0.1,1.9-1.8,1.2-2.2h-1.5
		c-0.5-0.1-0.9-0.3-0.9-1.3v-6.4H83l0,0C85.4,118.7,85,117,84.3,116.5z"/>
</g>
<image style="overflow:visible;" width="850" height="567" xlink:href="../../../../../../Dropbox/harp.io/apps/chloi.harp.io/public/images/open/cordova.png"  transform="matrix(0.1431 0 0 0.1431 121.6667 -0.6667)">
</image>
<image style="overflow:visible;" width="850" height="567" xlink:href="../../../../../../Dropbox/harp.io/apps/chloi.harp.io/public/images/open/cordova.png"  transform="matrix(0.1431 0 0 0.1431 121.6667 -0.6667)">
</image>
<g>
	<g>
		<path d="M207.3,113.2c2.6,0,4,1.4,4.7,2.4c0.9,1.4,1.4,3.1,1.4,5.6c0,2.9-0.7,4.7-2.2,6.1c-1.1,1-2.3,1.4-3.8,1.4
			c-1.8,0-3.3-0.7-4.3-1.9c-1.2-1.4-1.8-3.4-1.8-5.9C201.3,116.2,203.6,113.2,207.3,113.2z M207.3,114.7c-1.4,0-2.6,0.7-3.2,1.8
			c-0.5,1-0.8,2.3-0.8,4.1c0,2.3,0.4,4.2,1,5.2c0.6,1,2,1.6,3.2,1.6c1.2,0,2.1-0.4,2.8-1.3c0.7-0.9,1.1-2.1,1.1-4.6
			c0-2.2-0.2-3.7-0.7-4.8C210.1,115.6,209,114.7,207.3,114.7z"/>
		<path d="M224,114.6l-0.8,1.3c-1.4-0.9-2.4-1.3-3.7-1.3c-1.9,0-3,0.9-3,2.5c0,1.2,0.7,1.9,2.5,2.4l1.7,0.5c1.3,0.4,2,0.8,2.6,1.5
			c0.6,0.7,1,1.7,1,2.6c0,1.4-0.7,2.8-2.1,3.6c-1,0.6-2,0.9-3.4,0.9c-1.8,0-3.3-0.4-4.8-1.4l0.8-1.4c1.2,0.9,2.5,1.3,4,1.3
			c1.1,0,1.7-0.2,2.4-0.7c0.7-0.5,1.1-1.3,1.1-2.1c0-1.3-0.9-2.3-2.7-2.8l-1.5-0.5c-1.4-0.4-2.1-0.7-2.7-1.3
			c-0.6-0.7-0.9-1.5-0.9-2.4c0-2.6,1.9-4.3,4.9-4.3C221.1,113.2,222.6,113.7,224,114.6z"/>
		<path d="M148.5,115.3h-5.3v4.2h4.3v2.1h-4.3v7.1h-2.6v-15.6h8.2L148.5,115.3z"/>
		<path d="M149.9,114.1c0-0.9,0.7-1.7,1.6-1.7c0.9,0,1.6,0.7,1.6,1.7c0,0.9-0.7,1.6-1.7,1.6C150.6,115.7,149.9,115,149.9,114.1z"/>
		<polygon points="150.2,128.8 150.2,117.6 152.7,117.1 152.7,128.8 		"/>
		<path d="M160.4,119.6c-0.2-0.1-0.4-0.2-0.7-0.2c-1,0-1.9,0.8-2.1,1.7v7.7h-2.5v-8c0-1.4-0.2-2.4-0.4-3.1l2.3-0.6
			c0.3,0.5,0.4,1.2,0.4,1.8c0.9-1.2,1.8-1.8,2.9-1.8c0.4,0,0.6,0,0.9,0.2L160.4,119.6z"/>
		<path d="M163.5,123.8v0.2c0,1.6,0.6,3.2,2.8,3.2c1.1,0,2-0.4,2.8-1.1l1,1.5c-1.2,1-2.6,1.5-4.1,1.5c-3.2,0-5.2-2.3-5.2-6
			c0-2,0.4-3.3,1.4-4.5c0.9-1.1,2-1.5,3.5-1.5c1.1,0,2.2,0.3,3.1,1.2c1,0.9,1.5,2.3,1.5,5v0.5H163.5z M165.7,119
			c-1.4,0-2.2,1.1-2.2,2.9h4.2C167.8,120.1,167,119,165.7,119z"/>
		<path d="M177.4,114.5c-0.6-0.3-0.9-0.4-1.4-0.4c-0.9,0-1.4,0.6-1.4,1.6v1.7h3l-0.6,1.7h-2.3v9.7h-2.5v-9.7h-1.1v-1.7h1.1
			c0,0-0.1-0.6-0.1-1.7c0-2.4,1.4-3.5,3.5-3.5c1,0,1.8,0.2,2.6,0.7L177.4,114.5z"/>
		<path d="M187.3,123.1c0,3.7-2,5.9-5,5.9c-3.1,0-5-2.3-5-6c0-3.6,2-6,5-6C185.4,117.1,187.3,119.5,187.3,123.1z M180,123
			c0,3.3,0.8,4.3,2.3,4.3c1.5,0,2.3-1.2,2.3-4c0-3.2-0.9-4.2-2.3-4.2C180.7,119,180,120.2,180,123z"/>
		<path d="M194.7,128.8c-0.4-0.7-2.3-3.8-2.5-4.3c-0.4,0.9-2.1,3.6-2.5,4.3h-3.1l4.2-6.2l-3.3-4.9l2.7-0.5c0.5,0.9,1.5,2.6,2.1,3.7
			c0.3-0.7,1.5-3,1.8-3.5h2.9l-3.4,5.2l4.2,6.2H194.7z"/>
	</g>
</g>
<g>
</g>
<g>
</g>
<g>
</g>
<g>
</g>
<g>
</g>
<g>
</g>
<g>
</g>
<g>
</g>
<g>
</g>
<g>
</g>
<g>
</g>
<g>
</g>
<g>
</g>
<g>
</g>
<g>
</g>
</svg>
