<?xml version="1.0" encoding="utf-8"?>
<!-- Generator: Adobe Illustrator 17.1.0, SVG Export Plug-In . SVG Version: 6.00 Build 0)  -->
<!DOCTYPE svg PUBLIC "-//W3C//DTD SVG 1.1//EN" "http://www.w3.org/Graphics/SVG/1.1/DTD/svg11.dtd">
<svg version="1.1" id="Layer_1" xmlns="http://www.w3.org/2000/svg" xmlns:xlink="http://www.w3.org/1999/xlink" x="0px" y="0px"
	 viewBox="0 0 121.7 81.3" style="enable-background:new 0 0 121.7 81.3;" xml:space="preserve">
<style type="text/css">
	.st0{fill-rule:evenodd;clip-rule:evenodd;}
</style>
<g>
	<path d="M-354.9,45.3c0-1.4-0.9-2.9-3.5-3v-3.5c2.6-0.1,3.5-1.6,3.5-3c0-2.5-0.4-4.1-0.4-7c0-4.4,1.6-5.8,5.2-5.8h9.6v3.2h-7.8
		c-1.7,0-2.2,0.6-2.2,2.8c0,2.2,0.2,4.2,0.2,6.6c0,3.1-1,4.3-3,4.8v0.2c2,0.5,3,1.7,3,4.8c0,2.5-0.2,4.4-0.2,6.6
		c0,2.2,0.5,2.9,2.2,2.9h0.8V58h-2.6c-3.6,0-5.2-1.4-5.2-5.8C-355.3,49.3-354.9,47.8-354.9,45.3z"/>
	<path d="M-346.4,23.3h6v22.5c0,1.3,0.6,1.7,1.1,1.7c0.2,0,0.4,0,0.7-0.1l0.7,4.4c-0.7,0.3-1.7,0.5-3,0.5c-4.1,0-5.5-2.7-5.5-6.8
		V23.3z"/>
	<path d="M-329.6,31.1c5.7,0,8.6,4.2,8.6,9.7c0,1.1-0.1,2-0.2,2.5h-12.1c0.5,3.1,2.6,4.4,5.3,4.4c1.5,0,2.9-0.4,4.4-1.3l2,3.6
		c-2.1,1.4-4.8,2.3-7.2,2.3c-5.8,0-10.2-3.9-10.2-10.6C-339.1,35.2-334.4,31.1-329.6,31.1z M-326.1,39.6c0-2.3-1-4-3.4-4
		c-1.9,0-3.5,1.3-3.9,4H-326.1z"/>
	<path d="M-317.5,45.8c1.8,1.4,3.5,2.1,5.2,2.1c1.8,0,2.6-0.7,2.6-1.7c0-1.3-2-2-4.1-2.8c-2.4-0.9-5.3-2.6-5.3-5.9
		c0-3.7,3.1-6.3,7.7-6.3c3.1,0,5.4,1.3,7.1,2.6l-2.7,3.6c-1.5-1.1-2.8-1.7-4.3-1.7c-1.5,0-2.3,0.6-2.3,1.6c0,1.3,1.9,1.8,4,2.6
		c2.6,0.9,5.5,2.4,5.5,6.1c0,3.7-2.9,6.5-8.3,6.5c-2.6,0-5.7-1.1-7.7-2.8L-317.5,45.8z"/>
	<path d="M-301.1,45.8c1.8,1.4,3.5,2.1,5.2,2.1c1.8,0,2.6-0.7,2.6-1.7c0-1.3-2-2-4.1-2.8c-2.4-0.9-5.3-2.6-5.3-5.9
		c0-3.7,3.1-6.3,7.7-6.3c3.1,0,5.4,1.3,7.1,2.6l-2.7,3.6c-1.5-1.1-2.8-1.7-4.3-1.7c-1.5,0-2.3,0.6-2.3,1.6c0,1.3,1.9,1.8,3.9,2.6
		c2.6,0.9,5.5,2.4,5.5,6.1c0,3.7-2.9,6.5-8.3,6.5c-2.6,0-5.7-1.1-7.7-2.8L-301.1,45.8z"/>
	<path d="M-286.4,54.8c1.7,0,2.2-0.6,2.2-2.9c0-2.2-0.2-4.2-0.2-6.6c0-3.1,1-4.3,3-4.8v-0.2c-2-0.5-3-1.7-3-4.8
		c0-2.4,0.2-4.5,0.2-6.6c0-2.2-0.4-2.8-2.2-2.8h-0.8V23h2.6c3.6,0,5.2,1.4,5.2,5.8c0,2.8-0.4,4.4-0.4,7c0,1.4,0.9,2.9,3.5,3v3.5
		c-2.6,0.1-3.5,1.6-3.5,3c0,2.6,0.4,4.1,0.4,7c0,4.4-1.6,5.8-5.2,5.8h-2.6v-3.2H-286.4z"/>
</g>
<g>
	<g>
		<path d="M-46.6,60.4H-102c-2.6,0-4.7-2.1-4.7-4.7V25.3c0-2.6,2.1-4.7,4.7-4.7h55.4c2.6,0,4.7,2.1,4.7,4.7v30.5
			C-42,58.3-44.1,60.4-46.6,60.4z M-102,23.7c-0.9,0-1.6,0.7-1.6,1.6v30.5c0,0.9,0.7,1.6,1.6,1.6h55.4c0.9,0,1.6-0.7,1.6-1.6V25.3
			c0-0.9-0.7-1.6-1.6-1.6H-102z"/>
	</g>
	<g>
		<path d="M-97.4,51.1V29.9h6.2l6.2,7.8l6.2-7.8h6.2v21.2h-6.2V38.9l-6.2,7.8l-6.2-7.8v12.1H-97.4z"/>
	</g>
	<g>
		<path d="M-58.5,51.1l-9.3-10.3h6.2V29.9h6.2v10.9h6.2L-58.5,51.1z"/>
	</g>
</g>
<path d="M-285.1,126.1c-2.5,0-4.7,0.6-6.6,1.5c-0.7-1.3-1.4-2.5-1.5-3.4c-0.1-1-0.3-1.6-0.1-2.9c0.2-1.2,0.9-3,0.9-3.1
	c0-0.1-0.2-0.8-1.6-0.8c-1.5,0-2.7,0.3-2.9,0.7c-0.1,0.4-0.4,1.3-0.6,2.2c-0.3,1.3-2.9,6.1-4.4,8.6c-0.5-1-0.9-1.8-1-2.5
	c-0.1-1-0.3-1.6-0.1-2.9c0.2-1.2,0.9-3,0.9-3.1s-0.2-0.8-1.6-0.8c-1.5,0-2.7,0.3-2.9,0.7c-0.1,0.4-0.3,1.3-0.6,2.2
	c-0.3,0.9-3.9,8.8-4.8,10.8c-0.5,1-0.9,1.9-1.2,2.5c0,0,0,0,0,0s0,0,0,0.1c-0.2,0.5-0.4,0.8-0.4,0.8s0,0,0,0
	c-0.2,0.4-0.4,0.7-0.5,0.7c-0.1,0-0.2-1,0-2.3c0.5-2.7,1.8-7,1.8-7.2c0-0.1,0.2-0.8-0.8-1.2c-1-0.4-1.4,0.3-1.5,0.3
	c-0.1,0-0.2,0.2-0.2,0.2s1.2-4.8-2.2-4.8c-2.1,0-5,2.3-6.4,4.4c-0.9,0.5-2.8,1.5-4.9,2.7c-0.8,0.4-1.6,0.9-2.4,1.3
	c-0.1-0.1-0.1-0.1-0.2-0.2c-4.1-4.3-11.6-7.4-11.3-13.2c0.1-2.1,0.9-7.7,14.4-14.5c11.1-5.5,20-4,21.6-0.6
	c2.2,4.8-4.8,13.8-16.3,15.1c-4.4,0.5-6.7-1.2-7.3-1.8c-0.6-0.7-0.7-0.7-0.9-0.6c-0.4,0.2-0.1,0.8,0,1.1c0.3,0.9,1.8,2.5,4.2,3.3
	c2.1,0.7,7.3,1.1,13.5-1.3c7-2.7,12.5-10.2,10.9-16.5c-1.6-6.4-12.3-8.5-22.3-4.9c-6,2.1-12.5,5.5-17.1,9.8
	c-5.5,5.2-6.4,9.7-6.1,11.6c1.3,6.7,10.5,11,14.2,14.3c-0.2,0.1-0.4,0.2-0.5,0.3c-1.9,0.9-8.9,4.6-10.6,8.5c-2,4.4,0.3,7.6,1.8,8
	c4.7,1.3,9.6-1.1,12.2-5c2.6-3.9,2.3-9,1.1-11.3c0,0,0-0.1,0-0.1c0.5-0.3,1-0.6,1.4-0.9c0.9-0.6,1.9-1.1,2.7-1.5
	c-0.4,1.2-0.8,2.7-0.9,4.8c-0.2,2.5,0.8,5.7,2.2,7c0.6,0.6,1.3,0.6,1.8,0.6c1.6,0,2.3-1.3,3.1-2.8c1-1.9,1.8-4.1,1.8-4.1
	s-1.1,5.9,1.8,5.9c1.1,0,2.1-1.4,2.6-2.1c0,0,0,0,0,0s0,0,0.1-0.1c0.1-0.2,0.2-0.3,0.2-0.3s0,0,0,0c0.4-0.7,1.4-2.4,2.8-5.2
	c1.8-3.6,3.6-8.1,3.6-8.1s0.2,1.1,0.7,2.9c0.3,1.1,1,2.3,1.5,3.4c-0.4,0.6-0.7,0.9-0.7,0.9s0,0,0,0c-0.3,0.5-0.7,0.9-1.1,1.4
	c-1.5,1.7-3.2,3.7-3.4,4.3c-0.3,0.7-0.2,1.2,0.3,1.6c0.4,0.3,1.1,0.3,1.8,0.3c1.3-0.1,2.2-0.4,2.7-0.6c0.7-0.2,1.5-0.6,2.3-1.2
	c1.4-1,2.3-2.5,2.2-4.5c0-1.1-0.4-2.2-0.8-3.2c0.1-0.2,0.3-0.4,0.4-0.6c2.2-3.3,4-6.9,4-6.9s0.2,1.1,0.7,2.9
	c0.3,0.9,0.8,1.9,1.3,2.9c-2.1,1.7-3.4,3.7-3.9,5c-0.8,2.4-0.2,3.5,1.1,3.8c0.6,0.1,1.3-0.1,1.9-0.4c0.7-0.2,1.6-0.7,2.5-1.3
	c1.4-1,2.8-2.5,2.7-4.5c0-0.9-0.3-1.8-0.6-2.7c1.8-0.7,4.1-1.2,7.1-0.8c6.3,0.7,7.6,4.7,7.3,6.3c-0.2,1.7-1.6,2.6-2,2.8
	c-0.4,0.3-0.6,0.4-0.5,0.6c0.1,0.3,0.3,0.3,0.6,0.2c0.5-0.1,3.3-1.3,3.4-4.4C-274.8,130.3-278.5,126-285.1,126.1z M-333.9,142.5
	c-2.1,2.3-5,3.1-6.3,2.4c-1.4-0.8-0.8-4.2,1.8-6.6c1.6-1.5,3.6-2.8,4.9-3.7c0.3-0.2,0.8-0.5,1.3-0.8c0.1-0.1,0.1-0.1,0.1-0.1l0,0
	c0.1-0.1,0.2-0.1,0.3-0.2C-330.8,137.1-331.7,140.1-333.9,142.5z M-318.6,132.1c-0.7,1.8-2.3,6.3-3.2,6.1c-0.8-0.2-1.3-3.7-0.2-7.1
	c0.6-1.7,1.8-3.8,2.5-4.6c1.1-1.3,2.4-1.7,2.7-1.2C-316.4,126.1-318.1,131-318.6,132.1z M-306,138.2c-0.3,0.2-0.6,0.3-0.7,0.2
	c-0.1-0.1,0.1-0.3,0.1-0.3s1.6-1.7,2.2-2.5c0.4-0.4,0.8-1,1.2-1.6c0,0.1,0,0.1,0,0.2C-303.1,136.2-305.1,137.6-306,138.2z
	 M-296.3,135.9c-0.2-0.2-0.2-0.7,0.6-2.3c0.3-0.6,1-1.7,2.2-2.8c0.1,0.4,0.2,0.8,0.2,1.2C-293.3,134.6-295.2,135.5-296.3,135.9z"/>
<g>
	<path d="M-220,116.2c0.7,0,1.3,0.1,1.7,0.3c0.4,0.2,0.7,0.4,0.7,0.7c0,0.4-0.1,0.8-0.3,1.2c-0.2,0.5-0.4,0.8-0.5,1.1
		c-0.1,0.1-0.1,0.1-0.2,0c-0.1,0-0.1-0.1-0.1-0.3c0.1-0.2,0.1-0.6,0.1-1c0-0.5-0.1-0.8-0.4-1.1c-0.2-0.3-0.6-0.4-1-0.4
		c-0.6,0-1,0.2-1.3,0.5c-0.3,0.3-0.5,0.8-0.5,1.4c0,0.5,0.1,1,0.4,1.5c0.3,0.5,0.6,0.9,0.9,1.4c0.3,0.5,0.7,1,1,1.5
		c0.3,0.5,0.4,1.1,0.4,1.8c0,1.2-0.5,2.1-1.4,2.7c-0.9,0.7-2.2,1-3.7,1c-1.1,0-2-0.2-2.6-0.5c-0.6-0.4-1-0.7-1-1.2
		c0-0.1,0-0.3,0.1-0.5c0.1-0.2,0.2-0.5,0.4-0.7c0.2-0.3,0.3-0.5,0.5-0.8c0.2-0.3,0.4-0.5,0.6-0.6c0.1-0.1,0.2,0,0.3,0
		c0.1,0.1,0.1,0.2,0,0.3c-0.2,0.2-0.3,0.4-0.4,0.6c-0.1,0.2-0.1,0.5-0.1,0.9c0,0.6,0.2,1.1,0.6,1.4c0.4,0.4,0.9,0.6,1.5,0.6
		c0.8,0,1.5-0.2,2-0.7c0.5-0.5,0.7-1,0.7-1.7c0-0.6-0.1-1.2-0.4-1.7c-0.3-0.5-0.6-1.1-0.9-1.6c-0.3-0.5-0.6-1-0.9-1.5
		c-0.3-0.5-0.4-1.1-0.4-1.7c0-0.8,0.4-1.6,1.1-2.1C-222.5,116.5-221.4,116.2-220,116.2z"/>
	<path d="M-206.7,116.4c0.2,0.1,0.2,0.2,0.2,0.3c0,0.1-0.2,0.2-0.4,0.3c-0.5,0-1,0-1.7,0c-0.6,0-1.3,0.1-2,0.1
		c-0.7,1.6-1.2,3.1-1.6,4.7c-0.4,1.5-0.6,2.7-0.6,3.7c0,1.1,0.4,1.7,1.3,1.7c0.8,0,1.8-0.7,2.8-2.2c0.1-0.1,0.2-0.1,0.3,0
		c0.1,0.1,0.1,0.2,0.1,0.3c-0.6,0.9-1.3,1.7-2.1,2.4c-0.8,0.7-1.7,1-2.5,1c-0.8,0-1.5-0.2-1.9-0.6c-0.4-0.4-0.6-1-0.6-1.7
		c0-0.9,0.2-2.2,0.7-3.9c0.5-1.7,1-3.4,1.8-5.1c-0.8,0.1-1.6,0.2-2.3,0.4c-0.2,0-0.2-0.1-0.1-0.2c0.1-0.1,0.2-0.3,0.4-0.4
		c0.2-0.1,0.5-0.3,0.8-0.4c0.3-0.1,0.6-0.2,0.8-0.2c0.1,0,0.3,0,0.4,0c0.1,0,0.3,0,0.4,0c0.4-0.9,0.9-1.9,1.3-2.7
		c0.5-0.9,0.9-1.7,1.4-2.4c0.2-0.2,0.5-0.4,0.8-0.6c0.3-0.2,0.7-0.3,1-0.4c0.3-0.1,0.6-0.2,0.8-0.2c0.2,0,0.3,0,0.3,0.2
		c-0.6,0.8-1.1,1.8-1.6,2.8c-0.5,1-1,2.1-1.5,3.3c0.6,0,1.2,0,1.9,0C-207.8,116.4-207.2,116.4-206.7,116.4z"/>
	<g>
		<g>
			<path d="M-177,92c0.5,0,0.9,0.1,1.2,0.4c0.3,0.2,0.5,0.6,0.6,1c0.1,0.4,0.1,0.9,0,1.4c-0.1,0.5-0.3,1-0.6,1.6
				c-0.1,0.1-0.1,0.1-0.2,0c-0.1-0.1-0.2-0.1-0.2-0.2c0.1-0.4-0.1-0.7-0.4-1c-0.3-0.3-0.9-0.4-1.6-0.4c-1.3,0-2.7,0.5-4,1.5
				c-1.4,1-2.7,2.3-3.9,3.9c-1.3,1.6-2.5,3.5-3.6,5.6c-1.1,2.1-2.1,4.3-2.9,6.5c-0.8,2.2-1.5,4.5-1.9,6.7c-0.5,2.2-0.7,4.2-0.7,6.1
				c0,1,0.3,1.5,0.8,1.5c0.4,0,0.8-0.2,1.1-0.5c0.4-0.3,0.8-0.8,1.3-1.5c0.1-0.1,0.2-0.1,0.3,0c0.1,0.1,0.1,0.2,0.1,0.3
				c-0.7,1-1.4,1.8-2.3,2.4c-0.9,0.7-1.7,1-2.4,1c-0.6,0-1-0.2-1.3-0.5c-0.2-0.4-0.4-0.8-0.4-1.4c0-1.5,0.3-3.4,1-5.7
				c0.7-2.3,1.5-4.7,2.6-7.3c1.1-2.6,2.4-5.1,3.8-7.6c1.4-2.5,2.9-4.8,4.5-6.9c1.5-2,3.1-3.7,4.7-5C-179.9,92.6-178.4,92-177,92z"/>
		</g>
	</g>
	<g>
		<g>
			<path d="M-220.4,152c-0.5,0-0.9-0.1-1.2-0.4c-0.3-0.2-0.5-0.6-0.6-1c-0.1-0.4-0.1-0.9,0-1.4c0.1-0.5,0.3-1,0.6-1.6
				c0.1-0.1,0.1-0.1,0.2,0c0.1,0.1,0.2,0.1,0.2,0.2c-0.1,0.4,0.1,0.7,0.4,1c0.3,0.3,0.9,0.4,1.6,0.4c1.3,0,2.7-0.5,4-1.5
				c1.4-1,2.7-2.3,3.9-3.9c1.3-1.6,2.5-3.5,3.6-5.6c1.1-2.1,2.1-4.3,2.9-6.5c0.8-2.2,1.5-4.5,1.9-6.7c0.5-2.2,0.7-4.2,0.7-6.1
				c0-1-0.3-1.5-0.8-1.5c-0.4,0-0.8,0.2-1.1,0.5c-0.4,0.3-0.8,0.8-1.3,1.5c-0.1,0.1-0.2,0.1-0.3,0c-0.1-0.1-0.1-0.2-0.1-0.3
				c0.7-1,1.4-1.8,2.3-2.4c0.9-0.7,1.7-1,2.4-1c0.6,0,1,0.2,1.3,0.5c0.2,0.4,0.4,0.8,0.4,1.4c0,1.5-0.3,3.4-1,5.7
				c-0.7,2.3-1.5,4.7-2.6,7.3c-1.1,2.6-2.4,5.1-3.8,7.6c-1.4,2.5-2.9,4.8-4.5,6.9c-1.5,2-3.1,3.7-4.7,5
				C-217.6,151.4-219,152-220.4,152z"/>
		</g>
	</g>
	<path d="M-187.4,128.7c-1.4,0-2.1-0.7-2.1-2.2c0-0.5,0.1-1.1,0.2-1.8c0.1-0.7,0.3-1.4,0.5-2.1s0.5-1.5,0.9-2.2
		c0.3-0.7,0.7-1.5,1.2-2.1c-0.4,0.2-0.7,0.5-1,0.7c-0.3,0.2-0.6,0.5-0.9,0.8c-0.1,0.1-0.2,0-0.3-0.1c-0.1-0.1-0.1-0.2,0-0.3
		c0.6-0.6,1.3-1.2,2.4-1.8c1-0.6,2-1.1,3-1.5c0.2,0,0.3,0,0.4,0.1c0.1,0.1,0.1,0.2,0,0.3c-1,1.4-1.9,2.8-2.5,4.4
		c-0.6,1.6-1,3.1-1,4.6c0,0.9,0.3,1.4,0.9,1.4c0.4,0,0.9-0.3,1.6-0.9c0.6-0.6,1.3-1.3,2-2.2c0.7-0.9,1.4-2,2.1-3.1
		c0.7-1.2,1.3-2.4,1.9-3.6c0.1-0.2,0.4-0.4,0.9-0.6c0.5-0.2,1-0.3,1.4-0.3s0.6,0.1,0.4,0.4c-0.5,0.8-0.9,1.6-1.2,2.4
		c-0.3,0.7-0.6,1.5-0.9,2.2c-0.2,0.7-0.4,1.4-0.5,2.2c-0.1,0.7-0.2,1.5-0.2,2.4c0,1,0.3,1.6,0.8,1.6c0.6,0,1.2-0.5,1.9-1.5
		c0.1-0.1,0.2-0.1,0.3,0c0.1,0.1,0.1,0.2,0.1,0.3c-0.6,0.8-1.2,1.5-1.8,1.9c-0.7,0.4-1.3,0.7-1.8,0.7c-1.4,0-2.1-0.8-2.1-2.4
		c0-1.7,0.3-3.3,0.9-4.9c-1.2,2.2-2.5,4-3.9,5.3C-185.3,128-186.5,128.7-187.4,128.7z"/>
	<path d="M-167.2,116.2c0.7,0,1.3,0.1,1.7,0.3c0.4,0.2,0.7,0.4,0.7,0.7c0,0.4-0.1,0.8-0.3,1.2c-0.2,0.5-0.4,0.8-0.5,1.1
		c-0.1,0.1-0.1,0.1-0.2,0c-0.1,0-0.1-0.1-0.1-0.3c0.1-0.2,0.1-0.6,0.1-1c0-0.5-0.1-0.8-0.4-1.1c-0.2-0.3-0.6-0.4-1-0.4
		c-0.6,0-1,0.2-1.3,0.5c-0.3,0.3-0.5,0.8-0.5,1.4c0,0.5,0.1,1,0.4,1.5c0.3,0.5,0.6,0.9,0.9,1.4c0.3,0.5,0.7,1,1,1.5
		c0.3,0.5,0.4,1.1,0.4,1.8c0,1.2-0.5,2.1-1.4,2.7c-0.9,0.7-2.2,1-3.7,1c-1.1,0-2-0.2-2.6-0.5c-0.6-0.4-1-0.7-1-1.2
		c0-0.1,0-0.3,0.1-0.5c0.1-0.2,0.2-0.5,0.4-0.7c0.2-0.3,0.3-0.5,0.5-0.8c0.2-0.3,0.4-0.5,0.6-0.6c0.1-0.1,0.2,0,0.3,0
		c0.1,0.1,0.1,0.2,0,0.3c-0.2,0.2-0.3,0.4-0.4,0.6c-0.1,0.2-0.1,0.5-0.1,0.9c0,0.6,0.2,1.1,0.6,1.4c0.4,0.4,0.9,0.6,1.5,0.6
		c0.8,0,1.5-0.2,2-0.7c0.5-0.5,0.7-1,0.7-1.7c0-0.6-0.1-1.2-0.4-1.7c-0.3-0.5-0.6-1.1-0.9-1.6c-0.3-0.5-0.6-1-0.9-1.5
		c-0.3-0.5-0.4-1.1-0.4-1.7c0-0.8,0.4-1.6,1.1-2.1C-169.7,116.5-168.6,116.2-167.2,116.2z"/>
</g>
<g>
	<g>
		<path d="M-105.8,127.3c0,1.1-0.4,1.7-1.3,1.7c-0.4,0-0.8-0.2-1-0.5c0.2-0.1,0.4-0.3,0.6-0.7c0.2-0.3,0.3-0.7,0.3-1
			s-0.1-0.6-0.3-0.8c-0.2-0.2-0.4-0.3-0.8-0.3c-0.4,0-0.7,0.1-1,0.4s-0.6,0.6-0.9,1c-0.6,0.9-1,2-1.4,3.3s-0.5,2.6-0.5,3.6
			s0.2,1.9,0.5,2.4c0.3,0.5,0.9,0.7,1.6,0.7c1.5,0,2.8-0.6,3.7-1.8l0.4,0.2c-0.6,1.5-1.7,2.5-3.3,3.1c-0.6,0.2-1.3,0.3-1.9,0.3
			c0,0,0,0-0.1,0c-1.4,0-2.4-0.4-3-1.1s-1-1.8-1-3.3c0-1.5,0.3-3.1,0.8-4.6c0.6-1.8,1.5-3.2,2.6-4.1c0.9-0.7,1.9-1,3-1
			c1.4,0,2.4,0.4,2.8,1.3C-105.9,126.5-105.8,126.9-105.8,127.3z"/>
		<path d="M-96.2,131.7c-0.7,0.8-1.8,1.3-3.3,1.5c-0.1,1.7-0.6,3-1.4,4s-1.8,1.5-2.9,1.5c-1.4,0-2.3-0.5-2.7-1.6
			c-0.1-0.4-0.2-0.8-0.2-1.2c0-0.4,0-0.9,0.1-1.4s0.2-0.9,0.4-1.4c0.4-1.1,0.9-2,1.6-2.7c0.8-0.8,1.8-1.2,3-1.2c1.6,0,2.4,1,2.4,2.9
			v0c0.1,0,0.2,0,0.3,0c0.3,0,0.8-0.1,1.3-0.3c0.5-0.2,1-0.5,1.5-0.8L-96.2,131.7z M-101,133.3c-0.3-0.1-0.5-0.4-0.5-0.8
			c0-0.5,0.2-0.8,0.6-1c0-0.4-0.1-0.7-0.2-0.8c-0.1-0.2-0.3-0.2-0.6-0.2c-0.6,0-1.1,0.6-1.6,1.9c-0.5,1.2-0.8,2.3-0.8,3.3
			c0,0.6,0.1,1,0.2,1.1s0.2,0.3,0.3,0.3c0.1,0,0.3,0.1,0.5,0.1c0.4,0,0.8-0.4,1.2-1.1C-101.4,135.2-101.1,134.3-101,133.3z"/>
		<path d="M-87.9,127.6c0-0.2,0-0.4,0-0.5c0-0.2-0.1-0.3-0.2-0.4c-0.1-0.1-0.3-0.2-0.4-0.2c-0.7,0-1.1,0.5-1.3,1.5l-0.3,1.5h1.8
			l-0.2,0.7h-1.8l-2.1,9.9c-0.2,1.2-0.7,2-1.4,2.5c-0.5,0.4-1.2,0.6-1.9,0.6c-1,0-1.7-0.4-2-1.2c-0.6,0.8-1.4,1.2-2.5,1.2
			c-0.6,0-1.1-0.2-1.5-0.6s-0.7-0.8-0.7-1.3s0.1-0.9,0.2-1.2c0.2-0.3,0.4-0.6,0.8-0.8c0.4-0.3,1.1-0.5,2.1-0.9l2.2-10.5
			c0.4-2.1,1.6-3.1,3.3-3.1c0.4,0,0.8,0.1,1.2,0.3s0.6,0.5,0.8,0.8c0.6-0.8,1.4-1.2,2.5-1.2c0.6,0,1.1,0.2,1.5,0.6
			c0.4,0.4,0.7,0.8,0.7,1.4c0,0.3,0,0.5-0.1,0.8H-87.9z M-99.2,139.1c-0.7,0.2-1.1,0.4-1.4,0.6c-0.5,0.4-0.7,0.8-0.7,1.2
			c0,0.2,0.1,0.4,0.4,0.6c0.1,0,0.2,0.1,0.4,0.1s0.3-0.1,0.5-0.3c0.2-0.2,0.4-0.6,0.5-1.1L-99.2,139.1z M-97.2,141.3
			c0.2,0.2,0.5,0.4,1.1,0.4c0.2,0,0.4-0.1,0.6-0.3c0.2-0.2,0.4-0.6,0.5-1.1l0.4-2.1l-1.9,0.3l-0.3,1.7
			C-96.9,140.6-97,140.9-97.2,141.3z M-92.9,130.2h-1.8l-1.6,7.8l1.9-0.3L-92.9,130.2z M-92.8,129.5l0.4-1.9c0-0.1,0-0.3,0-0.5
			c0-0.2-0.1-0.3-0.2-0.4c-0.1-0.1-0.3-0.2-0.4-0.2c-0.7,0-1.1,0.5-1.3,1.5l-0.3,1.5H-92.8z"/>
		<path d="M-81.5,135.4c-1.4,2.3-3.1,3.4-5.1,3.4c-0.9,0-1.6-0.2-2.1-0.7c-0.5-0.5-0.8-1.2-0.8-2.2c0-1.4,0.4-2.8,1.1-4.1
			c0.5-1,1.3-1.7,2.2-2.1c0.5-0.2,1-0.3,1.5-0.3c0.8,0,1.4,0.2,1.7,0.5c0.3,0.3,0.5,0.7,0.5,1.3c0,1-0.4,1.9-1.3,2.7
			c-0.8,0.7-1.8,1.1-3,1.2c0,0.3,0,0.6,0,0.7c0,0.6,0.1,1,0.3,1.2c0.2,0.2,0.5,0.3,0.9,0.3c0.7,0,1.3-0.2,1.8-0.5s1-0.8,1.5-1.4
			H-81.5z M-83.8,130.9c0-0.4-0.2-0.7-0.5-0.7c-0.4,0-0.9,0.4-1.3,1.2c-0.4,0.8-0.7,1.6-0.9,2.6c0.7,0,1.3-0.4,1.9-1
			C-84.1,132.5-83.8,131.8-83.8,130.9z"/>
		<path d="M-79.6,135.5c0,1,0.4,1.5,1.2,1.5c0.3,0,0.7-0.1,1.1-0.3c0.4-0.2,0.7-0.4,1-0.7c-0.3,1.8-1.4,2.7-3.2,2.7
			c-0.9,0-1.6-0.2-2.1-0.7c-0.5-0.5-0.8-1.2-0.8-2.2c0-1.4,0.4-2.8,1.1-4.1c0.5-1,1.3-1.7,2.2-2.1c0.5-0.2,1-0.3,1.5-0.3
			c0.8,0,1.4,0.2,1.7,0.5s0.5,0.7,0.5,1.3c0,1.1-0.4,1.9-1.3,2.7c-0.8,0.7-1.8,1.1-3,1.2C-79.6,135.1-79.6,135.3-79.6,135.5z
			 M-76.8,130.9c0-0.4-0.2-0.7-0.5-0.7c-0.6,0-1.1,0.7-1.7,2c-0.2,0.6-0.4,1.2-0.5,1.8c0.7,0,1.3-0.3,1.9-1S-76.8,131.8-76.8,130.9z
			"/>
		<path d="M-68.7,128.6c0.6-0.3,0.8-0.9,0.8-1.7c0-0.2-0.1-0.5-0.3-0.7s-0.6-0.4-1.1-0.4s-0.9,0.1-1.2,0.4s-0.5,0.6-0.5,1.1
			c0,0.4,0.1,0.8,0.2,1.1c0.2,0.5,0.6,1,1.1,1.5l0.8,0.7c0.7,0.6,1.1,1.1,1.4,1.5c0.5,0.8,0.7,1.6,0.7,2.4c0,1.5-0.5,2.7-1.6,3.5
			c-1,0.8-2.1,1.1-3.6,1.1c-1.8,0-3-0.6-3.6-1.7c-0.2-0.4-0.3-0.9-0.3-1.4c0-1,0.3-1.7,0.8-2.3s1.2-0.8,1.8-0.8s1.2,0.2,1.5,0.6
			c0.1,0.2,0.2,0.4,0.2,0.6c-0.9,0-1.6,0.3-2,0.9c-0.1,0.2-0.2,0.5-0.2,0.7c0,0.5,0.2,1,0.5,1.3s0.8,0.5,1.4,0.5s1.1-0.2,1.5-0.6
			c0.4-0.4,0.6-1,0.6-1.6s-0.1-1.2-0.3-1.6c-0.2-0.4-0.4-0.8-0.7-1.2c-0.3-0.4-0.6-0.7-0.9-1c-0.3-0.3-0.6-0.7-0.9-1
			c-0.7-0.8-1-1.6-1-2.3c0-0.9,0.4-1.7,1.2-2.4c0.8-0.6,1.8-0.9,3-0.9c1.5,0,2.4,0.4,2.8,1.3c0.1,0.2,0.2,0.6,0.2,1
			c0,0.4-0.1,0.8-0.4,1.2c-0.3,0.3-0.6,0.5-1,0.5C-68.2,128.9-68.5,128.8-68.7,128.6z"/>
		<path d="M-61.3,129.3c1.5,0,2.2,0.6,2.2,1.7c0,0.5-0.1,0.8-0.3,1s-0.4,0.3-0.6,0.3s-0.5-0.1-0.7-0.2c0.1-0.4,0.2-0.8,0.2-1.1
			c0-0.5-0.2-0.8-0.5-0.8s-0.7,0.3-1.1,1c-0.6,0.9-0.9,2-1.1,3.3c-0.1,0.4-0.1,0.8-0.1,1.3c0,0.9,0.4,1.3,1.3,1.3
			c0.7,0,1.3-0.2,1.8-0.5c0.5-0.3,1-0.8,1.5-1.4h0.6c-1.4,2.3-3.1,3.4-5.1,3.4c-0.9,0-1.6-0.2-2.1-0.7c-0.5-0.5-0.8-1.2-0.8-2.2
			c0-1.4,0.4-2.8,1.1-4.1c0.5-1,1.3-1.7,2.2-2.1C-62.3,129.4-61.8,129.3-61.3,129.3z"/>
		<path d="M-59.5,138.7l1.9-9.2h2.6l-0.2,1.1c0.3-0.3,0.6-0.5,1-0.8c0.4-0.2,0.8-0.4,1.2-0.4c0.4,0,0.7,0.1,1,0.4
			c0.2,0.3,0.3,0.6,0.3,0.8c0,0.4-0.1,0.8-0.4,1.1c-0.2,0.3-0.5,0.4-0.9,0.4s-0.6-0.1-0.7-0.2c-0.1-0.2-0.2-0.3-0.2-0.5
			c0-0.2-0.1-0.3-0.1-0.4c0-0.1-0.1-0.1-0.2-0.1c-0.3,0-0.5,0.1-0.7,0.2c-0.2,0.1-0.4,0.3-0.7,0.5l-1.5,7H-59.5z"/>
		<path d="M-46.2,135.4c-0.8,2.3-2.1,3.4-4,3.4c-0.5,0-0.9-0.2-1.3-0.5c-0.4-0.3-0.6-0.9-0.6-1.7c0-0.3,0-0.7,0.1-1.2l1.2-5.9h2.6
			l-1.3,6.2c0,0.2-0.1,0.4-0.1,0.7c0,0.4,0.2,0.6,0.7,0.6c0.4,0,0.7-0.2,1-0.5c0.3-0.3,0.5-0.7,0.7-1.2H-46.2z M-47.4,127
			c0,0.4-0.1,0.7-0.4,1c-0.3,0.3-0.6,0.4-1,0.4c-0.4,0-0.7-0.1-1-0.4c-0.3-0.3-0.4-0.6-0.4-1s0.1-0.7,0.4-1s0.6-0.4,1-0.4
			c0.4,0,0.8,0.1,1,0.4C-47.5,126.3-47.4,126.6-47.4,127z"/>
		<path d="M-44.9,138.1l-1,4.5l-2.8,0.7l3.1-14.5h2.6l-0.3,1.4c0.6-0.5,1.3-0.8,2.1-0.8c1.1,0,1.7,0.5,2.1,1.5
			c0.1,0.4,0.2,0.8,0.2,1.3s0,1-0.1,1.4c-0.1,0.5-0.2,1-0.3,1.4s-0.3,0.9-0.5,1.4c-0.2,0.4-0.5,0.8-0.8,1.2
			c-0.3,0.3-0.7,0.6-1.2,0.8c-0.5,0.2-1,0.3-1.7,0.3S-44.7,138.6-44.9,138.1z M-41.4,132.2c0-1-0.3-1.5-0.9-1.5
			c-0.2,0-0.4,0.1-0.7,0.2s-0.4,0.4-0.6,0.7l-1.1,5.1c0.1,0.3,0.4,0.4,0.8,0.4s0.8-0.2,1.1-0.5c0.6-0.7,1.1-1.7,1.2-2.9
			C-41.4,133.2-41.4,132.7-41.4,132.2z"/>
		<path d="M-37.2,130.2h-0.6l0.2-0.7h0.6l0.6-2.5l2.7-0.4l-0.6,2.9h1.1l-0.1,0.7h-1.1l-1.2,5.5c-0.1,0.2-0.1,0.4-0.1,0.6
			c0,0.2,0,0.4,0.1,0.5c0.1,0.1,0.2,0.2,0.5,0.2c0.2,0,0.4,0,0.5-0.1c-0.4,1-0.8,1.6-1.5,1.7c-0.2,0-0.3,0.1-0.5,0.1
			c-0.7,0-1.1-0.2-1.4-0.6s-0.4-0.8-0.4-1.3s0-0.8,0.1-1.2L-37.2,130.2z"/>
	</g>
	<g>
		<g>
			<path d="M-77,101.7c-0.3-0.2-0.8-0.3-1.5-0.3c-0.2,0-0.4,0-0.6,0.1c-0.2,0.1-0.3,0.2-0.3,0.4c0,0.2,0.1,0.3,0.4,0.4
				c0.2,0.1,0.6,0.2,1,0.2c0.4,0,0.7,0,0.9-0.1c0.4-0.1,0.9-0.2,1.3-0.4l0.6-0.3c0.5-0.2,1.2-0.7,1.6-0.8c0.7-0.2,1.4-0.3,2.1-0.3
				c1.3,0,2.4,0.2,3.1,0.6c0.7,0.3,0.8,1.1,0.8,1.6c0,0.6-0.5,1.1-1.5,1.3c-0.4,0.1-0.8,0.1-1.2,0.1c-0.8,0-1.5-0.1-2-0.3
				c-0.5-0.2-0.7-0.4-0.7-0.7c0-0.2,0.2-0.4,0.5-0.5c0.1,0,0.3-0.1,0.5-0.1c0,0.3,0.3,0.6,0.8,0.7c0.2,0,0.4,0.1,0.7,0.1
				c0.5,0,0.8-0.1,1.1-0.2c0.3-0.1,0.5-0.3,0.5-0.5c0-0.2-0.2-0.4-0.6-0.5c-0.4-0.1-0.8-0.2-1.4-0.2s-1,0-1.4,0.1s-0.7,0.2-1,0.3
				s-0.6,0.2-0.9,0.3c-0.3,0.1-0.6,0.2-0.9,0.3c-0.7,0.2-1.4,0.4-2,0.4c-0.8,0-1.5-0.1-2.1-0.4c-0.6-0.3-0.8-0.7-0.8-1.1
				c0-0.5,0.4-0.9,1.2-1c0.2,0,0.5-0.1,0.9-0.1s0.7,0,1,0.1c0.3,0.1,0.5,0.2,0.5,0.4S-76.7,101.6-77,101.7z"/>
		</g>
		<g>
			<path d="M-73.6,108c-9.7,0-11-2.3-11-2.3c0,1.2,0.3,2.4,0.7,3.5c-0.6,0.5-2.2,2-2.2,4.2c0,2.8,3.3,4.5,5.5,3.1
				c0,0-3.7-0.5-3.7-3.8c0-1.2,0.4-2,1-2.5c0.9,2,2.2,3.5,2.6,4.1c0.8,1,1,0.7,1.5,2.6c0.4,1.6,4,2.5,6,2.5v0c0,0,0,0,0,0
				c0,0,0,0,0,0v0c2-0.1,5.3-0.9,5.7-2.5c0.5-2,0.5-1.6,1.3-2.6s3.8-4.7,3.8-8.7C-62.6,105.6-63.8,107.9-73.6,108z"/>
			<path d="M-73.3,106.5v1.5c0,0-0.4,0-0.4,0c0,0,0.4,0,0.4,0V106.5c11,0,11-3,11-3l-1.3-1.3c2.7,2.7-8.6,3-9.9,3
				c-1.3,0-12.7-0.3-9.9-3l-1,1.3C-84.6,103.5-85.3,106.5-73.3,106.5z"/>
		</g>
	</g>
</g>
<g>
	<path d="M-235.5,24c0-0.8,0.3-1.5,0.9-2.1s1.3-0.9,2.1-0.9c0.8,0,1.6,0.3,2.1,0.9c0.6,0.6,0.9,1.3,0.9,2.1c0,0.8-0.3,1.6-0.9,2.1
		c-0.6,0.6-1.3,0.9-2.1,0.9c-0.8,0-1.6-0.3-2.1-0.9S-235.5,24.9-235.5,24z M-230.2,32.4v31h-4.6v-31H-230.2z"/>
	<path d="M-209.5,32.4h4.7v20.1h-4.7v-2.1c-1.9,1.8-4,2.7-6.2,2.7c-2.8,0-5.1-1-6.9-3c-1.8-2-2.7-4.6-2.7-7.7c0-3,0.9-5.5,2.7-7.5
		s4.1-3,6.8-3c2.3,0,4.4,1,6.3,2.9V32.4z M-220.5,42.3c0,1.9,0.5,3.5,1.5,4.7c1.1,1.2,2.4,1.8,4,1.8c1.7,0,3.1-0.6,4.2-1.8
		c1.1-1.2,1.6-2.8,1.6-4.7s-0.5-3.4-1.6-4.7c-1.1-1.2-2.4-1.8-4.1-1.8c-1.6,0-2.9,0.6-4,1.8C-220,39-220.5,40.5-220.5,42.3z"/>
	<path d="M-184.2,17.6h4.7v34.8h-4.7v-2.1c-1.8,1.8-3.9,2.7-6.2,2.7c-2.7,0-5-1-6.8-3c-1.8-2-2.7-4.6-2.7-7.7c0-3,0.9-5.5,2.7-7.5
		c1.8-2,4-3,6.7-3c2.4,0,4.5,1,6.3,2.9V17.6z M-195.2,42.3c0,1.9,0.5,3.5,1.5,4.7c1.1,1.2,2.4,1.8,4,1.8c1.7,0,3.1-0.6,4.2-1.8
		c1.1-1.2,1.6-2.8,1.6-4.7s-0.5-3.4-1.6-4.7c-1.1-1.2-2.4-1.8-4.1-1.8c-1.6,0-2.9,0.6-4,1.8C-194.6,39-195.2,40.5-195.2,42.3z"/>
	<path d="M-155.4,43.5h-14.4c0.1,1.6,0.7,3,1.6,3.9c0.9,1,2.2,1.4,3.6,1.4c1.2,0,2.1-0.3,2.9-0.8c0.7-0.5,1.6-1.6,2.5-3.1l3.9,2.2
		c-0.6,1-1.2,1.9-1.9,2.6c-0.7,0.7-1.4,1.3-2.2,1.8c-0.8,0.5-1.6,0.8-2.5,1c-0.9,0.2-1.9,0.3-2.9,0.3c-3,0-5.4-1-7.2-2.9
		c-1.8-1.9-2.7-4.5-2.7-7.7c0-3.2,0.9-5.7,2.6-7.7c1.8-1.9,4.1-2.9,7.1-2.9c3,0,5.3,0.9,7,2.8c1.7,1.9,2.6,4.5,2.6,7.8L-155.4,43.5z
		 M-160.1,39.7c-0.6-2.5-2.2-3.7-4.7-3.7c-0.6,0-1.1,0.1-1.6,0.3c-0.5,0.2-0.9,0.4-1.4,0.7s-0.8,0.7-1,1.2c-0.3,0.5-0.5,1-0.7,1.5
		H-160.1z"/>
</g>
<g>
	<g>
		<path d="M28.1,33.9c1.8-2.9,4.2-4.4,7.2-4.4c2.6,0,4.7,1.4,4.7,4c0,2.5-2.9,9.4-2.9,10.8c0,0.8,0.4,1.1,1.1,1.1
			c0.5,0,0.8-0.1,1.4-0.3l-0.7,2.7c-1,0.3-2.1,0.5-3.2,0.5c-2.4,0-3.8-0.9-3.8-3.2c0-2.1,2.9-8.8,2.9-10.6c0-1.3-0.9-1.9-2-1.9
			c-3,0-5.6,4.3-8.4,15.2h-4.9L25,27.3c0.2-0.8,0.1-1.1-0.3-1.1h-1.9l0.8-2.8h3.2c1.8,0,3.5-0.2,4.4-0.4L28.1,33.9z"/>
		<path d="M41.8,41.6c0-6.2,4-12.1,9.9-12.1c2.8,0,4.7,1.5,5.3,3.9l1-3.4h1.8c1.3,0,2.3-0.1,3.1-0.4l-2.8,10.6c-0.5,1.8-1,3.3-1,4
			c0,0.8,0.4,1.2,1.1,1.2c0.5,0,0.8-0.1,1.4-0.3l-0.7,2.7c-1,0.3-1.9,0.5-3,0.5c-2.5,0-3.9-1.1-3.9-3.2c-1.5,1.9-3.5,3.2-5.9,3.2
			C44.3,48.3,41.8,45.4,41.8,41.6z M55.9,36.1c0-2.2-1.4-3.7-3.3-3.7c-3.3,0-5.9,4.4-5.9,9c0,2.4,1.4,3.8,3.4,3.8
			C53.3,45.3,55.9,40.5,55.9,36.1z"/>
		<path d="M72.5,32.9c1.3-2.2,3.1-3.6,5.3-3.6c2.3,0,3.7,1.4,3.8,3.5c0.1,2.5-1.5,4.7-3.6,4.7c-1.6,0-2.5-0.9-2.5-2.2
			c0-1.1,0.8-2.3,2.1-2.5c-0.2-0.3-0.8-0.6-1.3-0.6c-3,0-4.4,3.4-6.1,9.6l-1.6,5.9h-4.9l3.9-14c0.2-0.8,0.1-1.1-0.3-1.1h-2.2
			l0.7-2.8h3.4c1.8,0,3.5-0.2,4.4-0.4L72.5,32.9z"/>
		<path d="M78.1,51.4h1.6c0.4,0,0.7-0.1,0.9-1l4.6-16.6c0.2-0.8,0.1-1.1-0.3-1.1h-2.1l0.7-2.8h3.3c1.8,0,3.5-0.2,4.4-0.4l-0.7,2.7
			c1.4-1.6,3.3-2.8,5.5-2.8c4,0,6.4,2.9,6.4,6.9c0,6.2-3.7,11.9-9.6,11.9c-2.9,0-4.8-1.5-5.5-3.9l-1.6,6c-0.2,0.8,0,1,0.4,1h1.9
			L87,54.1h-9.7L78.1,51.4z M97.3,36.2c0-2.4-1.4-3.8-3.4-3.8c-3.3,0-5.8,4.8-5.7,9.1c0,1.9,1.3,3.6,3.4,3.6
			C94.7,45.2,97.3,40.9,97.3,36.2z"/>
	</g>
	<g>
		<path d="M40.1,53.5c0,0.7-0.2,1.3-0.5,1.7c-0.4,0.4-0.9,0.6-1.6,0.6h-0.3v2.5h-1.3v-6.8h1.7C39.4,51.4,40.1,52.1,40.1,53.5z
			 M37.7,54.6h0.2c0.3,0,0.5-0.1,0.7-0.3c0.1-0.2,0.2-0.4,0.2-0.8c0-0.4-0.1-0.6-0.2-0.8c-0.1-0.2-0.4-0.3-0.6-0.3h-0.3
			C37.7,52.5,37.7,54.6,37.7,54.6z"/>
		<path d="M40.9,58.2v-6.8h1.3v5.7h1.7v1.1H40.9z"/>
		<path d="M48.3,58.2l-0.4-1.7h-1.8l-0.4,1.7h-1.3l1.7-6.8h1.7l1.7,6.8H48.3z M47.7,55.3l-0.4-1.6c0-0.1-0.1-0.3-0.1-0.7
			c-0.1-0.4-0.1-0.6-0.1-0.8c0,0.3-0.1,0.6-0.2,0.9s-0.2,1.1-0.5,2.2C46.4,55.3,47.7,55.3,47.7,55.3z"/>
		<path d="M51.9,58.2h-1.3v-5.7h-1.3v-1.1h3.9v1.1h-1.3C51.9,52.5,51.9,58.2,51.9,58.2z"/>
		<path d="M55.2,58.2h-1.3v-6.8h3v1.1h-1.8v1.9h1.7v1.1h-1.7C55.2,55.4,55.2,58.2,55.2,58.2z"/>
		<path d="M62.5,54.8c0,1.1-0.2,2-0.6,2.6c-0.4,0.6-1,0.9-1.8,0.9c-0.8,0-1.4-0.3-1.8-0.9c-0.4-0.6-0.6-1.5-0.6-2.6
			c0-1.1,0.2-2,0.6-2.6c0.4-0.6,1-0.9,1.8-0.9c0.8,0,1.4,0.3,1.8,0.9C62.3,52.8,62.5,53.6,62.5,54.8z M58.9,54.8
			c0,0.8,0.1,1.4,0.3,1.8s0.5,0.6,0.9,0.6c0.8,0,1.1-0.8,1.1-2.4c0-1.6-0.4-2.4-1.1-2.4c-0.4,0-0.7,0.2-0.9,0.6
			C59,53.4,58.9,54,58.9,54.8z"/>
		<path d="M64.7,55.5v2.6h-1.3v-6.8h1.6c0.7,0,1.2,0.2,1.5,0.5s0.5,0.8,0.5,1.5c0,0.9-0.3,1.5-0.9,1.8l1.3,3h-1.4l-1.1-2.6H64.7z
			 M64.7,54.4H65c0.3,0,0.5-0.1,0.6-0.3c0.1-0.2,0.2-0.4,0.2-0.8c0-0.3-0.1-0.6-0.2-0.7c-0.1-0.1-0.3-0.2-0.6-0.2h-0.3L64.7,54.4
			L64.7,54.4z"/>
		<path d="M71,58.2l-1.3-5.8h0c0.1,0.4,0.1,0.9,0.1,1.2v4.6h-1.2v-6.8h1.9l1.2,5.3h0l1.2-5.3h2v6.8h-1.2v-4.6c0-0.4,0-0.8,0.1-1.2h0
			l-1.3,5.8H71z"/>
	</g>
</g>
<g>
	<path d="M50.8,128.7v-7.8c0-0.6-0.4-0.8-0.9-0.8c-1,0-2.1,0.2-3.2,0.7v7.9h-2.2v-14.5h2.2v4.8c1-0.4,2.3-0.7,3.5-0.7
		c2,0,2.7,1.2,2.7,2.9v7.5H50.8L50.8,128.7z M57.1,124c0.1,2.6,0.6,3.1,2.2,3.1c1.3,0,2.7-0.4,3.8-0.8l0.4,1.6c-1.2,0.5-2.6,1-4.3,1
		c-3.7,0-4.2-2-4.2-5.2c0-1.8,0.1-3.4,0.6-4.8c1.1-0.4,2.6-0.6,4.4-0.6c3,0,3.9,1.7,3.9,4.6v1.1H57.1L57.1,124z M59.9,120.1
		c-0.7,0-1.7,0-2.6,0.2c-0.1,0.4-0.2,1-0.2,2.2h4.6C61.7,121,61.4,120.1,59.9,120.1L59.9,120.1z M68,120.8v7.9h-2.2v-8.9
		c1.9-1,3.8-1.3,5.1-1.4v1.8C70,120.4,68.8,120.5,68,120.8L68,120.8z M76.7,129c-3.3,0-4.8-1.6-4.8-5.3c0-3.9,2-5.4,4.8-5.4
		c3.3,0,4.8,1.6,4.8,5.3C81.4,127.5,79.5,129,76.7,129L76.7,129z M76.7,120.1c-1.7,0-2.6,1-2.6,3.6c0,2.8,0.8,3.4,2.6,3.4
		c1.7,0,2.6-1,2.6-3.5C79.3,120.8,78.5,120.1,76.7,120.1L76.7,120.1z M92,128.7h-2.6c-0.6-1.6-1.4-3.3-2.7-4.7h-1.2v4.7h-2.2v-14.5
		h2.2v8.3h1c1.1-1.2,2-2.6,2.6-4h2.5c-0.8,1.7-1.9,3.2-3.1,4.4C89.9,124.8,91.1,126.8,92,128.7L92,128.7z M96.2,129
		c-2,0-2.7-1.2-2.7-2.9v-7.5h2.2v7.8c0,0.6,0.4,0.8,0.9,0.8c1,0,2.3-0.2,3.3-0.7v-7.9h2.2v8.8C99.4,128.8,97.4,129,96.2,129
		L96.2,129z"/>
	<path class="st0" d="M37.3,134.1H22c-1.3,0-2.4-1.1-2.4-2.4v-20.1c0-1.3,1.1-2.4,2.4-2.4h15.3c1.3,0,2.4,1.1,2.4,2.4v20.1
		C39.7,133,38.7,134.1,37.3,134.1L37.3,134.1z M38.9,111.7c0-0.9-0.8-1.7-1.7-1.7h-15c-0.9,0-1.7,0.8-1.7,1.7v19.9
		c0,0.9,0.8,1.7,1.7,1.7h15c0.9,0,1.7-0.8,1.7-1.7V111.7L38.9,111.7z"/>
	<path d="M32.2,130.7v-9.9c0,0,0.6-2.4-7.9,1c0,0,0-9.1,0-9.1l2.8,0v5.9c0,0,7.8-3.1,7.8,2.3c0,5.4,0,9.8,0,9.8H32.2L32.2,130.7z
		 M33.8,116.2c0,0-2.9,0-3,0c1.1-1.3,2-3.5,2-3.5H36C36,112.6,35.4,114.1,33.8,116.2L33.8,116.2z M24.4,130.7V125l2.8,2.8
		L24.4,130.7L24.4,130.7z"/>
</g>
<g>
	<path d="M156.4,39.7h-6.9c-0.2,0-0.3,0.1-0.3,0.3v3.4c0,0.2,0.1,0.3,0.3,0.3h2.7V48c0,0-0.6,0.2-2.3,0.2c-2,0-4.8-0.7-4.8-6.8
		c0-6.1,2.9-6.9,5.6-6.9c2.3,0,3.4,0.4,4,0.6c0.2,0.1,0.4-0.1,0.4-0.3l0.8-3.3c0-0.1,0-0.2-0.1-0.3c-0.3-0.2-1.9-1.1-5.9-1.1
		c-4.6,0-9.4,2-9.4,11.4c0,9.5,5.4,10.9,10,10.9c3.8,0,6.1-1.6,6.1-1.6c0.1-0.1,0.1-0.2,0.1-0.2V40
		C156.8,39.9,156.6,39.7,156.4,39.7z"/>
	<path d="M192.2,31.3c0-0.2-0.1-0.3-0.3-0.3H188c-0.2,0-0.3,0.1-0.3,0.3c0,0,0,7.6,0,7.6h-6.1v-7.6c0-0.2-0.1-0.3-0.3-0.3h-3.9
		c-0.2,0-0.3,0.1-0.3,0.3v20.4c0,0.2,0.1,0.3,0.3,0.3h3.9c0.2,0,0.3-0.1,0.3-0.3V43h6.1c0,0,0,8.7,0,8.7c0,0.2,0.1,0.3,0.3,0.3h3.9
		c0.2,0,0.3-0.1,0.3-0.3V31.3z"/>
	<g>
		<g>
			<ellipse cx="161.3" cy="34" rx="2.5" ry="2.5"/>
			<path d="M163.5,47.4c0-0.5,0-9.4,0-9.4c0-0.2-0.1-0.3-0.3-0.3h-3.9c-0.2,0-0.3,0.2-0.3,0.4c0,0,0,11.4,0,13.5
				c0,0.4,0.2,0.5,0.6,0.5c0,0,1.7,0,3.5,0c0.4,0,0.5-0.2,0.5-0.5C163.5,50.8,163.5,48,163.5,47.4z"/>
		</g>
	</g>
	<path d="M207.1,37.7h-3.9c-0.2,0-0.3,0.1-0.3,0.3v10c0,0-1,0.7-2.4,0.7c-1.4,0-1.8-0.6-1.8-2c0-1.4,0-8.7,0-8.7
		c0-0.2-0.1-0.3-0.3-0.3h-3.9c-0.2,0-0.3,0.1-0.3,0.3c0,0,0,5.3,0,9.4c0,4.1,2.3,5.1,5.4,5.1c2.6,0,4.6-1.4,4.6-1.4s0.1,0.7,0.1,0.8
		c0,0.1,0.2,0.2,0.3,0.2l2.5,0c0.2,0,0.3-0.1,0.3-0.3l0-13.7C207.4,37.8,207.2,37.7,207.1,37.7z"/>
	<path d="M217.7,37.2c-2.2,0-3.7,1-3.7,1v-6.9c0-0.2-0.1-0.3-0.3-0.3h-3.9c-0.2,0-0.3,0.1-0.3,0.3v20.4c0,0.2,0.1,0.3,0.3,0.3
		c0,0,2.7,0,2.7,0c0.1,0,0.2-0.1,0.3-0.2c0.1-0.1,0.2-0.9,0.2-0.9s1.6,1.5,4.6,1.5c3.6,0,5.6-1.8,5.6-8.1
		C223.1,38.1,219.9,37.2,217.7,37.2z M216.1,48.8c-1.3,0-2.3-0.7-2.3-0.7v-6.5c0,0,0.9-0.6,2-0.7c1.4-0.1,2.7,0.3,2.7,3.6
		C218.6,48.1,218,48.8,216.1,48.8z"/>
	<path d="M174.8,37.7h-2.9c0,0,0-3.9,0-3.9c0-0.1-0.1-0.2-0.2-0.2h-4c-0.2,0-0.2,0.1-0.2,0.2v4c0,0-2,0.5-2.1,0.5
		c-0.1,0-0.2,0.2-0.2,0.3v2.5c0,0.2,0.1,0.3,0.3,0.3h2c0,0,0,2.6,0,6c0,4.5,3.2,4.9,5.3,4.9c1,0,2.1-0.3,2.3-0.4
		c0.1,0,0.2-0.2,0.2-0.3l0-2.8c0-0.2-0.2-0.3-0.3-0.3c-0.2,0-0.6,0.1-1.1,0.1c-1.4,0-1.9-0.7-1.9-1.5c0-0.9,0-5.7,0-5.7h2.9
		c0.2,0,0.3-0.1,0.3-0.3V38C175.1,37.8,175,37.7,174.8,37.7z"/>
</g>
<g id="Logotype">
	<path d="M147.1,117c-1.5,0-2.7,0.4-3.5,1l0,0c-0.4-0.7-1.2-1.1-2.2-1.1c-1.6,0-2.3,0.4-2.3,1.2c0,0.5,0.1,0.7,0.2,1.1h1.2
		c0.5,0,0.8,0.2,0.8,0.9h0v8.7c0,0.2,0.2,0.4,0.4,0.4h1.6c0.2,0,0.4-0.2,0.4-0.4v-6.7c0-1.9,1-2.8,3-2.8c1.2,0,1.6,0.2,1.8,0.4
		c0.2,0.2,0.4,0.6,0.4,1.6v7.6c0,0.2,0.2,0.4,0.4,0.4h1.6c0.2,0,0.4-0.2,0.4-0.4v-7.3c0-1.7-0.3-2.9-1-3.5
		C150,117.3,148.8,117,147.1,117z"/>
	<path d="M158.6,117c-2.2,0-3.6,0.4-4.3,1.2c-0.7,0.8-1,2.4-1,5c0,2.5,0.3,4.2,1,5c0.7,0.8,2.1,1.2,4.3,1.2c2.2,0,3.7-0.4,4.4-1.2
		c0.7-0.8,1-2.4,1-5c0-2.5-0.3-4.2-1-5C162.2,117.4,160.8,117,158.6,117z M160.9,126.7c-0.1,0.2-0.6,0.5-2.4,0.5
		c-1.7,0-2.2-0.3-2.4-0.5c-0.2-0.2-0.4-1-0.4-3.4c0-2.5,0.3-3.2,0.4-3.4c0.1-0.2,0.6-0.5,2.4-0.5c1.7,0,2.2,0.3,2.4,0.5
		c0.2,0.2,0.4,1,0.4,3.4C161.4,125.7,161.1,126.5,160.9,126.7z"/>
	<path d="M188.3,125h-1.7c-0.2,0-0.4,0.2-0.4,0.4v0.4c0,0.4-0.1,0.9-0.4,1.1c-0.2,0.1-0.7,0.3-2.4,0.3c-1.6,0-2.2-0.4-2.3-0.6
		c-0.2-0.2-0.4-0.8-0.5-2.7h7.6c0.2,0,0.4-0.2,0.4-0.4v-0.9c0-2.3-0.4-3.7-1.1-4.5c-0.7-0.8-2.2-1.1-4.4-1.1c-2,0-3.4,0.4-4.1,1.3
		c-0.7,0.9-1.1,2.4-1.1,4.8c0,2.5,0.4,4.2,1.1,5c0.7,0.9,2.2,1.3,4.4,1.3c1.9,0,3.2-0.3,4-0.8c0.8-0.5,1.3-1.5,1.3-2.8l0-0.4
		C188.7,125.2,188.5,125,188.3,125z M181.2,119.8c0.2-0.2,0.7-0.5,2.3-0.5c1.6,0,2.1,0.3,2.3,0.4c0.2,0.2,0.5,0.6,0.5,2.1l0,0.1
		h-5.5C180.7,120.4,181,119.9,181.2,119.8z"/>
	<path d="M192.4,117.2h-1.6c-0.2,0-0.4,0.2-0.4,0.4v12.2c0,0.9-0.1,1.3-0.2,1.4l-0.2,0.1h-1.3c-0.7,0.4-1.1,2.2,1.3,2.2l0,0
		c0.1,0,0.1,0,0.2,0c1.3,0,2.7-0.6,2.7-3.2v-12.7C192.8,117.4,192.6,117.2,192.4,117.2z"/>
	<path d="M196.8,117.2h-1.6c-0.2,0-0.4,0.2-0.4,0.4v11.2c0,0.2,0.2,0.4,0.4,0.4h1.6c0.2,0,0.4-0.2,0.4-0.4v-11.2
		C197.3,117.4,197.1,117.2,196.8,117.2z"/>
	<path d="M213.6,122.1l-3-0.2c-0.9,0-1.2-0.5-1.2-1.4c0-0.8,0.2-1,0.3-1.1c0.1-0.1,0.6-0.2,2.1-0.2c1.7,0,2.1,0.2,2.2,0.2
		c0.1,0.1,0.3,0.4,0.3,1.1c0,0.2,0.2,0.4,0.4,0.4h1.6c0.2,0,0.4-0.2,0.4-0.4v-0.4c0-2.1-1.6-3.1-4.9-3.1c-2,0-3.3,0.2-4,0.7
		c-0.7,0.5-1.1,1.5-1.1,2.9c0,1.5,0.5,2.5,1.4,3c0.9,0.5,2.5,0.7,5.1,0.7c0.6,0,1.2,0.2,1.2,1.3c0,0.7-0.1,1.1-0.4,1.2
		c-0.2,0.1-0.8,0.3-2.4,0.3c-1.3,0-1.8-0.2-2-0.3c-0.2-0.2-0.4-0.5-0.4-1.1l0-0.5c0-0.2-0.2-0.4-0.4-0.4h-1.7
		c-0.2,0-0.4,0.2-0.4,0.4l0,0.6c0,1.3,0.4,2.3,1.2,2.8c0.8,0.5,2.1,0.7,4,0.7c1.9,0,3.2-0.3,3.9-0.8c0.8-0.6,1.2-1.5,1.2-2.9
		C217.1,123.4,215.9,122.2,213.6,122.1z"/>
	<path d="M229.9,127.1h-0.7c-0.5,0-0.8-0.2-0.8-0.9v-8.6c0-0.2-0.2-0.4-0.4-0.4h-1.6c-0.2,0-0.4,0.2-0.4,0.4v6.4
		c0,1.2-0.2,2.1-0.6,2.5c-0.4,0.4-1.2,0.6-2.3,0.6c-1.1,0-1.5-0.2-1.7-0.4c-0.1-0.1-0.4-0.6-0.4-1.7v-7.5c0-0.2-0.2-0.4-0.4-0.4
		h-1.6c-0.2,0-0.4,0.2-0.4,0.4v7.5c0,2.8,1.5,4.3,4.4,4.3c1.4,0,2.4-0.3,3.2-0.9l0.1-0.2c0.3,0.7,0.8,1,1.7,1c1.6,0,2.3-0.4,2.3-1.2
		C230.1,127.7,230,127.4,229.9,127.1z"/>
	<path d="M176.6,127.1c-0.4,0-0.7-0.2-0.8-0.7v-11.3c0-0.2-0.2-0.4-0.4-0.4h-1.6c-0.2,0-0.4,0.2-0.4,0.4v2.7
		c-0.7-0.5-1.8-0.8-3.3-0.8c-1.8,0-3,0.5-3.7,1.4c-0.7,0.9-1,2.4-1,4.6c0,2.4,0.3,4,1,4.9c0.7,0.9,2,1.4,3.9,1.4
		c1.4,0,2.4-0.3,3.1-0.8l0.2-0.1c0.3,0.6,0.8,1,1.7,1c1.6,0,2.3-0.4,2.3-1.2c0-0.5-0.1-0.7-0.2-1.1H176.6z M170.5,127.2
		c-1.1,0-1.8-0.2-2.1-0.7c-0.2-0.4-0.5-1.2-0.5-3.5c0-2,0.3-2.8,0.5-3.1c0.3-0.4,1-0.7,2.1-0.7c1.1,0,1.9,0.2,2.3,0.7
		c0.3,0.3,0.6,1.1,0.6,3c0,2.3-0.3,3.3-0.5,3.6C172.5,127,171.7,127.2,170.5,127.2z"/>
	<path d="M205.3,117.2h-1.2h-0.6h-0.7v-2.3c0-0.2-0.2-0.4-0.4-0.4h-1.6c-0.2,0-0.4,0.2-0.4,0.4v2.3h-1.1c-0.2,0-0.4,0.2-0.4,0.4v1.4
		c0,0.2,0.2,0.4,0.4,0.4h1.1v6.8c0,1.4,0.6,3.2,3.6,3.2l0,0c0,0,0,0,0,0c0,0,0,0,0,0c0,0,0,0,0,0c2.3-0.1,1.9-1.8,1.2-2.2h-1.5
		c-0.5-0.1-0.9-0.3-0.9-1.3v-6.4h1.1l0,0C206.4,119.4,206,117.6,205.3,117.2z"/>
</g>
<image style="overflow:visible;" width="850" height="567" xlink:href="../../../../../../Dropbox/harp.io/apps/chloi.harp.io/public/images/open/cordova.png"  transform="matrix(0.1431 0 0 0.1431 242.6667 0)">
</image>
<image style="overflow:visible;" width="850" height="567" xlink:href="../../../../../../Dropbox/harp.io/apps/chloi.harp.io/public/images/open/cordova.png"  transform="matrix(0.1431 0 0 0.1431 242.6667 0)">
</image>
<g>
	<g>
		<path d="M328.3,113.9c2.6,0,4,1.4,4.7,2.4c0.9,1.4,1.4,3.1,1.4,5.6c0,2.9-0.7,4.7-2.2,6.1c-1.1,1-2.3,1.4-3.8,1.4
			c-1.8,0-3.3-0.7-4.3-1.9c-1.2-1.4-1.8-3.4-1.8-5.9C322.3,116.8,324.6,113.9,328.3,113.9z M328.3,115.4c-1.4,0-2.6,0.7-3.2,1.8
			c-0.5,1-0.8,2.3-0.8,4.1c0,2.3,0.4,4.2,1,5.2c0.6,1,2,1.6,3.2,1.6c1.2,0,2.1-0.4,2.8-1.3c0.7-0.9,1.1-2.1,1.1-4.6
			c0-2.2-0.2-3.7-0.7-4.8C331.1,116.3,330,115.4,328.3,115.4z"/>
		<path d="M345,115.3l-0.8,1.3c-1.4-0.9-2.4-1.3-3.7-1.3c-1.9,0-3,0.9-3,2.5c0,1.2,0.7,1.9,2.5,2.4l1.7,0.5c1.3,0.4,2,0.8,2.6,1.5
			c0.6,0.7,1,1.7,1,2.6c0,1.4-0.7,2.8-2.1,3.6c-1,0.6-2,0.9-3.4,0.9c-1.8,0-3.3-0.4-4.8-1.4l0.8-1.4c1.2,0.9,2.5,1.3,4,1.3
			c1.1,0,1.7-0.2,2.4-0.7c0.7-0.5,1.1-1.3,1.1-2.1c0-1.3-0.9-2.3-2.7-2.8l-1.5-0.5c-1.4-0.4-2.1-0.7-2.7-1.3
			c-0.6-0.7-0.9-1.5-0.9-2.4c0-2.6,1.9-4.3,4.9-4.3C342.1,113.8,343.6,114.3,345,115.3z"/>
		<path d="M269.5,116h-5.3v4.2h4.3v2.1h-4.3v7.1h-2.6v-15.6h8.2L269.5,116z"/>
		<path d="M270.9,114.7c0-0.9,0.7-1.7,1.6-1.7c0.9,0,1.6,0.7,1.6,1.7c0,0.9-0.7,1.6-1.7,1.6C271.6,116.4,270.9,115.6,270.9,114.7z"
			/>
		<polygon points="271.2,129.5 271.2,118.3 273.7,117.8 273.7,129.5 		"/>
		<path d="M281.4,120.2c-0.2-0.1-0.4-0.2-0.7-0.2c-1,0-1.9,0.8-2.1,1.7v7.7h-2.5v-8c0-1.4-0.2-2.4-0.4-3.1l2.3-0.6
			c0.3,0.5,0.4,1.2,0.4,1.8c0.9-1.2,1.8-1.8,2.9-1.8c0.4,0,0.6,0,0.9,0.2L281.4,120.2z"/>
		<path d="M284.5,124.4v0.2c0,1.6,0.6,3.2,2.8,3.2c1.1,0,2-0.4,2.8-1.1l1,1.5c-1.2,1-2.6,1.5-4.1,1.5c-3.2,0-5.2-2.3-5.2-6
			c0-2,0.4-3.3,1.4-4.5c0.9-1.1,2-1.5,3.5-1.5c1.1,0,2.2,0.3,3.1,1.2c1,0.9,1.5,2.3,1.5,5v0.5H284.5z M286.7,119.7
			c-1.4,0-2.2,1.1-2.2,2.9h4.2C288.8,120.8,288,119.7,286.7,119.7z"/>
		<path d="M298.4,115.1c-0.6-0.3-0.9-0.4-1.4-0.4c-0.9,0-1.4,0.6-1.4,1.6v1.7h3l-0.6,1.7h-2.3v9.7h-2.5v-9.7h-1.1v-1.7h1.1
			c0,0-0.1-0.6-0.1-1.7c0-2.4,1.4-3.5,3.5-3.5c1,0,1.8,0.2,2.6,0.7L298.4,115.1z"/>
		<path d="M308.3,123.8c0,3.7-2,5.9-5,5.9c-3.1,0-5-2.3-5-6c0-3.6,2-6,5-6C306.4,117.8,308.3,120.2,308.3,123.8z M301,123.6
			c0,3.3,0.8,4.3,2.3,4.3c1.5,0,2.3-1.2,2.3-4c0-3.2-0.9-4.2-2.3-4.2C301.7,119.7,301,120.9,301,123.6z"/>
		<path d="M315.7,129.5c-0.4-0.7-2.3-3.8-2.5-4.3c-0.4,0.9-2.1,3.6-2.5,4.3h-3.1l4.2-6.2l-3.3-4.9l2.7-0.5c0.5,0.9,1.5,2.6,2.1,3.7
			c0.3-0.7,1.5-3,1.8-3.5h2.9l-3.4,5.2l4.2,6.2H315.7z"/>
	</g>
</g>
<g>
</g>
<g>
</g>
<g>
</g>
<g>
</g>
<g>
</g>
<g>
</g>
<g>
</g>
<g>
</g>
<g>
</g>
<g>
</g>
<g>
</g>
<g>
</g>
<g>
</g>
<g>
</g>
<g>
</g>
</svg>
