<?xml version="1.0" encoding="utf-8"?>
<!-- Generator: Adobe Illustrator 17.1.0, SVG Export Plug-In . SVG Version: 6.00 Build 0)  -->
<!DOCTYPE svg PUBLIC "-//W3C//DTD SVG 1.1//EN" "http://www.w3.org/Graphics/SVG/1.1/DTD/svg11.dtd">
<svg version="1.1" id="Layer_1" xmlns="http://www.w3.org/2000/svg" xmlns:xlink="http://www.w3.org/1999/xlink" x="0px" y="0px"
	 viewBox="0 0 121.7 81.3" style="enable-background:new 0 0 121.7 81.3;" xml:space="preserve">
<style type="text/css">
	.st0{fill-rule:evenodd;clip-rule:evenodd;}
</style>
<g>
	<path d="M-354.5-35.7c0-1.4-0.9-2.9-3.5-3v-3.5c2.6-0.1,3.5-1.6,3.5-3c0-2.5-0.4-4.1-0.4-7c0-4.4,1.6-5.8,5.2-5.8h9.6v3.2h-7.8
		c-1.7,0-2.2,0.6-2.2,2.8c0,2.2,0.2,4.2,0.2,6.6c0,3.1-1,4.3-3,4.8v0.2c2,0.5,3,1.7,3,4.8c0,2.5-0.2,4.4-0.2,6.6
		c0,2.2,0.5,2.9,2.2,2.9h0.8v3.2h-2.6c-3.6,0-5.2-1.4-5.2-5.8C-354.9-31.7-354.5-33.2-354.5-35.7z"/>
	<path d="M-346.1-57.7h6v22.5c0,1.3,0.6,1.7,1.1,1.7c0.2,0,0.4,0,0.7-0.1l0.7,4.4c-0.7,0.3-1.7,0.5-3,0.5c-4.1,0-5.5-2.7-5.5-6.8
		V-57.7z"/>
	<path d="M-329.2-49.9c5.7,0,8.6,4.2,8.6,9.7c0,1.1-0.1,2-0.2,2.5H-333c0.5,3.1,2.6,4.4,5.3,4.4c1.5,0,2.9-0.4,4.4-1.3l2,3.6
		c-2.1,1.4-4.8,2.3-7.2,2.3c-5.8,0-10.2-3.9-10.2-10.6C-338.8-45.8-334.1-49.9-329.2-49.9z M-325.7-41.4c0-2.3-1-4-3.4-4
		c-1.9,0-3.5,1.3-3.9,4H-325.7z"/>
	<path d="M-317.2-35.2c1.8,1.4,3.5,2.1,5.2,2.1c1.8,0,2.6-0.7,2.6-1.7c0-1.3-2-2-4.1-2.8c-2.4-0.9-5.3-2.6-5.3-5.9
		c0-3.7,3.1-6.3,7.7-6.3c3.1,0,5.4,1.3,7.1,2.6l-2.7,3.6c-1.5-1.1-2.8-1.7-4.3-1.7c-1.5,0-2.3,0.6-2.3,1.6c0,1.3,1.9,1.8,4,2.6
		c2.6,0.9,5.5,2.4,5.5,6.1c0,3.7-2.9,6.5-8.3,6.5c-2.6,0-5.7-1.1-7.7-2.8L-317.2-35.2z"/>
	<path d="M-300.8-35.2c1.8,1.4,3.5,2.1,5.2,2.1c1.8,0,2.6-0.7,2.6-1.7c0-1.3-2-2-4.1-2.8c-2.4-0.9-5.3-2.6-5.3-5.9
		c0-3.7,3.1-6.3,7.7-6.3c3.1,0,5.4,1.3,7.1,2.6l-2.7,3.6c-1.5-1.1-2.8-1.7-4.3-1.7c-1.5,0-2.3,0.6-2.3,1.6c0,1.3,1.9,1.8,3.9,2.6
		c2.6,0.9,5.5,2.4,5.5,6.1c0,3.7-2.9,6.5-8.3,6.5c-2.6,0-5.7-1.1-7.7-2.8L-300.8-35.2z"/>
	<path d="M-286.1-26.2c1.7,0,2.2-0.6,2.2-2.9c0-2.2-0.2-4.2-0.2-6.6c0-3.1,1-4.3,3-4.8v-0.2c-2-0.5-3-1.7-3-4.8
		c0-2.4,0.2-4.5,0.2-6.6c0-2.2-0.4-2.8-2.2-2.8h-0.8V-58h2.6c3.6,0,5.2,1.4,5.2,5.8c0,2.8-0.4,4.4-0.4,7c0,1.4,0.9,2.9,3.5,3v3.5
		c-2.6,0.1-3.5,1.6-3.5,3c0,2.6,0.4,4.1,0.4,7c0,4.4-1.6,5.8-5.2,5.8h-2.6v-3.2H-286.1z"/>
</g>
<g>
	<g>
		<path d="M-46.3-20.6h-55.4c-2.6,0-4.7-2.1-4.7-4.7v-30.5c0-2.6,2.1-4.7,4.7-4.7h55.4c2.6,0,4.7,2.1,4.7,4.7v30.5
			C-41.6-22.7-43.7-20.6-46.3-20.6z M-101.7-57.3c-0.9,0-1.6,0.7-1.6,1.6v30.5c0,0.9,0.7,1.6,1.6,1.6h55.4c0.9,0,1.6-0.7,1.6-1.6
			v-30.5c0-0.9-0.7-1.6-1.6-1.6H-101.7z"/>
	</g>
	<g>
		<path d="M-97-29.9v-21.2h6.2l6.2,7.8l6.2-7.8h6.2v21.2h-6.2v-12.1l-6.2,7.8l-6.2-7.8v12.1H-97z"/>
	</g>
	<g>
		<path d="M-58.1-29.9l-9.3-10.3h6.2v-10.9h6.2v10.9h6.2L-58.1-29.9z"/>
	</g>
</g>
<path d="M-284.8,45.1c-2.5,0-4.7,0.6-6.6,1.5c-0.7-1.3-1.4-2.5-1.5-3.4c-0.1-1-0.3-1.6-0.1-2.9c0.2-1.2,0.9-3,0.9-3.1
	s-0.2-0.8-1.6-0.8c-1.5,0-2.7,0.3-2.9,0.7c-0.1,0.4-0.4,1.3-0.6,2.2c-0.3,1.3-2.9,6.1-4.4,8.6c-0.5-1-0.9-1.8-1-2.5
	c-0.1-1-0.3-1.6-0.1-2.9c0.2-1.2,0.9-3,0.9-3.1s-0.2-0.8-1.6-0.8c-1.5,0-2.7,0.3-2.9,0.7c-0.1,0.4-0.3,1.3-0.6,2.2
	c-0.3,0.9-3.9,8.8-4.8,10.8c-0.5,1-0.9,1.9-1.2,2.5c0,0,0,0,0,0s0,0,0,0.1c-0.2,0.5-0.4,0.8-0.4,0.8s0,0,0,0
	c-0.2,0.4-0.4,0.7-0.5,0.7c-0.1,0-0.2-1,0-2.3c0.5-2.7,1.8-7,1.8-7.2c0-0.1,0.2-0.8-0.8-1.2c-1-0.4-1.4,0.3-1.5,0.3
	c-0.1,0-0.2,0.2-0.2,0.2s1.2-4.8-2.2-4.8c-2.1,0-5,2.3-6.4,4.4c-0.9,0.5-2.8,1.5-4.9,2.7c-0.8,0.4-1.6,0.9-2.4,1.3
	c-0.1-0.1-0.1-0.1-0.2-0.2c-4.1-4.3-11.6-7.4-11.3-13.2c0.1-2.1,0.9-7.7,14.4-14.5c11.1-5.5,20-4,21.6-0.6
	c2.2,4.8-4.8,13.8-16.3,15.1c-4.4,0.5-6.7-1.2-7.3-1.8c-0.6-0.7-0.7-0.7-0.9-0.6c-0.4,0.2-0.1,0.8,0,1.1c0.3,0.9,1.8,2.5,4.2,3.3
	c2.1,0.7,7.3,1.1,13.5-1.3c7-2.7,12.5-10.2,10.9-16.5c-1.6-6.4-12.3-8.5-22.3-4.9c-6,2.1-12.5,5.5-17.1,9.8
	c-5.5,5.2-6.4,9.7-6.1,11.6c1.3,6.7,10.5,11,14.2,14.3c-0.2,0.1-0.4,0.2-0.5,0.3c-1.9,0.9-8.9,4.6-10.6,8.5c-2,4.4,0.3,7.6,1.8,8
	c4.7,1.3,9.6-1.1,12.2-5c2.6-3.9,2.3-9,1.1-11.3c0,0,0-0.1,0-0.1c0.5-0.3,1-0.6,1.4-0.9c0.9-0.6,1.9-1.1,2.7-1.5
	c-0.4,1.2-0.8,2.7-0.9,4.8c-0.2,2.5,0.8,5.7,2.2,7c0.6,0.6,1.3,0.6,1.8,0.6c1.6,0,2.3-1.3,3.1-2.8c1-1.9,1.8-4.1,1.8-4.1
	s-1.1,5.9,1.8,5.9c1.1,0,2.1-1.4,2.6-2.1c0,0,0,0,0,0s0,0,0.1-0.1c0.1-0.2,0.2-0.3,0.2-0.3s0,0,0,0c0.4-0.7,1.4-2.4,2.8-5.2
	c1.8-3.6,3.6-8.1,3.6-8.1s0.2,1.1,0.7,2.9c0.3,1.1,1,2.3,1.5,3.4c-0.4,0.6-0.7,0.9-0.7,0.9s0,0,0,0c-0.3,0.5-0.7,0.9-1.1,1.4
	c-1.5,1.7-3.2,3.7-3.4,4.3c-0.3,0.7-0.2,1.2,0.3,1.6c0.4,0.3,1.1,0.3,1.8,0.3c1.3-0.1,2.2-0.4,2.7-0.6c0.7-0.2,1.5-0.6,2.3-1.2
	c1.4-1,2.3-2.5,2.2-4.5c0-1.1-0.4-2.2-0.8-3.2c0.1-0.2,0.3-0.4,0.4-0.6c2.2-3.3,4-6.9,4-6.9s0.2,1.1,0.7,2.9
	c0.3,0.9,0.8,1.9,1.3,2.9c-2.1,1.7-3.4,3.7-3.9,5c-0.8,2.4-0.2,3.5,1.1,3.8c0.6,0.1,1.3-0.1,1.9-0.4c0.7-0.2,1.6-0.7,2.5-1.3
	c1.4-1,2.8-2.5,2.7-4.5c0-0.9-0.3-1.8-0.6-2.7c1.8-0.7,4.1-1.2,7.1-0.8c6.3,0.7,7.6,4.7,7.3,6.3c-0.2,1.7-1.6,2.6-2,2.8
	c-0.4,0.3-0.6,0.4-0.5,0.6c0.1,0.3,0.3,0.3,0.6,0.2c0.5-0.1,3.3-1.3,3.4-4.4C-274.5,49.3-278.2,45-284.8,45.1z M-333.5,61.5
	c-2.1,2.3-5,3.1-6.3,2.4c-1.4-0.8-0.8-4.2,1.8-6.6c1.6-1.5,3.6-2.8,4.9-3.7c0.3-0.2,0.8-0.5,1.3-0.8c0.1-0.1,0.1-0.1,0.1-0.1l0,0
	c0.1-0.1,0.2-0.1,0.3-0.2C-330.4,56.1-331.3,59.1-333.5,61.5z M-318.3,51.1c-0.7,1.8-2.3,6.3-3.2,6.1c-0.8-0.2-1.3-3.7-0.2-7.1
	c0.6-1.7,1.8-3.8,2.5-4.6c1.1-1.3,2.4-1.7,2.7-1.2C-316,45.1-317.8,50-318.3,51.1z M-305.7,57.2c-0.3,0.2-0.6,0.3-0.7,0.2
	c-0.1-0.1,0.1-0.3,0.1-0.3s1.6-1.7,2.2-2.5c0.4-0.4,0.8-1,1.2-1.6c0,0.1,0,0.1,0,0.2C-302.8,55.2-304.8,56.6-305.7,57.2z
	 M-295.9,54.9c-0.2-0.2-0.2-0.7,0.6-2.3c0.3-0.6,1-1.7,2.2-2.8c0.1,0.4,0.2,0.8,0.2,1.2C-293,53.6-294.8,54.5-295.9,54.9z"/>
<g>
	<path d="M-219.7,35.2c0.7,0,1.3,0.1,1.7,0.3c0.4,0.2,0.7,0.4,0.7,0.7c0,0.4-0.1,0.8-0.3,1.2c-0.2,0.5-0.4,0.8-0.5,1.1
		c-0.1,0.1-0.1,0.1-0.2,0c-0.1,0-0.1-0.1-0.1-0.3c0.1-0.2,0.1-0.6,0.1-1c0-0.5-0.1-0.8-0.4-1.1c-0.2-0.3-0.6-0.4-1-0.4
		c-0.6,0-1,0.2-1.3,0.5c-0.3,0.3-0.5,0.8-0.5,1.4c0,0.5,0.1,1,0.4,1.5c0.3,0.5,0.6,0.9,0.9,1.4c0.3,0.5,0.7,1,1,1.5
		c0.3,0.5,0.4,1.1,0.4,1.8c0,1.2-0.5,2.1-1.4,2.7c-0.9,0.7-2.2,1-3.7,1c-1.1,0-2-0.2-2.6-0.5c-0.6-0.4-1-0.7-1-1.2
		c0-0.1,0-0.3,0.1-0.5c0.1-0.2,0.2-0.5,0.4-0.7c0.2-0.3,0.3-0.5,0.5-0.8c0.2-0.3,0.4-0.5,0.6-0.6c0.1-0.1,0.2,0,0.3,0
		c0.1,0.1,0.1,0.2,0,0.3c-0.2,0.2-0.3,0.4-0.4,0.6c-0.1,0.2-0.1,0.5-0.1,0.9c0,0.6,0.2,1.1,0.6,1.4c0.4,0.4,0.9,0.6,1.5,0.6
		c0.8,0,1.5-0.2,2-0.7c0.5-0.5,0.7-1,0.7-1.7c0-0.6-0.1-1.2-0.4-1.7c-0.3-0.5-0.6-1.1-0.9-1.6c-0.3-0.5-0.6-1-0.9-1.5
		c-0.3-0.5-0.4-1.1-0.4-1.7c0-0.8,0.4-1.6,1.1-2.1C-222.1,35.5-221.1,35.2-219.7,35.2z"/>
	<path d="M-206.3,35.4c0.2,0.1,0.2,0.2,0.2,0.3c0,0.1-0.2,0.2-0.4,0.3c-0.5,0-1,0-1.7,0c-0.6,0-1.3,0.1-2,0.1
		c-0.7,1.6-1.2,3.1-1.6,4.7c-0.4,1.5-0.6,2.7-0.6,3.7c0,1.1,0.4,1.7,1.3,1.7c0.8,0,1.8-0.7,2.8-2.2c0.1-0.1,0.2-0.1,0.3,0
		c0.1,0.1,0.1,0.2,0.1,0.3c-0.6,0.9-1.3,1.7-2.1,2.4c-0.8,0.7-1.7,1-2.5,1c-0.8,0-1.5-0.2-1.9-0.6c-0.4-0.4-0.6-1-0.6-1.7
		c0-0.9,0.2-2.2,0.7-3.9c0.5-1.7,1-3.4,1.8-5.1c-0.8,0.1-1.6,0.2-2.3,0.4c-0.2,0-0.2-0.1-0.1-0.2c0.1-0.1,0.2-0.3,0.4-0.4
		c0.2-0.1,0.5-0.3,0.8-0.4c0.3-0.1,0.6-0.2,0.8-0.2c0.1,0,0.3,0,0.4,0c0.1,0,0.3,0,0.4,0c0.4-0.9,0.9-1.9,1.3-2.7
		c0.5-0.9,0.9-1.7,1.4-2.4c0.2-0.2,0.5-0.4,0.8-0.6c0.3-0.2,0.7-0.3,1-0.4c0.3-0.1,0.6-0.2,0.8-0.2c0.2,0,0.3,0,0.3,0.2
		c-0.6,0.8-1.1,1.8-1.6,2.8c-0.5,1-1,2.1-1.5,3.3c0.6,0,1.2,0,1.9,0C-207.5,35.4-206.9,35.4-206.3,35.4z"/>
	<g>
		<g>
			<path d="M-176.7,11c0.5,0,0.9,0.1,1.2,0.4c0.3,0.2,0.5,0.6,0.6,1c0.1,0.4,0.1,0.9,0,1.4c-0.1,0.5-0.3,1-0.6,1.6
				c-0.1,0.1-0.1,0.1-0.2,0c-0.1-0.1-0.2-0.1-0.2-0.2c0.1-0.4-0.1-0.7-0.4-1c-0.3-0.3-0.9-0.4-1.6-0.4c-1.3,0-2.7,0.5-4,1.5
				c-1.4,1-2.7,2.3-3.9,3.9c-1.3,1.6-2.5,3.5-3.6,5.6c-1.1,2.1-2.1,4.3-2.9,6.5c-0.8,2.2-1.5,4.5-1.9,6.7c-0.5,2.2-0.7,4.2-0.7,6.1
				c0,1,0.3,1.5,0.8,1.5c0.4,0,0.8-0.2,1.1-0.5c0.4-0.3,0.8-0.8,1.3-1.5c0.1-0.1,0.2-0.1,0.3,0c0.1,0.1,0.1,0.2,0.1,0.3
				c-0.7,1-1.4,1.8-2.3,2.4c-0.9,0.7-1.7,1-2.4,1c-0.6,0-1-0.2-1.3-0.5c-0.2-0.4-0.4-0.8-0.4-1.4c0-1.5,0.3-3.4,1-5.7
				c0.7-2.3,1.5-4.7,2.6-7.3c1.1-2.6,2.4-5.1,3.8-7.6c1.4-2.5,2.9-4.8,4.5-6.9c1.5-2,3.1-3.7,4.7-5C-179.5,11.6-178.1,11-176.7,11z"
				/>
		</g>
	</g>
	<g>
		<g>
			<path d="M-220.1,71c-0.5,0-0.9-0.1-1.2-0.4c-0.3-0.2-0.5-0.6-0.6-1c-0.1-0.4-0.1-0.9,0-1.4c0.1-0.5,0.3-1,0.6-1.6
				c0.1-0.1,0.1-0.1,0.2,0c0.1,0.1,0.2,0.1,0.2,0.2c-0.1,0.4,0.1,0.7,0.4,1c0.3,0.3,0.9,0.4,1.6,0.4c1.3,0,2.7-0.5,4-1.5
				c1.4-1,2.7-2.3,3.9-3.9c1.3-1.6,2.5-3.5,3.6-5.6c1.1-2.1,2.1-4.3,2.9-6.5c0.8-2.2,1.5-4.5,1.9-6.7c0.5-2.2,0.7-4.2,0.7-6.1
				c0-1-0.3-1.5-0.8-1.5c-0.4,0-0.8,0.2-1.1,0.5c-0.4,0.3-0.8,0.8-1.3,1.5c-0.1,0.1-0.2,0.1-0.3,0c-0.1-0.1-0.1-0.2-0.1-0.3
				c0.7-1,1.4-1.8,2.3-2.4c0.9-0.7,1.7-1,2.4-1c0.6,0,1,0.2,1.3,0.5s0.4,0.8,0.4,1.4c0,1.5-0.3,3.4-1,5.7c-0.7,2.3-1.5,4.7-2.6,7.3
				c-1.1,2.6-2.4,5.1-3.8,7.6c-1.4,2.5-2.9,4.8-4.5,6.9c-1.5,2-3.1,3.7-4.7,5C-217.2,70.4-218.7,71-220.1,71z"/>
		</g>
	</g>
	<path d="M-187.1,47.7c-1.4,0-2.1-0.7-2.1-2.2c0-0.5,0.1-1.1,0.2-1.8c0.1-0.7,0.3-1.4,0.5-2.1c0.2-0.7,0.5-1.5,0.9-2.2
		c0.3-0.7,0.7-1.5,1.2-2.1c-0.4,0.2-0.7,0.5-1,0.7c-0.3,0.2-0.6,0.5-0.9,0.8c-0.1,0.1-0.2,0-0.3-0.1c-0.1-0.1-0.1-0.2,0-0.3
		c0.6-0.6,1.3-1.2,2.4-1.8c1-0.6,2-1.1,3-1.5c0.2,0,0.3,0,0.4,0.1c0.1,0.1,0.1,0.2,0,0.3c-1,1.4-1.9,2.8-2.5,4.4
		c-0.6,1.6-1,3.1-1,4.6c0,0.9,0.3,1.4,0.9,1.4c0.4,0,0.9-0.3,1.6-0.9c0.6-0.6,1.3-1.3,2-2.2c0.7-0.9,1.4-2,2.1-3.1
		c0.7-1.2,1.3-2.4,1.9-3.6c0.1-0.2,0.4-0.4,0.9-0.6c0.5-0.2,1-0.3,1.4-0.3c0.5,0,0.6,0.1,0.4,0.4c-0.5,0.8-0.9,1.6-1.2,2.4
		c-0.3,0.7-0.6,1.5-0.9,2.2c-0.2,0.7-0.4,1.4-0.5,2.2c-0.1,0.7-0.2,1.5-0.2,2.4c0,1,0.3,1.6,0.8,1.6c0.6,0,1.2-0.5,1.9-1.5
		c0.1-0.1,0.2-0.1,0.3,0c0.1,0.1,0.1,0.2,0.1,0.3c-0.6,0.8-1.2,1.5-1.8,1.9c-0.7,0.4-1.3,0.7-1.8,0.7c-1.4,0-2.1-0.8-2.1-2.4
		c0-1.7,0.3-3.3,0.9-4.9c-1.2,2.2-2.5,4-3.9,5.3C-185,47-186.1,47.7-187.1,47.7z"/>
	<path d="M-166.9,35.2c0.7,0,1.3,0.1,1.7,0.3c0.4,0.2,0.7,0.4,0.7,0.7c0,0.4-0.1,0.8-0.3,1.2c-0.2,0.5-0.4,0.8-0.5,1.1
		c-0.1,0.1-0.1,0.1-0.2,0c-0.1,0-0.1-0.1-0.1-0.3c0.1-0.2,0.1-0.6,0.1-1c0-0.5-0.1-0.8-0.4-1.1c-0.2-0.3-0.6-0.4-1-0.4
		c-0.6,0-1,0.2-1.3,0.5c-0.3,0.3-0.5,0.8-0.5,1.4c0,0.5,0.1,1,0.4,1.5c0.3,0.5,0.6,0.9,0.9,1.4c0.3,0.5,0.7,1,1,1.5
		c0.3,0.5,0.4,1.1,0.4,1.8c0,1.2-0.5,2.1-1.4,2.7c-0.9,0.7-2.2,1-3.7,1c-1.1,0-2-0.2-2.6-0.5c-0.6-0.4-1-0.7-1-1.2
		c0-0.1,0-0.3,0.1-0.5c0.1-0.2,0.2-0.5,0.4-0.7c0.2-0.3,0.3-0.5,0.5-0.8c0.2-0.3,0.4-0.5,0.6-0.6c0.1-0.1,0.2,0,0.3,0
		c0.1,0.1,0.1,0.2,0,0.3c-0.2,0.2-0.3,0.4-0.4,0.6c-0.1,0.2-0.1,0.5-0.1,0.9c0,0.6,0.2,1.1,0.6,1.4c0.4,0.4,0.9,0.6,1.5,0.6
		c0.8,0,1.5-0.2,2-0.7c0.5-0.5,0.7-1,0.7-1.7c0-0.6-0.1-1.2-0.4-1.7c-0.3-0.5-0.6-1.1-0.9-1.6c-0.3-0.5-0.6-1-0.9-1.5
		c-0.3-0.5-0.4-1.1-0.4-1.7c0-0.8,0.4-1.6,1.1-2.1C-169.4,35.5-168.3,35.2-166.9,35.2z"/>
</g>
<g>
	<g>
		<path d="M-105.5,46.3c0,1.1-0.4,1.7-1.3,1.7c-0.4,0-0.8-0.2-1-0.5c0.2-0.1,0.4-0.3,0.6-0.7s0.3-0.7,0.3-1c0-0.3-0.1-0.6-0.3-0.8
			c-0.2-0.2-0.4-0.3-0.8-0.3c-0.4,0-0.7,0.1-1,0.4s-0.6,0.6-0.9,1c-0.6,0.9-1,2-1.4,3.3c-0.4,1.3-0.5,2.6-0.5,3.6
			c0,1.1,0.2,1.9,0.5,2.4s0.9,0.7,1.6,0.7c1.5,0,2.8-0.6,3.7-1.8l0.4,0.2c-0.6,1.5-1.7,2.5-3.3,3.1c-0.6,0.2-1.3,0.3-1.9,0.3
			c0,0,0,0-0.1,0c-1.4,0-2.4-0.4-3-1.1c-0.6-0.7-1-1.8-1-3.3c0-1.5,0.3-3.1,0.8-4.6c0.6-1.8,1.5-3.2,2.6-4.1c0.9-0.7,1.9-1,3-1
			c1.4,0,2.4,0.4,2.8,1.3C-105.6,45.5-105.5,45.9-105.5,46.3z"/>
		<path d="M-95.9,50.7c-0.7,0.8-1.8,1.3-3.3,1.5c-0.1,1.7-0.6,3-1.4,4c-0.8,1-1.8,1.5-2.9,1.5c-1.4,0-2.3-0.5-2.7-1.6
			c-0.1-0.4-0.2-0.8-0.2-1.2c0-0.4,0-0.9,0.1-1.4s0.2-0.9,0.4-1.4c0.4-1.1,0.9-2,1.6-2.7c0.8-0.8,1.8-1.2,3-1.2c1.6,0,2.4,1,2.4,2.9
			v0c0.1,0,0.2,0,0.3,0c0.3,0,0.8-0.1,1.3-0.3c0.5-0.2,1-0.5,1.5-0.8L-95.9,50.7z M-100.7,52.3c-0.3-0.1-0.5-0.4-0.5-0.8
			c0-0.5,0.2-0.8,0.6-1c0-0.4-0.1-0.7-0.2-0.8c-0.1-0.2-0.3-0.2-0.6-0.2c-0.6,0-1.1,0.6-1.6,1.9s-0.8,2.3-0.8,3.3
			c0,0.6,0.1,1,0.2,1.1c0.1,0.2,0.2,0.3,0.3,0.3c0.1,0,0.3,0.1,0.5,0.1c0.4,0,0.8-0.4,1.2-1.1C-101.1,54.2-100.8,53.3-100.7,52.3z"
			/>
		<path d="M-87.5,46.6c0-0.2,0-0.4,0-0.5s-0.1-0.3-0.2-0.4c-0.1-0.1-0.3-0.2-0.4-0.2c-0.7,0-1.1,0.5-1.3,1.5l-0.3,1.5h1.8l-0.2,0.7
			h-1.8l-2.1,9.9c-0.2,1.2-0.7,2-1.4,2.5c-0.5,0.4-1.2,0.6-1.9,0.6c-1,0-1.7-0.4-2-1.2c-0.6,0.8-1.4,1.2-2.5,1.2
			c-0.6,0-1.1-0.2-1.5-0.6s-0.7-0.8-0.7-1.3c0-0.5,0.1-0.9,0.2-1.2c0.2-0.3,0.4-0.6,0.8-0.8c0.4-0.3,1.1-0.5,2.1-0.9l2.2-10.5
			c0.4-2.1,1.6-3.1,3.3-3.1c0.4,0,0.8,0.1,1.2,0.3c0.4,0.2,0.6,0.5,0.8,0.8c0.6-0.8,1.4-1.2,2.5-1.2c0.6,0,1.1,0.2,1.5,0.6
			c0.4,0.4,0.7,0.8,0.7,1.4c0,0.3,0,0.5-0.1,0.8H-87.5z M-98.8,58.1c-0.7,0.2-1.1,0.4-1.4,0.6c-0.5,0.4-0.7,0.8-0.7,1.2
			c0,0.2,0.1,0.4,0.4,0.6c0.1,0,0.2,0.1,0.4,0.1s0.3-0.1,0.5-0.3c0.2-0.2,0.4-0.6,0.5-1.1L-98.8,58.1z M-96.8,60.3
			c0.2,0.2,0.5,0.4,1.1,0.4c0.2,0,0.4-0.1,0.6-0.3s0.4-0.6,0.5-1.1l0.4-2.1l-1.9,0.3l-0.3,1.7C-96.6,59.6-96.7,59.9-96.8,60.3z
			 M-92.6,49.2h-1.8L-96,57l1.9-0.3L-92.6,49.2z M-92.4,48.5l0.4-1.9c0-0.1,0-0.3,0-0.5c0-0.2-0.1-0.3-0.2-0.4
			c-0.1-0.1-0.3-0.2-0.4-0.2c-0.7,0-1.1,0.5-1.3,1.5l-0.3,1.5H-92.4z"/>
		<path d="M-81.1,54.4c-1.4,2.3-3.1,3.4-5.1,3.4c-0.9,0-1.6-0.2-2.1-0.7c-0.5-0.5-0.8-1.2-0.8-2.2c0-1.4,0.4-2.8,1.1-4.1
			c0.5-1,1.3-1.7,2.2-2.1c0.5-0.2,1-0.3,1.5-0.3c0.8,0,1.4,0.2,1.7,0.5s0.5,0.7,0.5,1.3c0,1-0.4,1.9-1.3,2.7c-0.8,0.7-1.8,1.1-3,1.2
			c0,0.3,0,0.6,0,0.7c0,0.6,0.1,1,0.3,1.2c0.2,0.2,0.5,0.3,0.9,0.3c0.7,0,1.3-0.2,1.8-0.5c0.5-0.3,1-0.8,1.5-1.4H-81.1z M-83.5,49.9
			c0-0.4-0.2-0.7-0.5-0.7c-0.4,0-0.9,0.4-1.3,1.2s-0.7,1.6-0.9,2.6c0.7,0,1.3-0.4,1.9-1C-83.7,51.5-83.5,50.8-83.5,49.9z"/>
		<path d="M-79.3,54.5c0,1,0.4,1.5,1.2,1.5c0.3,0,0.7-0.1,1.1-0.3s0.7-0.4,1-0.7c-0.3,1.8-1.4,2.7-3.2,2.7c-0.9,0-1.6-0.2-2.1-0.7
			c-0.5-0.5-0.8-1.2-0.8-2.2c0-1.4,0.4-2.8,1.1-4.1c0.5-1,1.3-1.7,2.2-2.1c0.5-0.2,1-0.3,1.5-0.3c0.8,0,1.4,0.2,1.7,0.5
			s0.5,0.7,0.5,1.3c0,1.1-0.4,1.9-1.3,2.7c-0.8,0.7-1.8,1.1-3,1.2C-79.3,54.1-79.3,54.3-79.3,54.5z M-76.4,49.9
			c0-0.4-0.2-0.7-0.5-0.7c-0.6,0-1.1,0.7-1.7,2c-0.2,0.6-0.4,1.2-0.5,1.8c0.7,0,1.3-0.3,1.9-1S-76.4,50.8-76.4,49.9z"/>
		<path d="M-68.4,47.6c0.6-0.3,0.8-0.9,0.8-1.7c0-0.2-0.1-0.5-0.3-0.7s-0.6-0.4-1.1-0.4s-0.9,0.1-1.2,0.4c-0.3,0.3-0.5,0.6-0.5,1.1
			c0,0.4,0.1,0.8,0.2,1.1c0.2,0.5,0.6,1,1.1,1.5l0.8,0.7c0.7,0.6,1.1,1.1,1.4,1.5c0.5,0.8,0.7,1.6,0.7,2.4c0,1.5-0.5,2.7-1.6,3.5
			c-1,0.8-2.1,1.1-3.6,1.1c-1.8,0-3-0.6-3.6-1.7c-0.2-0.4-0.3-0.9-0.3-1.4c0-1,0.3-1.7,0.8-2.3c0.6-0.5,1.2-0.8,1.8-0.8
			c0.7,0,1.2,0.2,1.5,0.6c0.1,0.2,0.2,0.4,0.2,0.6c-0.9,0-1.6,0.3-2,0.9c-0.1,0.2-0.2,0.5-0.2,0.7c0,0.5,0.2,1,0.5,1.3
			c0.3,0.3,0.8,0.5,1.4,0.5s1.1-0.2,1.5-0.6c0.4-0.4,0.6-1,0.6-1.6s-0.1-1.2-0.3-1.6c-0.2-0.4-0.4-0.8-0.7-1.2
			c-0.3-0.4-0.6-0.7-0.9-1s-0.6-0.7-0.9-1c-0.7-0.8-1-1.6-1-2.3c0-0.9,0.4-1.7,1.2-2.4c0.8-0.6,1.8-0.9,3-0.9c1.5,0,2.4,0.4,2.8,1.3
			c0.1,0.2,0.2,0.6,0.2,1c0,0.4-0.1,0.8-0.4,1.2c-0.3,0.3-0.6,0.5-1,0.5C-67.8,47.9-68.1,47.8-68.4,47.6z"/>
		<path d="M-61,48.3c1.5,0,2.2,0.6,2.2,1.7c0,0.5-0.1,0.8-0.3,1c-0.2,0.2-0.4,0.3-0.6,0.3c-0.2,0-0.5-0.1-0.7-0.2
			c0.1-0.4,0.2-0.8,0.2-1.1c0-0.5-0.2-0.8-0.5-0.8s-0.7,0.3-1.1,1c-0.6,0.9-0.9,2-1.1,3.3c-0.1,0.4-0.1,0.8-0.1,1.3
			c0,0.9,0.4,1.3,1.3,1.3c0.7,0,1.3-0.2,1.8-0.5c0.5-0.3,1-0.8,1.5-1.4h0.6c-1.4,2.3-3.1,3.4-5.1,3.4c-0.9,0-1.6-0.2-2.1-0.7
			s-0.8-1.2-0.8-2.2c0-1.4,0.4-2.8,1.1-4.1c0.5-1,1.3-1.7,2.2-2.1C-62,48.4-61.5,48.3-61,48.3z"/>
		<path d="M-59.2,57.7l1.9-9.2h2.6l-0.2,1.1c0.3-0.3,0.6-0.5,1-0.8c0.4-0.2,0.8-0.4,1.2-0.4s0.7,0.1,1,0.4s0.3,0.6,0.3,0.8
			c0,0.4-0.1,0.8-0.4,1.1s-0.5,0.4-0.9,0.4s-0.6-0.1-0.7-0.2c-0.1-0.2-0.2-0.3-0.2-0.5s-0.1-0.3-0.1-0.4c0-0.1-0.1-0.1-0.2-0.1
			c-0.3,0-0.5,0.1-0.7,0.2c-0.2,0.1-0.4,0.3-0.7,0.5l-1.5,7H-59.2z"/>
		<path d="M-45.9,54.4c-0.8,2.3-2.1,3.4-4,3.4c-0.5,0-0.9-0.2-1.3-0.5c-0.4-0.3-0.6-0.9-0.6-1.7c0-0.3,0-0.7,0.1-1.2l1.2-5.9h2.6
			l-1.3,6.2c0,0.2-0.1,0.4-0.1,0.7c0,0.4,0.2,0.6,0.7,0.6c0.4,0,0.7-0.2,1-0.5c0.3-0.3,0.5-0.7,0.7-1.2H-45.9z M-47,46
			c0,0.4-0.1,0.7-0.4,1s-0.6,0.4-1,0.4c-0.4,0-0.7-0.1-1-0.4c-0.3-0.3-0.4-0.6-0.4-1c0-0.4,0.1-0.7,0.4-1s0.6-0.4,1-0.4
			s0.8,0.1,1,0.4C-47.2,45.3-47,45.6-47,46z"/>
		<path d="M-44.6,57.1l-1,4.5l-2.8,0.7l3.1-14.5h2.6l-0.3,1.4c0.6-0.5,1.3-0.8,2.1-0.8c1.1,0,1.7,0.5,2.1,1.5
			c0.1,0.4,0.2,0.8,0.2,1.3c0,0.5,0,1-0.1,1.4c-0.1,0.5-0.2,1-0.3,1.4c-0.1,0.5-0.3,0.9-0.5,1.4c-0.2,0.4-0.5,0.8-0.8,1.2
			c-0.3,0.3-0.7,0.6-1.2,0.8c-0.5,0.2-1,0.3-1.7,0.3C-43.9,57.8-44.4,57.6-44.6,57.1z M-41,51.2c0-1-0.3-1.5-0.9-1.5
			c-0.2,0-0.4,0.1-0.7,0.2c-0.2,0.1-0.4,0.4-0.6,0.7l-1.1,5.1c0.1,0.3,0.4,0.4,0.8,0.4s0.8-0.2,1.1-0.5c0.6-0.7,1.1-1.7,1.2-2.9
			C-41.1,52.2-41,51.7-41,51.2z"/>
		<path d="M-36.9,49.2h-0.6l0.2-0.7h0.6l0.6-2.5l2.7-0.4l-0.6,2.9h1.1l-0.1,0.7h-1.1l-1.2,5.5c-0.1,0.2-0.1,0.4-0.1,0.6
			s0,0.4,0.1,0.5c0.1,0.1,0.2,0.2,0.5,0.2c0.2,0,0.4,0,0.5-0.1c-0.4,1-0.8,1.6-1.5,1.7c-0.2,0-0.3,0.1-0.5,0.1
			c-0.7,0-1.1-0.2-1.4-0.6c-0.3-0.4-0.4-0.8-0.4-1.3s0-0.8,0.1-1.2L-36.9,49.2z"/>
	</g>
	<g>
		<g>
			<path d="M-76.6,20.7c-0.3-0.2-0.8-0.3-1.5-0.3c-0.2,0-0.4,0-0.6,0.1c-0.2,0.1-0.3,0.2-0.3,0.4s0.1,0.3,0.4,0.4s0.6,0.2,1,0.2
				c0.4,0,0.7,0,0.9-0.1c0.4-0.1,0.9-0.2,1.3-0.4l0.6-0.3c0.5-0.2,1.2-0.7,1.6-0.8c0.7-0.2,1.4-0.3,2.1-0.3c1.3,0,2.4,0.2,3.1,0.6
				c0.7,0.3,0.8,1.1,0.8,1.6c0,0.6-0.5,1.1-1.5,1.3c-0.4,0.1-0.8,0.1-1.2,0.1c-0.8,0-1.5-0.1-2-0.3s-0.7-0.4-0.7-0.7
				c0-0.2,0.2-0.4,0.5-0.5c0.1,0,0.3-0.1,0.5-0.1c0,0.3,0.3,0.6,0.8,0.7c0.2,0,0.4,0.1,0.7,0.1c0.5,0,0.8-0.1,1.1-0.2
				c0.3-0.1,0.5-0.3,0.5-0.5s-0.2-0.4-0.6-0.5c-0.4-0.1-0.8-0.2-1.4-0.2s-1,0-1.4,0.1c-0.4,0.1-0.7,0.2-1,0.3s-0.6,0.2-0.9,0.3
				c-0.3,0.1-0.6,0.2-0.9,0.3c-0.7,0.2-1.4,0.4-2,0.4c-0.8,0-1.5-0.1-2.1-0.4c-0.6-0.3-0.8-0.7-0.8-1.1c0-0.5,0.4-0.9,1.2-1
				c0.2,0,0.5-0.1,0.9-0.1s0.7,0,1,0.1c0.3,0.1,0.5,0.2,0.5,0.4S-76.4,20.6-76.6,20.7z"/>
		</g>
		<g>
			<path d="M-73.3,27c-9.7,0-11-2.3-11-2.3c0,1.2,0.3,2.4,0.7,3.5c-0.6,0.5-2.2,2-2.2,4.2c0,2.8,3.3,4.5,5.5,3.1
				c0,0-3.7-0.5-3.7-3.8c0-1.2,0.4-2,1-2.5c0.9,2,2.2,3.5,2.6,4.1c0.8,1,1,0.7,1.5,2.6c0.4,1.6,4,2.5,6,2.5v0c0,0,0,0,0,0
				c0,0,0,0,0,0v0c2-0.1,5.3-0.9,5.7-2.5c0.5-2,0.5-1.6,1.3-2.6c0.8-1,3.8-4.7,3.8-8.7C-62.3,24.6-63.5,26.9-73.3,27z"/>
			<path d="M-73,25.5V27c0,0-0.4,0-0.4,0c0,0,0.4,0,0.4,0V25.5c11,0,11-3,11-3l-1.3-1.3c2.7,2.7-8.6,3-9.9,3c-1.3,0-12.7-0.3-9.9-3
				l-1,1.3C-84.3,22.5-85,25.5-73,25.5z"/>
		</g>
	</g>
</g>
<g>
	<path d="M-235.2-57c0-0.8,0.3-1.5,0.9-2.1c0.6-0.6,1.3-0.9,2.1-0.9c0.8,0,1.6,0.3,2.1,0.9c0.6,0.6,0.9,1.3,0.9,2.1
		c0,0.8-0.3,1.6-0.9,2.1c-0.6,0.6-1.3,0.9-2.1,0.9c-0.8,0-1.6-0.3-2.1-0.9C-234.9-55.4-235.2-56.1-235.2-57z M-229.8-48.6v31h-4.6
		v-31H-229.8z"/>
	<path d="M-209.1-48.6h4.7v20.1h-4.7v-2.1c-1.9,1.8-4,2.7-6.2,2.7c-2.8,0-5.1-1-6.9-3c-1.8-2-2.7-4.6-2.7-7.7c0-3,0.9-5.5,2.7-7.5
		s4.1-3,6.8-3c2.3,0,4.4,1,6.3,2.9V-48.6z M-220.1-38.7c0,1.9,0.5,3.5,1.5,4.7c1.1,1.2,2.4,1.8,4,1.8c1.7,0,3.1-0.6,4.2-1.8
		c1.1-1.2,1.6-2.8,1.6-4.7s-0.5-3.4-1.6-4.7c-1.1-1.2-2.4-1.8-4.1-1.8c-1.6,0-2.9,0.6-4,1.8C-219.6-42-220.1-40.5-220.1-38.7z"/>
	<path d="M-183.8-63.4h4.7v34.8h-4.7v-2.1c-1.8,1.8-3.9,2.7-6.2,2.7c-2.7,0-5-1-6.8-3c-1.8-2-2.7-4.6-2.7-7.7c0-3,0.9-5.5,2.7-7.5
		c1.8-2,4-3,6.7-3c2.4,0,4.5,1,6.3,2.9V-63.4z M-194.8-38.7c0,1.9,0.5,3.5,1.5,4.7c1.1,1.2,2.4,1.8,4,1.8c1.7,0,3.1-0.6,4.2-1.8
		c1.1-1.2,1.6-2.8,1.6-4.7s-0.5-3.4-1.6-4.7c-1.1-1.2-2.4-1.8-4.1-1.8c-1.6,0-2.9,0.6-4,1.8C-194.3-42-194.8-40.5-194.8-38.7z"/>
	<path d="M-155-37.5h-14.4c0.1,1.6,0.7,3,1.6,3.9c0.9,1,2.2,1.4,3.6,1.4c1.2,0,2.1-0.3,2.9-0.8c0.7-0.5,1.6-1.6,2.5-3.1l3.9,2.2
		c-0.6,1-1.2,1.9-1.9,2.6s-1.4,1.3-2.2,1.8c-0.8,0.5-1.6,0.8-2.5,1s-1.9,0.3-2.9,0.3c-3,0-5.4-1-7.2-2.9c-1.8-1.9-2.7-4.5-2.7-7.7
		c0-3.2,0.9-5.7,2.6-7.7c1.8-1.9,4.1-2.9,7.1-2.9c3,0,5.3,0.9,7,2.8c1.7,1.9,2.6,4.5,2.6,7.8L-155-37.5z M-159.8-41.3
		c-0.6-2.5-2.2-3.7-4.7-3.7c-0.6,0-1.1,0.1-1.6,0.3c-0.5,0.2-0.9,0.4-1.4,0.7s-0.8,0.7-1,1.2s-0.5,1-0.7,1.5H-159.8z"/>
</g>
<g>
	<g>
		<path d="M28.4-47.1c1.8-2.9,4.2-4.4,7.2-4.4c2.6,0,4.7,1.4,4.7,4c0,2.5-2.9,9.4-2.9,10.8c0,0.8,0.4,1.1,1.1,1.1
			c0.5,0,0.8-0.1,1.4-0.3l-0.7,2.7c-1,0.3-2.1,0.5-3.2,0.5c-2.4,0-3.8-0.9-3.8-3.2c0-2.1,2.9-8.8,2.9-10.6c0-1.3-0.9-1.9-2-1.9
			c-3,0-5.6,4.3-8.4,15.2h-4.9l5.5-20.5c0.2-0.8,0.1-1.1-0.3-1.1h-1.9l0.8-2.8h3.2c1.8,0,3.5-0.2,4.4-0.4L28.4-47.1z"/>
		<path d="M42.1-39.4c0-6.2,4-12.1,9.9-12.1c2.8,0,4.7,1.5,5.3,3.9l1-3.4h1.8c1.3,0,2.3-0.1,3.1-0.4l-2.8,10.6c-0.5,1.8-1,3.3-1,4
			c0,0.8,0.4,1.2,1.1,1.2c0.5,0,0.8-0.1,1.4-0.3l-0.7,2.7c-1,0.3-1.9,0.5-3,0.5c-2.5,0-3.9-1.1-3.9-3.2c-1.5,1.9-3.5,3.2-5.9,3.2
			C44.6-32.7,42.1-35.6,42.1-39.4z M56.3-44.9c0-2.2-1.4-3.7-3.3-3.7c-3.3,0-5.9,4.4-5.9,9c0,2.4,1.4,3.8,3.4,3.8
			C53.7-35.7,56.3-40.5,56.3-44.9z"/>
		<path d="M72.8-48.1c1.3-2.2,3.1-3.6,5.3-3.6c2.3,0,3.7,1.4,3.8,3.5c0.1,2.5-1.5,4.7-3.6,4.7c-1.6,0-2.5-0.9-2.5-2.2
			c0-1.1,0.8-2.3,2.1-2.5c-0.2-0.3-0.8-0.6-1.3-0.6c-3,0-4.4,3.4-6.1,9.6l-1.6,5.9h-4.9l3.9-14c0.2-0.8,0.1-1.1-0.3-1.1h-2.2
			l0.7-2.8h3.4c1.8,0,3.5-0.2,4.4-0.4L72.8-48.1z"/>
		<path d="M78.4-29.6H80c0.4,0,0.7-0.1,0.9-1l4.6-16.6c0.2-0.8,0.1-1.1-0.3-1.1H83l0.7-2.8H87c1.8,0,3.5-0.2,4.4-0.4l-0.7,2.7
			c1.4-1.6,3.3-2.8,5.5-2.8c4,0,6.4,2.9,6.4,6.9c0,6.2-3.7,11.9-9.6,11.9c-2.9,0-4.8-1.5-5.5-3.9l-1.6,6c-0.2,0.8,0,1,0.4,1h1.9
			l-0.7,2.8h-9.7L78.4-29.6z M97.6-44.8c0-2.4-1.4-3.8-3.4-3.8c-3.3,0-5.8,4.8-5.7,9.1c0,1.9,1.3,3.6,3.4,3.6
			C95-35.8,97.7-40.1,97.6-44.8z"/>
	</g>
	<g>
		<path d="M40.4-27.5c0,0.7-0.2,1.3-0.5,1.7c-0.4,0.4-0.9,0.6-1.6,0.6H38v2.5h-1.3v-6.8h1.7C39.8-29.6,40.4-28.9,40.4-27.5z
			 M38-26.4h0.2c0.3,0,0.5-0.1,0.7-0.3s0.2-0.4,0.2-0.8c0-0.4-0.1-0.6-0.2-0.8s-0.4-0.3-0.6-0.3H38C38-28.5,38-26.4,38-26.4z"/>
		<path d="M41.3-22.8v-6.8h1.3v5.7h1.7v1.1H41.3z"/>
		<path d="M48.7-22.8l-0.4-1.7h-1.8l-0.4,1.7h-1.3l1.7-6.8h1.7l1.7,6.8H48.7z M48-25.7l-0.4-1.6c0-0.1-0.1-0.3-0.1-0.7
			c-0.1-0.4-0.1-0.6-0.1-0.8c0,0.3-0.1,0.6-0.2,0.9c-0.1,0.3-0.2,1.1-0.5,2.2C46.7-25.7,48-25.7,48-25.7z"/>
		<path d="M52.2-22.8H51v-5.7h-1.3v-1.1h3.9v1.1h-1.3C52.2-28.5,52.2-22.8,52.2-22.8z"/>
		<path d="M55.5-22.8h-1.3v-6.8h3v1.1h-1.8v1.9h1.7v1.1h-1.7C55.5-25.6,55.5-22.8,55.5-22.8z"/>
		<path d="M62.8-26.2c0,1.1-0.2,2-0.6,2.6c-0.4,0.6-1,0.9-1.8,0.9c-0.8,0-1.4-0.3-1.8-0.9c-0.4-0.6-0.6-1.5-0.6-2.6
			c0-1.1,0.2-2,0.6-2.6c0.4-0.6,1-0.9,1.8-0.9c0.8,0,1.4,0.3,1.8,0.9C62.6-28.2,62.8-27.4,62.8-26.2z M59.2-26.2
			c0,0.8,0.1,1.4,0.3,1.8c0.2,0.4,0.5,0.6,0.9,0.6c0.8,0,1.1-0.8,1.1-2.4s-0.4-2.4-1.1-2.4c-0.4,0-0.7,0.2-0.9,0.6
			C59.3-27.6,59.2-27,59.2-26.2z"/>
		<path d="M65-25.5v2.6h-1.3v-6.8h1.6c0.7,0,1.2,0.2,1.5,0.5c0.3,0.3,0.5,0.8,0.5,1.5c0,0.9-0.3,1.5-0.9,1.8l1.3,3h-1.4l-1.1-2.6H65
			z M65-26.6h0.3c0.3,0,0.5-0.1,0.6-0.3c0.1-0.2,0.2-0.4,0.2-0.8c0-0.3-0.1-0.6-0.2-0.7c-0.1-0.1-0.3-0.2-0.6-0.2h-0.3L65-26.6
			L65-26.6z"/>
		<path d="M71.3-22.8L70-28.6h0c0.1,0.4,0.1,0.9,0.1,1.2v4.6h-1.2v-6.8h1.9l1.2,5.3h0l1.2-5.3h2v6.8h-1.2v-4.6c0-0.4,0-0.8,0.1-1.2
			h0l-1.3,5.8H71.3z"/>
	</g>
</g>
<g>
	<path d="M51.2,47.7v-7.8c0-0.6-0.4-0.8-0.9-0.8c-1,0-2.1,0.2-3.2,0.7v7.9h-2.2V33.2h2.2V38c1-0.4,2.3-0.7,3.5-0.7
		c2,0,2.7,1.2,2.7,2.9v7.5H51.2L51.2,47.7z M57.5,43c0.1,2.6,0.6,3.1,2.2,3.1c1.3,0,2.7-0.4,3.8-0.8l0.4,1.6c-1.2,0.5-2.6,1-4.3,1
		c-3.7,0-4.2-2-4.2-5.2c0-1.8,0.1-3.4,0.6-4.8c1.1-0.4,2.6-0.6,4.4-0.6c3,0,3.9,1.7,3.9,4.6V43H57.5L57.5,43z M60.2,39.1
		c-0.7,0-1.7,0-2.6,0.2c-0.1,0.4-0.2,1-0.2,2.2H62C62,40,61.7,39.1,60.2,39.1L60.2,39.1z M68.3,39.8v7.9h-2.2v-8.9
		c1.9-1,3.8-1.3,5.1-1.4v1.8C70.3,39.4,69.1,39.5,68.3,39.8L68.3,39.8z M77,48c-3.3,0-4.8-1.6-4.8-5.3c0-3.9,2-5.4,4.8-5.4
		c3.3,0,4.8,1.6,4.8,5.3C81.8,46.5,79.8,48,77,48L77,48z M77,39.1c-1.7,0-2.6,1-2.6,3.6c0,2.8,0.8,3.4,2.6,3.4c1.7,0,2.6-1,2.6-3.5
		C79.6,39.8,78.8,39.1,77,39.1L77,39.1z M92.4,47.7h-2.6c-0.6-1.6-1.4-3.3-2.7-4.7h-1.2v4.7h-2.2V33.2h2.2v8.3h1
		c1.1-1.2,2-2.6,2.6-4H92c-0.8,1.7-1.9,3.2-3.1,4.4C90.3,43.8,91.4,45.8,92.4,47.7L92.4,47.7z M96.5,48c-2,0-2.7-1.2-2.7-2.9v-7.5
		h2.2v7.8c0,0.6,0.4,0.8,0.9,0.8c1,0,2.3-0.2,3.3-0.7v-7.9h2.2v8.8C99.7,47.8,97.7,48,96.5,48L96.5,48z"/>
	<path class="st0" d="M37.7,53.1H22.4c-1.3,0-2.4-1.1-2.4-2.4V30.6c0-1.3,1.1-2.4,2.4-2.4h15.3c1.3,0,2.4,1.1,2.4,2.4v20.1
		C40,52,39,53.1,37.7,53.1L37.7,53.1z M39.2,30.7c0-0.9-0.8-1.7-1.7-1.7h-15c-0.9,0-1.7,0.8-1.7,1.7v19.9c0,0.9,0.8,1.7,1.7,1.7h15
		c0.9,0,1.7-0.8,1.7-1.7V30.7L39.2,30.7z"/>
	<path d="M32.6,49.7v-9.9c0,0,0.6-2.4-7.9,1c0,0,0-9.1,0-9.1l2.8,0v5.9c0,0,7.8-3.1,7.8,2.3c0,5.4,0,9.8,0,9.8H32.6L32.6,49.7z
		 M34.2,35.2c0,0-2.9,0-3,0c1.1-1.3,2-3.5,2-3.5h3.1C36.3,31.6,35.8,33.1,34.2,35.2L34.2,35.2z M24.7,49.7V44l2.8,2.8L24.7,49.7
		L24.7,49.7z"/>
</g>
<g>
	<path d="M156.8-41.3h-6.9c-0.2,0-0.3,0.1-0.3,0.3v3.4c0,0.2,0.1,0.3,0.3,0.3h2.7v4.2c0,0-0.6,0.2-2.3,0.2c-2,0-4.8-0.7-4.8-6.8
		c0-6.1,2.9-6.9,5.6-6.9c2.3,0,3.4,0.4,4,0.6c0.2,0.1,0.4-0.1,0.4-0.3l0.8-3.3c0-0.1,0-0.2-0.1-0.3c-0.3-0.2-1.9-1.1-5.9-1.1
		c-4.6,0-9.4,2-9.4,11.4c0,9.5,5.4,10.9,10,10.9c3.8,0,6.1-1.6,6.1-1.6c0.1-0.1,0.1-0.2,0.1-0.2V-41C157.1-41.1,157-41.3,156.8-41.3
		z"/>
	<path d="M192.5-49.7c0-0.2-0.1-0.3-0.3-0.3h-3.9c-0.2,0-0.3,0.1-0.3,0.3c0,0,0,7.6,0,7.6h-6.1v-7.6c0-0.2-0.1-0.3-0.3-0.3h-3.9
		c-0.2,0-0.3,0.1-0.3,0.3v20.4c0,0.2,0.1,0.3,0.3,0.3h3.9c0.2,0,0.3-0.1,0.3-0.3V-38h6.1c0,0,0,8.7,0,8.7c0,0.2,0.1,0.3,0.3,0.3h3.9
		c0.2,0,0.3-0.1,0.3-0.3V-49.7z"/>
	<g>
		<g>
			<ellipse cx="161.6" cy="-47" rx="2.5" ry="2.5"/>
			<path d="M163.9-33.6c0-0.5,0-9.4,0-9.4c0-0.2-0.1-0.3-0.3-0.3h-3.9c-0.2,0-0.3,0.2-0.3,0.4c0,0,0,11.4,0,13.5
				c0,0.4,0.2,0.5,0.6,0.5c0,0,1.7,0,3.5,0c0.4,0,0.5-0.2,0.5-0.5C163.9-30.2,163.9-33,163.9-33.6z"/>
		</g>
	</g>
	<path d="M207.4-43.3h-3.9c-0.2,0-0.3,0.1-0.3,0.3v10c0,0-1,0.7-2.4,0.7c-1.4,0-1.8-0.6-1.8-2c0-1.4,0-8.7,0-8.7
		c0-0.2-0.1-0.3-0.3-0.3h-3.9c-0.2,0-0.3,0.1-0.3,0.3c0,0,0,5.3,0,9.4c0,4.1,2.3,5.1,5.4,5.1c2.6,0,4.6-1.4,4.6-1.4s0.1,0.7,0.1,0.8
		c0,0.1,0.2,0.2,0.3,0.2l2.5,0c0.2,0,0.3-0.1,0.3-0.3l0-13.7C207.7-43.2,207.6-43.3,207.4-43.3z"/>
	<path d="M218-43.8c-2.2,0-3.7,1-3.7,1v-6.9c0-0.2-0.1-0.3-0.3-0.3h-3.9c-0.2,0-0.3,0.1-0.3,0.3v20.4c0,0.2,0.1,0.3,0.3,0.3
		c0,0,2.7,0,2.7,0c0.1,0,0.2-0.1,0.3-0.2c0.1-0.1,0.2-0.9,0.2-0.9s1.6,1.5,4.6,1.5c3.6,0,5.6-1.8,5.6-8.1
		C223.5-42.9,220.2-43.8,218-43.8z M216.5-32.2c-1.3,0-2.3-0.7-2.3-0.7v-6.5c0,0,0.9-0.6,2-0.7c1.4-0.1,2.7,0.3,2.7,3.6
		C219-32.9,218.3-32.2,216.5-32.2z"/>
	<path d="M175.1-43.3h-2.9c0,0,0-3.9,0-3.9c0-0.1-0.1-0.2-0.2-0.2h-4c-0.2,0-0.2,0.1-0.2,0.2v4c0,0-2,0.5-2.1,0.5
		c-0.1,0-0.2,0.2-0.2,0.3v2.5c0,0.2,0.1,0.3,0.3,0.3h2c0,0,0,2.6,0,6c0,4.5,3.2,4.9,5.3,4.9c1,0,2.1-0.3,2.3-0.4
		c0.1,0,0.2-0.2,0.2-0.3l0-2.8c0-0.2-0.2-0.3-0.3-0.3c-0.2,0-0.6,0.1-1.1,0.1c-1.4,0-1.9-0.7-1.9-1.5c0-0.9,0-5.7,0-5.7h2.9
		c0.2,0,0.3-0.1,0.3-0.3V-43C175.4-43.2,175.3-43.3,175.1-43.3z"/>
</g>
<g id="Logotype">
	<path d="M147.4,36c-1.5,0-2.7,0.4-3.5,1l0,0c-0.4-0.7-1.2-1.1-2.2-1.1c-1.6,0-2.3,0.4-2.3,1.2c0,0.5,0.1,0.7,0.2,1.1h1.2
		c0.5,0,0.8,0.2,0.8,0.9h0v8.7c0,0.2,0.2,0.4,0.4,0.4h1.6c0.2,0,0.4-0.2,0.4-0.4v-6.7c0-1.9,1-2.8,3-2.8c1.2,0,1.6,0.2,1.8,0.4
		c0.2,0.2,0.4,0.6,0.4,1.6v7.6c0,0.2,0.2,0.4,0.4,0.4h1.6c0.2,0,0.4-0.2,0.4-0.4v-7.3c0-1.7-0.3-2.9-1-3.5
		C150.3,36.3,149.1,36,147.4,36z"/>
	<path d="M158.9,36c-2.2,0-3.6,0.4-4.3,1.2c-0.7,0.8-1,2.4-1,5c0,2.5,0.3,4.2,1,5c0.7,0.8,2.1,1.2,4.3,1.2c2.2,0,3.7-0.4,4.4-1.2
		c0.7-0.8,1-2.4,1-5c0-2.5-0.3-4.2-1-5C162.6,36.4,161.1,36,158.9,36z M161.3,45.7c-0.1,0.2-0.6,0.5-2.4,0.5c-1.7,0-2.2-0.3-2.4-0.5
		c-0.2-0.2-0.4-1-0.4-3.4c0-2.5,0.3-3.2,0.4-3.4c0.1-0.2,0.6-0.5,2.4-0.5c1.7,0,2.2,0.3,2.4,0.5c0.2,0.2,0.4,1,0.4,3.4
		C161.7,44.7,161.4,45.5,161.3,45.7z"/>
	<path d="M188.6,44h-1.7c-0.2,0-0.4,0.2-0.4,0.4v0.4c0,0.4-0.1,0.9-0.4,1.1c-0.2,0.1-0.7,0.3-2.4,0.3c-1.6,0-2.2-0.4-2.3-0.6
		c-0.2-0.2-0.4-0.8-0.5-2.7h7.6c0.2,0,0.4-0.2,0.4-0.4v-0.9c0-2.3-0.4-3.7-1.1-4.5c-0.7-0.8-2.2-1.1-4.4-1.1c-2,0-3.4,0.4-4.1,1.3
		c-0.7,0.9-1.1,2.4-1.1,4.8c0,2.5,0.4,4.2,1.1,5c0.7,0.9,2.2,1.3,4.4,1.3c1.9,0,3.2-0.3,4-0.8c0.8-0.5,1.3-1.5,1.3-2.8l0-0.4
		C189,44.2,188.9,44,188.6,44z M181.5,38.8c0.2-0.2,0.7-0.5,2.3-0.5c1.6,0,2.1,0.3,2.3,0.4c0.2,0.2,0.5,0.6,0.5,2.1l0,0.1H181
		C181.1,39.4,181.3,38.9,181.5,38.8z"/>
	<path d="M192.7,36.2h-1.6c-0.2,0-0.4,0.2-0.4,0.4v12.2c0,0.9-0.1,1.3-0.2,1.4l-0.2,0.1h-1.3c-0.7,0.4-1.1,2.2,1.3,2.2l0,0
		c0.1,0,0.1,0,0.2,0c1.3,0,2.7-0.6,2.7-3.2V36.6C193.1,36.4,192.9,36.2,192.7,36.2z"/>
	<path d="M197.2,36.2h-1.6c-0.2,0-0.4,0.2-0.4,0.4v11.2c0,0.2,0.2,0.4,0.4,0.4h1.6c0.2,0,0.4-0.2,0.4-0.4V36.6
		C197.6,36.4,197.4,36.2,197.2,36.2z"/>
	<path d="M214,41.1l-3-0.2c-0.9,0-1.2-0.5-1.2-1.4c0-0.8,0.2-1,0.3-1.1c0.1-0.1,0.6-0.2,2.1-0.2c1.7,0,2.1,0.2,2.2,0.2
		c0.1,0.1,0.3,0.4,0.3,1.1c0,0.2,0.2,0.4,0.4,0.4h1.6c0.2,0,0.4-0.2,0.4-0.4v-0.4c0-2.1-1.6-3.1-4.9-3.1c-2,0-3.3,0.2-4,0.7
		c-0.7,0.5-1.1,1.5-1.1,2.9c0,1.5,0.5,2.5,1.4,3c0.9,0.5,2.5,0.7,5.1,0.7c0.6,0,1.2,0.2,1.2,1.3c0,0.7-0.1,1.1-0.4,1.2
		c-0.2,0.1-0.8,0.3-2.4,0.3c-1.3,0-1.8-0.2-2-0.3c-0.2-0.2-0.4-0.5-0.4-1.1l0-0.5c0-0.2-0.2-0.4-0.4-0.4h-1.7
		c-0.2,0-0.4,0.2-0.4,0.4l0,0.6c0,1.3,0.4,2.3,1.2,2.8c0.8,0.5,2.1,0.7,4,0.7c1.9,0,3.2-0.3,3.9-0.8c0.8-0.6,1.2-1.5,1.2-2.9
		C217.4,42.4,216.2,41.2,214,41.1z"/>
	<path d="M230.2,46.1h-0.7c-0.5,0-0.8-0.2-0.8-0.9v-8.6c0-0.2-0.2-0.4-0.4-0.4h-1.6c-0.2,0-0.4,0.2-0.4,0.4v6.4
		c0,1.2-0.2,2.1-0.6,2.5c-0.4,0.4-1.2,0.6-2.3,0.6c-1.1,0-1.5-0.2-1.7-0.4c-0.1-0.1-0.4-0.6-0.4-1.7v-7.5c0-0.2-0.2-0.4-0.4-0.4
		h-1.6c-0.2,0-0.4,0.2-0.4,0.4v7.5c0,2.8,1.5,4.3,4.4,4.3c1.4,0,2.4-0.3,3.2-0.9l0.1-0.2c0.3,0.7,0.8,1,1.7,1c1.6,0,2.3-0.4,2.3-1.2
		C230.4,46.7,230.3,46.4,230.2,46.1z"/>
	<path d="M177,46.1c-0.4,0-0.7-0.2-0.8-0.7V34.1c0-0.2-0.2-0.4-0.4-0.4h-1.6c-0.2,0-0.4,0.2-0.4,0.4v2.7c-0.7-0.5-1.8-0.8-3.3-0.8
		c-1.8,0-3,0.5-3.7,1.4c-0.7,0.9-1,2.4-1,4.6c0,2.4,0.3,4,1,4.9c0.7,0.9,2,1.4,3.9,1.4c1.4,0,2.4-0.3,3.1-0.8l0.2-0.1
		c0.3,0.6,0.8,1,1.7,1c1.6,0,2.3-0.4,2.3-1.2c0-0.5-0.1-0.7-0.2-1.1H177z M170.8,46.2c-1.1,0-1.8-0.2-2.1-0.7
		c-0.2-0.4-0.5-1.2-0.5-3.5c0-2,0.3-2.8,0.5-3.1c0.3-0.4,1-0.7,2.1-0.7c1.1,0,1.9,0.2,2.3,0.7c0.3,0.3,0.6,1.1,0.6,3
		c0,2.3-0.3,3.3-0.5,3.6C172.8,46,172,46.2,170.8,46.2z"/>
	<path d="M205.6,36.2h-1.2h-0.6h-0.7v-2.3c0-0.2-0.2-0.4-0.4-0.4h-1.6c-0.2,0-0.4,0.2-0.4,0.4v2.3h-1.1c-0.2,0-0.4,0.2-0.4,0.4V38
		c0,0.2,0.2,0.4,0.4,0.4h1.1v6.8c0,1.4,0.6,3.2,3.6,3.2l0,0c0,0,0,0,0,0c0,0,0,0,0,0c0,0,0,0,0,0c2.3-0.1,1.9-1.8,1.2-2.2h-1.5
		c-0.5-0.1-0.9-0.3-0.9-1.3v-6.4h1.1l0,0C206.7,38.4,206.3,36.6,205.6,36.2z"/>
</g>
<image style="overflow:visible;" width="850" height="567" xlink:href="../../../../../../Dropbox/harp.io/apps/chloi.harp.io/public/images/open/cordova.png"  transform="matrix(0.1431 0 0 0.1431 243 -81)">
</image>
<image style="overflow:visible;" width="850" height="567" xlink:href="../../../../../../Dropbox/harp.io/apps/chloi.harp.io/public/images/open/cordova.png"  transform="matrix(0.1431 0 0 0.1431 243 -81)">
</image>
<g>
	<g>
		<path d="M328.6,32.9c2.6,0,4,1.4,4.7,2.4c0.9,1.4,1.4,3.1,1.4,5.6c0,2.9-0.7,4.7-2.2,6.1c-1.1,1-2.3,1.4-3.8,1.4
			c-1.8,0-3.3-0.7-4.3-1.9c-1.2-1.4-1.8-3.4-1.8-5.9C322.6,35.8,324.9,32.9,328.6,32.9z M328.6,34.4c-1.4,0-2.6,0.7-3.2,1.8
			c-0.5,1-0.8,2.3-0.8,4.1c0,2.3,0.4,4.2,1,5.2c0.6,1,2,1.6,3.2,1.6c1.2,0,2.1-0.4,2.8-1.3c0.7-0.9,1.1-2.1,1.1-4.6
			c0-2.2-0.2-3.7-0.7-4.8C331.4,35.3,330.3,34.4,328.6,34.4z"/>
		<path d="M345.3,34.3l-0.8,1.3c-1.4-0.9-2.4-1.3-3.7-1.3c-1.9,0-3,0.9-3,2.5c0,1.2,0.7,1.9,2.5,2.4l1.7,0.5c1.3,0.4,2,0.8,2.6,1.5
			c0.6,0.7,1,1.7,1,2.6c0,1.4-0.7,2.8-2.1,3.6c-1,0.6-2,0.9-3.4,0.9c-1.8,0-3.3-0.4-4.8-1.4l0.8-1.4c1.2,0.9,2.5,1.3,4,1.3
			c1.1,0,1.7-0.2,2.4-0.7c0.7-0.5,1.1-1.3,1.1-2.1c0-1.3-0.9-2.3-2.7-2.8l-1.5-0.5c-1.4-0.4-2.1-0.7-2.7-1.3
			c-0.6-0.7-0.9-1.5-0.9-2.4c0-2.6,1.9-4.3,4.9-4.3C342.4,32.8,343.9,33.3,345.3,34.3z"/>
		<path d="M269.8,35h-5.3v4.2h4.3v2.1h-4.3v7.1h-2.6V32.9h8.2L269.8,35z"/>
		<path d="M271.2,33.7c0-0.9,0.7-1.7,1.6-1.7c0.9,0,1.6,0.7,1.6,1.7c0,0.9-0.7,1.6-1.7,1.6C271.9,35.4,271.2,34.6,271.2,33.7z"/>
		<polygon points="271.6,48.5 271.6,37.3 274,36.8 274,48.5 		"/>
		<path d="M281.7,39.2c-0.2-0.1-0.4-0.2-0.7-0.2c-1,0-1.9,0.8-2.1,1.7v7.7h-2.5v-8c0-1.4-0.2-2.4-0.4-3.1l2.3-0.6
			c0.3,0.5,0.4,1.2,0.4,1.8c0.9-1.2,1.8-1.8,2.9-1.8c0.4,0,0.6,0,0.9,0.2L281.7,39.2z"/>
		<path d="M284.9,43.4v0.2c0,1.6,0.6,3.2,2.8,3.2c1.1,0,2-0.4,2.8-1.1l1,1.5c-1.2,1-2.6,1.5-4.1,1.5c-3.2,0-5.2-2.3-5.2-6
			c0-2,0.4-3.3,1.4-4.5c0.9-1.1,2-1.5,3.5-1.5c1.1,0,2.2,0.3,3.1,1.2c1,0.9,1.5,2.3,1.5,5v0.5H284.9z M287.1,38.7
			c-1.4,0-2.2,1.1-2.2,2.9h4.2C289.1,39.8,288.3,38.7,287.1,38.7z"/>
		<path d="M298.7,34.1c-0.6-0.3-0.9-0.4-1.4-0.4c-0.9,0-1.4,0.6-1.4,1.6v1.7h3l-0.6,1.7H296v9.7h-2.5v-9.7h-1.1v-1.7h1.1
			c0,0-0.1-0.6-0.1-1.7c0-2.4,1.4-3.5,3.5-3.5c1,0,1.8,0.2,2.6,0.7L298.7,34.1z"/>
		<path d="M308.6,42.8c0,3.7-2,5.9-5,5.9c-3.1,0-5-2.3-5-6c0-3.6,2-6,5-6C306.8,36.8,308.6,39.2,308.6,42.8z M301.3,42.6
			c0,3.3,0.8,4.3,2.3,4.3c1.5,0,2.3-1.2,2.3-4c0-3.2-0.9-4.2-2.3-4.2C302,38.7,301.3,39.9,301.3,42.6z"/>
		<path d="M316,48.5c-0.4-0.7-2.3-3.8-2.5-4.3c-0.4,0.9-2.1,3.6-2.5,4.3H308l4.2-6.2l-3.3-4.9l2.7-0.5c0.5,0.9,1.5,2.6,2.1,3.7
			c0.3-0.7,1.5-3,1.8-3.5h2.9l-3.4,5.2l4.2,6.2H316z"/>
	</g>
</g>
<g>
</g>
<g>
</g>
<g>
</g>
<g>
</g>
<g>
</g>
<g>
</g>
<g>
</g>
<g>
</g>
<g>
</g>
<g>
</g>
<g>
</g>
<g>
</g>
<g>
</g>
<g>
</g>
<g>
</g>
</svg>
