<?xml version="1.0" encoding="utf-8"?>
<!-- Generator: Adobe Illustrator 17.1.0, SVG Export Plug-In . SVG Version: 6.00 Build 0)  -->
<!DOCTYPE svg PUBLIC "-//W3C//DTD SVG 1.1//EN" "http://www.w3.org/Graphics/SVG/1.1/DTD/svg11.dtd">
<svg version="1.1" id="Layer_1" xmlns="http://www.w3.org/2000/svg" xmlns:xlink="http://www.w3.org/1999/xlink" x="0px" y="0px"
	 viewBox="0 0 121.7 81.3" style="enable-background:new 0 0 121.7 81.3;" xml:space="preserve">
<g>
	<path d="M-98.2,45.3c0-1.4-0.9-2.9-3.5-3v-3.5c2.6-0.1,3.5-1.6,3.5-3c0-2.5-0.4-4.1-0.4-7c0-4.4,1.6-5.8,5.2-5.8h9.6v3.2h-7.8
		c-1.7,0-2.2,0.6-2.2,2.8c0,2.2,0.2,4.2,0.2,6.6c0,3.1-1,4.3-3,4.8v0.2c2,0.5,3,1.7,3,4.8c0,2.5-0.2,4.4-0.2,6.6
		c0,2.2,0.5,2.9,2.2,2.9h0.8V58h-2.6c-3.6,0-5.2-1.4-5.2-5.8C-98.6,49.3-98.2,47.8-98.2,45.3z"/>
	<path d="M-89.8,23.3h6v22.5c0,1.3,0.6,1.7,1.1,1.7c0.2,0,0.4,0,0.7-0.1l0.7,4.4c-0.7,0.3-1.7,0.5-3,0.5c-4.1,0-5.5-2.7-5.5-6.8
		V23.3z"/>
	<path d="M-72.9,31.1c5.7,0,8.6,4.2,8.6,9.7c0,1.1-0.1,2-0.2,2.5h-12.1c0.5,3.1,2.6,4.4,5.3,4.4c1.5,0,2.9-0.4,4.4-1.3l2,3.6
		c-2.1,1.4-4.8,2.3-7.2,2.3c-5.8,0-10.2-3.9-10.2-10.6C-82.4,35.2-77.7,31.1-72.9,31.1z M-69.4,39.6c0-2.3-1-4-3.4-4
		c-1.9,0-3.5,1.3-3.9,4H-69.4z"/>
	<path d="M-60.9,45.8c1.8,1.4,3.5,2.1,5.2,2.1c1.8,0,2.6-0.7,2.6-1.7c0-1.3-2-2-4.1-2.8c-2.4-0.9-5.3-2.6-5.3-5.9
		c0-3.7,3.1-6.3,7.7-6.3c3.1,0,5.4,1.3,7.1,2.6l-2.7,3.6c-1.5-1.1-2.8-1.7-4.3-1.7c-1.5,0-2.3,0.6-2.3,1.6c0,1.3,1.9,1.8,4,2.6
		c2.6,0.9,5.5,2.4,5.5,6.1c0,3.7-2.9,6.5-8.3,6.5c-2.6,0-5.7-1.1-7.7-2.8L-60.9,45.8z"/>
	<path d="M-44.4,45.8c1.8,1.4,3.5,2.1,5.2,2.1c1.8,0,2.6-0.7,2.6-1.7c0-1.3-2-2-4.1-2.8c-2.4-0.9-5.3-2.6-5.3-5.9
		c0-3.7,3.1-6.3,7.7-6.3c3.1,0,5.4,1.3,7.1,2.6l-2.7,3.6c-1.5-1.1-2.8-1.7-4.3-1.7c-1.5,0-2.3,0.6-2.3,1.6c0,1.3,1.9,1.8,3.9,2.6
		c2.6,0.9,5.5,2.4,5.5,6.1c0,3.7-2.9,6.5-8.3,6.5c-2.6,0-5.7-1.1-7.7-2.8L-44.4,45.8z"/>
	<path d="M-29.7,54.8c1.7,0,2.2-0.6,2.2-2.9c0-2.2-0.2-4.2-0.2-6.6c0-3.1,1-4.3,3-4.8v-0.2c-2-0.5-3-1.7-3-4.8
		c0-2.4,0.2-4.5,0.2-6.6c0-2.2-0.4-2.8-2.2-2.8h-0.8V23h2.6c3.6,0,5.2,1.4,5.2,5.8c0,2.8-0.4,4.4-0.4,7c0,1.4,0.9,2.9,3.5,3v3.5
		c-2.6,0.1-3.5,1.6-3.5,3c0,2.6,0.4,4.1,0.4,7c0,4.4-1.6,5.8-5.2,5.8h-2.6v-3.2H-29.7z"/>
</g>
<g>
	<g>
		<path d="M210,60.4h-55.4c-2.6,0-4.7-2.1-4.7-4.7V25.3c0-2.6,2.1-4.7,4.7-4.7H210c2.6,0,4.7,2.1,4.7,4.7v30.5
			C214.7,58.3,212.6,60.4,210,60.4z M154.6,23.7c-0.9,0-1.6,0.7-1.6,1.6v30.5c0,0.9,0.7,1.6,1.6,1.6H210c0.9,0,1.6-0.7,1.6-1.6V25.3
			c0-0.9-0.7-1.6-1.6-1.6H154.6z"/>
	</g>
	<g>
		<path d="M159.3,51.1V29.9h6.2l6.2,7.8l6.2-7.8h6.2v21.2H178V38.9l-6.2,7.8l-6.2-7.8v12.1H159.3z"/>
	</g>
	<g>
		<path d="M198.2,51.1l-9.3-10.3h6.2V29.9h6.2v10.9h6.2L198.2,51.1z"/>
	</g>
</g>
<path d="M-28.4,126.1c-2.5,0-4.7,0.6-6.6,1.5c-0.7-1.3-1.4-2.5-1.5-3.4c-0.1-1-0.3-1.6-0.1-2.9c0.2-1.2,0.9-3,0.9-3.1
	c0-0.1-0.2-0.8-1.6-0.8c-1.5,0-2.7,0.3-2.9,0.7c-0.1,0.4-0.4,1.3-0.6,2.2c-0.3,1.3-2.9,6.1-4.4,8.6c-0.5-1-0.9-1.8-1-2.5
	c-0.1-1-0.3-1.6-0.1-2.9c0.2-1.2,0.9-3,0.9-3.1c0-0.1-0.2-0.8-1.6-0.8c-1.5,0-2.7,0.3-2.9,0.7c-0.1,0.4-0.3,1.3-0.6,2.2
	c-0.3,0.9-3.9,8.8-4.8,10.8c-0.5,1-0.9,1.9-1.2,2.5c0,0,0,0,0,0s0,0,0,0.1c-0.2,0.5-0.4,0.8-0.4,0.8s0,0,0,0
	c-0.2,0.4-0.4,0.7-0.5,0.7c-0.1,0-0.2-1,0-2.3c0.5-2.7,1.8-7,1.8-7.2c0-0.1,0.2-0.8-0.8-1.2c-1-0.4-1.4,0.3-1.5,0.3
	c-0.1,0-0.2,0.2-0.2,0.2s1.2-4.8-2.2-4.8c-2.1,0-5,2.3-6.4,4.4c-0.9,0.5-2.8,1.5-4.9,2.7c-0.8,0.4-1.6,0.9-2.4,1.3
	c-0.1-0.1-0.1-0.1-0.2-0.2c-4.1-4.3-11.6-7.4-11.3-13.2c0.1-2.1,0.9-7.7,14.4-14.5c11.1-5.5,20-4,21.6-0.6
	c2.2,4.8-4.8,13.8-16.3,15.1c-4.4,0.5-6.7-1.2-7.3-1.8c-0.6-0.7-0.7-0.7-0.9-0.6c-0.4,0.2-0.1,0.8,0,1.1c0.3,0.9,1.8,2.5,4.2,3.3
	c2.1,0.7,7.3,1.1,13.5-1.3c7-2.7,12.5-10.2,10.9-16.5c-1.6-6.4-12.3-8.5-22.3-4.9c-6,2.1-12.5,5.5-17.1,9.8
	c-5.5,5.2-6.4,9.7-6.1,11.6c1.3,6.7,10.5,11,14.2,14.3c-0.2,0.1-0.4,0.2-0.5,0.3c-1.9,0.9-8.9,4.6-10.6,8.5c-2,4.4,0.3,7.6,1.8,8
	c4.7,1.3,9.6-1.1,12.2-5c2.6-3.9,2.3-9,1.1-11.3c0,0,0-0.1,0-0.1c0.5-0.3,1-0.6,1.4-0.9c0.9-0.6,1.9-1.1,2.7-1.5
	c-0.4,1.2-0.8,2.7-0.9,4.8c-0.2,2.5,0.8,5.7,2.2,7c0.6,0.6,1.3,0.6,1.8,0.6c1.6,0,2.3-1.3,3.1-2.8c1-1.9,1.8-4.1,1.8-4.1
	s-1.1,5.9,1.8,5.9c1.1,0,2.1-1.4,2.6-2.1c0,0,0,0,0,0s0,0,0.1-0.1c0.1-0.2,0.2-0.3,0.2-0.3s0,0,0,0c0.4-0.7,1.4-2.4,2.8-5.2
	c1.8-3.6,3.6-8.1,3.6-8.1s0.2,1.1,0.7,2.9c0.3,1.1,1,2.3,1.5,3.4c-0.4,0.6-0.7,0.9-0.7,0.9s0,0,0,0c-0.3,0.5-0.7,0.9-1.1,1.4
	c-1.5,1.7-3.2,3.7-3.4,4.3c-0.3,0.7-0.2,1.2,0.3,1.6c0.4,0.3,1.1,0.3,1.8,0.3c1.3-0.1,2.2-0.4,2.7-0.6c0.7-0.2,1.5-0.6,2.3-1.2
	c1.4-1,2.3-2.5,2.2-4.5c0-1.1-0.4-2.2-0.8-3.2c0.1-0.2,0.3-0.4,0.4-0.6c2.2-3.3,4-6.9,4-6.9s0.2,1.1,0.7,2.9
	c0.3,0.9,0.8,1.9,1.3,2.9c-2.1,1.7-3.4,3.7-3.9,5c-0.8,2.4-0.2,3.5,1.1,3.8c0.6,0.1,1.3-0.1,1.9-0.4c0.7-0.2,1.6-0.7,2.5-1.3
	c1.4-1,2.8-2.5,2.7-4.5c0-0.9-0.3-1.8-0.6-2.7c1.8-0.7,4.1-1.2,7.1-0.8c6.3,0.7,7.6,4.7,7.3,6.3c-0.2,1.7-1.6,2.6-2,2.8
	c-0.4,0.3-0.6,0.4-0.5,0.6c0.1,0.3,0.3,0.3,0.6,0.2c0.5-0.1,3.3-1.3,3.4-4.4C-18.2,130.3-21.9,126-28.4,126.1z M-77.2,142.5
	c-2.1,2.3-5,3.1-6.3,2.4c-1.4-0.8-0.8-4.2,1.8-6.6c1.6-1.5,3.6-2.8,4.9-3.7c0.3-0.2,0.8-0.5,1.3-0.8c0.1-0.1,0.1-0.1,0.1-0.1l0,0
	c0.1-0.1,0.2-0.1,0.3-0.2C-74.1,137.1-75,140.1-77.2,142.5z M-61.9,132.1c-0.7,1.8-2.3,6.3-3.2,6.1c-0.8-0.2-1.3-3.7-0.2-7.1
	c0.6-1.7,1.8-3.8,2.5-4.6c1.1-1.3,2.4-1.7,2.7-1.2C-59.7,126.1-61.5,131-61.9,132.1z M-49.3,138.2c-0.3,0.2-0.6,0.3-0.7,0.2
	c-0.1-0.1,0.1-0.3,0.1-0.3s1.6-1.7,2.2-2.5c0.4-0.4,0.8-1,1.2-1.6c0,0.1,0,0.1,0,0.2C-46.5,136.2-48.4,137.6-49.3,138.2z
	 M-39.6,135.9c-0.2-0.2-0.2-0.7,0.6-2.3c0.3-0.6,1-1.7,2.2-2.8c0.1,0.4,0.2,0.8,0.2,1.2C-36.7,134.6-38.5,135.5-39.6,135.9z"/>
<g>
	<path d="M36.7,116.2c0.7,0,1.3,0.1,1.7,0.3c0.4,0.2,0.7,0.4,0.7,0.7c0,0.4-0.1,0.8-0.3,1.2c-0.2,0.5-0.4,0.8-0.5,1.1
		c-0.1,0.1-0.1,0.1-0.2,0c-0.1,0-0.1-0.1-0.1-0.3c0.1-0.2,0.1-0.6,0.1-1c0-0.5-0.1-0.8-0.4-1.1c-0.2-0.3-0.6-0.4-1-0.4
		c-0.6,0-1,0.2-1.3,0.5c-0.3,0.3-0.5,0.8-0.5,1.4c0,0.5,0.1,1,0.4,1.5c0.3,0.5,0.6,0.9,0.9,1.4c0.3,0.5,0.7,1,1,1.5
		c0.3,0.5,0.4,1.1,0.4,1.8c0,1.2-0.5,2.1-1.4,2.7c-0.9,0.7-2.2,1-3.7,1c-1.1,0-2-0.2-2.6-0.5c-0.6-0.4-1-0.7-1-1.2
		c0-0.1,0-0.3,0.1-0.5c0.1-0.2,0.2-0.5,0.4-0.7c0.2-0.3,0.3-0.5,0.5-0.8c0.2-0.3,0.4-0.5,0.6-0.6c0.1-0.1,0.2,0,0.3,0
		c0.1,0.1,0.1,0.2,0,0.3c-0.2,0.2-0.3,0.4-0.4,0.6c-0.1,0.2-0.1,0.5-0.1,0.9c0,0.6,0.2,1.1,0.6,1.4c0.4,0.4,0.9,0.6,1.5,0.6
		c0.8,0,1.5-0.2,2-0.7c0.5-0.5,0.7-1,0.7-1.7c0-0.6-0.1-1.2-0.4-1.7c-0.3-0.5-0.6-1.1-0.9-1.6c-0.3-0.5-0.6-1-0.9-1.5
		c-0.3-0.5-0.4-1.1-0.4-1.7c0-0.8,0.4-1.6,1.1-2.1C34.2,116.5,35.3,116.2,36.7,116.2z"/>
	<path d="M50,116.4c0.2,0.1,0.2,0.2,0.2,0.3c0,0.1-0.2,0.2-0.4,0.3c-0.5,0-1,0-1.7,0c-0.6,0-1.3,0.1-2,0.1c-0.7,1.6-1.2,3.1-1.6,4.7
		c-0.4,1.5-0.6,2.7-0.6,3.7c0,1.1,0.4,1.7,1.3,1.7c0.8,0,1.8-0.7,2.8-2.2c0.1-0.1,0.2-0.1,0.3,0c0.1,0.1,0.1,0.2,0.1,0.3
		c-0.6,0.9-1.3,1.7-2.1,2.4c-0.8,0.7-1.7,1-2.5,1c-0.8,0-1.5-0.2-1.9-0.6c-0.4-0.4-0.6-1-0.6-1.7c0-0.9,0.2-2.2,0.7-3.9
		c0.5-1.7,1-3.4,1.8-5.1c-0.8,0.1-1.6,0.2-2.3,0.4c-0.2,0-0.2-0.1-0.1-0.2c0.1-0.1,0.2-0.3,0.4-0.4c0.2-0.1,0.5-0.3,0.8-0.4
		c0.3-0.1,0.6-0.2,0.8-0.2c0.1,0,0.3,0,0.4,0c0.1,0,0.3,0,0.4,0c0.4-0.9,0.9-1.9,1.3-2.7c0.5-0.9,0.9-1.7,1.4-2.4
		c0.2-0.2,0.5-0.4,0.8-0.6c0.3-0.2,0.7-0.3,1-0.4c0.3-0.1,0.6-0.2,0.8-0.2c0.2,0,0.3,0,0.3,0.2c-0.6,0.8-1.1,1.8-1.6,2.8
		c-0.5,1-1,2.1-1.5,3.3c0.6,0,1.2,0,1.9,0C48.9,116.4,49.4,116.4,50,116.4z"/>
	<g>
		<g>
			<path d="M79.6,92c0.5,0,0.9,0.1,1.2,0.4c0.3,0.2,0.5,0.6,0.6,1c0.1,0.4,0.1,0.9,0,1.4c-0.1,0.5-0.3,1-0.6,1.6
				c-0.1,0.1-0.1,0.1-0.2,0c-0.1-0.1-0.2-0.1-0.2-0.2c0.1-0.4-0.1-0.7-0.4-1c-0.3-0.3-0.9-0.4-1.6-0.4c-1.3,0-2.7,0.5-4,1.5
				c-1.4,1-2.7,2.3-3.9,3.9c-1.3,1.6-2.5,3.5-3.6,5.6c-1.1,2.1-2.1,4.3-2.9,6.5c-0.8,2.2-1.5,4.5-1.9,6.7c-0.5,2.2-0.7,4.2-0.7,6.1
				c0,1,0.3,1.5,0.8,1.5c0.4,0,0.8-0.2,1.1-0.5c0.4-0.3,0.8-0.8,1.3-1.5c0.1-0.1,0.2-0.1,0.3,0c0.1,0.1,0.1,0.2,0.1,0.3
				c-0.7,1-1.4,1.8-2.3,2.4c-0.9,0.7-1.7,1-2.4,1c-0.6,0-1-0.2-1.3-0.5c-0.2-0.4-0.4-0.8-0.4-1.4c0-1.5,0.3-3.4,1-5.7
				c0.7-2.3,1.5-4.7,2.6-7.3c1.1-2.6,2.4-5.1,3.8-7.6c1.4-2.5,2.9-4.8,4.5-6.9c1.5-2,3.1-3.7,4.7-5C76.8,92.6,78.3,92,79.6,92z"/>
		</g>
	</g>
	<g>
		<g>
			<path d="M36.3,152c-0.5,0-0.9-0.1-1.2-0.4c-0.3-0.2-0.5-0.6-0.6-1c-0.1-0.4-0.1-0.9,0-1.4c0.1-0.5,0.3-1,0.6-1.6
				c0.1-0.1,0.1-0.1,0.2,0c0.1,0.1,0.2,0.1,0.2,0.2c-0.1,0.4,0.1,0.7,0.4,1c0.3,0.3,0.9,0.4,1.6,0.4c1.3,0,2.7-0.5,4-1.5
				c1.4-1,2.7-2.3,3.9-3.9c1.3-1.6,2.5-3.5,3.6-5.6c1.1-2.1,2.1-4.3,2.9-6.5c0.8-2.2,1.5-4.5,1.9-6.7c0.5-2.2,0.7-4.2,0.7-6.1
				c0-1-0.3-1.5-0.8-1.5c-0.4,0-0.8,0.2-1.1,0.5c-0.4,0.3-0.8,0.8-1.3,1.5c-0.1,0.1-0.2,0.1-0.3,0c-0.1-0.1-0.1-0.2-0.1-0.3
				c0.7-1,1.4-1.8,2.3-2.4c0.9-0.7,1.7-1,2.4-1c0.6,0,1,0.2,1.3,0.5c0.2,0.4,0.4,0.8,0.4,1.4c0,1.5-0.3,3.4-1,5.7
				c-0.7,2.3-1.5,4.7-2.6,7.3c-1.1,2.6-2.4,5.1-3.8,7.6c-1.4,2.5-2.9,4.8-4.5,6.9c-1.5,2-3.1,3.7-4.7,5
				C39.1,151.4,37.6,152,36.3,152z"/>
		</g>
	</g>
	<path d="M69.3,128.7c-1.4,0-2.1-0.7-2.1-2.2c0-0.5,0.1-1.1,0.2-1.8c0.1-0.7,0.3-1.4,0.5-2.1s0.5-1.5,0.9-2.2
		c0.3-0.7,0.7-1.5,1.2-2.1c-0.4,0.2-0.7,0.5-1,0.7c-0.3,0.2-0.6,0.5-0.9,0.8c-0.1,0.1-0.2,0-0.3-0.1c-0.1-0.1-0.1-0.2,0-0.3
		c0.6-0.6,1.3-1.2,2.4-1.8c1-0.6,2-1.1,3-1.5c0.2,0,0.3,0,0.4,0.1c0.1,0.1,0.1,0.2,0,0.3c-1,1.4-1.9,2.8-2.5,4.4
		c-0.6,1.6-1,3.1-1,4.6c0,0.9,0.3,1.4,0.9,1.4c0.4,0,0.9-0.3,1.6-0.9c0.6-0.6,1.3-1.3,2-2.2c0.7-0.9,1.4-2,2.1-3.1
		c0.7-1.2,1.3-2.4,1.9-3.6c0.1-0.2,0.4-0.4,0.9-0.6c0.5-0.2,1-0.3,1.4-0.3c0.5,0,0.6,0.1,0.4,0.4c-0.5,0.8-0.9,1.6-1.2,2.4
		c-0.3,0.7-0.6,1.5-0.9,2.2c-0.2,0.7-0.4,1.4-0.5,2.2c-0.1,0.7-0.2,1.5-0.2,2.4c0,1,0.3,1.6,0.8,1.6c0.6,0,1.2-0.5,1.9-1.5
		c0.1-0.1,0.2-0.1,0.3,0c0.1,0.1,0.1,0.2,0.1,0.3c-0.6,0.8-1.2,1.5-1.8,1.9c-0.7,0.4-1.3,0.7-1.8,0.7c-1.4,0-2.1-0.8-2.1-2.4
		c0-1.7,0.3-3.3,0.9-4.9c-1.2,2.2-2.5,4-3.9,5.3C71.4,128,70.2,128.7,69.3,128.7z"/>
	<path d="M89.4,116.2c0.7,0,1.3,0.1,1.7,0.3c0.4,0.2,0.7,0.4,0.7,0.7c0,0.4-0.1,0.8-0.3,1.2c-0.2,0.5-0.4,0.8-0.5,1.1
		c-0.1,0.1-0.1,0.1-0.2,0c-0.1,0-0.1-0.1-0.1-0.3c0.1-0.2,0.1-0.6,0.1-1c0-0.5-0.1-0.8-0.4-1.1c-0.2-0.3-0.6-0.4-1-0.4
		c-0.6,0-1,0.2-1.3,0.5c-0.3,0.3-0.5,0.8-0.5,1.4c0,0.5,0.1,1,0.4,1.5c0.3,0.5,0.6,0.9,0.9,1.4c0.3,0.5,0.7,1,1,1.5
		c0.3,0.5,0.4,1.1,0.4,1.8c0,1.2-0.5,2.1-1.4,2.7c-0.9,0.7-2.2,1-3.7,1c-1.1,0-2-0.2-2.6-0.5c-0.6-0.4-1-0.7-1-1.2
		c0-0.1,0-0.3,0.1-0.5c0.1-0.2,0.2-0.5,0.4-0.7c0.2-0.3,0.3-0.5,0.5-0.8c0.2-0.3,0.4-0.5,0.6-0.6c0.1-0.1,0.2,0,0.3,0
		c0.1,0.1,0.1,0.2,0,0.3c-0.2,0.2-0.3,0.4-0.4,0.6c-0.1,0.2-0.1,0.5-0.1,0.9c0,0.6,0.2,1.1,0.6,1.4c0.4,0.4,0.9,0.6,1.5,0.6
		c0.8,0,1.5-0.2,2-0.7c0.5-0.5,0.7-1,0.7-1.7c0-0.6-0.1-1.2-0.4-1.7c-0.3-0.5-0.6-1.1-0.9-1.6c-0.3-0.5-0.6-1-0.9-1.5
		c-0.3-0.5-0.4-1.1-0.4-1.7c0-0.8,0.4-1.6,1.1-2.1C87,116.5,88,116.2,89.4,116.2z"/>
</g>
<g>
	<g>
		<path d="M150.8,127.3c0,1.1-0.4,1.7-1.3,1.7c-0.4,0-0.8-0.2-1-0.5c0.2-0.1,0.4-0.3,0.6-0.7c0.2-0.3,0.3-0.7,0.3-1
			s-0.1-0.6-0.3-0.8s-0.4-0.3-0.8-0.3c-0.4,0-0.7,0.1-1,0.4s-0.6,0.6-0.9,1c-0.6,0.9-1,2-1.4,3.3s-0.5,2.6-0.5,3.6s0.2,1.9,0.5,2.4
			c0.3,0.5,0.9,0.7,1.6,0.7c1.5,0,2.8-0.6,3.7-1.8l0.4,0.2c-0.6,1.5-1.7,2.5-3.3,3.1c-0.6,0.2-1.3,0.3-1.9,0.3c0,0,0,0-0.1,0
			c-1.4,0-2.4-0.4-3-1.1c-0.6-0.7-1-1.8-1-3.3c0-1.5,0.3-3.1,0.8-4.6c0.6-1.8,1.5-3.2,2.6-4.1c0.9-0.7,1.9-1,3-1
			c1.4,0,2.4,0.4,2.8,1.3C150.7,126.5,150.8,126.9,150.8,127.3z"/>
		<path d="M160.4,131.7c-0.7,0.8-1.8,1.3-3.3,1.5c-0.1,1.7-0.6,3-1.4,4c-0.8,1-1.8,1.5-2.9,1.5c-1.4,0-2.3-0.5-2.7-1.6
			c-0.1-0.4-0.2-0.8-0.2-1.2c0-0.4,0-0.9,0.1-1.4s0.2-0.9,0.4-1.4c0.4-1.1,0.9-2,1.6-2.7c0.8-0.8,1.8-1.2,3-1.2c1.6,0,2.4,1,2.4,2.9
			v0c0.1,0,0.2,0,0.3,0c0.3,0,0.8-0.1,1.3-0.3c0.5-0.2,1-0.5,1.5-0.8L160.4,131.7z M155.7,133.3c-0.3-0.1-0.5-0.4-0.5-0.8
			c0-0.5,0.2-0.8,0.6-1c0-0.4-0.1-0.7-0.2-0.8c-0.1-0.2-0.3-0.2-0.6-0.2c-0.6,0-1.1,0.6-1.6,1.9c-0.5,1.2-0.8,2.3-0.8,3.3
			c0,0.6,0.1,1,0.2,1.1c0.1,0.2,0.2,0.3,0.3,0.3c0.1,0,0.3,0.1,0.5,0.1c0.4,0,0.8-0.4,1.2-1.1C155.2,135.2,155.5,134.3,155.7,133.3z
			"/>
		<path d="M168.8,127.6c0-0.2,0-0.4,0-0.5c0-0.2-0.1-0.3-0.2-0.4c-0.1-0.1-0.3-0.2-0.4-0.2c-0.7,0-1.1,0.5-1.3,1.5l-0.3,1.5h1.8
			l-0.2,0.7h-1.8l-2.1,9.9c-0.2,1.2-0.7,2-1.4,2.5c-0.5,0.4-1.2,0.6-1.9,0.6c-1,0-1.7-0.4-2-1.2c-0.6,0.8-1.4,1.2-2.5,1.2
			c-0.6,0-1.1-0.2-1.5-0.6c-0.4-0.4-0.7-0.8-0.7-1.3s0.1-0.9,0.2-1.2s0.4-0.6,0.8-0.8c0.4-0.3,1.1-0.5,2.1-0.9l2.2-10.5
			c0.4-2.1,1.6-3.1,3.3-3.1c0.4,0,0.8,0.1,1.2,0.3c0.4,0.2,0.6,0.5,0.8,0.8c0.6-0.8,1.4-1.2,2.5-1.2c0.6,0,1.1,0.2,1.5,0.6
			c0.4,0.4,0.7,0.8,0.7,1.4c0,0.3,0,0.5-0.1,0.8H168.8z M157.5,139.1c-0.7,0.2-1.1,0.4-1.4,0.6c-0.5,0.4-0.7,0.8-0.7,1.2
			c0,0.2,0.1,0.4,0.4,0.6c0.1,0,0.2,0.1,0.4,0.1s0.3-0.1,0.5-0.3c0.2-0.2,0.4-0.6,0.5-1.1L157.5,139.1z M159.5,141.3
			c0.2,0.2,0.5,0.4,1.1,0.4c0.2,0,0.4-0.1,0.6-0.3c0.2-0.2,0.4-0.6,0.5-1.1l0.4-2.1l-1.9,0.3l-0.3,1.7
			C159.8,140.6,159.6,140.9,159.5,141.3z M163.8,130.2h-1.8l-1.6,7.8l1.9-0.3L163.8,130.2z M163.9,129.5l0.4-1.9c0-0.1,0-0.3,0-0.5
			c0-0.2-0.1-0.3-0.2-0.4c-0.1-0.1-0.3-0.2-0.4-0.2c-0.7,0-1.1,0.5-1.3,1.5l-0.3,1.5H163.9z"/>
		<path d="M175.2,135.4c-1.4,2.3-3.1,3.4-5.1,3.4c-0.9,0-1.6-0.2-2.1-0.7c-0.5-0.5-0.8-1.2-0.8-2.2c0-1.4,0.4-2.8,1.1-4.1
			c0.5-1,1.3-1.7,2.2-2.1c0.5-0.2,1-0.3,1.5-0.3c0.8,0,1.4,0.2,1.7,0.5s0.5,0.7,0.5,1.3c0,1-0.4,1.9-1.3,2.7s-1.8,1.1-3,1.2
			c0,0.3,0,0.6,0,0.7c0,0.6,0.1,1,0.3,1.2c0.2,0.2,0.5,0.3,0.9,0.3c0.7,0,1.3-0.2,1.8-0.5c0.5-0.3,1-0.8,1.5-1.4H175.2z
			 M172.9,130.9c0-0.4-0.2-0.7-0.5-0.7c-0.4,0-0.9,0.4-1.3,1.2c-0.4,0.8-0.7,1.6-0.9,2.6c0.7,0,1.3-0.4,1.9-1
			C172.6,132.5,172.9,131.8,172.9,130.9z"/>
		<path d="M177,135.5c0,1,0.4,1.5,1.2,1.5c0.3,0,0.7-0.1,1.1-0.3c0.4-0.2,0.7-0.4,1-0.7c-0.3,1.8-1.4,2.7-3.2,2.7
			c-0.9,0-1.6-0.2-2.1-0.7c-0.5-0.5-0.8-1.2-0.8-2.2c0-1.4,0.4-2.8,1.1-4.1c0.5-1,1.3-1.7,2.2-2.1c0.5-0.2,1-0.3,1.5-0.3
			c0.8,0,1.4,0.2,1.7,0.5s0.5,0.7,0.5,1.3c0,1.1-0.4,1.9-1.3,2.7c-0.8,0.7-1.8,1.1-3,1.2C177,135.1,177,135.3,177,135.5z
			 M179.9,130.9c0-0.4-0.2-0.7-0.5-0.7c-0.6,0-1.1,0.7-1.7,2c-0.2,0.6-0.4,1.2-0.5,1.8c0.7,0,1.3-0.3,1.9-1S179.9,131.8,179.9,130.9
			z"/>
		<path d="M188,128.6c0.6-0.3,0.8-0.9,0.8-1.7c0-0.2-0.1-0.5-0.3-0.7c-0.2-0.3-0.6-0.4-1.1-0.4c-0.5,0-0.9,0.1-1.2,0.4
			s-0.5,0.6-0.5,1.1c0,0.4,0.1,0.8,0.2,1.1c0.2,0.5,0.6,1,1.1,1.5l0.8,0.7c0.7,0.6,1.1,1.1,1.4,1.5c0.5,0.8,0.7,1.6,0.7,2.4
			c0,1.5-0.5,2.7-1.6,3.5c-1,0.8-2.1,1.1-3.6,1.1c-1.8,0-3-0.6-3.6-1.7c-0.2-0.4-0.3-0.9-0.3-1.4c0-1,0.3-1.7,0.8-2.3
			s1.2-0.8,1.8-0.8c0.7,0,1.2,0.2,1.5,0.6c0.1,0.2,0.2,0.4,0.2,0.6c-0.9,0-1.6,0.3-2,0.9c-0.1,0.2-0.2,0.5-0.2,0.7
			c0,0.5,0.2,1,0.5,1.3s0.8,0.5,1.4,0.5c0.6,0,1.1-0.2,1.5-0.6c0.4-0.4,0.6-1,0.6-1.6s-0.1-1.2-0.3-1.6c-0.2-0.4-0.4-0.8-0.7-1.2
			c-0.3-0.4-0.6-0.7-0.9-1s-0.6-0.7-0.9-1c-0.7-0.8-1-1.6-1-2.3c0-0.9,0.4-1.7,1.2-2.4c0.8-0.6,1.8-0.9,3-0.9c1.5,0,2.4,0.4,2.8,1.3
			c0.1,0.2,0.2,0.6,0.2,1c0,0.4-0.1,0.8-0.4,1.2c-0.3,0.3-0.6,0.5-1,0.5C188.5,128.9,188.2,128.8,188,128.6z"/>
		<path d="M195.3,129.3c1.5,0,2.2,0.6,2.2,1.7c0,0.5-0.1,0.8-0.3,1c-0.2,0.2-0.4,0.3-0.6,0.3c-0.2,0-0.5-0.1-0.7-0.2
			c0.1-0.4,0.2-0.8,0.2-1.1c0-0.5-0.2-0.8-0.5-0.8c-0.3,0-0.7,0.3-1.1,1c-0.6,0.9-0.9,2-1.1,3.3c-0.1,0.4-0.1,0.8-0.1,1.3
			c0,0.9,0.4,1.3,1.3,1.3c0.7,0,1.3-0.2,1.8-0.5s1-0.8,1.5-1.4h0.6c-1.4,2.3-3.1,3.4-5.1,3.4c-0.9,0-1.6-0.2-2.1-0.7
			c-0.5-0.5-0.8-1.2-0.8-2.2c0-1.4,0.4-2.8,1.1-4.1c0.5-1,1.3-1.7,2.2-2.1C194.3,129.4,194.8,129.3,195.3,129.3z"/>
		<path d="M197.1,138.7l1.9-9.2h2.6l-0.2,1.1c0.3-0.3,0.6-0.5,1-0.8c0.4-0.2,0.8-0.4,1.2-0.4c0.4,0,0.7,0.1,1,0.4s0.3,0.6,0.3,0.8
			c0,0.4-0.1,0.8-0.4,1.1c-0.2,0.3-0.5,0.4-0.9,0.4c-0.3,0-0.6-0.1-0.7-0.2c-0.1-0.2-0.2-0.3-0.2-0.5c0-0.2-0.1-0.3-0.1-0.4
			c0-0.1-0.1-0.1-0.2-0.1c-0.3,0-0.5,0.1-0.7,0.2c-0.2,0.1-0.4,0.3-0.7,0.5l-1.5,7H197.1z"/>
		<path d="M210.4,135.4c-0.8,2.3-2.1,3.4-4,3.4c-0.5,0-0.9-0.2-1.3-0.5c-0.4-0.3-0.6-0.9-0.6-1.7c0-0.3,0-0.7,0.1-1.2l1.2-5.9h2.6
			l-1.3,6.2c0,0.2-0.1,0.4-0.1,0.7c0,0.4,0.2,0.6,0.7,0.6c0.4,0,0.7-0.2,1-0.5s0.5-0.7,0.7-1.2H210.4z M209.3,127
			c0,0.4-0.1,0.7-0.4,1c-0.3,0.3-0.6,0.4-1,0.4s-0.7-0.1-1-0.4c-0.3-0.3-0.4-0.6-0.4-1s0.1-0.7,0.4-1c0.3-0.3,0.6-0.4,1-0.4
			s0.8,0.1,1,0.4C209.2,126.3,209.3,126.6,209.3,127z"/>
		<path d="M211.7,138.1l-1,4.5l-2.8,0.7l3.1-14.5h2.6l-0.3,1.4c0.6-0.5,1.3-0.8,2.1-0.8c1.1,0,1.7,0.5,2.1,1.5
			c0.1,0.4,0.2,0.8,0.2,1.3s0,1-0.1,1.4c-0.1,0.5-0.2,1-0.3,1.4s-0.3,0.9-0.5,1.4c-0.2,0.4-0.5,0.8-0.8,1.2
			c-0.3,0.3-0.7,0.6-1.2,0.8c-0.5,0.2-1,0.3-1.7,0.3C212.5,138.8,212,138.6,211.7,138.1z M215.3,132.2c0-1-0.3-1.5-0.9-1.5
			c-0.2,0-0.4,0.1-0.7,0.2s-0.4,0.4-0.6,0.7l-1.1,5.1c0.1,0.3,0.4,0.4,0.8,0.4c0.4,0,0.8-0.2,1.1-0.5c0.6-0.7,1.1-1.7,1.2-2.9
			C215.2,133.2,215.3,132.7,215.3,132.2z"/>
		<path d="M219.4,130.2h-0.6l0.2-0.7h0.6l0.6-2.5l2.7-0.4l-0.6,2.9h1.1l-0.1,0.7h-1.1l-1.2,5.5c-0.1,0.2-0.1,0.4-0.1,0.6
			c0,0.2,0,0.4,0.1,0.5c0.1,0.1,0.2,0.2,0.5,0.2s0.4,0,0.5-0.1c-0.4,1-0.8,1.6-1.5,1.7c-0.2,0-0.3,0.1-0.5,0.1
			c-0.7,0-1.1-0.2-1.4-0.6s-0.4-0.8-0.4-1.3s0-0.8,0.1-1.2L219.4,130.2z"/>
	</g>
	<g>
		<g>
			<path d="M179.7,101.7c-0.3-0.2-0.8-0.3-1.5-0.3c-0.2,0-0.4,0-0.6,0.1c-0.2,0.1-0.3,0.2-0.3,0.4c0,0.2,0.1,0.3,0.4,0.4
				c0.2,0.1,0.6,0.2,1,0.2s0.7,0,0.9-0.1c0.4-0.1,0.9-0.2,1.3-0.4l0.6-0.3c0.5-0.2,1.2-0.7,1.6-0.8c0.7-0.2,1.4-0.3,2.1-0.3
				c1.3,0,2.4,0.2,3.1,0.6c0.7,0.3,0.8,1.1,0.8,1.6c0,0.6-0.5,1.1-1.5,1.3c-0.4,0.1-0.8,0.1-1.2,0.1c-0.8,0-1.5-0.1-2-0.3
				c-0.5-0.2-0.7-0.4-0.7-0.7c0-0.2,0.2-0.4,0.5-0.5c0.1,0,0.3-0.1,0.5-0.1c0,0.3,0.3,0.6,0.8,0.7c0.2,0,0.4,0.1,0.7,0.1
				c0.5,0,0.8-0.1,1.1-0.2s0.5-0.3,0.5-0.5c0-0.2-0.2-0.4-0.6-0.5c-0.4-0.1-0.8-0.2-1.4-0.2s-1,0-1.4,0.1c-0.4,0.1-0.7,0.2-1,0.3
				s-0.6,0.2-0.9,0.3c-0.3,0.1-0.6,0.2-0.9,0.3c-0.7,0.2-1.4,0.4-2,0.4c-0.8,0-1.5-0.1-2.1-0.4c-0.6-0.3-0.8-0.7-0.8-1.1
				c0-0.5,0.4-0.9,1.2-1c0.2,0,0.5-0.1,0.9-0.1s0.7,0,1,0.1c0.3,0.1,0.5,0.2,0.5,0.4S179.9,101.6,179.7,101.7z"/>
		</g>
		<g>
			<path d="M183,108c-9.7,0-11-2.3-11-2.3c0,1.2,0.3,2.4,0.7,3.5c-0.6,0.5-2.2,2-2.2,4.2c0,2.8,3.3,4.5,5.5,3.1c0,0-3.7-0.5-3.7-3.8
				c0-1.2,0.4-2,1-2.5c0.9,2,2.2,3.5,2.6,4.1c0.8,1,1,0.7,1.5,2.6c0.4,1.6,4,2.5,6,2.5v0c0,0,0,0,0,0c0,0,0,0,0,0v0
				c2-0.1,5.3-0.9,5.7-2.5c0.5-2,0.5-1.6,1.3-2.6c0.8-1,3.8-4.7,3.8-8.7C194.1,105.6,192.8,107.9,183,108z"/>
			<path d="M183.3,106.5v1.5c0,0-0.4,0-0.4,0c0,0,0.4,0,0.4,0V106.5c11,0,11-3,11-3l-1.3-1.3c2.7,2.7-8.6,3-9.9,3
				c-1.3,0-12.7-0.3-9.9-3l-1,1.3C172.1,103.5,171.3,106.5,183.3,106.5z"/>
		</g>
	</g>
</g>
<g>
	<path d="M21.2,24c0-0.8,0.3-1.5,0.9-2.1c0.6-0.6,1.3-0.9,2.1-0.9c0.8,0,1.6,0.3,2.1,0.9c0.6,0.6,0.9,1.3,0.9,2.1
		c0,0.8-0.3,1.6-0.9,2.1c-0.6,0.6-1.3,0.9-2.1,0.9c-0.8,0-1.6-0.3-2.1-0.9C21.5,25.6,21.2,24.9,21.2,24z M26.5,32.4v31h-4.6v-31
		H26.5z"/>
	<path d="M47.2,32.4h4.7v20.1h-4.7v-2.1c-1.9,1.8-4,2.7-6.2,2.7c-2.8,0-5.1-1-6.9-3c-1.8-2-2.7-4.6-2.7-7.7c0-3,0.9-5.5,2.7-7.5
		s4.1-3,6.8-3c2.3,0,4.4,1,6.3,2.9V32.4z M36.2,42.3c0,1.9,0.5,3.5,1.5,4.7c1.1,1.2,2.4,1.8,4,1.8c1.7,0,3.1-0.6,4.2-1.8
		c1.1-1.2,1.6-2.8,1.6-4.7S47,39,45.9,37.8c-1.1-1.2-2.4-1.8-4.1-1.8c-1.6,0-2.9,0.6-4,1.8C36.7,39,36.2,40.5,36.2,42.3z"/>
	<path d="M72.5,17.6h4.7v34.8h-4.7v-2.1c-1.8,1.8-3.9,2.7-6.2,2.7c-2.7,0-5-1-6.8-3c-1.8-2-2.7-4.6-2.7-7.7c0-3,0.9-5.5,2.7-7.5
		c1.8-2,4-3,6.7-3c2.4,0,4.5,1,6.3,2.9V17.6z M61.5,42.3c0,1.9,0.5,3.5,1.5,4.7c1.1,1.2,2.4,1.8,4,1.8c1.7,0,3.1-0.6,4.2-1.8
		c1.1-1.2,1.6-2.8,1.6-4.7s-0.5-3.4-1.6-4.7c-1.1-1.2-2.4-1.8-4.1-1.8c-1.6,0-2.9,0.6-4,1.8C62,39,61.5,40.5,61.5,42.3z"/>
	<path d="M101.3,43.5H86.9c0.1,1.6,0.7,3,1.6,3.9c0.9,1,2.2,1.4,3.6,1.4c1.2,0,2.1-0.3,2.9-0.8c0.7-0.5,1.6-1.6,2.5-3.1l3.9,2.2
		c-0.6,1-1.2,1.9-1.9,2.6c-0.7,0.7-1.4,1.3-2.2,1.8c-0.8,0.5-1.6,0.8-2.5,1C94,52.9,93.1,53,92,53c-3,0-5.4-1-7.2-2.9
		c-1.8-1.9-2.7-4.5-2.7-7.7c0-3.2,0.9-5.7,2.6-7.7c1.8-1.9,4.1-2.9,7.1-2.9c3,0,5.3,0.9,7,2.8c1.7,1.9,2.6,4.5,2.6,7.8L101.3,43.5z
		 M96.5,39.7c-0.6-2.5-2.2-3.7-4.7-3.7c-0.6,0-1.1,0.1-1.6,0.3c-0.5,0.2-0.9,0.4-1.4,0.7c-0.4,0.3-0.8,0.7-1,1.2
		c-0.3,0.5-0.5,1-0.7,1.5H96.5z"/>
</g>
<g>
</g>
<g>
</g>
<g>
</g>
<g>
</g>
<g>
</g>
<g>
</g>
<g>
</g>
<g>
</g>
<g>
</g>
<g>
</g>
<g>
</g>
<g>
</g>
<g>
</g>
<g>
</g>
<g>
</g>
</svg>
