<?xml version="1.0" encoding="utf-8"?>
<!-- Generator: Adobe Illustrator 17.1.0, SVG Export Plug-In . SVG Version: 6.00 Build 0)  -->
<!DOCTYPE svg PUBLIC "-//W3C//DTD SVG 1.1//EN" "http://www.w3.org/Graphics/SVG/1.1/DTD/svg11.dtd">
<svg version="1.1" id="Layer_1" xmlns="http://www.w3.org/2000/svg" xmlns:xlink="http://www.w3.org/1999/xlink" x="0px" y="0px"
	 viewBox="0 0 121.7 81.3" style="enable-background:new 0 0 121.7 81.3;" xml:space="preserve">
<style type="text/css">
	.st0{fill-rule:evenodd;clip-rule:evenodd;}
</style>
<g>
	<path d="M-476.5-36.1c0-1.4-0.9-2.9-3.5-3v-3.5c2.6-0.1,3.5-1.6,3.5-3c0-2.5-0.4-4.1-0.4-7c0-4.4,1.6-5.8,5.2-5.8h9.6v3.2h-7.8
		c-1.7,0-2.2,0.6-2.2,2.8c0,2.2,0.2,4.2,0.2,6.6c0,3.1-1,4.3-3,4.8v0.2c2,0.5,3,1.7,3,4.8c0,2.5-0.2,4.4-0.2,6.6
		c0,2.2,0.5,2.9,2.2,2.9h0.8v3.2h-2.6c-3.6,0-5.2-1.4-5.2-5.8C-476.9-32-476.5-33.5-476.5-36.1z"/>
	<path d="M-468.1-58.1h6v22.5c0,1.3,0.6,1.7,1.1,1.7c0.2,0,0.4,0,0.7-0.1l0.7,4.4c-0.7,0.3-1.7,0.5-3,0.5c-4.1,0-5.5-2.7-5.5-6.8
		V-58.1z"/>
	<path d="M-451.2-50.2c5.7,0,8.6,4.2,8.6,9.7c0,1.1-0.1,2-0.2,2.5H-455c0.5,3.1,2.6,4.4,5.3,4.4c1.5,0,2.9-0.4,4.4-1.3l2,3.6
		c-2.1,1.4-4.8,2.3-7.2,2.3c-5.8,0-10.2-3.9-10.2-10.6C-460.8-46.2-456.1-50.2-451.2-50.2z M-447.7-41.7c0-2.3-1-4-3.4-4
		c-1.9,0-3.5,1.3-3.9,4H-447.7z"/>
	<path d="M-439.2-35.6c1.8,1.4,3.5,2.1,5.2,2.1c1.8,0,2.6-0.7,2.6-1.7c0-1.3-2-2-4.1-2.8c-2.4-0.9-5.3-2.6-5.3-5.9
		c0-3.7,3.1-6.3,7.7-6.3c3.1,0,5.4,1.3,7.1,2.6l-2.7,3.6c-1.5-1.1-2.8-1.7-4.3-1.7c-1.5,0-2.3,0.6-2.3,1.6c0,1.3,1.9,1.8,4,2.6
		c2.6,0.9,5.5,2.4,5.5,6.1c0,3.7-2.9,6.5-8.3,6.5c-2.6,0-5.7-1.1-7.7-2.8L-439.2-35.6z"/>
	<path d="M-422.8-35.6c1.8,1.4,3.5,2.1,5.2,2.1c1.8,0,2.6-0.7,2.6-1.7c0-1.3-2-2-4.1-2.8c-2.4-0.9-5.3-2.6-5.3-5.9
		c0-3.7,3.1-6.3,7.7-6.3c3.1,0,5.4,1.3,7.1,2.6l-2.7,3.6c-1.5-1.1-2.8-1.7-4.3-1.7c-1.5,0-2.3,0.6-2.3,1.6c0,1.3,1.9,1.8,3.9,2.6
		c2.6,0.9,5.5,2.4,5.5,6.1c0,3.7-2.9,6.5-8.3,6.5c-2.6,0-5.7-1.1-7.7-2.8L-422.8-35.6z"/>
	<path d="M-408.1-26.5c1.7,0,2.2-0.6,2.2-2.9c0-2.2-0.2-4.2-0.2-6.6c0-3.1,1-4.3,3-4.8v-0.2c-2-0.5-3-1.7-3-4.8
		c0-2.4,0.2-4.5,0.2-6.6c0-2.2-0.4-2.8-2.2-2.8h-0.8v-3.2h2.6c3.6,0,5.2,1.4,5.2,5.8c0,2.8-0.4,4.4-0.4,7c0,1.4,0.9,2.9,3.5,3v3.5
		c-2.6,0.1-3.5,1.6-3.5,3c0,2.6,0.4,4.1,0.4,7c0,4.4-1.6,5.8-5.2,5.8h-2.6v-3.2H-408.1z"/>
</g>
<g>
	<g>
		<path d="M-168.3-20.9h-55.4c-2.6,0-4.7-2.1-4.7-4.7v-30.5c0-2.6,2.1-4.7,4.7-4.7h55.4c2.6,0,4.7,2.1,4.7,4.7v30.5
			C-163.6-23-165.7-20.9-168.3-20.9z M-223.7-57.6c-0.9,0-1.6,0.7-1.6,1.6v30.5c0,0.9,0.7,1.6,1.6,1.6h55.4c0.9,0,1.6-0.7,1.6-1.6
			v-30.5c0-0.9-0.7-1.6-1.6-1.6H-223.7z"/>
	</g>
	<g>
		<path d="M-219-30.3v-21.2h6.2l6.2,7.8l6.2-7.8h6.2v21.2h-6.2v-12.1l-6.2,7.8l-6.2-7.8v12.1H-219z"/>
	</g>
	<g>
		<path d="M-180.1-30.3l-9.3-10.3h6.2v-10.9h6.2v10.9h6.2L-180.1-30.3z"/>
	</g>
</g>
<path d="M-406.8,44.7c-2.5,0-4.7,0.6-6.6,1.5c-0.7-1.3-1.4-2.5-1.5-3.4c-0.1-1-0.3-1.6-0.1-2.9s0.9-3,0.9-3.1c0-0.1-0.2-0.8-1.6-0.8
	c-1.5,0-2.7,0.3-2.9,0.7c-0.1,0.4-0.4,1.3-0.6,2.2c-0.3,1.3-2.9,6.1-4.4,8.6c-0.5-1-0.9-1.8-1-2.5c-0.1-1-0.3-1.6-0.1-2.9
	c0.2-1.2,0.9-3,0.9-3.1c0-0.1-0.2-0.8-1.6-0.8c-1.5,0-2.7,0.3-2.9,0.7c-0.1,0.4-0.3,1.3-0.6,2.2c-0.3,0.9-3.9,8.8-4.8,10.8
	c-0.5,1-0.9,1.9-1.2,2.5c0,0,0,0,0,0s0,0,0,0.1c-0.2,0.5-0.4,0.8-0.4,0.8s0,0,0,0c-0.2,0.4-0.4,0.7-0.5,0.7c-0.1,0-0.2-1,0-2.3
	c0.5-2.7,1.8-7,1.8-7.2c0-0.1,0.2-0.8-0.8-1.2c-1-0.4-1.4,0.3-1.5,0.3c-0.1,0-0.2,0.2-0.2,0.2s1.2-4.8-2.2-4.8c-2.1,0-5,2.3-6.4,4.4
	c-0.9,0.5-2.8,1.5-4.9,2.7c-0.8,0.4-1.6,0.9-2.4,1.3c-0.1-0.1-0.1-0.1-0.2-0.2c-4.1-4.3-11.6-7.4-11.3-13.2
	c0.1-2.1,0.9-7.7,14.4-14.5c11.1-5.5,20-4,21.6-0.6c2.2,4.8-4.8,13.8-16.3,15.1c-4.4,0.5-6.7-1.2-7.3-1.8c-0.6-0.7-0.7-0.7-0.9-0.6
	c-0.4,0.2-0.1,0.8,0,1.1c0.3,0.9,1.8,2.5,4.2,3.3c2.1,0.7,7.3,1.1,13.5-1.3c7-2.7,12.5-10.2,10.9-16.5c-1.6-6.4-12.3-8.5-22.3-4.9
	c-6,2.1-12.5,5.5-17.1,9.8c-5.5,5.2-6.4,9.7-6.1,11.6c1.3,6.7,10.5,11,14.2,14.3c-0.2,0.1-0.4,0.2-0.5,0.3
	c-1.9,0.9-8.9,4.6-10.6,8.5c-2,4.4,0.3,7.6,1.8,8c4.7,1.3,9.6-1.1,12.2-5c2.6-3.9,2.3-9,1.1-11.3c0,0,0-0.1,0-0.1
	c0.5-0.3,1-0.6,1.4-0.9c0.9-0.6,1.9-1.1,2.7-1.5c-0.4,1.2-0.8,2.7-0.9,4.8c-0.2,2.5,0.8,5.7,2.2,7c0.6,0.6,1.3,0.6,1.8,0.6
	c1.6,0,2.3-1.3,3.1-2.8c1-1.9,1.8-4.1,1.8-4.1s-1.1,5.9,1.8,5.9c1.1,0,2.1-1.4,2.6-2.1c0,0,0,0,0,0s0,0,0.1-0.1
	c0.1-0.2,0.2-0.3,0.2-0.3s0,0,0,0c0.4-0.7,1.4-2.4,2.8-5.2c1.8-3.6,3.6-8.1,3.6-8.1s0.2,1.1,0.7,2.9c0.3,1.1,1,2.3,1.5,3.4
	c-0.4,0.6-0.7,0.9-0.7,0.9s0,0,0,0c-0.3,0.5-0.7,0.9-1.1,1.4c-1.5,1.7-3.2,3.7-3.4,4.3c-0.3,0.7-0.2,1.2,0.3,1.6
	c0.4,0.3,1.1,0.3,1.8,0.3c1.3-0.1,2.2-0.4,2.7-0.6c0.7-0.2,1.5-0.6,2.3-1.2c1.4-1,2.3-2.5,2.2-4.5c0-1.1-0.4-2.2-0.8-3.2
	c0.1-0.2,0.3-0.4,0.4-0.6c2.2-3.3,4-6.9,4-6.9s0.2,1.1,0.7,2.9c0.3,0.9,0.8,1.9,1.3,2.9c-2.1,1.7-3.4,3.7-3.9,5
	c-0.8,2.4-0.2,3.5,1.1,3.8c0.6,0.1,1.3-0.1,1.9-0.4c0.7-0.2,1.6-0.7,2.5-1.3c1.4-1,2.8-2.5,2.7-4.5c0-0.9-0.3-1.8-0.6-2.7
	c1.8-0.7,4.1-1.2,7.1-0.8c6.3,0.7,7.6,4.7,7.3,6.3c-0.2,1.7-1.6,2.6-2,2.8c-0.4,0.3-0.6,0.4-0.5,0.6c0.1,0.3,0.3,0.3,0.6,0.2
	c0.5-0.1,3.3-1.3,3.4-4.4C-396.5,49-400.2,44.7-406.8,44.7z M-455.5,61.2c-2.1,2.3-5,3.1-6.3,2.4c-1.4-0.8-0.8-4.2,1.8-6.6
	c1.6-1.5,3.6-2.8,4.9-3.7c0.3-0.2,0.8-0.5,1.3-0.8c0.1-0.1,0.1-0.1,0.1-0.1l0,0c0.1-0.1,0.2-0.1,0.3-0.2
	C-452.4,55.7-453.3,58.8-455.5,61.2z M-440.3,50.8c-0.7,1.8-2.3,6.3-3.2,6.1c-0.8-0.2-1.3-3.7-0.2-7.1c0.6-1.7,1.8-3.8,2.5-4.6
	c1.1-1.3,2.4-1.7,2.7-1.2C-438,44.7-439.8,49.7-440.3,50.8z M-427.7,56.8c-0.3,0.2-0.6,0.3-0.7,0.2c-0.1-0.1,0.1-0.3,0.1-0.3
	s1.6-1.7,2.2-2.5c0.4-0.4,0.8-1,1.2-1.6c0,0.1,0,0.1,0,0.2C-424.8,54.9-426.8,56.3-427.7,56.8z M-417.9,54.6
	c-0.2-0.2-0.2-0.7,0.6-2.3c0.3-0.6,1-1.7,2.2-2.8c0.1,0.4,0.2,0.8,0.2,1.2C-415,53.3-416.8,54.2-417.9,54.6z"/>
<g>
	<path d="M-341.7,34.9c0.7,0,1.3,0.1,1.7,0.3c0.4,0.2,0.7,0.4,0.7,0.7c0,0.4-0.1,0.8-0.3,1.2c-0.2,0.5-0.4,0.8-0.5,1.1
		c-0.1,0.1-0.1,0.1-0.2,0c-0.1,0-0.1-0.1-0.1-0.3c0.1-0.2,0.1-0.6,0.1-1c0-0.5-0.1-0.8-0.4-1.1c-0.2-0.3-0.6-0.4-1-0.4
		c-0.6,0-1,0.2-1.3,0.5c-0.3,0.3-0.5,0.8-0.5,1.4c0,0.5,0.1,1,0.4,1.5c0.3,0.5,0.6,0.9,0.9,1.4c0.3,0.5,0.7,1,1,1.5
		c0.3,0.5,0.4,1.1,0.4,1.8c0,1.2-0.5,2.1-1.4,2.7c-0.9,0.7-2.2,1-3.7,1c-1.1,0-2-0.2-2.6-0.5c-0.6-0.4-1-0.7-1-1.2
		c0-0.1,0-0.3,0.1-0.5c0.1-0.2,0.2-0.5,0.4-0.7c0.2-0.3,0.3-0.5,0.5-0.8c0.2-0.3,0.4-0.5,0.6-0.6c0.1-0.1,0.2,0,0.3,0
		c0.1,0.1,0.1,0.2,0,0.3c-0.2,0.2-0.3,0.4-0.4,0.6c-0.1,0.2-0.1,0.5-0.1,0.9c0,0.6,0.2,1.1,0.6,1.4c0.4,0.4,0.9,0.6,1.5,0.6
		c0.8,0,1.5-0.2,2-0.7c0.5-0.5,0.7-1,0.7-1.7c0-0.6-0.1-1.2-0.4-1.7c-0.3-0.5-0.6-1.1-0.9-1.6c-0.3-0.5-0.6-1-0.9-1.5
		c-0.3-0.5-0.4-1.1-0.4-1.7c0-0.8,0.4-1.6,1.1-2.1C-344.1,35.1-343.1,34.9-341.7,34.9z"/>
	<path d="M-328.3,35.1c0.2,0.1,0.2,0.2,0.2,0.3c0,0.1-0.2,0.2-0.4,0.3c-0.5,0-1,0-1.7,0c-0.6,0-1.3,0.1-2,0.1
		c-0.7,1.6-1.2,3.1-1.6,4.7c-0.4,1.5-0.6,2.7-0.6,3.7c0,1.1,0.4,1.7,1.3,1.7c0.8,0,1.8-0.7,2.8-2.2c0.1-0.1,0.2-0.1,0.3,0
		c0.1,0.1,0.1,0.2,0.1,0.3c-0.6,0.9-1.3,1.7-2.1,2.4c-0.8,0.7-1.7,1-2.5,1c-0.8,0-1.5-0.2-1.9-0.6c-0.4-0.4-0.6-1-0.6-1.7
		c0-0.9,0.2-2.2,0.7-3.9c0.5-1.7,1-3.4,1.8-5.1c-0.8,0.1-1.6,0.2-2.3,0.4c-0.2,0-0.2-0.1-0.1-0.2c0.1-0.1,0.2-0.3,0.4-0.4
		c0.2-0.1,0.5-0.3,0.8-0.4c0.3-0.1,0.6-0.2,0.8-0.2c0.1,0,0.3,0,0.4,0c0.1,0,0.3,0,0.4,0c0.4-0.9,0.9-1.9,1.3-2.7
		c0.5-0.9,0.9-1.7,1.4-2.4c0.2-0.2,0.5-0.4,0.8-0.6c0.3-0.2,0.7-0.3,1-0.4c0.3-0.1,0.6-0.2,0.8-0.2c0.2,0,0.3,0,0.3,0.2
		c-0.6,0.8-1.1,1.8-1.6,2.8c-0.5,1-1,2.1-1.5,3.3c0.6,0,1.2,0,1.9,0C-329.5,35.1-328.9,35.1-328.3,35.1z"/>
	<g>
		<g>
			<path d="M-298.7,10.7c0.5,0,0.9,0.1,1.2,0.4c0.3,0.2,0.5,0.6,0.6,1c0.1,0.4,0.1,0.9,0,1.4c-0.1,0.5-0.3,1-0.6,1.6
				c-0.1,0.1-0.1,0.1-0.2,0c-0.1-0.1-0.2-0.1-0.2-0.2c0.1-0.4-0.1-0.7-0.4-1c-0.3-0.3-0.9-0.4-1.6-0.4c-1.3,0-2.7,0.5-4,1.5
				c-1.4,1-2.7,2.3-3.9,3.9c-1.3,1.6-2.5,3.5-3.6,5.6c-1.1,2.1-2.1,4.3-2.9,6.5c-0.8,2.2-1.5,4.5-1.9,6.7c-0.5,2.2-0.7,4.2-0.7,6.1
				c0,1,0.3,1.5,0.8,1.5c0.4,0,0.8-0.2,1.1-0.5c0.4-0.3,0.8-0.8,1.3-1.5c0.1-0.1,0.2-0.1,0.3,0c0.1,0.1,0.1,0.2,0.1,0.3
				c-0.7,1-1.4,1.8-2.3,2.4c-0.9,0.7-1.7,1-2.4,1c-0.6,0-1-0.2-1.3-0.5c-0.2-0.4-0.4-0.8-0.4-1.4c0-1.5,0.3-3.4,1-5.7
				c0.7-2.3,1.5-4.7,2.6-7.3c1.1-2.6,2.4-5.1,3.8-7.6c1.4-2.5,2.9-4.8,4.5-6.9c1.5-2,3.1-3.7,4.7-5
				C-301.5,11.3-300.1,10.7-298.7,10.7z"/>
		</g>
	</g>
	<g>
		<g>
			<path d="M-342.1,70.7c-0.5,0-0.9-0.1-1.2-0.4c-0.3-0.2-0.5-0.6-0.6-1c-0.1-0.4-0.1-0.9,0-1.4c0.1-0.5,0.3-1,0.6-1.6
				c0.1-0.1,0.1-0.1,0.2,0c0.1,0.1,0.2,0.1,0.2,0.2c-0.1,0.4,0.1,0.7,0.4,1c0.3,0.3,0.9,0.4,1.6,0.4c1.3,0,2.7-0.5,4-1.5
				c1.4-1,2.7-2.3,3.9-3.9c1.3-1.6,2.5-3.5,3.6-5.6c1.1-2.1,2.1-4.3,2.9-6.5c0.8-2.2,1.5-4.5,1.9-6.7c0.5-2.2,0.7-4.2,0.7-6.1
				c0-1-0.3-1.5-0.8-1.5c-0.4,0-0.8,0.2-1.1,0.5c-0.4,0.3-0.8,0.8-1.3,1.5c-0.1,0.1-0.2,0.1-0.3,0c-0.1-0.1-0.1-0.2-0.1-0.3
				c0.7-1,1.4-1.8,2.3-2.4c0.9-0.7,1.7-1,2.4-1c0.6,0,1,0.2,1.3,0.5c0.2,0.4,0.4,0.8,0.4,1.4c0,1.5-0.3,3.4-1,5.7
				c-0.7,2.3-1.5,4.7-2.6,7.3c-1.1,2.6-2.4,5.1-3.8,7.6c-1.4,2.5-2.9,4.8-4.5,6.9c-1.5,2-3.1,3.7-4.7,5
				C-339.2,70-340.7,70.7-342.1,70.7z"/>
		</g>
	</g>
	<path d="M-309.1,47.4c-1.4,0-2.1-0.7-2.1-2.2c0-0.5,0.1-1.1,0.2-1.8c0.1-0.7,0.3-1.4,0.5-2.1c0.2-0.7,0.5-1.5,0.9-2.2
		c0.3-0.7,0.7-1.5,1.2-2.1c-0.4,0.2-0.7,0.5-1,0.7c-0.3,0.2-0.6,0.5-0.9,0.8c-0.1,0.1-0.2,0-0.3-0.1c-0.1-0.1-0.1-0.2,0-0.3
		c0.6-0.6,1.3-1.2,2.4-1.8c1-0.6,2-1.1,3-1.5c0.2,0,0.3,0,0.4,0.1c0.1,0.1,0.1,0.2,0,0.3c-1,1.4-1.9,2.8-2.5,4.4
		c-0.6,1.6-1,3.1-1,4.6c0,0.9,0.3,1.4,0.9,1.4c0.4,0,0.9-0.3,1.6-0.9c0.6-0.6,1.3-1.3,2-2.2c0.7-0.9,1.4-2,2.1-3.1
		c0.7-1.2,1.3-2.4,1.9-3.6c0.1-0.2,0.4-0.4,0.9-0.6c0.5-0.2,1-0.3,1.4-0.3c0.5,0,0.6,0.1,0.4,0.4c-0.5,0.8-0.9,1.6-1.2,2.4
		c-0.3,0.7-0.6,1.5-0.9,2.2c-0.2,0.7-0.4,1.4-0.5,2.2c-0.1,0.7-0.2,1.5-0.2,2.4c0,1,0.3,1.6,0.8,1.6c0.6,0,1.2-0.5,1.9-1.5
		c0.1-0.1,0.2-0.1,0.3,0c0.1,0.1,0.1,0.2,0.1,0.3c-0.6,0.8-1.2,1.5-1.8,1.9c-0.7,0.4-1.3,0.7-1.8,0.7c-1.4,0-2.1-0.8-2.1-2.4
		c0-1.7,0.3-3.3,0.9-4.9c-1.2,2.2-2.5,4-3.9,5.3C-307,46.7-308.1,47.4-309.1,47.4z"/>
	<path d="M-288.9,34.9c0.7,0,1.3,0.1,1.7,0.3c0.4,0.2,0.7,0.4,0.7,0.7c0,0.4-0.1,0.8-0.3,1.2c-0.2,0.5-0.4,0.8-0.5,1.1
		c-0.1,0.1-0.1,0.1-0.2,0c-0.1,0-0.1-0.1-0.1-0.3c0.1-0.2,0.1-0.6,0.1-1c0-0.5-0.1-0.8-0.4-1.1c-0.2-0.3-0.6-0.4-1-0.4
		c-0.6,0-1,0.2-1.3,0.5s-0.5,0.8-0.5,1.4c0,0.5,0.1,1,0.4,1.5c0.3,0.5,0.6,0.9,0.9,1.4c0.3,0.5,0.7,1,1,1.5c0.3,0.5,0.4,1.1,0.4,1.8
		c0,1.2-0.5,2.1-1.4,2.7c-0.9,0.7-2.2,1-3.7,1c-1.1,0-2-0.2-2.6-0.5c-0.6-0.4-1-0.7-1-1.2c0-0.1,0-0.3,0.1-0.5
		c0.1-0.2,0.2-0.5,0.4-0.7c0.2-0.3,0.3-0.5,0.5-0.8c0.2-0.3,0.4-0.5,0.6-0.6c0.1-0.1,0.2,0,0.3,0c0.1,0.1,0.1,0.2,0,0.3
		c-0.2,0.2-0.3,0.4-0.4,0.6c-0.1,0.2-0.1,0.5-0.1,0.9c0,0.6,0.2,1.1,0.6,1.4c0.4,0.4,0.9,0.6,1.5,0.6c0.8,0,1.5-0.2,2-0.7
		c0.5-0.5,0.7-1,0.7-1.7c0-0.6-0.1-1.2-0.4-1.7c-0.3-0.5-0.6-1.1-0.9-1.6c-0.3-0.5-0.6-1-0.9-1.5c-0.3-0.5-0.4-1.1-0.4-1.7
		c0-0.8,0.4-1.6,1.1-2.1C-291.4,35.1-290.3,34.9-288.9,34.9z"/>
</g>
<g>
	<g>
		<path d="M-227.5,46c0,1.1-0.4,1.7-1.3,1.7c-0.4,0-0.8-0.2-1-0.5c0.2-0.1,0.4-0.3,0.6-0.7c0.2-0.3,0.3-0.7,0.3-1
			c0-0.3-0.1-0.6-0.3-0.8c-0.2-0.2-0.4-0.3-0.8-0.3s-0.7,0.1-1,0.4c-0.3,0.3-0.6,0.6-0.9,1c-0.6,0.9-1,2-1.4,3.3
			c-0.4,1.3-0.5,2.6-0.5,3.6c0,1.1,0.2,1.9,0.5,2.4c0.3,0.5,0.9,0.7,1.6,0.7c1.5,0,2.8-0.6,3.7-1.8l0.4,0.2
			c-0.6,1.5-1.7,2.5-3.3,3.1c-0.6,0.2-1.3,0.3-1.9,0.3c0,0,0,0-0.1,0c-1.4,0-2.4-0.4-3-1.1s-1-1.8-1-3.3s0.3-3.1,0.8-4.6
			c0.6-1.8,1.5-3.2,2.6-4.1c0.9-0.7,1.9-1,3-1c1.4,0,2.4,0.4,2.8,1.3C-227.6,45.2-227.5,45.6-227.5,46z"/>
		<path d="M-217.9,50.3c-0.7,0.8-1.8,1.3-3.3,1.5c-0.1,1.7-0.6,3-1.4,4c-0.8,1-1.8,1.5-2.9,1.5c-1.4,0-2.3-0.5-2.7-1.6
			c-0.1-0.4-0.2-0.8-0.2-1.2c0-0.4,0-0.9,0.1-1.4c0.1-0.5,0.2-0.9,0.4-1.4c0.4-1.1,0.9-2,1.6-2.7c0.8-0.8,1.8-1.2,3-1.2
			c1.6,0,2.4,1,2.4,2.9v0c0.1,0,0.2,0,0.3,0c0.3,0,0.8-0.1,1.3-0.3c0.5-0.2,1-0.5,1.5-0.8L-217.9,50.3z M-222.7,51.9
			c-0.3-0.1-0.5-0.4-0.5-0.8c0-0.5,0.2-0.8,0.6-1c0-0.4-0.1-0.7-0.2-0.8s-0.3-0.2-0.6-0.2c-0.6,0-1.1,0.6-1.6,1.9
			c-0.5,1.2-0.8,2.3-0.8,3.3c0,0.6,0.1,1,0.2,1.1c0.1,0.2,0.2,0.3,0.3,0.3c0.1,0,0.3,0.1,0.5,0.1c0.4,0,0.8-0.4,1.2-1.1
			C-223.1,53.9-222.8,53-222.7,51.9z"/>
		<path d="M-209.5,46.3c0-0.2,0-0.4,0-0.5s-0.1-0.3-0.2-0.4c-0.1-0.1-0.3-0.2-0.4-0.2c-0.7,0-1.1,0.5-1.3,1.5l-0.3,1.5h1.8l-0.2,0.7
			h-1.8l-2.1,9.9c-0.2,1.2-0.7,2-1.4,2.5c-0.5,0.4-1.2,0.6-1.9,0.6c-1,0-1.7-0.4-2-1.2c-0.6,0.8-1.4,1.2-2.5,1.2
			c-0.6,0-1.1-0.2-1.5-0.6c-0.4-0.4-0.7-0.8-0.7-1.3s0.1-0.9,0.2-1.2s0.4-0.6,0.8-0.8c0.4-0.3,1.1-0.5,2.1-0.9l2.2-10.5
			c0.4-2.1,1.6-3.1,3.3-3.1c0.4,0,0.8,0.1,1.2,0.3c0.4,0.2,0.6,0.5,0.8,0.8c0.6-0.8,1.4-1.2,2.5-1.2c0.6,0,1.1,0.2,1.5,0.6
			c0.4,0.4,0.7,0.8,0.7,1.4c0,0.3,0,0.5-0.1,0.8H-209.5z M-220.8,57.8c-0.7,0.2-1.1,0.4-1.4,0.6c-0.5,0.4-0.7,0.8-0.7,1.2
			c0,0.2,0.1,0.4,0.4,0.6c0.1,0,0.2,0.1,0.4,0.1s0.3-0.1,0.5-0.3c0.2-0.2,0.4-0.6,0.5-1.1L-220.8,57.8z M-218.8,59.9
			c0.2,0.2,0.5,0.4,1.1,0.4c0.2,0,0.4-0.1,0.6-0.3c0.2-0.2,0.4-0.6,0.5-1.1l0.4-2.1l-1.9,0.3l-0.3,1.7
			C-218.6,59.2-218.7,59.6-218.8,59.9z M-214.6,48.9h-1.8l-1.6,7.8l1.9-0.3L-214.6,48.9z M-214.4,48.1l0.4-1.9c0-0.1,0-0.3,0-0.5
			c0-0.2-0.1-0.3-0.2-0.4c-0.1-0.1-0.3-0.2-0.4-0.2c-0.7,0-1.1,0.5-1.3,1.5l-0.3,1.5H-214.4z"/>
		<path d="M-203.1,54c-1.4,2.3-3.1,3.4-5.1,3.4c-0.9,0-1.6-0.2-2.1-0.7c-0.5-0.5-0.8-1.2-0.8-2.2c0-1.4,0.4-2.8,1.1-4.1
			c0.5-1,1.3-1.7,2.2-2.1c0.5-0.2,1-0.3,1.5-0.3c0.8,0,1.4,0.2,1.7,0.5c0.3,0.3,0.5,0.7,0.5,1.3c0,1-0.4,1.9-1.3,2.7
			c-0.8,0.7-1.8,1.1-3,1.2c0,0.3,0,0.6,0,0.7c0,0.6,0.1,1,0.3,1.2s0.5,0.3,0.9,0.3c0.7,0,1.3-0.2,1.8-0.5c0.5-0.3,1-0.8,1.5-1.4
			H-203.1z M-205.5,49.6c0-0.4-0.2-0.7-0.5-0.7c-0.4,0-0.9,0.4-1.3,1.2c-0.4,0.8-0.7,1.6-0.9,2.6c0.7,0,1.3-0.4,1.9-1
			C-205.7,51.1-205.5,50.4-205.5,49.6z"/>
		<path d="M-201.3,54.2c0,1,0.4,1.5,1.2,1.5c0.3,0,0.7-0.1,1.1-0.3s0.7-0.4,1-0.7c-0.3,1.8-1.4,2.7-3.2,2.7c-0.9,0-1.6-0.2-2.1-0.7
			c-0.5-0.5-0.8-1.2-0.8-2.2c0-1.4,0.4-2.8,1.1-4.1c0.5-1,1.3-1.7,2.2-2.1c0.5-0.2,1-0.3,1.5-0.3c0.8,0,1.4,0.2,1.7,0.5
			c0.3,0.3,0.5,0.7,0.5,1.3c0,1.1-0.4,1.9-1.3,2.7c-0.8,0.7-1.8,1.1-3,1.2C-201.3,53.8-201.3,54-201.3,54.2z M-198.4,49.6
			c0-0.4-0.2-0.7-0.5-0.7c-0.6,0-1.1,0.7-1.7,2c-0.2,0.6-0.4,1.2-0.5,1.8c0.7,0,1.3-0.3,1.9-1S-198.4,50.4-198.4,49.6z"/>
		<path d="M-190.4,47.2c0.6-0.3,0.8-0.9,0.8-1.7c0-0.2-0.1-0.5-0.3-0.7c-0.2-0.3-0.6-0.4-1.1-0.4c-0.5,0-0.9,0.1-1.2,0.4
			c-0.3,0.3-0.5,0.6-0.5,1.1s0.1,0.8,0.2,1.1c0.2,0.5,0.6,1,1.1,1.5l0.8,0.7c0.7,0.6,1.1,1.1,1.4,1.5c0.5,0.8,0.7,1.6,0.7,2.4
			c0,1.5-0.5,2.7-1.6,3.5c-1,0.8-2.1,1.1-3.6,1.1c-1.8,0-3-0.6-3.6-1.7c-0.2-0.4-0.3-0.9-0.3-1.4c0-1,0.3-1.7,0.8-2.3
			c0.6-0.5,1.2-0.8,1.8-0.8c0.7,0,1.2,0.2,1.5,0.6c0.1,0.2,0.2,0.4,0.2,0.6c-0.9,0-1.6,0.3-2,0.9c-0.1,0.2-0.2,0.5-0.2,0.7
			c0,0.5,0.2,1,0.5,1.3c0.3,0.3,0.8,0.5,1.4,0.5s1.1-0.2,1.5-0.6c0.4-0.4,0.6-1,0.6-1.6s-0.1-1.2-0.3-1.6c-0.2-0.4-0.4-0.8-0.7-1.2
			c-0.3-0.4-0.6-0.7-0.9-1c-0.3-0.3-0.6-0.7-0.9-1c-0.7-0.8-1-1.6-1-2.3c0-0.9,0.4-1.7,1.2-2.4s1.8-0.9,3-0.9c1.5,0,2.4,0.4,2.8,1.3
			c0.1,0.2,0.2,0.6,0.2,1c0,0.4-0.1,0.8-0.4,1.2c-0.3,0.3-0.6,0.5-1,0.5S-190.1,47.5-190.4,47.2z"/>
		<path d="M-183,48c1.5,0,2.2,0.6,2.2,1.7c0,0.5-0.1,0.8-0.3,1c-0.2,0.2-0.4,0.3-0.6,0.3s-0.5-0.1-0.7-0.2c0.1-0.4,0.2-0.8,0.2-1.1
			c0-0.5-0.2-0.8-0.5-0.8c-0.3,0-0.7,0.3-1.1,1c-0.6,0.9-0.9,2-1.1,3.3c-0.1,0.4-0.1,0.8-0.1,1.3c0,0.9,0.4,1.3,1.3,1.3
			c0.7,0,1.3-0.2,1.8-0.5c0.5-0.3,1-0.8,1.5-1.4h0.6c-1.4,2.3-3.1,3.4-5.1,3.4c-0.9,0-1.6-0.2-2.1-0.7c-0.5-0.5-0.8-1.2-0.8-2.2
			c0-1.4,0.4-2.8,1.1-4.1c0.5-1,1.3-1.7,2.2-2.1C-184,48.1-183.5,48-183,48z"/>
		<path d="M-181.2,57.3l1.9-9.2h2.6l-0.2,1.1c0.3-0.3,0.6-0.5,1-0.8c0.4-0.2,0.8-0.4,1.2-0.4c0.4,0,0.7,0.1,1,0.4
			c0.2,0.3,0.3,0.6,0.3,0.8c0,0.4-0.1,0.8-0.4,1.1s-0.5,0.4-0.9,0.4c-0.3,0-0.6-0.1-0.7-0.2s-0.2-0.3-0.2-0.5c0-0.2-0.1-0.3-0.1-0.4
			c0-0.1-0.1-0.1-0.2-0.1c-0.3,0-0.5,0.1-0.7,0.2c-0.2,0.1-0.4,0.3-0.7,0.5l-1.5,7H-181.2z"/>
		<path d="M-167.9,54c-0.8,2.3-2.1,3.4-4,3.4c-0.5,0-0.9-0.2-1.3-0.5c-0.4-0.3-0.6-0.9-0.6-1.7c0-0.3,0-0.7,0.1-1.2l1.2-5.9h2.6
			l-1.3,6.2c0,0.2-0.1,0.4-0.1,0.7c0,0.4,0.2,0.6,0.7,0.6c0.4,0,0.7-0.2,1-0.5s0.5-0.7,0.7-1.2H-167.9z M-169,45.7
			c0,0.4-0.1,0.7-0.4,1s-0.6,0.4-1,0.4s-0.7-0.1-1-0.4c-0.3-0.3-0.4-0.6-0.4-1s0.1-0.7,0.4-1c0.3-0.3,0.6-0.4,1-0.4
			c0.4,0,0.8,0.1,1,0.4S-169,45.3-169,45.7z"/>
		<path d="M-166.6,56.8l-1,4.5l-2.8,0.7l3.1-14.5h2.6l-0.3,1.4c0.6-0.5,1.3-0.8,2.1-0.8c1.1,0,1.7,0.5,2.1,1.5
			c0.1,0.4,0.2,0.8,0.2,1.3c0,0.5,0,1-0.1,1.4c-0.1,0.5-0.2,1-0.3,1.4c-0.1,0.5-0.3,0.9-0.5,1.4c-0.2,0.4-0.5,0.8-0.8,1.2
			c-0.3,0.3-0.7,0.6-1.2,0.8c-0.5,0.2-1,0.3-1.7,0.3C-165.9,57.4-166.4,57.2-166.6,56.8z M-163,50.9c0-1-0.3-1.5-0.9-1.5
			c-0.2,0-0.4,0.1-0.7,0.2c-0.2,0.1-0.4,0.4-0.6,0.7l-1.1,5.1c0.1,0.3,0.4,0.4,0.8,0.4s0.8-0.2,1.1-0.5c0.6-0.7,1.1-1.7,1.2-2.9
			C-163.1,51.8-163,51.3-163,50.9z"/>
		<path d="M-158.9,48.9h-0.6l0.2-0.7h0.6l0.6-2.5l2.7-0.4l-0.6,2.9h1.1l-0.1,0.7h-1.1l-1.2,5.5c-0.1,0.2-0.1,0.4-0.1,0.6
			s0,0.4,0.1,0.5s0.2,0.2,0.5,0.2s0.4,0,0.5-0.1c-0.4,1-0.8,1.6-1.5,1.7c-0.2,0-0.3,0.1-0.5,0.1c-0.7,0-1.1-0.2-1.4-0.6
			c-0.3-0.4-0.4-0.8-0.4-1.3s0-0.8,0.1-1.2L-158.9,48.9z"/>
	</g>
	<g>
		<g>
			<path d="M-198.6,20.4c-0.3-0.2-0.8-0.3-1.5-0.3c-0.2,0-0.4,0-0.6,0.1c-0.2,0.1-0.3,0.2-0.3,0.4s0.1,0.3,0.4,0.4s0.6,0.2,1,0.2
				s0.7,0,0.9-0.1c0.4-0.1,0.9-0.2,1.3-0.4l0.6-0.3c0.5-0.2,1.2-0.7,1.6-0.8c0.7-0.2,1.4-0.3,2.1-0.3c1.3,0,2.4,0.2,3.1,0.6
				c0.7,0.3,0.8,1.1,0.8,1.6c0,0.6-0.5,1.1-1.5,1.3c-0.4,0.1-0.8,0.1-1.2,0.1c-0.8,0-1.5-0.1-2-0.3s-0.7-0.4-0.7-0.7
				s0.2-0.4,0.5-0.5c0.1,0,0.3-0.1,0.5-0.1c0,0.3,0.3,0.6,0.8,0.7c0.2,0,0.4,0.1,0.7,0.1c0.5,0,0.8-0.1,1.1-0.2
				c0.3-0.1,0.5-0.3,0.5-0.5s-0.2-0.4-0.6-0.5s-0.8-0.2-1.4-0.2s-1,0-1.4,0.1s-0.7,0.2-1,0.3s-0.6,0.2-0.9,0.3
				c-0.3,0.1-0.6,0.2-0.9,0.3c-0.7,0.2-1.4,0.4-2,0.4c-0.8,0-1.5-0.1-2.1-0.4c-0.6-0.3-0.8-0.7-0.8-1.1c0-0.5,0.4-0.9,1.2-1
				c0.2,0,0.5-0.1,0.9-0.1c0.4,0,0.7,0,1,0.1c0.3,0.1,0.5,0.2,0.5,0.4S-198.4,20.3-198.6,20.4z"/>
		</g>
		<g>
			<path d="M-195.3,26.6c-9.7,0-11-2.3-11-2.3c0,1.2,0.3,2.4,0.7,3.5c-0.6,0.5-2.2,2-2.2,4.2c0,2.8,3.3,4.5,5.5,3.1
				c0,0-3.7-0.5-3.7-3.8c0-1.2,0.4-2,1-2.5c0.9,2,2.2,3.5,2.6,4.1c0.8,1,1,0.7,1.5,2.6c0.4,1.6,4,2.5,6,2.5v0c0,0,0,0,0,0
				c0,0,0,0,0,0v0c2-0.1,5.3-0.9,5.7-2.5c0.5-2,0.5-1.6,1.3-2.6c0.8-1,3.8-4.7,3.8-8.7C-184.3,24.3-185.5,26.6-195.3,26.6z"/>
			<path d="M-195,25.2v1.5c0,0-0.4,0-0.4,0s0.4,0,0.4,0V25.2c11,0,11-3,11-3l-1.3-1.3c2.7,2.7-8.6,3-9.9,3c-1.3,0-12.7-0.3-9.9-3
				l-1,1.3C-206.3,22.2-207,25.1-195,25.2z"/>
		</g>
	</g>
</g>
<g>
	<path d="M-357.2-57.3c0-0.8,0.3-1.5,0.9-2.1s1.3-0.9,2.1-0.9c0.8,0,1.6,0.3,2.1,0.9c0.6,0.6,0.9,1.3,0.9,2.1s-0.3,1.6-0.9,2.1
		c-0.6,0.6-1.3,0.9-2.1,0.9c-0.8,0-1.6-0.3-2.1-0.9S-357.2-56.5-357.2-57.3z M-351.8-49v31h-4.6v-31H-351.8z"/>
	<path d="M-331.1-49h4.7v20.1h-4.7V-31c-1.9,1.8-4,2.7-6.2,2.7c-2.8,0-5.1-1-6.9-3c-1.8-2-2.7-4.6-2.7-7.7c0-3,0.9-5.5,2.7-7.5
		c1.8-2,4.1-3,6.8-3c2.3,0,4.4,1,6.3,2.9V-49z M-342.1-39c0,1.9,0.5,3.5,1.5,4.7c1.1,1.2,2.4,1.8,4,1.8c1.7,0,3.1-0.6,4.2-1.8
		c1.1-1.2,1.6-2.8,1.6-4.7c0-1.9-0.5-3.4-1.6-4.7c-1.1-1.2-2.4-1.8-4.1-1.8c-1.6,0-2.9,0.6-4,1.8C-341.6-42.3-342.1-40.8-342.1-39z"
		/>
	<path d="M-305.8-63.7h4.7v34.8h-4.7V-31c-1.8,1.8-3.9,2.7-6.2,2.7c-2.7,0-5-1-6.8-3c-1.8-2-2.7-4.6-2.7-7.7c0-3,0.9-5.5,2.7-7.5
		c1.8-2,4-3,6.7-3c2.4,0,4.5,1,6.3,2.9V-63.7z M-316.8-39c0,1.9,0.5,3.5,1.5,4.7c1.1,1.2,2.4,1.8,4,1.8c1.7,0,3.1-0.6,4.2-1.8
		c1.1-1.2,1.6-2.8,1.6-4.7c0-1.9-0.5-3.4-1.6-4.7c-1.1-1.2-2.4-1.8-4.1-1.8c-1.6,0-2.9,0.6-4,1.8C-316.3-42.3-316.8-40.8-316.8-39z"
		/>
	<path d="M-277-37.8h-14.4c0.1,1.6,0.7,3,1.6,3.9c0.9,1,2.2,1.4,3.6,1.4c1.2,0,2.1-0.3,2.9-0.8c0.7-0.5,1.6-1.6,2.5-3.1l3.9,2.2
		c-0.6,1-1.2,1.9-1.9,2.6c-0.7,0.7-1.4,1.3-2.2,1.8s-1.6,0.8-2.5,1s-1.9,0.3-2.9,0.3c-3,0-5.4-1-7.2-2.9c-1.8-1.9-2.7-4.5-2.7-7.7
		c0-3.2,0.9-5.7,2.6-7.7c1.8-1.9,4.1-2.9,7.1-2.9c3,0,5.3,0.9,7,2.8c1.7,1.9,2.6,4.5,2.6,7.8L-277-37.8z M-281.8-41.6
		c-0.6-2.5-2.2-3.7-4.7-3.7c-0.6,0-1.1,0.1-1.6,0.3c-0.5,0.2-0.9,0.4-1.4,0.7c-0.4,0.3-0.8,0.7-1,1.2c-0.3,0.5-0.5,1-0.7,1.5H-281.8
		z"/>
</g>
<g>
	<g>
		<path d="M-93.6-47.4c1.8-2.9,4.2-4.4,7.2-4.4c2.6,0,4.7,1.4,4.7,4c0,2.5-2.9,9.4-2.9,10.8c0,0.8,0.4,1.1,1.1,1.1
			c0.5,0,0.8-0.1,1.4-0.3l-0.7,2.7c-1,0.3-2.1,0.5-3.2,0.5c-2.4,0-3.8-0.9-3.8-3.2c0-2.1,2.9-8.8,2.9-10.6c0-1.3-0.9-1.9-2-1.9
			c-3,0-5.6,4.3-8.4,15.2h-4.9l5.5-20.5c0.2-0.8,0.1-1.1-0.3-1.1h-1.9l0.8-2.8h3.2c1.8,0,3.5-0.2,4.4-0.4L-93.6-47.4z"/>
		<path d="M-79.9-39.8c0-6.2,4-12.1,9.9-12.1c2.8,0,4.7,1.5,5.3,3.9l1-3.4h1.8c1.3,0,2.3-0.1,3.1-0.4l-2.8,10.6c-0.5,1.8-1,3.3-1,4
			c0,0.8,0.4,1.2,1.1,1.2c0.5,0,0.8-0.1,1.4-0.3l-0.7,2.7c-1,0.3-1.9,0.5-3,0.5c-2.5,0-3.9-1.1-3.9-3.2c-1.5,1.9-3.5,3.2-5.9,3.2
			C-77.4-33.1-79.9-35.9-79.9-39.8z M-65.7-45.2c0-2.2-1.4-3.7-3.3-3.7c-3.3,0-5.9,4.4-5.9,9c0,2.4,1.4,3.8,3.4,3.8
			C-68.3-36.1-65.7-40.8-65.7-45.2z"/>
		<path d="M-49.2-48.4c1.3-2.2,3.1-3.6,5.3-3.6c2.3,0,3.7,1.4,3.8,3.5c0.1,2.5-1.5,4.7-3.6,4.7c-1.6,0-2.5-0.9-2.5-2.2
			c0-1.1,0.8-2.3,2.1-2.5c-0.2-0.3-0.8-0.6-1.3-0.6c-3,0-4.4,3.4-6.1,9.6l-1.6,5.9h-4.9l3.9-14c0.2-0.8,0.1-1.1-0.3-1.1h-2.2
			l0.7-2.8h3.4c1.8,0,3.5-0.2,4.4-0.4L-49.2-48.4z"/>
		<path d="M-43.6-30h1.6c0.4,0,0.7-0.1,0.9-1l4.6-16.6c0.2-0.8,0.1-1.1-0.3-1.1H-39l0.7-2.8h3.3c1.8,0,3.5-0.2,4.4-0.4l-0.7,2.7
			c1.4-1.6,3.3-2.8,5.5-2.8c4,0,6.4,2.9,6.4,6.9c0,6.2-3.7,11.9-9.6,11.9c-2.9,0-4.8-1.5-5.5-3.9l-1.6,6c-0.2,0.8,0,1,0.4,1h1.9
			l-0.7,2.8h-9.7L-43.6-30z M-24.4-45.1c0-2.4-1.4-3.8-3.4-3.8c-3.3,0-5.8,4.8-5.7,9.1c0,1.9,1.3,3.6,3.4,3.6
			C-27-36.1-24.3-40.5-24.4-45.1z"/>
	</g>
	<g>
		<path d="M-81.6-27.9c0,0.7-0.2,1.3-0.5,1.7c-0.4,0.4-0.9,0.6-1.6,0.6H-84v2.5h-1.3v-6.8h1.7C-82.2-29.9-81.6-29.2-81.6-27.9z
			 M-84-26.7h0.2c0.3,0,0.5-0.1,0.7-0.3c0.1-0.2,0.2-0.4,0.2-0.8c0-0.4-0.1-0.6-0.2-0.8s-0.4-0.3-0.6-0.3H-84
			C-84-28.9-84-26.7-84-26.7z"/>
		<path d="M-80.7-23.2v-6.8h1.3v5.7h1.7v1.1H-80.7z"/>
		<path d="M-73.3-23.2l-0.4-1.7h-1.8l-0.4,1.7h-1.3l1.7-6.8h1.7l1.7,6.8H-73.3z M-74-26l-0.4-1.6c0-0.1-0.1-0.3-0.1-0.7
			c-0.1-0.4-0.1-0.6-0.1-0.8c0,0.3-0.1,0.6-0.2,0.9c-0.1,0.3-0.2,1.1-0.5,2.2C-75.3-26-74-26-74-26z"/>
		<path d="M-69.8-23.2H-71v-5.7h-1.3v-1.1h3.9v1.1h-1.3C-69.8-28.8-69.8-23.2-69.8-23.2z"/>
		<path d="M-66.5-23.2h-1.3v-6.8h3v1.1h-1.8v1.9h1.7v1.1h-1.7C-66.5-25.9-66.5-23.2-66.5-23.2z"/>
		<path d="M-59.2-26.6c0,1.1-0.2,2-0.6,2.6c-0.4,0.6-1,0.9-1.8,0.9c-0.8,0-1.4-0.3-1.8-0.9c-0.4-0.6-0.6-1.5-0.6-2.6
			c0-1.1,0.2-2,0.6-2.6c0.4-0.6,1-0.9,1.8-0.9c0.8,0,1.4,0.3,1.8,0.9C-59.4-28.5-59.2-27.7-59.2-26.6z M-62.8-26.6
			c0,0.8,0.1,1.4,0.3,1.8c0.2,0.4,0.5,0.6,0.9,0.6c0.8,0,1.1-0.8,1.1-2.4s-0.4-2.4-1.1-2.4c-0.4,0-0.7,0.2-0.9,0.6
			C-62.7-27.9-62.8-27.3-62.8-26.6z"/>
		<path d="M-57-25.8v2.6h-1.3v-6.8h1.6c0.7,0,1.2,0.2,1.5,0.5c0.3,0.3,0.5,0.8,0.5,1.5c0,0.9-0.3,1.5-0.9,1.8l1.3,3h-1.4l-1.1-2.6
			H-57z M-57-26.9h0.3c0.3,0,0.5-0.1,0.6-0.3c0.1-0.2,0.2-0.4,0.2-0.8c0-0.3-0.1-0.6-0.2-0.7s-0.3-0.2-0.6-0.2h-0.3L-57-26.9
			L-57-26.9z"/>
		<path d="M-50.7-23.2l-1.3-5.8h0c0.1,0.4,0.1,0.9,0.1,1.2v4.6h-1.2v-6.8h1.9l1.2,5.3h0l1.2-5.3h2v6.8h-1.2v-4.6
			c0-0.4,0-0.8,0.1-1.2h0l-1.3,5.8H-50.7z"/>
	</g>
</g>
<g>
	<path d="M-70.8,47.4v-7.8c0-0.6-0.4-0.8-0.9-0.8c-1,0-2.1,0.2-3.2,0.7v7.9h-2.2V32.9h2.2v4.8c1-0.4,2.3-0.7,3.5-0.7
		c2,0,2.7,1.2,2.7,2.9v7.5H-70.8L-70.8,47.4z M-64.5,42.7c0.1,2.6,0.6,3.1,2.2,3.1c1.3,0,2.7-0.4,3.8-0.8l0.4,1.6
		c-1.2,0.5-2.6,1-4.3,1c-3.7,0-4.2-2-4.2-5.2c0-1.8,0.1-3.4,0.6-4.8c1.1-0.4,2.6-0.6,4.4-0.6c3,0,3.9,1.7,3.9,4.6v1.1H-64.5
		L-64.5,42.7z M-61.8,38.8c-0.7,0-1.7,0-2.6,0.2c-0.1,0.4-0.2,1-0.2,2.2h4.6C-60,39.6-60.3,38.8-61.8,38.8L-61.8,38.8z M-53.7,39.5
		v7.9h-2.2v-8.9c1.9-1,3.8-1.3,5.1-1.4V39C-51.7,39-52.9,39.1-53.7,39.5L-53.7,39.5z M-45,47.7c-3.3,0-4.8-1.6-4.8-5.3
		c0-3.9,2-5.4,4.8-5.4c3.3,0,4.8,1.6,4.8,5.3C-40.2,46.2-42.2,47.7-45,47.7L-45,47.7z M-45,38.8c-1.7,0-2.6,1-2.6,3.6
		c0,2.8,0.8,3.4,2.6,3.4c1.7,0,2.6-1,2.6-3.5C-42.4,39.4-43.2,38.8-45,38.8L-45,38.8z M-29.6,47.4h-2.6c-0.6-1.6-1.4-3.3-2.7-4.7
		h-1.2v4.7h-2.2V32.9h2.2v8.3h1c1.1-1.2,2-2.6,2.6-4h2.5c-0.8,1.7-1.9,3.2-3.1,4.4C-31.7,43.5-30.6,45.4-29.6,47.4L-29.6,47.4z
		 M-25.5,47.7c-2,0-2.7-1.2-2.7-2.9v-7.5h2.2V45c0,0.6,0.4,0.8,0.9,0.8c1,0,2.3-0.2,3.3-0.7v-7.9h2.2v8.8
		C-22.3,47.5-24.3,47.7-25.5,47.7L-25.5,47.7z"/>
	<path class="st0" d="M-84.3,52.8h-15.3c-1.3,0-2.4-1.1-2.4-2.4V30.3c0-1.3,1.1-2.4,2.4-2.4h15.3c1.3,0,2.4,1.1,2.4,2.4v20.1
		C-82,51.7-83,52.8-84.3,52.8L-84.3,52.8z M-82.8,30.4c0-0.9-0.8-1.7-1.7-1.7h-15c-0.9,0-1.7,0.8-1.7,1.7v19.9
		c0,0.9,0.8,1.7,1.7,1.7h15c0.9,0,1.7-0.8,1.7-1.7V30.4L-82.8,30.4z"/>
	<path d="M-89.4,49.3v-9.9c0,0,0.6-2.4-7.9,1c0,0,0-9.1,0-9.1l2.8,0v5.9c0,0,7.8-3.1,7.8,2.3c0,5.4,0,9.8,0,9.8H-89.4L-89.4,49.3z
		 M-87.8,34.8c0,0-2.9,0-3,0c1.1-1.3,2-3.5,2-3.5h3.1C-85.7,31.3-86.2,32.8-87.8,34.8L-87.8,34.8z M-97.3,49.3v-5.6l2.8,2.8
		L-97.3,49.3L-97.3,49.3z"/>
</g>
<g>
	<path d="M34.8-41.6h-6.9c-0.2,0-0.3,0.1-0.3,0.3v3.4c0,0.2,0.1,0.3,0.3,0.3h2.7v4.2c0,0-0.6,0.2-2.3,0.2c-2,0-4.8-0.7-4.8-6.8
		c0-6.1,2.9-6.9,5.6-6.9c2.3,0,3.4,0.4,4,0.6c0.2,0.1,0.4-0.1,0.4-0.3l0.8-3.3c0-0.1,0-0.2-0.1-0.3c-0.3-0.2-1.9-1.1-5.9-1.1
		c-4.6,0-9.4,2-9.4,11.4c0,9.5,5.4,10.9,10,10.9c3.8,0,6.1-1.6,6.1-1.6c0.1-0.1,0.1-0.2,0.1-0.2v-10.6C35.1-41.5,35-41.6,34.8-41.6z
		"/>
	<path d="M70.5-50c0-0.2-0.1-0.3-0.3-0.3h-3.9c-0.2,0-0.3,0.1-0.3,0.3c0,0,0,7.6,0,7.6h-6.1V-50c0-0.2-0.1-0.3-0.3-0.3h-3.9
		c-0.2,0-0.3,0.1-0.3,0.3v20.4c0,0.2,0.1,0.3,0.3,0.3h3.9c0.2,0,0.3-0.1,0.3-0.3v-8.7H66c0,0,0,8.7,0,8.7c0,0.2,0.1,0.3,0.3,0.3h3.9
		c0.2,0,0.3-0.1,0.3-0.3V-50z"/>
	<g>
		<g>
			<ellipse cx="39.6" cy="-47.3" rx="2.5" ry="2.5"/>
			<path d="M41.9-33.9c0-0.5,0-9.4,0-9.4c0-0.2-0.1-0.3-0.3-0.3h-3.9c-0.2,0-0.3,0.2-0.3,0.4c0,0,0,11.4,0,13.5
				c0,0.4,0.2,0.5,0.6,0.5c0,0,1.7,0,3.5,0c0.4,0,0.5-0.2,0.5-0.5C41.9-30.5,41.9-33.3,41.9-33.9z"/>
		</g>
	</g>
	<path d="M85.4-43.6h-3.9c-0.2,0-0.3,0.1-0.3,0.3v10c0,0-1,0.7-2.4,0.7c-1.4,0-1.8-0.6-1.8-2c0-1.4,0-8.7,0-8.7
		c0-0.2-0.1-0.3-0.3-0.3h-3.9c-0.2,0-0.3,0.1-0.3,0.3c0,0,0,5.3,0,9.4c0,4.1,2.3,5.1,5.4,5.1c2.6,0,4.6-1.4,4.6-1.4s0.1,0.7,0.1,0.8
		c0,0.1,0.2,0.2,0.3,0.2l2.5,0c0.2,0,0.3-0.1,0.3-0.3l0-13.7C85.7-43.5,85.6-43.6,85.4-43.6z"/>
	<path d="M96-44.1c-2.2,0-3.7,1-3.7,1V-50c0-0.2-0.1-0.3-0.3-0.3h-3.9c-0.2,0-0.3,0.1-0.3,0.3v20.4c0,0.2,0.1,0.3,0.3,0.3
		c0,0,2.7,0,2.7,0c0.1,0,0.2-0.1,0.3-0.2c0.1-0.1,0.2-0.9,0.2-0.9s1.6,1.5,4.6,1.5c3.6,0,5.6-1.8,5.6-8.1
		C101.5-43.3,98.2-44.1,96-44.1z M94.5-32.6c-1.3,0-2.3-0.7-2.3-0.7v-6.5c0,0,0.9-0.6,2-0.7c1.4-0.1,2.7,0.3,2.7,3.6
		C97-33.2,96.3-32.5,94.5-32.6z"/>
	<path d="M53.1-43.7h-2.9c0,0,0-3.9,0-3.9c0-0.1-0.1-0.2-0.2-0.2h-4c-0.2,0-0.2,0.1-0.2,0.2v4c0,0-2,0.5-2.1,0.5
		c-0.1,0-0.2,0.2-0.2,0.3v2.5c0,0.2,0.1,0.3,0.3,0.3h2c0,0,0,2.6,0,6c0,4.5,3.2,4.9,5.3,4.9c1,0,2.1-0.3,2.3-0.4
		c0.1,0,0.2-0.2,0.2-0.3l0-2.8c0-0.2-0.2-0.3-0.3-0.3c-0.2,0-0.6,0.1-1.1,0.1c-1.4,0-1.9-0.7-1.9-1.5c0-0.9,0-5.7,0-5.7h2.9
		c0.2,0,0.3-0.1,0.3-0.3v-3.1C53.4-43.5,53.3-43.7,53.1-43.7z"/>
</g>
<g id="Logotype">
	<path d="M25.4,35.7c-1.5,0-2.7,0.4-3.5,1l0,0c-0.4-0.7-1.2-1.1-2.2-1.1c-1.6,0-2.3,0.4-2.3,1.2c0,0.5,0.1,0.7,0.2,1.1h1.2
		c0.5,0,0.8,0.2,0.8,0.9h0v8.7c0,0.2,0.2,0.4,0.4,0.4h1.6c0.2,0,0.4-0.2,0.4-0.4v-6.7c0-1.9,1-2.8,3-2.8c1.2,0,1.6,0.2,1.8,0.4
		c0.2,0.2,0.4,0.6,0.4,1.6v7.6c0,0.2,0.2,0.4,0.4,0.4h1.6c0.2,0,0.4-0.2,0.4-0.4v-7.3c0-1.7-0.3-2.9-1-3.5
		C28.3,36,27.1,35.7,25.4,35.7z"/>
	<path d="M36.9,35.7c-2.2,0-3.6,0.4-4.3,1.2c-0.7,0.8-1,2.4-1,5c0,2.5,0.3,4.2,1,5c0.7,0.8,2.1,1.2,4.3,1.2c2.2,0,3.7-0.4,4.4-1.2
		c0.7-0.8,1-2.4,1-5c0-2.5-0.3-4.2-1-5C40.6,36.1,39.1,35.7,36.9,35.7z M39.3,45.3c-0.1,0.2-0.6,0.5-2.4,0.5c-1.7,0-2.2-0.3-2.4-0.5
		c-0.2-0.2-0.4-1-0.4-3.4c0-2.5,0.3-3.2,0.4-3.4c0.1-0.2,0.6-0.5,2.4-0.5c1.7,0,2.2,0.3,2.4,0.5c0.2,0.2,0.4,1,0.4,3.4
		C39.7,44.4,39.4,45.1,39.3,45.3z"/>
	<path d="M66.6,43.7h-1.7c-0.2,0-0.4,0.2-0.4,0.4v0.4c0,0.4-0.1,0.9-0.4,1.1c-0.2,0.1-0.7,0.3-2.4,0.3c-1.6,0-2.2-0.4-2.3-0.6
		c-0.2-0.2-0.4-0.8-0.5-2.7h7.6c0.2,0,0.4-0.2,0.4-0.4v-0.9c0-2.3-0.4-3.7-1.1-4.5c-0.7-0.8-2.2-1.1-4.4-1.1c-2,0-3.4,0.4-4.1,1.3
		c-0.7,0.9-1.1,2.4-1.1,4.8c0,2.5,0.4,4.2,1.1,5c0.7,0.9,2.2,1.3,4.4,1.3c1.9,0,3.2-0.3,4-0.8c0.8-0.5,1.3-1.5,1.3-2.8l0-0.4
		C67,43.9,66.9,43.7,66.6,43.7z M59.5,38.4c0.2-0.2,0.7-0.5,2.3-0.5c1.6,0,2.1,0.3,2.3,0.4c0.2,0.2,0.5,0.6,0.5,2.1l0,0.1H59
		C59.1,39.1,59.3,38.6,59.5,38.4z"/>
	<path d="M70.7,35.9h-1.6c-0.2,0-0.4,0.2-0.4,0.4v12.2c0,0.9-0.1,1.3-0.2,1.4L68.2,50h-1.3c-0.7,0.4-1.1,2.2,1.3,2.2l0,0
		c0.1,0,0.1,0,0.2,0c1.3,0,2.7-0.6,2.7-3.2V36.3C71.1,36.1,70.9,35.9,70.7,35.9z"/>
	<path d="M75.2,35.9h-1.6c-0.2,0-0.4,0.2-0.4,0.4v11.2c0,0.2,0.2,0.4,0.4,0.4h1.6c0.2,0,0.4-0.2,0.4-0.4V36.3
		C75.6,36.1,75.4,35.9,75.2,35.9z"/>
	<path d="M92,40.8l-3-0.2c-0.9,0-1.2-0.5-1.2-1.4c0-0.8,0.2-1,0.3-1.1c0.1-0.1,0.6-0.2,2.1-0.2c1.7,0,2.1,0.2,2.2,0.2
		c0.1,0.1,0.3,0.4,0.3,1.1c0,0.2,0.2,0.4,0.4,0.4h1.6c0.2,0,0.4-0.2,0.4-0.4v-0.4c0-2.1-1.6-3.1-4.9-3.1c-2,0-3.3,0.2-4,0.7
		c-0.7,0.5-1.1,1.5-1.1,2.9c0,1.5,0.5,2.5,1.4,3c0.9,0.5,2.5,0.7,5.1,0.7c0.6,0,1.2,0.2,1.2,1.3c0,0.7-0.1,1.1-0.4,1.2
		c-0.2,0.1-0.8,0.3-2.4,0.3c-1.3,0-1.8-0.2-2-0.3c-0.2-0.2-0.4-0.5-0.4-1.1l0-0.5c0-0.2-0.2-0.4-0.4-0.4h-1.7
		c-0.2,0-0.4,0.2-0.4,0.4l0,0.6c0,1.3,0.4,2.3,1.2,2.8c0.8,0.5,2.1,0.7,4,0.7c1.9,0,3.2-0.3,3.9-0.8c0.8-0.6,1.2-1.5,1.2-2.9
		C95.4,42.1,94.2,40.9,92,40.8z"/>
	<path d="M108.2,45.8h-0.7c-0.5,0-0.8-0.2-0.8-0.9v-8.6c0-0.2-0.2-0.4-0.4-0.4h-1.6c-0.2,0-0.4,0.2-0.4,0.4v6.4
		c0,1.2-0.2,2.1-0.6,2.5c-0.4,0.4-1.2,0.6-2.3,0.6c-1.1,0-1.5-0.2-1.7-0.4c-0.1-0.1-0.4-0.6-0.4-1.7v-7.5c0-0.2-0.2-0.4-0.4-0.4
		h-1.6c-0.2,0-0.4,0.2-0.4,0.4v7.5c0,2.8,1.5,4.3,4.4,4.3c1.4,0,2.4-0.3,3.2-0.9l0.1-0.2c0.3,0.7,0.8,1,1.7,1c1.6,0,2.3-0.4,2.3-1.2
		C108.4,46.4,108.3,46.1,108.2,45.8z"/>
	<path d="M55,45.8c-0.4,0-0.7-0.2-0.8-0.7V33.8c0-0.2-0.2-0.4-0.4-0.4h-1.6c-0.2,0-0.4,0.2-0.4,0.4v2.7c-0.7-0.5-1.8-0.8-3.3-0.8
		c-1.8,0-3,0.5-3.7,1.4c-0.7,0.9-1,2.4-1,4.6c0,2.4,0.3,4,1,4.9c0.7,0.9,2,1.4,3.9,1.4c1.4,0,2.4-0.3,3.1-0.8l0.2-0.1
		c0.3,0.6,0.8,1,1.7,1c1.6,0,2.3-0.4,2.3-1.2c0-0.5-0.1-0.7-0.2-1.1H55z M48.8,45.9c-1.1,0-1.8-0.2-2.1-0.7
		c-0.2-0.4-0.5-1.2-0.5-3.5c0-2,0.3-2.8,0.5-3.1c0.3-0.4,1-0.7,2.1-0.7c1.1,0,1.9,0.2,2.3,0.7c0.3,0.3,0.6,1.1,0.6,3
		c0,2.3-0.3,3.3-0.5,3.6C50.8,45.6,50,45.9,48.8,45.9z"/>
	<path d="M83.6,35.9h-1.2h-0.6h-0.7v-2.3c0-0.2-0.2-0.4-0.4-0.4h-1.6c-0.2,0-0.4,0.2-0.4,0.4v2.3h-1.1c-0.2,0-0.4,0.2-0.4,0.4v1.4
		c0,0.2,0.2,0.4,0.4,0.4h1.1v6.8c0,1.4,0.6,3.2,3.6,3.2l0,0c0,0,0,0,0,0c0,0,0,0,0,0c0,0,0,0,0,0c2.3-0.1,1.9-1.8,1.2-2.2h-1.5
		c-0.5-0.1-0.9-0.3-0.9-1.3v-6.4h1.1l0,0C84.7,38,84.3,36.3,83.6,35.9z"/>
</g>
<image style="overflow:visible;" width="850" height="567" xlink:href="../../../../../../Dropbox/harp.io/apps/chloi.harp.io/public/images/open/cordova.png"  transform="matrix(0.1431 0 0 0.1431 121 -81.33)">
</image>
<image style="overflow:visible;" width="850" height="567" xlink:href="../../../../../../Dropbox/harp.io/apps/chloi.harp.io/public/images/open/cordova.png"  transform="matrix(0.1431 0 0 0.1431 121 -81.33)">
</image>
<g>
	<g>
		<path d="M206.6,32.6c2.6,0,4,1.4,4.7,2.4c0.9,1.4,1.4,3.1,1.4,5.6c0,2.9-0.7,4.7-2.2,6.1c-1.1,1-2.3,1.4-3.8,1.4
			c-1.8,0-3.3-0.7-4.3-1.9c-1.2-1.4-1.8-3.4-1.8-5.9C200.6,35.5,202.9,32.6,206.6,32.6z M206.6,34c-1.4,0-2.6,0.7-3.2,1.8
			c-0.5,1-0.8,2.3-0.8,4.1c0,2.3,0.4,4.2,1,5.2c0.6,1,2,1.6,3.2,1.6c1.2,0,2.1-0.4,2.8-1.3c0.7-0.9,1.1-2.1,1.1-4.6
			c0-2.2-0.2-3.7-0.7-4.8C209.4,35,208.3,34,206.6,34z"/>
		<path d="M223.3,34l-0.8,1.3c-1.4-0.9-2.4-1.3-3.7-1.3c-1.9,0-3,0.9-3,2.5c0,1.2,0.7,1.9,2.5,2.4l1.7,0.5c1.3,0.4,2,0.8,2.6,1.5
			c0.6,0.7,1,1.7,1,2.6c0,1.4-0.7,2.8-2.1,3.6c-1,0.6-2,0.9-3.4,0.9c-1.8,0-3.3-0.4-4.8-1.4l0.8-1.4c1.2,0.9,2.5,1.3,4,1.3
			c1.1,0,1.7-0.2,2.4-0.7c0.7-0.5,1.1-1.3,1.1-2.1c0-1.3-0.9-2.3-2.7-2.8l-1.5-0.5c-1.4-0.4-2.1-0.7-2.7-1.3
			c-0.6-0.7-0.9-1.5-0.9-2.4c0-2.6,1.9-4.3,4.9-4.3C220.4,32.5,221.9,33,223.3,34z"/>
		<path d="M147.8,34.7h-5.3v4.2h4.3V41h-4.3v7.1h-2.6V32.6h8.2L147.8,34.7z"/>
		<path d="M149.2,33.4c0-0.9,0.7-1.7,1.6-1.7c0.9,0,1.6,0.7,1.6,1.7c0,0.9-0.7,1.6-1.7,1.6C149.9,35.1,149.2,34.3,149.2,33.4z"/>
		<polygon points="149.6,48.1 149.6,36.9 152,36.5 152,48.1 		"/>
		<path d="M159.7,38.9c-0.2-0.1-0.4-0.2-0.7-0.2c-1,0-1.9,0.8-2.1,1.7v7.7h-2.5v-8c0-1.4-0.2-2.4-0.4-3.1l2.3-0.6
			c0.3,0.5,0.4,1.2,0.4,1.8c0.9-1.2,1.8-1.8,2.9-1.8c0.4,0,0.6,0,0.9,0.2L159.7,38.9z"/>
		<path d="M162.9,43.1v0.2c0,1.6,0.6,3.2,2.8,3.2c1.1,0,2-0.4,2.8-1.1l1,1.5c-1.2,1-2.6,1.5-4.1,1.5c-3.2,0-5.2-2.3-5.2-6
			c0-2,0.4-3.3,1.4-4.5c0.9-1.1,2-1.5,3.5-1.5c1.1,0,2.2,0.3,3.1,1.2c1,0.9,1.5,2.3,1.5,5v0.5H162.9z M165.1,38.3
			c-1.4,0-2.2,1.1-2.2,2.9h4.2C167.1,39.4,166.3,38.3,165.1,38.3z"/>
		<path d="M176.7,33.8c-0.6-0.3-0.9-0.4-1.4-0.4c-0.9,0-1.4,0.6-1.4,1.6v1.7h3l-0.6,1.7H174v9.7h-2.5v-9.7h-1.1v-1.7h1.1
			c0,0-0.1-0.6-0.1-1.7c0-2.4,1.4-3.5,3.5-3.5c1,0,1.8,0.2,2.6,0.7L176.7,33.8z"/>
		<path d="M186.6,42.5c0,3.7-2,5.9-5,5.9c-3.1,0-5-2.3-5-6c0-3.6,2-6,5-6C184.8,36.5,186.6,38.9,186.6,42.5z M179.3,42.3
			c0,3.3,0.8,4.3,2.3,4.3c1.5,0,2.3-1.2,2.3-4c0-3.2-0.9-4.2-2.3-4.2C180,38.3,179.3,39.5,179.3,42.3z"/>
		<path d="M194,48.1c-0.4-0.7-2.3-3.8-2.5-4.3c-0.4,0.9-2.1,3.6-2.5,4.3H186l4.2-6.2l-3.3-4.9l2.7-0.5c0.5,0.9,1.5,2.6,2.1,3.7
			c0.3-0.7,1.5-3,1.8-3.5h2.9l-3.4,5.2l4.2,6.2H194z"/>
	</g>
</g>
<g>
</g>
<g>
</g>
<g>
</g>
<g>
</g>
<g>
</g>
<g>
</g>
<g>
</g>
<g>
</g>
<g>
</g>
<g>
</g>
<g>
</g>
<g>
</g>
<g>
</g>
<g>
</g>
<g>
</g>
</svg>
